<COLLADA xmlns="http://www.collada.org/2005/11/COLLADASchema" version="1.4.1">
  <asset>
    <contributor/>
    <created>2026-07-22T21:26:32.052725</created>
    <modified>2026-07-22T21:26:32.052730</modified>
    <unit name="meter" meter="1.0"/>
    <up_axis>Z_UP</up_axis>
  </asset>
  <library_effects>
    <effect id="effect_Arducam_cover_shape" name="effect_Arducam_cover_shape">
      <profile_COMMON>
        <technique sid="common">
          <phong>
            <emission>
              <color>0.0 0.0 0.0 1.0</color>
            </emission>
            <ambient>
              <color>0.0 0.0 0.0 1.0</color>
            </ambient>
            <diffuse>
              <color>0.800000011920929 0.800000011920929 0.9019607901573181 1.0</color>
            </diffuse>
            <specular>
              <color>1 1 1 1.0</color>
            </specular>
            <shininess>
              <float>0.0</float>
            </shininess>
            <reflective>
              <color>0.0 0.0 0.0 1.0</color>
            </reflective>
            <reflectivity>
              <float>0.0</float>
            </reflectivity>
            <transparent>
              <color>0.0 0.0 0.0 1.0</color>
            </transparent>
            <transparency>
              <float>1.0</float>
            </transparency>
          </phong>
        </technique>
        <extra>
          <technique profile="GOOGLEEARTH">
            <double_sided>0</double_sided>
          </technique>
        </extra>
      </profile_COMMON>
    </effect>
  </library_effects>
  <library_geometries>
    <geometry id="geometry0" name="Arducam_cover_shape">
      <mesh>
        <source id="cubeverts-array0">
          <float_array count="444" id="cubeverts-array0-array">0.018 1.270958 -0.1691451 0.018 1.26907 -0.175365 0.018 1.304449 -0.1793082 0.018 1.302562 -0.1855282 0.0173 1.270288 -0.1689418 0.0173 1.2684 -0.1751617 0.01739962 1.268407 -0.1751638 0.01739962 1.270294 -0.1689439 0.01749721 1.268427 -0.17517 0.01749721 1.270315 -0.16895 0.01759079 1.270348 -0.1689602 0.01759079 1.268461 -0.1751801 0.01767845 1.268506 -0.175194 0.01767845 1.270394 -0.1689741 0.0177584 1.270451 -0.1689915 0.0177584 1.268564 -0.1752114 0.01782903 1.268631 -0.1752319 0.01782903 1.270519 -0.169012 0.01788888 1.270595 -0.1690352 0.01788888 1.268708 -0.1752551 0.01793674 1.270679 -0.1690606 0.01793674 1.268792 -0.1752806 0.01797165 1.270769 -0.1690878 0.01797165 1.268881 -0.1753077 0.01799287 1.268975 -0.1753361 0.01799287 1.270862 -0.1691161 -0.0173 1.2684 -0.1751617 -0.0173 1.270288 -0.1689418 -0.01799287 1.270862 -0.1691161 -0.018 1.270958 -0.1691451 -0.018 1.26907 -0.175365 -0.01799287 1.268975 -0.1753361 -0.01797165 1.268881 -0.1753077 -0.01797165 1.270769 -0.1690878 -0.01793674 1.270679 -0.1690606 -0.01793674 1.268792 -0.1752806 -0.01788888 1.268708 -0.1752551 -0.01788888 1.270595 -0.1690352 -0.01782903 1.270519 -0.169012 -0.01782903 1.268631 -0.1752319 -0.0177584 1.270451 -0.1689915 -0.0177584 1.268564 -0.1752114 -0.01767845 1.270394 -0.1689741 -0.01767845 1.268506 -0.175194 -0.01759079 1.270348 -0.1689602 -0.01759079 1.268461 -0.1751801 -0.01749721 1.270315 -0.16895 -0.01749721 1.268427 -0.17517 -0.01739962 1.268407 -0.1751638 -0.01739962 1.270294 -0.1689439 -0.018 1.301605 -0.1852378 -0.018 1.282213 -0.1772632 -0.018 1.303492 -0.1790179 -0.018 1.28352 -0.172957 -0.018 1.279985 -0.1765872 -0.018 1.281292 -0.1722811 -0.0165981 1.304925 -0.1794525 -0.0165 1.304928 -0.1794534 -0.0165 1.30304 -0.1856734 -0.0165981 1.303037 -0.1856724 -0.01669579 1.304916 -0.1794497 -0.01669579 1.303028 -0.1856696 -0.01679263 1.3049 -0.1794451 -0.01679263 1.303013 -0.185665 -0.01688823 1.304879 -0.1794386 -0.01688823 1.302991 -0.1856585 -0.01698216 1.304852 -0.1794303 -0.01698216 1.302964 -0.1856502 -0.01707402 1.304819 -0.1794203 -0.01707402 1.302931 -0.1856402 -0.01716343 1.302892 -0.1856284 -0.01716343 1.30478 -0.1794085 -0.01725 1.304736 -0.1793951 -0.01725 1.302848 -0.185615 -0.01733335 1.304686 -0.17938 -0.01733335 1.302798 -0.1855999 -0.01741314 1.304631 -0.1793634 -0.01741314 1.302744 -0.1855833 -0.01748902 1.304572 -0.1793453 -0.01748902 1.302684 -0.1855653 -0.01756066 1.304507 -0.1793259 -0.01756066 1.30262 -0.1855458 -0.01762776 1.302551 -0.185525 -0.01762776 1.304439 -0.1793051 -0.01769003 1.302479 -0.1855029 -0.01769003 1.304366 -0.179283 -0.0177472 1.30429 -0.1792598 -0.0177472 1.302402 -0.1854798 -0.01779904 1.30421 -0.1792356 -0.01779904 1.302323 -0.1854556 -0.01784531 1.30224 -0.1854304 -0.01784531 1.304127 -0.1792105 -0.01788582 1.302154 -0.1854045 -0.01788582 1.304042 -0.1791845 -0.01792039 1.303954 -0.1791579 -0.01792039 1.302066 -0.1853778 -0.01794889 1.303864 -0.1791306 -0.01794889 1.301977 -0.1853505 -0.01797118 1.303772 -0.1791028 -0.01797118 1.301885 -0.1853228 -0.01798717 1.301792 -0.1852946 -0.01798717 1.30368 -0.1790747 -0.01799679 1.303586 -0.1790463 -0.01799679 1.301699 -0.1852663 0.0175 1.304928 -0.1794534 0.0175 1.30304 -0.1856734 0.01799039 1.304543 -0.1793366 0.01799039 1.302655 -0.1855565 0.01796194 1.304632 -0.1793638 0.01796194 1.302745 -0.1855837 0.01791574 1.304715 -0.1793889 0.01791574 1.302828 -0.1856088 0.01785355 1.304788 -0.1794109 0.01785355 1.3029 -0.1856308 0.01777778 1.304847 -0.179429 0.01777778 1.30296 -0.1856489 0.01769134 1.303004 -0.1856623 0.01769134 1.304891 -0.1794424 0.01759755 1.304919 -0.1794506 0.01759755 1.303031 -0.1856706 -0.01685355 1.303831 -0.1791205 -0.01691574 1.303758 -0.1790985 -0.01677778 1.30389 -0.1791386 -0.01669134 1.303935 -0.179152 -0.01696194 1.303676 -0.1790734 -0.01699039 1.303586 -0.1790462 -0.01659755 1.303962 -0.1791603 -0.0165 1.303971 -0.179163 -0.017 1.303492 -0.1790179 -0.017 1.28352 -0.172957 0.017 1.303971 -0.179163 -0.017 1.271245 -0.1692322 -0.017 1.281292 -0.1722811 0.017 1.271245 -0.1692322 0.017 1.302519 -0.1839476 0.017 1.269793 -0.1740168 -0.0165 1.302519 -0.1839476 -0.017 1.302041 -0.1838024 -0.01699039 1.302134 -0.1838307 -0.01696194 1.302224 -0.183858 -0.01691574 1.302306 -0.1838831 -0.01685355 1.302379 -0.1839051 -0.01677778 1.302438 -0.1839231 -0.01669134 1.302483 -0.1839366 -0.01659755 1.30251 -0.1839448 -0.017 1.282213 -0.1772632 -0.017 1.279985 -0.1765872 -0.017 1.269793 -0.1740168</float_array>
          <technique_common>
            <accessor count="148" source="#cubeverts-array0-array" stride="3">
              <param type="float" name="X"/>
              <param type="float" name="Y"/>
              <param type="float" name="Z"/>
            </accessor>
          </technique_common>
        </source>
        <source id="cubenormals-array0">
          <float_array count="876" id="cubenormals-array0-array">1 0 0 1 0 0 0.07152729 -0.9544612 0.2896335 0.2132085 -0.9349099 0.2836999 0.07148392 -0.9544644 0.2896338 0.2120917 -0.9351475 0.2837537 0.479061 -0.8399601 0.2548873 0.3488412 -0.8968009 0.2721357 0.349868 -0.8964395 0.2720085 0.4790606 -0.8399603 0.2548874 0.7067458 -0.6769882 0.2054199 0.5998847 -0.7656168 0.2323126 0.5991359 -0.7661493 0.2324893 0.7073303 -0.6764253 0.2052624 0.8006343 -0.5733373 0.1739806 0.8006498 -0.5733174 0.1739741 0.8776363 -0.4586739 0.1391857 0.8776362 -0.4586741 0.1391858 0.9771473 -0.2034045 0.06172358 0.9370142 -0.3342411 0.1014263 0.9370143 -0.334241 0.1014262 0.9771473 -0.2034045 0.06172358 0.997452 -0.06826712 0.02071582 0.997452 -0.06826711 0.02071582 0 -0.9569122 0.2903773 0 -0.9569122 0.2903773 -0.997452 -0.06826711 0.02071582 -0.9771473 -0.2034045 0.06172358 -0.997452 -0.06826712 0.02071582 -0.9771473 -0.2034045 0.06172358 -0.8776363 -0.4586739 0.1391857 -0.9370142 -0.3342411 0.1014263 -0.9370143 -0.334241 0.1014262 -0.8776362 -0.4586741 0.1391858 -0.8006341 -0.5733374 0.1739802 -0.8006498 -0.5733173 0.1739745 -0.7067458 -0.6769882 0.2054199 -0.7073303 -0.6764253 0.2052624 -0.5998846 -0.7656128 0.2323265 -0.5991359 -0.7661535 0.2324755 -0.479061 -0.8399601 0.2548873 -0.4790606 -0.8399603 0.2548873 -0.2132082 -0.9349151 0.2836832 -0.3488403 -0.8968061 0.2721197 -0.349868 -0.8964347 0.2720246 -0.0715286 -0.9544613 0.2896329 -0.2120918 -0.9351425 0.2837705 -0.07148392 -0.9544642 0.2896345 -1 0 0 -1 0 0 -1 0 0 -1 0 0 -1 0 0 -1 0 0 -0.0325498 0.9564052 -0.2902234 -0.03250477 0.9564067 -0.2902232 -0.09869628 0.9522403 -0.2889589 -0.09869633 0.9522403 -0.2889589 -0.1624895 0.9441953 -0.2865176 -0.1624889 0.9441954 -0.2865177 -0.2274188 0.9318382 -0.2827685 -0.227376 0.931848 -0.2827708 -0.2898838 0.9158242 -0.277909 -0.2898845 0.915824 -0.277909 -0.4131398 0.871429 -0.2644372 -0.3522078 0.895595 -0.2717704 -0.352209 0.8955945 -0.2717703 -0.4131404 0.8714287 -0.2644372 -0.4707119 0.8442714 -0.2561955 -0.4707465 0.8442535 -0.2561908 -0.5286676 0.8122547 -0.2464807 -0.5286349 0.8122744 -0.246486 -0.5823281 0.7779255 -0.2360634 -0.5823282 0.7779254 -0.2360633 -0.6342862 0.7397872 -0.2244902 -0.6342866 0.7397869 -0.2244901 -0.6836048 0.6984047 -0.2119326 -0.7300745 0.6539228 -0.1984344 -0.6836052 0.6984043 -0.2119325 -0.7300746 0.6539227 -0.1984344 -0.7726341 0.6074973 -0.1843465 -0.7726341 0.6074973 -0.1843465 -0.8130768 0.5570726 -0.169045 -0.8130617 0.557093 -0.1690508 -0.8490558 0.5055397 -0.1534069 -0.8820255 0.4508985 -0.1368262 -0.8490688 0.5055199 -0.1534012 -0.8820256 0.4508983 -0.1368262 -0.9108868 0.3948759 -0.119826 -0.9108943 0.3948601 -0.1198209 -0.9358823 0.3371325 -0.1023034 -0.935888 0.337118 -0.1022993 -0.9569086 0.2778768 -0.0843224 -0.956905 0.2778886 -0.08432575 -0.9866693 0.155727 -0.04725256 -0.9738545 0.2173854 -0.0659617 -0.9739158 0.2171325 -0.06588922 -0.9866378 0.155909 -0.04731083 -0.9951766 0.0938731 -0.02848595 -0.9951766 0.09387312 -0.02848595 -0.9994644 0.03131456 -0.009501839 -0.9994657 0.03127721 -0.00949112 0 0.9569122 -0.2903773 0 0.9569122 -0.2903773 0.9951886 0.09375723 -0.02844902 0.9951771 0.09386808 -0.0284845 0.9569103 0.2778718 -0.08432086 0.9569103 0.2778717 -0.08432084 0.8820238 0.4509017 -0.1368272 0.882024 0.4509012 -0.1368271 0.7730368 0.6070279 -0.1842041 0.7730365 0.6070282 -0.1842042 0.4712365 0.8440078 -0.2560996 0.6347764 0.7394062 -0.2243601 0.6340641 0.7399615 -0.2245431 0.4721279 0.8435471 -0.2559758 0.2902206 0.9157265 -0.2778794 0.2902624 0.9157146 -0.2778751 0.09765603 0.9523383 -0.2889894 0.09765564 0.9523385 -0.2889894 -0.002165173 -0.288179 -0.9575741 0.002897299 -0.2930207 -0.9561017 -0.0001890875 -0.2902291 -0.9569572 0.0001649358 -0.2905736 -0.9568526 0.001272784 -0.2920519 -0.9564016 0.003934711 -0.2919613 -0.956422 0.002138222 -0.2912514 -0.9566442 -0.002150507 -0.2893922 -0.9572082 0.001528793 -0.2911288 -0.9566826 -7.999465e-05 -0.2903064 -0.9569337 0.000526459 -0.2916849 -0.9565143 -0.0007111549 -0.2885379 -0.9574682 -0.0004350568 -0.2893174 -0.9572331 0.008736457 -0.291458 -0.9565437 -0.001160529 -0.2902225 -0.9569585 1.381949e-05 -0.2904003 -0.9569052 3.826714e-05 -0.290429 -0.9568965 7.396668e-05 -0.2907847 -0.9567885 0.0002026305 -0.2920341 -0.9564078 -0.0001778622 -0.286497 -0.9580811 -1.537636e-05 -0.2903571 -0.9569183 4.459382e-05 -0.2905714 -0.9568533 2.281519e-05 -0.2904094 -0.9569024 0.0001609577 -0.2901631 -0.9569772 -0.000395805 -0.2914496 -0.9565861 0.00100152 -0.2898896 -0.9570595 -0.0001374196 -0.2903875 -0.9569091 -0.0001490288 -0.2903917 -0.9569079 0.0003366511 -0.2896084 -0.9571452 6.530376e-06 -0.2903711 -0.9569142 0.0001212376 -0.2901658 -0.9569764 -0.0001246091 -0.2905178 -0.9568696 -0.0001782494 -0.2905803 -0.9568506 0 -0.2904097 -0.9569023 0.001361304 -0.2881773 -0.9575761 -0.0008975249 -0.291539 -0.9565586 0.0003734235 -0.2899147 -0.9570524 -0.00078936 -0.2929109 -0.9561394 -3.568261e-05 -0.2903761 -0.9569126 -1.16249e-05 -0.290353 -0.9569196 8.608667e-06 -0.2903176 -0.9569304 1.410467e-05 -0.2902934 -0.9569377 -5.522352e-06 -0.2903818 -0.9569108 5.307405e-07 -0.2903761 -0.9569127 1.733055e-05 -0.2903585 -0.9569179 -0 -0.2903754 -0.9569128 1.973378e-05 -0.2903829 -0.9569106 -0.0001150699 -0.2889457 -0.9573454 0.0001113427 -0.2904484 -0.9568906 0.0002416182 -0.2904092 -0.9569025 -0.0002163779 -0.2901699 -0.9569751 0.001194678 -0.2910373 -0.9567109 0.00239984 -0.2929766 -0.9561166 -0.0003641234 -0.2899267 -0.9570487 -0.0003796198 -0.2899068 -0.9570549 -0.0001602112 -0.2902336 -0.9569558 -0.0001359541 0.2902415 0.9569535 1.053748e-05 0.2903816 0.9569108 3.905089e-05 0.290404 0.9569041 -1.214237e-05 0.2903859 0.9569096 6.674711e-05 0.2904658 0.9568853 -5.364431e-05 0.2902934 0.9569377 0.000199261 0.2905883 0.9568481 9.233125e-05 0.2904381 0.9568937 5.468728e-05 0.2904086 0.9569028 -0.0002507552 0.2902132 0.9569619 0.0002741221 0.2905517 0.9568592 -0.0001422579 0.2903388 0.9569239 9.759499e-06 0.2903991 0.9569057 8.576376e-05 0.2904212 0.956899 -0.0002767087 0.2902 0.956966 1.822969e-05 0.2903881 0.9569089 2.501967e-05 0.2904038 0.9569042 -8.690586e-05 0.2902034 0.956965 -5.158574e-05 0.290254 0.9569497 1.023583e-05 0.2904387 0.9568936 -5.215496e-05 0.2901385 0.9569846 7.649081e-05 0.2905444 0.9568614 4.384028e-05 0.2904689 0.9568844 -0.0001231797 0.2903605 0.9569173 7.884183e-05 0.2903989 0.9569057 8.587888e-05 0.2904212 0.956899 -0.0002213048 0.2903506 0.9569203 0.0001944769 0.2903898 0.9569085 -1.203027e-05 0.2903904 0.9569083 -0 0.2900548 0.9570101 6.020559e-05 0.2906395 0.9568326 1.991282e-06 0.2903587 0.9569178 -0 0.2903765 0.9569125 -0 0.2903765 0.9569125 -0 0.2903898 0.9569084 -0 0.2903898 0.9569084 -0.0001809472 0.2899681 0.9570363 -0.0002930683 0.2897674 0.957097 0.001355978 0.2921277 0.9563784 2.002715e-05 0.2903712 0.9569141 -9.568682e-06 0.2904083 0.9569029 7.825311e-05 0.290275 0.9569433 3.006758e-05 0.2903652 0.9569159 2.256764e-05 0.290383 0.9569105 2.421176e-05 0.2903778 0.9569122 -0 0.2903755 0.9569128 9.636639e-05 0.2902913 0.9569383 -4.917573e-05 0.2904187 0.9568996 -0.0001354523 0.2902699 0.9569448 0.0003685532 0.2904161 0.9569004 -0.001355425 0.2900877 0.9569991 3.335746e-05 0.2903738 0.9569133 -3.273058e-05 0.2903106 0.9569324 -7.337495e-05 0.2904364 0.9568943 0.000152138 0.2903003 0.9569355 -0.0001372229 0.290442 0.9568925 0.0001357233 0.2903368 0.9569244 0 0.2903758 0.9569126 -2.492936e-05 0.2903754 0.9569128 3.170296e-05 0.290377 0.9569123 -0 0.2903759 0.9569127 -2.254933e-05 0.290383 0.9569105 -0.0001357233 0.2903368 0.9569244 -3.004991e-05 0.2903652 0.9569159 0.0001372229 0.290442 0.9568925 -7.820153e-05 0.2902751 0.9569432 -0.000152138 0.2903003 0.9569355 9.585558e-06 0.2904083 0.9569028 7.337495e-05 0.2904364 0.9568943 -2.001047e-05 0.2903711 0.9569141 4.917573e-05 0.2904187 0.9568996 -9.633318e-05 0.2902912 0.9569384 -1 0 0 -1 0 0 0 -0.9569114 0.2903797 0 -0.9569114 0.2903797 0.9951771 -0.09386859 0.02848251 0.995189 -0.09375241 0.02844974 0.9569103 -0.2778715 0.08432178 0.9570107 -0.2775568 0.08421922 0.882024 -0.4509008 0.1368286 0.7730365 -0.6070276 0.1842062 0.8817591 -0.4513782 0.1369619 0.7730365 -0.6070276 0.1842062 0.6340641 -0.739966 0.2245283 0.6347762 -0.7394016 0.2243759 0.4721279 -0.843546 0.2559792 0.4712014 -0.8440263 0.2561034 0.2902624 -0.9157134 0.2778789 0.2902624 -0.9157134 0.2778788 0.09761088 -0.9523419 0.2889931 0.09765565 -0.9523374 0.2889926 1 0 0 1 0 0 1 0 0 1 0 0 1 0 0 1 0 0 0 0.9569112 -0.2903805 0 0.9569112 -0.2903805 -0.0009896094 0.2911531 0.9566759 0.00225384 0.2894657 0.9571857 -0.0006745282 0.290627 0.9568362 0.0001705079 0.2901329 0.9569863 0.0001577488 0.2901944 0.9569677 0.0002110493 0.290005 0.9570251 -3.231124e-05 0.2904407 0.956893 -0 0.2903754 0.9569129 -0 0.2903759 0.9569126 1.789126e-05 0.2903926 0.9569076 0 0.2903727 0.9569136 0 0.2903727 0.9569136 0 -0.9569158 0.2903656 0 -0.9569158 0.2903656 0 0.9569158 -0.2903656 0 0.9569158 -0.2903656</float_array>
          <technique_common>
            <accessor count="292" source="#cubenormals-array0-array" stride="3">
              <param type="float" name="X"/>
              <param type="float" name="Y"/>
              <param type="float" name="Z"/>
            </accessor>
          </technique_common>
        </source>
        <vertices id="cubeverts-array0-vertices">
          <input semantic="POSITION" source="#cubeverts-array0"/>
        </vertices>
        <triangles count="292" material="ref_Arducam_cover_shape">
          <input offset="0" semantic="VERTEX" source="#cubeverts-array0-vertices"/>
          <input offset="1" semantic="NORMAL" source="#cubenormals-array0"/>
          <p>0 0 1 0 2 0 2 1 1 1 3 1 4 2 5 2 6 2 7 3 6 3 8 3 7 4 4 4 6 4 9 5 7 5 8 5 10 6 11 6 12 6 10 7 8 7 11 7 10 8 9 8 8 8 13 9 10 9 12 9 14 10 15 10 16 10 14 11 12 11 15 11 14 12 13 12 12 12 17 13 14 13 16 13 18 14 16 14 19 14 18 15 17 15 16 15 20 16 19 16 21 16 20 17 18 17 19 17 22 18 23 18 24 18 22 19 21 19 23 19 22 20 20 20 21 20 25 21 22 21 24 21 0 22 24 22 1 22 0 23 25 23 24 23 26 24 5 24 27 24 5 25 4 25 27 25 28 26 29 26 30 26 28 27 31 27 32 27 28 28 30 28 31 28 33 29 28 29 32 29 34 30 35 30 36 30 34 31 32 31 35 31 34 32 33 32 32 32 37 33 34 33 36 33 38 34 36 34 39 34 38 35 37 35 36 35 40 36 39 36 41 36 40 37 38 37 39 37 42 38 41 38 43 38 42 39 40 39 41 39 44 40 43 40 45 40 44 41 42 41 43 41 46 42 47 42 48 42 46 43 45 43 47 43 46 44 44 44 45 44 49 45 48 45 26 45 49 46 46 46 48 46 27 47 49 47 26 47 50 48 51 48 52 48 51 49 53 49 52 49 54 50 29 50 55 50 30 51 29 51 54 51 50 52 30 52 54 52 50 53 54 53 51 53 56 54 57 54 58 54 56 55 58 55 59 55 60 56 59 56 61 56 60 57 56 57 59 57 62 58 61 58 63 58 62 59 60 59 61 59 64 60 63 60 65 60 64 61 62 61 63 61 66 62 65 62 67 62 66 63 64 63 65 63 68 64 69 64 70 64 68 65 67 65 69 65 68 66 66 66 67 66 71 67 68 67 70 67 72 68 70 68 73 68 72 69 71 69 70 69 74 70 73 70 75 70 74 71 72 71 73 71 76 72 75 72 77 72 76 73 74 73 75 73 78 74 77 74 79 74 78 75 76 75 77 75 80 76 78 76 79 76 80 77 81 77 82 77 80 78 79 78 81 78 83 79 80 79 82 79 83 80 82 80 84 80 85 81 83 81 84 81 86 82 85 82 84 82 86 83 84 83 87 83 88 84 86 84 87 84 88 85 89 85 90 85 88 86 87 86 89 86 91 87 88 87 90 87 91 88 90 88 92 88 93 89 91 89 92 89 94 90 93 90 92 90 94 91 92 91 95 91 96 92 94 92 95 92 96 93 95 93 97 93 98 94 99 94 100 94 98 95 97 95 99 95 98 96 96 96 97 96 101 97 98 97 100 97 102 98 100 98 103 98 102 99 101 99 100 99 52 100 103 100 50 100 52 101 102 101 103 101 104 102 105 102 57 102 57 103 105 103 58 103 106 104 2 104 3 104 106 105 3 105 107 105 108 106 107 106 109 106 108 107 106 107 107 107 110 108 109 108 111 108 110 109 108 109 109 109 112 110 111 110 113 110 112 111 110 111 111 111 114 112 115 112 116 112 114 113 113 113 115 113 114 114 112 114 113 114 117 115 114 115 116 115 118 116 116 116 119 116 118 117 117 117 116 117 104 118 119 118 105 118 104 119 118 119 119 119 79 120 82 120 81 120 84 121 82 121 79 121 75 122 79 122 77 122 73 123 84 123 79 123 73 124 79 124 75 124 95 125 92 125 90 125 95 126 90 126 89 126 95 127 89 127 87 127 95 128 87 128 84 128 95 129 84 129 73 129 65 130 73 130 70 130 65 131 70 131 69 131 65 132 69 132 67 132 103 133 100 133 99 133 103 134 99 134 97 134 58 135 50 135 103 135 58 136 97 136 95 136 58 137 65 137 63 137 58 138 63 138 61 138 58 139 61 139 59 139 58 140 95 140 73 140 58 141 73 141 65 141 58 142 103 142 97 142 115 143 105 143 119 143 115 144 119 144 116 144 36 145 35 145 32 145 36 146 32 146 31 146 36 147 31 147 30 147 113 148 105 148 115 148 111 149 105 149 113 149 109 150 105 150 111 150 107 151 105 151 109 151 3 152 105 152 107 152 3 153 58 153 105 153 45 154 43 154 41 154 45 155 41 155 39 155 45 156 39 156 36 156 48 157 47 157 45 157 26 158 30 158 50 158 26 159 36 159 30 159 26 160 45 160 36 160 26 161 48 161 45 161 1 162 50 162 58 162 1 163 58 163 3 163 5 164 50 164 1 164 5 165 26 165 50 165 8 166 1 166 24 166 8 167 6 167 5 167 8 168 5 168 1 168 16 169 24 169 23 169 16 170 23 170 21 170 16 171 21 171 19 171 16 172 15 172 12 172 16 173 12 173 11 173 16 174 11 174 8 174 16 175 8 175 24 175 83 176 120 176 80 176 80 177 120 177 78 177 78 178 120 178 76 178 83 179 121 179 120 179 88 180 121 180 86 180 86 181 121 181 85 181 85 182 121 182 83 182 120 183 122 183 76 183 76 184 122 184 74 184 74 185 122 185 72 185 72 186 123 186 71 186 71 187 123 187 68 187 68 188 123 188 66 188 66 189 123 189 64 189 122 190 123 190 72 190 94 191 124 191 93 191 93 192 124 192 91 192 91 193 124 193 88 193 88 194 124 194 121 194 101 195 125 195 98 195 98 196 125 196 96 196 96 197 125 197 94 197 94 198 125 198 124 198 64 199 126 199 62 199 62 200 126 200 60 200 123 201 126 201 64 201 60 202 127 202 56 202 56 203 127 203 57 203 126 204 127 204 60 204 52 205 128 205 102 205 102 206 128 206 101 206 101 207 128 207 125 207 52 208 129 208 128 208 53 209 129 209 52 209 57 210 130 210 104 210 127 211 130 211 57 211 104 212 112 212 118 212 118 213 112 213 117 213 117 214 112 214 114 214 38 215 131 215 37 215 37 216 131 216 34 216 34 217 131 217 33 217 33 218 131 218 28 218 28 219 131 219 29 219 29 220 131 220 55 220 55 221 131 221 132 221 38 222 40 222 131 222 40 223 42 223 131 223 112 224 2 224 110 224 110 225 2 225 108 225 108 226 2 226 106 226 130 227 2 227 104 227 104 228 2 228 112 228 42 229 44 229 131 229 44 230 46 230 131 230 46 231 49 231 131 231 49 232 27 232 131 232 27 233 133 233 131 233 133 234 0 234 130 234 130 235 0 235 2 235 27 236 4 236 133 236 133 237 25 237 0 237 4 238 7 238 133 238 133 239 22 239 25 239 7 240 9 240 133 240 133 241 20 241 22 241 9 242 10 242 133 242 133 243 18 243 20 243 10 244 13 244 133 244 133 245 17 245 18 245 13 246 14 246 133 246 133 247 14 247 17 247 134 248 133 248 130 248 135 249 133 249 134 249 136 250 130 250 127 250 134 251 130 251 136 251 137 252 138 252 128 252 128 253 138 253 125 253 125 254 138 254 124 254 138 255 139 255 124 255 124 256 140 256 121 256 121 257 140 257 120 257 139 258 140 258 124 258 140 259 141 259 120 259 120 260 142 260 122 260 141 261 142 261 120 261 122 262 143 262 123 262 142 263 143 263 122 263 123 264 144 264 126 264 143 265 144 265 123 265 126 266 136 266 127 266 144 267 136 267 126 267 128 268 145 268 137 268 129 269 145 269 128 269 132 270 131 270 146 270 131 271 147 271 146 271 147 272 137 272 146 272 146 273 137 273 145 273 133 274 135 274 131 274 131 275 135 275 147 275 140 276 142 276 141 276 139 277 138 277 140 277 138 278 137 278 140 278 142 279 136 279 143 279 143 280 136 280 144 280 140 281 136 281 142 281 137 282 136 282 140 282 147 283 135 283 137 283 136 284 135 284 134 284 137 285 135 285 136 285 146 286 145 286 54 286 54 287 145 287 51 287 145 288 129 288 51 288 51 289 129 289 53 289 132 290 146 290 55 290 55 291 146 291 54 291</p>
        </triangles>
      </mesh>
    </geometry>
  </library_geometries>
  <library_materials>
    <material id="mat_Arducam_cover_shape" name="Arducam_cover_shape">
      <instance_effect url="#effect_Arducam_cover_shape"/>
    </material>
  </library_materials>
  <library_visual_scenes>
    <visual_scene id="myscene">
      <node id="node0" name="node0">
        <instance_geometry url="#geometry0">
          <bind_material>
            <technique_common>
              <instance_material symbol="ref_Arducam_cover_shape" target="#mat_Arducam_cover_shape"/>
            </technique_common>
          </bind_material>
        </instance_geometry>
      </node>
    </visual_scene>
  </library_visual_scenes>
  <scene>
    <instance_visual_scene url="#myscene"/>
  </scene>
</COLLADA>
