<COLLADA xmlns="http://www.collada.org/2005/11/COLLADASchema" version="1.4.1">
  <asset>
    <contributor/>
    <created>2026-07-22T21:26:32.169740</created>
    <modified>2026-07-22T21:26:32.169746</modified>
    <unit name="meter" meter="1.0"/>
    <up_axis>Z_UP</up_axis>
  </asset>
  <library_effects>
    <effect id="effect_Arducam_support_Lcover_shape" name="effect_Arducam_support_Lcover_shape">
      <profile_COMMON>
        <technique sid="common">
          <phong>
            <emission>
              <color>0.0 0.0 0.0 1.0</color>
            </emission>
            <ambient>
              <color>0.0 0.0 0.0 1.0</color>
            </ambient>
            <diffuse>
              <color>0.800000011920929 0.800000011920929 0.9019607901573181 1.0</color>
            </diffuse>
            <specular>
              <color>1 1 1 1.0</color>
            </specular>
            <shininess>
              <float>0.0</float>
            </shininess>
            <reflective>
              <color>0.0 0.0 0.0 1.0</color>
            </reflective>
            <reflectivity>
              <float>0.0</float>
            </reflectivity>
            <transparent>
              <color>0.0 0.0 0.0 1.0</color>
            </transparent>
            <transparency>
              <float>1.0</float>
            </transparency>
          </phong>
        </technique>
        <extra>
          <technique profile="GOOGLEEARTH">
            <double_sided>0</double_sided>
          </technique>
        </extra>
      </profile_COMMON>
    </effect>
  </library_effects>
  <library_geometries>
    <geometry id="geometry0" name="Arducam_support_Lcover_shape">
      <mesh>
        <source id="cubeverts-array0">
          <float_array count="432" id="cubeverts-array0-array">0.0369 1.281589 -0.1776987 0.0369 1.284019 -0.166618 0.0369 1.284973 -0.1669175 0.0369 1.280275 -0.1785442 0.0369 1.290026 -0.1803475 0.0369 1.293411 -0.1695662 0.0369 1.294365 -0.1698657 0.0369 1.290621 -0.1817919 0.06848492 1.291344 -0.1689173 0.06799114 1.290735 -0.1687264 0.06885667 1.290976 -0.168802 0.06762827 1.291067 -0.1688303 0.0680949 1.291693 -0.1690269 0.0683365 1.290388 -0.1686172 0.06920927 1.290592 -0.1686815 0.06724876 1.29138 -0.1689288 0.06768754 1.292024 -0.1691308 0.06866351 1.290024 -0.1685031 0.06954189 1.290193 -0.168556 0.06685353 1.291676 -0.1690215 0.06726379 1.292335 -0.1692287 0.06897137 1.289646 -0.1683843 0.06985374 1.289778 -0.1684258 0.06644354 1.291952 -0.1691083 0.06682466 1.292627 -0.1693202 0.06925933 1.289253 -0.1682611 0.07014407 1.289349 -0.1682912 0.06601978 1.292209 -0.169189 0.06637119 1.292898 -0.1694052 0.06952671 1.288848 -0.1681339 0.07041222 1.288907 -0.1681525 0.06558329 1.292446 -0.1692633 0.06590445 1.293147 -0.1694836 0.06977286 1.28843 -0.1680028 0.07065754 1.288454 -0.1680101 0.06513512 1.292662 -0.1693311 0.06542554 1.293375 -0.169555 0.06999716 1.288002 -0.1678683 0.07087945 1.287989 -0.1678643 0.06467635 1.292857 -0.1693922 0.06493561 1.29358 -0.1696194 0.0701991 1.287563 -0.1677306 0.07107742 1.287515 -0.1677154 0.0644358 1.293762 -0.1696765 0.06420809 1.293029 -0.1694465 0.07037817 1.287116 -0.1675901 0.07125099 1.287032 -0.1675639 0.0639273 1.293921 -0.1697264 0.06373149 1.29318 -0.1694938 0.07053393 1.28666 -0.1674471 0.07139976 1.286542 -0.1674099 0.06324769 1.293308 -0.169534 0.06341132 1.294056 -0.1697687 0.07066602 1.286198 -0.167302 0.07152335 1.286045 -0.167254 0.06275787 1.293413 -0.1695671 0.06288906 1.294167 -0.1698035 0.07077411 1.28573 -0.1671552 0.07162148 1.285543 -0.1670965 0.06236177 1.294253 -0.1698307 0.06226321 1.293496 -0.1695928 0.07085794 1.285258 -0.1670069 0.07169393 1.285038 -0.1669377 0.06183071 1.294315 -0.1698501 0.06176491 1.293554 -0.1696113 0.07091731 1.284782 -0.1668576 0.07174052 1.284529 -0.1667781 0.07176114 1.284019 -0.166618 0.06129711 1.294352 -0.1698618 0.06126419 1.29359 -0.1696224 0.06076225 1.294365 -0.1698657 0.06076225 1.293602 -0.1696261 0.0377 1.293602 -0.1696261 0.0377 1.293411 -0.1695662 0.0377 1.284973 -0.1669175 0.0377 1.284782 -0.1668576 0.0377 1.281398 -0.1776389 0.0377 1.281589 -0.1776987 0.0377 1.290217 -0.1804074 0.0377 1.290026 -0.1803475 0.07176114 1.280275 -0.1785442 0.06129711 1.290609 -0.181788 0.06076225 1.290621 -0.1817919 0.06183071 1.290571 -0.1817763 0.06236177 1.290509 -0.1817569 0.06288906 1.290423 -0.1817297 0.06341132 1.290312 -0.1816949 0.0639273 1.290177 -0.1816526 0.0644358 1.290018 -0.1816027 0.06493561 1.289836 -0.1815456 0.06542554 1.289631 -0.1814812 0.06590445 1.289404 -0.1814097 0.06637119 1.289154 -0.1813314 0.06682466 1.288883 -0.1812464 0.06726379 1.288592 -0.1811548 0.06768754 1.28828 -0.181057 0.0680949 1.287949 -0.1809531 0.06848492 1.2876 -0.1808434 0.06885667 1.287233 -0.1807282 0.06920927 1.286849 -0.1806077 0.06954189 1.286449 -0.1804821 0.06985374 1.286034 -0.1803519 0.07014407 1.285605 -0.1802173 0.07041222 1.285164 -0.1800787 0.07065754 1.28471 -0.1799363 0.07087945 1.284245 -0.1797905 0.07107742 1.283771 -0.1796416 0.07125099 1.283288 -0.17949 0.07139976 1.282798 -0.1793361 0.07152335 1.282301 -0.1791802 0.07162148 1.2818 -0.1790227 0.07169393 1.281294 -0.1788639 0.07174052 1.280785 -0.1787043 0.06076225 1.290217 -0.1804074 0.07091731 1.281398 -0.1776389 0.07085794 1.281874 -0.1777882 0.07077411 1.282346 -0.1779364 0.07066602 1.282814 -0.1780833 0.07053393 1.283276 -0.1782284 0.07037817 1.283731 -0.1783713 0.0701991 1.284179 -0.1785118 0.06999716 1.284617 -0.1786495 0.06977286 1.285046 -0.1787841 0.06952671 1.285464 -0.1789151 0.06925933 1.285869 -0.1790424 0.06897137 1.286261 -0.1791656 0.06866351 1.28664 -0.1792844 0.0683365 1.287003 -0.1793985 0.06799114 1.287351 -0.1795077 0.06762827 1.287682 -0.1796116 0.06724876 1.287996 -0.1797101 0.06685353 1.288291 -0.1798028 0.06644354 1.288568 -0.1798896 0.06601978 1.288825 -0.1799703 0.06558329 1.289061 -0.1800446 0.06513512 1.289277 -0.1801124 0.06467635 1.289472 -0.1801735 0.06420809 1.289645 -0.1802278 0.06373149 1.289796 -0.1802751 0.06324769 1.289924 -0.1803153 0.06275787 1.290029 -0.1803483 0.06226321 1.290111 -0.1803741 0.06176491 1.29017 -0.1803926 0.06126419 1.290205 -0.1804037</float_array>
          <technique_common>
            <accessor count="144" source="#cubeverts-array0-array" stride="3">
              <param type="float" name="X"/>
              <param type="float" name="Y"/>
              <param type="float" name="Z"/>
            </accessor>
          </technique_common>
        </source>
        <source id="cubenormals-array0">
          <float_array count="852" id="cubenormals-array0-array">-1 0 0 -1 0 0 -1 0 0 -1 0 0 -1 0 0 -1 0 0 1.12211e-05 0.2994771 0.9541035 -1.802557e-05 0.2994987 0.9540967 -3.066371e-05 0.2995343 0.9540855 2.857703e-05 0.2995251 0.9540884 -1.388991e-05 0.2995592 0.9540777 3.089795e-05 0.2994926 0.9540986 1.996266e-05 0.2995195 0.9540902 3.344507e-05 0.2995062 0.9540944 -1.016118e-05 0.2995443 0.9540824 1.851317e-08 0.2995319 0.9540863 1.294555e-05 0.2995037 0.9540951 2.093352e-05 0.2995041 0.954095 -7.372722e-06 0.299531 0.9540865 -1.821855e-05 0.2995213 0.9540895 1.761797e-06 0.2994824 0.9541018 -1.767149e-05 0.2995323 0.9540862 2.324732e-05 0.29949 0.9540994 -2.184768e-06 0.2994844 0.9541012 -1.304646e-05 0.2995034 0.9540952 -1.124455e-05 0.2994781 0.9541032 2.898383e-06 0.2994623 0.9541081 2.17021e-05 0.2994873 0.9541003 7.412623e-06 0.29951 0.9540932 -8.462162e-07 0.2995133 0.9540921 -1.152666e-05 0.2995263 0.954088 -9.002299e-06 0.2995168 0.954091 -1.58526e-05 0.2995267 0.954088 -5.798495e-06 0.2994858 0.9541007 -1.053174e-05 0.2994921 0.9540988 4.850045e-05 0.2995028 0.9540954 4.606131e-05 0.2995061 0.9540944 -5.154368e-06 0.2995275 0.9540876 4.191818e-07 0.2995194 0.9540902 -3.238666e-05 0.2995418 0.9540831 -2.078869e-05 0.2995279 0.9540876 4.299228e-07 0.2995197 0.9540901 -2.271105e-06 0.2995239 0.9540887 2.842546e-05 0.2994851 0.954101 -1.986776e-05 0.2995383 0.9540843 -6.757028e-06 0.2994812 0.9541022 -1.776487e-05 0.2995005 0.9540961 2.146052e-05 0.2994868 0.9541004 -2.08447e-05 0.2995295 0.9540871 3.616027e-06 0.2994638 0.9541076 -1.720246e-05 0.2995043 0.9540949 -3.058827e-05 0.2995314 0.9540865 6.081304e-06 0.2994975 0.954097 1.57144e-05 0.2995256 0.9540882 2.385615e-05 0.299508 0.9540938 1.494701e-05 0.2995071 0.9540941 3.088892e-05 0.2994936 0.9540983 1.119994e-05 0.2994558 0.9541102 -1.458124e-05 0.2995186 0.9540905 -1.743692e-05 0.2995314 0.9540864 1.368482e-05 0.2995072 0.9540941 -3.392421e-06 0.2995571 0.9540783 2.568509e-05 0.2994766 0.9541036 5.078147e-05 0.2995508 0.9540803 2.494644e-05 0.2994911 0.9540991 -3.357257e-05 0.2995326 0.9540861 4.083049e-06 0.2994998 0.9540964 1.699154e-05 0.2994914 0.954099 0 0.2994997 0.9540964 0 0.2994998 0.9540964 1.277764e-05 0.2995119 0.9540926 0 0.2995607 0.9540772 0 0.2994913 0.954099 -0 0.2994998 0.9540964 1.778819e-06 0.2994981 0.9540969 0 0.2994997 0.9540964 1 -0 0 1 0 0 1 0 0 1 -0 0 0 -0.9540927 0.2995113 0 -0.9540927 0.2995113 0.02439067 0.953809 -0.2994221 0.02439079 0.953809 -0.2994222 0.07292859 0.951555 -0.2987048 0.07271231 0.9515672 -0.2987185 0.1212506 0.9470534 -0.2973014 0.1214652 0.9470311 -0.2972847 0.1695406 0.9402833 -0.2951665 0.2171354 0.9313322 -0.2923567 0.169329 0.9403152 -0.2951862 0.217135 0.9313324 -0.2923567 0.2642645 0.920175 -0.2888637 0.2644669 0.9201247 -0.2888385 0.3110914 0.9067534 -0.2846411 0.3108949 0.906812 -0.2846688 0.3565954 0.8913696 -0.2798211 0.3567856 0.891303 -0.279791 0.4017636 0.8737042 -0.2742755 0.4019457 0.8736305 -0.2742434 0.4457754 0.8540538 -0.268098 0.4457754 0.8540537 -0.268098 0.4889739 0.8322561 -0.2612554 0.4888086 0.832342 -0.2612909 0.5306522 0.8086793 -0.2538627 0.5306522 0.8086793 -0.2538627 0.5711401 0.7831696 -0.2458546 0.5712867 0.7830745 -0.2458168 0.6105033 0.7556568 -0.23721 0.6105036 0.7556566 -0.2372099 0.6482937 0.7264392 -0.2280382 0.6482936 0.7264393 -0.2280383 0.684597 0.695461 -0.2183138 0.6844811 0.6955628 -0.2183529 0.7192418 0.6628654 -0.2080884 0.7191366 0.6629711 -0.2081148 0.7520987 0.6287971 -0.1973872 0.7520987 0.6287971 -0.1973871 0.7833168 0.5930874 -0.1861774 0.7832327 0.5931867 -0.1862147 0.8124948 0.556206 -0.1746056 0.8125687 0.5561093 -0.1745696 0.839924 0.51779 -0.162546 0.839988 0.5176971 -0.1625115 0.8653569 0.4781507 -0.1500974 0.8653023 0.4782393 -0.1501301 0.8886772 0.4374833 -0.1373359 0.888723 0.4374 -0.1373053 0.9099256 0.3957305 -0.1242287 0.9099256 0.3957306 -0.1242288 0.9290236 0.3530349 -0.110822 0.9289938 0.3531053 -0.1108477 0.9459023 0.309557 -0.09717694 0.9459252 0.3094941 -0.09715401 0.960569 0.2652778 -0.0832767 0.9729587 0.2203753 -0.06918078 0.9605689 0.2652779 -0.08327672 0.9729471 0.2204227 -0.0691934 0.9830355 0.1749958 -0.05493335 0.9907885 0.1292017 -0.040558 0.9830355 0.1749958 -0.05493334 0.9907885 0.1292016 -0.04055798 0.996201 0.08308516 -0.02608146 0.9962011 0.08308516 -0.02608146 0.9992573 0.03676631 -0.01154177 0.9992576 0.03675842 -0.01153892 0 0.9540927 -0.2995113 0 0.9540927 -0.2995113 0.0006552682 -0.2989537 -0.9542674 -8.082443e-05 -0.2995878 -0.9540687 -0.001395662 -0.300525 -0.9537729 -0.001107762 -0.3001481 -0.9538919 0.0001399354 -0.2994197 -0.9541215 0.0009027668 -0.2978267 -0.9546195 -0.000519064 -0.2997139 -0.954029 -0.001393255 -0.3001188 -0.9539009 0.0005318017 -0.2992817 -0.9541647 -5.415055e-05 -0.2995204 -0.9540899 -0.0001969945 -0.2995746 -0.9540728 0.0001430773 -0.2988577 -0.9542977 -0.000220114 -0.3002537 -0.9538593 7.604123e-06 -0.2995024 -0.9540955 6.431257e-05 -0.2994528 -0.9541111 -3.551415e-05 -0.2995294 -0.9540871 4.099917e-05 -0.2994795 -0.9541028 1.701822e-05 -0.299498 -0.9540969 0.0001033902 -0.2994526 -0.9541112 -5.847437e-05 -0.2995296 -0.954087 0.000587086 -0.2994438 -0.9541138 -0.0001990518 -0.299491 -0.9540991 -1.628811e-05 -0.2995116 -0.9540926 4.797188e-05 -0.2994865 -0.9541005 -4.093027e-05 -0.2995296 -0.954087 2.34564e-05 -0.2994952 -0.9540978 -6.012401e-06 -0.2995088 -0.9540935 4.935008e-05 -0.2994887 -0.9540999 -2.771627e-05 -0.3004238 -0.9538059 6.33841e-05 -0.2986362 -0.954367 -3.522438e-06 -0.2995095 -0.9540934 0 -0.2995061 -0.9540944 0 -0.2995061 -0.9540944 0 -0.9540949 0.2995045 0 -0.9540949 0.2995045 -0.9929814 -0.1128412 0.0354238 -0.9929847 -0.1128156 0.03541448 -0.9859613 -0.1593084 0.05001108 -0.9859678 -0.1592725 0.049998 -0.9765586 -0.2053708 0.06446896 -0.964774 -0.2510035 0.07879373 -0.9765478 -0.2054167 0.06448568 -0.9506695 -0.2959656 0.09290798 -0.9647739 -0.2510035 0.07879373 -0.9506695 -0.2959656 0.09290798 -0.9342315 -0.3402943 0.1068234 -0.9342315 -0.3402943 0.1068234 -0.9155596 -0.3837199 0.1204556 -0.9155611 -0.3837168 0.1204544 -0.894668 -0.4262243 0.1337981 -0.8946663 -0.4262277 0.1337994 -0.8715628 -0.4677773 0.1468422 -0.8464385 -0.5080426 0.1594822 -0.8715628 -0.4677774 0.1468423 -0.8464385 -0.5080426 0.1594821 -0.8191279 -0.5472776 0.1718047 -0.8192042 -0.5471753 0.1717665 -0.7899581 -0.5850117 0.1836505 -0.758842 -0.6213759 0.1950662 -0.7899581 -0.5850118 0.1836505 -0.758842 -0.6213759 0.1950662 -0.7259163 -0.6562103 0.2059942 -0.6911027 -0.6895783 0.2164689 -0.7258065 -0.6563186 0.2060356 -0.6548193 -0.721091 0.2263612 -0.6911027 -0.6895784 0.2164689 -0.6548193 -0.721091 0.2263612 -0.6167026 -0.7510598 0.2357688 -0.6167026 -0.7510599 0.2357689 -0.5772049 -0.7791132 0.2445752 -0.5772049 -0.7791132 0.2445752 -0.5363859 -0.8052303 0.2527738 -0.5363858 -0.8052303 0.2527738 -0.4941334 -0.8294742 0.2603936 -0.4943087 -0.8293818 0.2603553 -0.450976 -0.851564 0.2673186 -0.4062188 -0.8718289 0.27368 -0.4507913 -0.8516504 0.2673554 -0.4064125 -0.8717439 0.2736632 -0.361045 -0.8897397 0.2793025 -0.3608433 -0.8898112 0.2793351 -0.3144686 -0.9056916 0.28431 -0.2675479 -0.919313 0.288586 -0.3144686 -0.9056916 0.28431 -0.2675479 -0.919313 0.288586 -0.2196696 -0.9307905 0.292189 -0.2196696 -0.9307905 0.292189 -0.1714827 -0.939962 0.295068 -0.1714827 -0.939962 0.295068 -0.1225901 -0.9468955 0.2972553 -0.07388621 -0.9514839 0.2986957 -0.1228186 -0.9468715 0.2972371 -0.02471204 -0.9538034 0.2994131 -0.07365552 -0.9515033 0.298691 -0.02471204 -0.9538034 0.2994131 0 0.9540917 -0.2995144 0 0.9540917 -0.2995144 0.001503701 0.2997669 0.9540113 9.698168e-05 0.2995339 0.9540857 -0.0006838384 0.2992702 0.9541681 -0.000246786 0.2993958 0.954129 0.0002368753 0.2996409 0.954052 -5.972138e-05 0.2994853 0.9541009 0.000315273 0.2997705 0.9540114 -7.088925e-05 0.2994208 0.9541212 -0.0001314862 0.2993573 0.9541411 0.0001412014 0.2996579 0.9540467 -0.0006284534 0.2987661 0.9543262 0.0003843827 0.3000646 0.9539188 0.0001264352 0.2996369 0.9540533 -6.213671e-05 0.2994294 0.9541184 -0.0007366654 0.2979885 0.9545692 -3.416292e-05 0.2994647 0.9541073 0.0003137899 0.3001181 0.953902 6.144541e-06 0.2995111 0.9540927 2.331765e-05 0.2995343 0.9540856 0.0001832723 0.299838 0.9539901 0.0003279182 0.3005397 0.9537693 -0.0001357493 0.2990859 0.9542261 -0.0002872336 0.2977494 0.954644 -1.35116e-05 0.2995061 0.9540944 -1.878324e-05 0.2994857 0.9541007 -2.010879e-05 0.2994841 0.9541013 -6.027443e-06 0.2995005 0.9540962 6.237565e-05 0.2998276 0.9539934 1.779545e-05 0.2995221 0.9540895 -0 0.2995034 0.9540952 7.833951e-05 0.2993169 0.9541537 -1.126918e-06 0.2995103 0.954093 -0 0.2993864 0.954132 -0 0.2995103 0.9540931 0 0.2995103 0.9540931 0 0.9540948 -0.2995045 0 0.9540948 -0.2995045 0 -0.9540917 0.2995144 0 -0.9540917 0.2995144</float_array>
          <technique_common>
            <accessor count="284" source="#cubenormals-array0-array" stride="3">
              <param type="float" name="X"/>
              <param type="float" name="Y"/>
              <param type="float" name="Z"/>
            </accessor>
          </technique_common>
        </source>
        <vertices id="cubeverts-array0-vertices">
          <input semantic="POSITION" source="#cubeverts-array0"/>
        </vertices>
        <triangles count="284" material="ref_Arducam_support_Lcover_shape">
          <input offset="0" semantic="VERTEX" source="#cubeverts-array0-vertices"/>
          <input offset="1" semantic="NORMAL" source="#cubenormals-array0"/>
          <p>0 0 1 0 2 0 3 1 1 1 0 1 4 2 5 2 6 2 7 3 0 3 4 3 7 4 4 4 6 4 7 5 3 5 0 5 8 6 9 6 10 6 8 7 11 7 9 7 12 8 11 8 8 8 10 9 13 9 14 9 9 10 13 10 10 10 12 11 15 11 11 11 16 12 15 12 12 12 13 13 17 13 14 13 14 14 17 14 18 14 16 15 19 15 15 15 20 16 19 16 16 16 18 17 21 17 22 17 17 18 21 18 18 18 20 19 23 19 19 19 24 20 23 20 20 20 22 21 25 21 26 21 21 22 25 22 22 22 24 23 27 23 23 23 28 24 27 24 24 24 25 25 29 25 26 25 26 26 29 26 30 26 28 27 31 27 27 27 32 28 31 28 28 28 29 29 33 29 30 29 30 30 33 30 34 30 32 31 35 31 31 31 36 32 35 32 32 32 34 33 37 33 38 33 33 34 37 34 34 34 36 35 39 35 35 35 40 36 39 36 36 36 37 37 41 37 38 37 38 38 41 38 42 38 43 39 44 39 40 39 40 40 44 40 39 40 41 41 45 41 42 41 42 42 45 42 46 42 47 43 48 43 43 43 43 44 48 44 44 44 45 45 49 45 46 45 46 46 49 46 50 46 47 47 51 47 48 47 52 48 51 48 47 48 50 49 53 49 54 49 49 50 53 50 50 50 52 51 55 51 51 51 56 52 55 52 52 52 53 53 57 53 54 53 54 54 57 54 58 54 59 55 60 55 56 55 56 56 60 56 55 56 57 57 61 57 58 57 58 58 61 58 62 58 63 59 64 59 59 59 59 60 64 60 60 60 61 61 65 61 62 61 62 62 65 62 66 62 66 63 65 63 67 63 68 64 69 64 63 64 63 65 69 65 64 65 70 66 71 66 68 66 68 67 71 67 69 67 70 68 72 68 71 68 70 69 6 69 72 69 6 70 5 70 72 70 72 71 5 71 73 71 74 72 2 72 75 72 75 73 1 73 65 73 2 74 1 74 75 74 65 75 1 75 67 75 76 76 77 76 75 76 75 77 77 77 74 77 73 78 78 78 72 78 79 79 78 79 73 79 1 80 80 80 67 80 3 81 80 81 1 81 81 82 82 82 70 82 81 83 70 83 68 83 83 84 68 84 63 84 83 85 81 85 68 85 84 86 63 86 59 86 84 87 83 87 63 87 85 88 59 88 56 88 85 89 56 89 52 89 85 90 84 90 59 90 86 91 85 91 52 91 87 92 52 92 47 92 87 93 86 93 52 93 88 94 47 94 43 94 88 95 87 95 47 95 89 96 43 96 40 96 89 97 88 97 43 97 90 98 89 98 40 98 90 99 40 99 36 99 90 100 36 100 32 100 91 101 90 101 32 101 92 102 91 102 32 102 92 103 32 103 28 103 93 104 92 104 28 104 93 105 28 105 24 105 94 106 93 106 24 106 94 107 24 107 20 107 95 108 94 108 20 108 95 109 20 109 16 109 96 110 95 110 16 110 96 111 16 111 12 111 97 112 96 112 12 112 97 113 12 113 8 113 97 114 8 114 10 114 98 115 97 115 10 115 99 116 98 116 10 116 99 117 10 117 14 117 100 118 99 118 14 118 100 119 14 119 18 119 101 120 100 120 18 120 101 121 18 121 22 121 102 122 22 122 26 122 102 123 101 123 22 123 103 124 26 124 30 124 103 125 102 125 26 125 104 126 30 126 34 126 104 127 103 127 30 127 105 128 34 128 38 128 105 129 104 129 34 129 106 130 38 130 42 130 106 131 105 131 38 131 107 132 42 132 46 132 107 133 106 133 42 133 108 134 46 134 50 134 108 135 50 135 54 135 108 136 107 136 46 136 109 137 108 137 54 137 110 138 54 138 58 138 110 139 58 139 62 139 110 140 109 140 54 140 111 141 110 141 62 141 112 142 62 142 66 142 112 143 111 143 62 143 80 144 66 144 67 144 80 145 112 145 66 145 82 146 7 146 6 146 82 147 6 147 70 147 99 148 97 148 98 148 94 149 95 149 96 149 101 150 99 150 100 150 103 151 101 151 102 151 103 152 99 152 101 152 90 153 91 153 92 153 105 154 103 154 104 154 106 155 103 155 105 155 107 156 103 156 106 156 108 157 103 157 107 157 109 158 103 158 108 158 85 159 86 159 87 159 85 160 87 160 88 160 110 161 103 161 109 161 80 162 84 162 85 162 80 163 88 163 89 163 80 164 89 164 90 164 80 165 92 165 93 165 80 166 93 166 94 166 80 167 96 167 97 167 80 168 110 168 111 168 80 169 111 169 112 169 80 170 94 170 96 170 80 171 97 171 99 171 80 172 90 172 92 172 80 173 99 173 103 173 80 174 85 174 88 174 80 175 103 175 110 175 82 176 81 176 83 176 82 177 83 177 84 177 82 178 84 178 80 178 3 179 7 179 82 179 3 180 82 180 80 180 78 181 71 181 72 181 78 182 113 182 71 182 65 183 61 183 114 183 114 184 61 184 115 184 115 185 57 185 116 185 61 186 57 186 115 186 116 187 53 187 117 187 117 188 53 188 118 188 57 189 53 189 116 189 118 190 49 190 119 190 53 191 49 191 118 191 49 192 45 192 119 192 119 193 41 193 120 193 45 194 41 194 119 194 120 195 37 195 121 195 41 196 37 196 120 196 121 197 33 197 122 197 37 198 33 198 121 198 122 199 29 199 123 199 123 200 29 200 124 200 33 201 29 201 122 201 29 202 25 202 124 202 124 203 21 203 125 203 25 204 21 204 124 204 125 205 17 205 126 205 126 206 17 206 127 206 21 207 17 207 125 207 17 208 13 208 127 208 127 209 9 209 128 209 128 210 9 210 129 210 13 211 9 211 127 211 129 212 11 212 130 212 9 213 11 213 129 213 11 214 15 214 130 214 130 215 19 215 131 215 15 216 19 216 130 216 131 217 23 217 132 217 19 218 23 218 131 218 132 219 27 219 133 219 23 220 27 220 132 220 133 221 31 221 134 221 27 222 31 222 133 222 134 223 35 223 135 223 135 224 35 224 136 224 31 225 35 225 134 225 35 226 39 226 136 226 136 227 44 227 137 227 39 228 44 228 136 228 137 229 48 229 138 229 138 230 48 230 139 230 44 231 48 231 137 231 48 232 51 232 139 232 139 233 55 233 140 233 51 234 55 234 139 234 140 235 60 235 141 235 55 236 60 236 140 236 141 237 64 237 142 237 142 238 64 238 143 238 60 239 64 239 141 239 143 240 69 240 113 240 64 241 69 241 143 241 69 242 71 242 113 242 114 243 75 243 65 243 114 244 76 244 75 244 117 245 115 245 116 245 120 246 117 246 118 246 120 247 118 247 119 247 123 248 120 248 121 248 123 249 121 249 122 249 123 250 117 250 120 250 126 251 124 251 125 251 131 252 126 252 127 252 131 253 127 253 128 253 131 254 128 254 129 254 131 255 129 255 130 255 133 256 131 256 132 256 133 257 124 257 126 257 133 258 126 258 131 258 136 259 134 259 135 259 137 260 123 260 124 260 137 261 133 261 134 261 137 262 117 262 123 262 137 263 124 263 133 263 137 264 134 264 136 264 139 265 137 265 138 265 140 266 137 266 139 266 142 267 140 267 141 267 142 268 137 268 140 268 143 269 114 269 115 269 143 270 115 270 117 270 143 271 117 271 137 271 143 272 137 272 142 272 113 273 114 273 143 273 76 274 114 274 113 274 77 275 76 275 113 275 79 276 77 276 113 276 78 277 79 277 113 277 4 278 77 278 79 278 4 279 0 279 77 279 77 280 2 280 74 280 77 281 0 281 2 281 5 282 4 282 79 282 5 283 79 283 73 283</p>
        </triangles>
      </mesh>
    </geometry>
  </library_geometries>
  <library_materials>
    <material id="mat_Arducam_support_Lcover_shape" name="Arducam_support_Lcover_shape">
      <instance_effect url="#effect_Arducam_support_Lcover_shape"/>
    </material>
  </library_materials>
  <library_visual_scenes>
    <visual_scene id="myscene">
      <node id="node0" name="node0">
        <instance_geometry url="#geometry0">
          <bind_material>
            <technique_common>
              <instance_material symbol="ref_Arducam_support_Lcover_shape" target="#mat_Arducam_support_Lcover_shape"/>
            </technique_common>
          </bind_material>
        </instance_geometry>
      </node>
    </visual_scene>
  </library_visual_scenes>
  <scene>
    <instance_visual_scene url="#myscene"/>
  </scene>
</COLLADA>
