<COLLADA xmlns="http://www.collada.org/2005/11/COLLADASchema" version="1.4.1">
  <asset>
    <contributor/>
    <created>2026-07-22T21:26:32.183762</created>
    <modified>2026-07-22T21:26:32.183768</modified>
    <unit name="meter" meter="1.0"/>
    <up_axis>Z_UP</up_axis>
  </asset>
  <library_effects>
    <effect id="effect_Arducam_support_Rcover_shape" name="effect_Arducam_support_Rcover_shape">
      <profile_COMMON>
        <technique sid="common">
          <phong>
            <emission>
              <color>0.0 0.0 0.0 1.0</color>
            </emission>
            <ambient>
              <color>0.0 0.0 0.0 1.0</color>
            </ambient>
            <diffuse>
              <color>0.800000011920929 0.800000011920929 0.9019607901573181 1.0</color>
            </diffuse>
            <specular>
              <color>1 1 1 1.0</color>
            </specular>
            <shininess>
              <float>0.0</float>
            </shininess>
            <reflective>
              <color>0.0 0.0 0.0 1.0</color>
            </reflective>
            <reflectivity>
              <float>0.0</float>
            </reflectivity>
            <transparent>
              <color>0.0 0.0 0.0 1.0</color>
            </transparent>
            <transparency>
              <float>1.0</float>
            </transparency>
          </phong>
        </technique>
        <extra>
          <technique profile="GOOGLEEARTH">
            <double_sided>0</double_sided>
          </technique>
        </extra>
      </profile_COMMON>
    </effect>
  </library_effects>
  <library_geometries>
    <geometry id="geometry0" name="Arducam_support_Rcover_shape">
      <mesh>
        <source id="cubeverts-array0">
          <float_array count="2052" id="cubeverts-array0-array">-0.0963 1.174946 -0.1830113 -0.0877 1.174946 -0.1830113 -0.0877 1.175391 -0.1815786 -0.0963 1.175391 -0.1815786 -0.09671707 1.175394 -0.1815688 -0.09728017 1.174961 -0.1829653 -0.09679068 1.17495 -0.1829998 -0.09713315 1.175403 -0.1815395 -0.09754721 1.175418 -0.1814907 -0.0982509 1.175003 -0.1828278 -0.0977673 1.174979 -0.1829079 -0.09795827 1.175439 -0.1814226 -0.0987298 1.175035 -0.1827251 -0.09836533 1.175466 -0.1813353 -0.09876742 1.175499 -0.181229 -0.0996689 1.17512 -0.182453 -0.09920285 1.175074 -0.1826 -0.09916357 1.175538 -0.181104 -0.09955281 1.175582 -0.1809606 -0.1001268 1.175172 -0.1822842 -0.09993422 1.175632 -0.1807991 -0.101014 1.175296 -0.1818835 -0.1005756 1.175231 -0.1820943 -0.1003069 1.175688 -0.1806199 -0.1006699 1.175749 -0.1804235 -0.101441 1.175368 -0.1816524 -0.1010223 1.175815 -0.1802103 -0.1018557 1.175446 -0.1814016 -0.1013634 1.175886 -0.1799809 -0.102257 1.175529 -0.1811317 -0.1016923 1.175962 -0.1797357 -0.1026439 1.175619 -0.1808432 -0.1030156 1.175714 -0.180537 -0.1020082 1.176043 -0.1794754 -0.1033711 1.175814 -0.1802138 -0.1023104 1.176128 -0.1792007 -0.1025981 1.176218 -0.1789121 -0.1037095 1.175919 -0.1798742 -0.1028706 1.176311 -0.1786104 -0.1040301 1.176029 -0.1795192 -0.1043321 1.176144 -0.1791497 -0.1031273 1.176408 -0.1782962 -0.1033675 1.176509 -0.1779704 -0.1046147 1.176263 -0.1787664 -0.1035907 1.176614 -0.1776337 -0.1048773 1.176385 -0.1783703 -0.1051192 1.176512 -0.1779624 -0.1037963 1.176721 -0.177287 -0.1053399 1.176642 -0.1775437 -0.1039839 1.176832 -0.1769311 -0.1055388 1.176775 -0.1771151 -0.104153 1.176945 -0.1765668 -0.1057154 1.17691 -0.1766777 -0.1043031 1.17706 -0.176195 -0.1058694 1.177048 -0.1762325 -0.104434 1.177177 -0.1758166 -0.1045453 1.177296 -0.1754326 -0.1060003 1.177188 -0.1757807 -0.1061078 1.17733 -0.1753233 -0.1046367 1.177417 -0.1750438 -0.1061918 1.177474 -0.1748614 -0.104708 1.177539 -0.1746512 -0.1062518 1.177618 -0.1743961 -0.1047591 1.177661 -0.1742557 -0.106288 1.177763 -0.1739286 -0.1047898 1.177785 -0.1738583 -0.1063 1.177908 -0.1734599 -0.1048 1.177908 -0.1734599 -0.1063 1.185105 -0.15025 -0.1048 1.185105 -0.15025 -0.0967 1.201371 -0.1416832 -0.0967 1.275108 -0.1645465 -0.0982 1.201371 -0.1416832 -0.0982 1.275108 -0.1645465 -0.0373 1.286092 -0.1679523 -0.0867 1.286092 -0.1679523 -0.0373 1.28466 -0.1675081 -0.0867 1.28466 -0.1675081 -0.08719067 1.284648 -0.1675045 -0.08726427 1.286079 -0.1679482 -0.09668796 1.275577 -0.1646918 -0.09818615 1.275647 -0.1647136 -0.08768017 1.284614 -0.1674938 -0.08782719 1.286039 -0.1679359 -0.0881673 1.284556 -0.167476 -0.09665185 1.276044 -0.1648368 -0.09814462 1.276185 -0.1648803 -0.09807553 1.27672 -0.1650462 -0.09659177 1.27651 -0.1649811 -0.0883874 1.285973 -0.1679155 -0.0886509 1.284476 -0.1674512 -0.09650785 1.276972 -0.1651243 -0.09797903 1.277251 -0.165211 -0.09640031 1.277429 -0.1652661 -0.08894354 1.285881 -0.1678869 -0.09785536 1.277777 -0.1653741 -0.0962694 1.277881 -0.1654062 -0.08949427 1.285763 -0.1678503 -0.0891298 1.284373 -0.1674193 -0.09003828 1.285619 -0.1678057 -0.08960284 1.284248 -0.1673806 -0.0900689 1.284101 -0.167335 -0.09770481 1.278297 -0.1655352 -0.09611544 1.278326 -0.1655442 -0.09752776 1.278809 -0.1656939 -0.0959388 1.278763 -0.1656799 -0.09057423 1.28545 -0.1677532 -0.09732462 1.279312 -0.1658499 -0.09573989 1.279192 -0.1658127 -0.09110086 1.285256 -0.1676931 -0.09052683 1.283932 -0.1672826 -0.09709588 1.279805 -0.1660027 -0.09161688 1.285038 -0.1676253 -0.09097555 1.283743 -0.1672237 -0.09551921 1.279611 -0.1659426 -0.09684209 1.280286 -0.166152 -0.09527728 1.280019 -0.1660691 -0.09212106 1.284795 -0.1675502 -0.09141397 1.283532 -0.1671584 -0.09261218 1.28453 -0.1674678 -0.09184103 1.283301 -0.1670867 -0.09656388 1.280755 -0.1662974 -0.09308906 1.284241 -0.1673783 -0.0922557 1.28305 -0.167009 -0.09501469 1.280415 -0.1661919 -0.0962619 1.281211 -0.1664387 -0.09355054 1.283931 -0.1672821 -0.09265699 1.28278 -0.1669253 -0.09473208 1.280798 -0.1663107 -0.09593689 1.281651 -0.1665753 -0.09443011 1.281168 -0.1664253 -0.09399552 1.283599 -0.1671792 -0.09304393 1.282492 -0.1668358 -0.09341559 1.282185 -0.1667409 -0.09410951 1.281523 -0.1665354 -0.09558962 1.282076 -0.1667071 -0.09377106 1.281862 -0.1666407 -0.09522094 1.282485 -0.1668337 -0.09442293 1.283247 -0.1670701 -0.09483173 1.282875 -0.1669548 -0.0982 1.271999 -0.1745755 -0.0982 1.189336 -0.1440005 -0.0982 1.190907 -0.1494318 -0.0982 1.18885 -0.1444142 -0.0982 1.189842 -0.143611 -0.0982 1.190365 -0.1432468 -0.0982 1.190907 -0.1429087 -0.0982 1.191464 -0.1425977 -0.0982 1.192036 -0.1423143 -0.0982 1.19262 -0.1420593 -0.0982 1.193217 -0.1418333 -0.0982 1.193824 -0.1416369 -0.0982 1.19444 -0.1414705 -0.0982 1.195064 -0.1413345 -0.0982 1.195693 -0.1412293 -0.0982 1.196327 -0.1411551 -0.0982 1.196963 -0.141112 -0.0982 1.197601 -0.1411003 -0.0982 1.198239 -0.1411199 -0.0982 1.198875 -0.1411707 -0.0982 1.199508 -0.1412527 -0.0982 1.200136 -0.1413657 -0.0982 1.200758 -0.1415093 -0.0982 1.188386 -0.1448514 -0.0982 1.187943 -0.1453108 -0.0982 1.187523 -0.1457914 -0.0982 1.187127 -0.146292 -0.0982 1.186757 -0.1468114 -0.0982 1.186412 -0.1473484 -0.0982 1.186094 -0.1479016 -0.0982 1.185804 -0.1484698 -0.0982 1.185542 -0.1490515 -0.0982 1.185308 -0.1496454 -0.0982 1.185105 -0.15025 -0.0982 1.183414 -0.1735968 -0.0982 1.178352 -0.1720272 -0.1048 1.200758 -0.1415093 -0.1048 1.190907 -0.1494318 -0.1048 1.201371 -0.1416832 -0.1048 1.200136 -0.1413657 -0.1048 1.199508 -0.1412527 -0.1048 1.198875 -0.1411707 -0.1048 1.198239 -0.1411199 -0.1048 1.197601 -0.1411003 -0.1048 1.196963 -0.141112 -0.1048 1.196327 -0.1411551 -0.1048 1.195693 -0.1412293 -0.1048 1.195064 -0.1413345 -0.1048 1.19444 -0.1414705 -0.1048 1.193824 -0.1416369 -0.1048 1.193217 -0.1418333 -0.1048 1.19262 -0.1420593 -0.1048 1.192036 -0.1423143 -0.1048 1.191464 -0.1425977 -0.1048 1.190907 -0.1429087 -0.1048 1.190365 -0.1432468 -0.1048 1.189842 -0.143611 -0.1048 1.189336 -0.1440005 -0.1048 1.18885 -0.1444142 -0.1048 1.188386 -0.1448514 -0.1048 1.187943 -0.1453108 -0.1048 1.187523 -0.1457914 -0.1048 1.187127 -0.146292 -0.1048 1.186757 -0.1468114 -0.1048 1.186412 -0.1473484 -0.1048 1.186094 -0.1479016 -0.1048 1.185804 -0.1484698 -0.1048 1.185542 -0.1490515 -0.1048 1.185308 -0.1496454 -0.1048 1.18297 -0.1750295 -0.1048 1.281168 -0.1774186 -0.1048 1.284278 -0.1673896 -0.1047898 1.281566 -0.1775421 -0.1047898 1.284676 -0.1675131 -0.1047591 1.281964 -0.1776653 -0.1047591 1.285073 -0.1676364 -0.104708 1.282359 -0.1777879 -0.104708 1.285469 -0.167759 -0.1046367 1.285861 -0.1678807 -0.1046367 1.282752 -0.1779097 -0.1045453 1.283141 -0.1780302 -0.1045453 1.28625 -0.1680013 -0.104434 1.283525 -0.1781493 -0.104434 1.286634 -0.1681204 -0.1043031 1.283903 -0.1782666 -0.1043031 1.287013 -0.1682377 -0.104153 1.284275 -0.1783819 -0.104153 1.287384 -0.168353 -0.1039839 1.287749 -0.1684659 -0.1039839 1.284639 -0.1784949 -0.1037963 1.284995 -0.1786052 -0.1037963 1.288105 -0.1685763 -0.1035907 1.285342 -0.1787128 -0.1035907 1.288451 -0.1686838 -0.1033675 1.288788 -0.1687882 -0.1033675 1.285678 -0.1788171 -0.1031273 1.289114 -0.1688892 -0.1031273 1.286004 -0.1789182 -0.1028706 1.289428 -0.1689866 -0.1028706 1.286318 -0.1790156 -0.1025981 1.28973 -0.1690802 -0.1025981 1.28662 -0.1791091 -0.1023104 1.286909 -0.1791986 -0.1023104 1.290018 -0.1691696 -0.1020082 1.287183 -0.1792838 -0.1020082 1.290293 -0.1692548 -0.1016923 1.287444 -0.1793645 -0.1016923 1.290553 -0.1693355 -0.1013634 1.290799 -0.1694116 -0.1013634 1.287689 -0.1794405 -0.1010223 1.287918 -0.1795117 -0.1010223 1.291028 -0.1694827 -0.1006699 1.288132 -0.1795778 -0.1006699 1.291241 -0.1695488 -0.1003069 1.288328 -0.1796387 -0.1003069 1.291438 -0.1696097 -0.09993422 1.291617 -0.1696653 -0.09993422 1.288507 -0.1796942 -0.09955281 1.288669 -0.1797443 -0.09955281 1.291778 -0.1697153 -0.09916357 1.288812 -0.1797888 -0.09916357 1.291922 -0.1697598 -0.09876742 1.292047 -0.1697986 -0.09876742 1.288937 -0.1798275 -0.09836533 1.289043 -0.1798605 -0.09836533 1.292153 -0.1698315 -0.09795827 1.289131 -0.1798875 -0.09795827 1.29224 -0.1698586 -0.09754721 1.289199 -0.1799087 -0.09754721 1.292308 -0.1698797 -0.09713315 1.289248 -0.1799238 -0.09713315 1.292357 -0.1698948 -0.09671707 1.289277 -0.1799329 -0.09671707 1.292386 -0.1699039 -0.0963 1.289287 -0.1799359 -0.0963 1.292396 -0.169907 -0.0513 1.289435 -0.1794583 -0.0513 1.292396 -0.169907 -0.0373 1.289287 -0.1799359 -0.0373 1.289435 -0.1794583 -0.0867 1.282983 -0.1779813 -0.0373 1.282983 -0.1779813 -0.09818615 1.272537 -0.1747426 -0.09814462 1.273075 -0.1749093 -0.09807553 1.27361 -0.1750752 -0.09797903 1.274141 -0.1752399 -0.09785536 1.274667 -0.175403 -0.09770481 1.275187 -0.1755641 -0.09752776 1.275699 -0.1757229 -0.09732462 1.276202 -0.1758788 -0.09709588 1.276695 -0.1760316 -0.09684209 1.277176 -0.176181 -0.09656388 1.277646 -0.1763264 -0.0962619 1.278101 -0.1764676 -0.09593689 1.278542 -0.1766043 -0.09558962 1.278967 -0.1767361 -0.09522094 1.279375 -0.1768627 -0.09483173 1.279766 -0.1769837 -0.09442293 1.280137 -0.177099 -0.09399552 1.280489 -0.1772082 -0.09355054 1.280821 -0.177311 -0.09308906 1.281131 -0.1774073 -0.09261218 1.28142 -0.1774967 -0.09212106 1.281686 -0.1775791 -0.09161688 1.281928 -0.1776543 -0.09110086 1.282147 -0.177722 -0.09057423 1.282341 -0.1777822 -0.09003828 1.28251 -0.1778346 -0.08949427 1.282653 -0.1778792 -0.08894354 1.282772 -0.1779158 -0.0883874 1.282864 -0.1779444 -0.08782719 1.28293 -0.1779649 -0.08726427 1.282969 -0.1779772 -0.0967 1.271406 -0.1764858 -0.09668796 1.271875 -0.1766311 -0.09665185 1.272342 -0.176776 -0.09659177 1.272808 -0.1769203 -0.09650785 1.27327 -0.1770635 -0.09640031 1.273727 -0.1772054 -0.0962694 1.274179 -0.1773455 -0.09611544 1.274624 -0.1774835 -0.0959388 1.275061 -0.1776191 -0.09573989 1.27549 -0.177752 -0.09551921 1.275909 -0.1778818 -0.09527728 1.276317 -0.1780083 -0.09501469 1.276713 -0.1781311 -0.09473208 1.277096 -0.17825 -0.09443011 1.277466 -0.1783645 -0.09410951 1.277821 -0.1784746 -0.09377106 1.27816 -0.1785799 -0.09341559 1.278483 -0.1786801 -0.09304393 1.27879 -0.1787751 -0.09265699 1.279078 -0.1788645 -0.0922557 1.279348 -0.1789482 -0.09184103 1.279599 -0.179026 -0.09141397 1.27983 -0.1790976 -0.09097555 1.280041 -0.179163 -0.09052683 1.280231 -0.1792219 -0.0900689 1.280399 -0.1792742 -0.08960284 1.280546 -0.1793198 -0.0891298 1.280671 -0.1793586 -0.0886509 1.280774 -0.1793904 -0.0881673 1.280854 -0.1794153 -0.08768017 1.280912 -0.1794331 -0.08719067 1.280946 -0.1794438 -0.0867 1.280958 -0.1794473 -0.0373 1.280958 -0.1794473 -0.0373 1.290127 -0.1822904 -0.0373 1.290867 -0.1799026 -0.0513 1.290867 -0.1799026 -0.0963 1.290127 -0.1822904 -0.0963 1.293829 -0.1703512 -0.0513 1.293829 -0.1703512 -0.106288 1.281044 -0.1794742 -0.1063 1.280576 -0.1793289 -0.1063 1.284278 -0.1673896 -0.106288 1.284746 -0.1675349 -0.1062518 1.281512 -0.1796191 -0.1062518 1.285214 -0.1676799 -0.1061918 1.285679 -0.1678242 -0.1061918 1.281977 -0.1797634 -0.1061078 1.282439 -0.1799066 -0.1061078 1.286141 -0.1679674 -0.1060003 1.286598 -0.1681092 -0.1060003 1.282896 -0.1800485 -0.1058694 1.283348 -0.1801886 -0.1058694 1.28705 -0.1682493 -0.1057154 1.283793 -0.1803266 -0.1057154 1.287495 -0.1683873 -0.1055388 1.287933 -0.168523 -0.1055388 1.284231 -0.1804622 -0.1053399 1.284659 -0.1805951 -0.1053399 1.288361 -0.1686559 -0.1051192 1.28878 -0.1687857 -0.1051192 1.285078 -0.1807249 -0.1048773 1.285486 -0.1808514 -0.1048773 1.289188 -0.1689122 -0.1046147 1.285882 -0.1809742 -0.1046147 1.289584 -0.169035 -0.1043321 1.289967 -0.1691538 -0.1043321 1.286265 -0.1810931 -0.1040301 1.290337 -0.1692684 -0.1040301 1.286635 -0.1812077 -0.1037095 1.290692 -0.1693785 -0.1037095 1.28699 -0.1813177 -0.1033711 1.287329 -0.181423 -0.1033711 1.291031 -0.1694838 -0.1030156 1.287653 -0.1815232 -0.1030156 1.291355 -0.169584 -0.1026439 1.291661 -0.1696789 -0.1026439 1.287959 -0.1816182 -0.102257 1.288247 -0.1817076 -0.102257 1.291949 -0.1697684 -0.1018557 1.292219 -0.1698521 -0.1018557 1.288517 -0.1817913 -0.101441 1.29247 -0.1699298 -0.101441 1.288768 -0.1818691 -0.101014 1.292701 -0.1700015 -0.101014 1.288999 -0.1819407 -0.1005756 1.28921 -0.1820061 -0.1005756 1.292912 -0.1700668 -0.1001268 1.293102 -0.1701257 -0.1001268 1.2894 -0.182065 -0.0996689 1.289569 -0.1821173 -0.0996689 1.293271 -0.1701781 -0.09920285 1.289716 -0.1821629 -0.09920285 1.293418 -0.1702237 -0.0987298 1.293543 -0.1702624 -0.0987298 1.289841 -0.1822017 -0.0982509 1.289943 -0.1822335 -0.0982509 1.293645 -0.1702943 -0.0977673 1.290024 -0.1822584 -0.0977673 1.293726 -0.1703191 -0.09728017 1.290081 -0.1822762 -0.09728017 1.293783 -0.1703369 -0.09679068 1.293817 -0.1703476 -0.09679068 1.290115 -0.1822868 -0.1063 1.192225 -0.1519344 -0.1063 1.185308 -0.1496454 -0.1063 1.185542 -0.1490515 -0.1063 1.185804 -0.1484698 -0.1063 1.186094 -0.1479016 -0.1063 1.186412 -0.1473484 -0.1063 1.186757 -0.1468114 -0.1063 1.187127 -0.146292 -0.1063 1.187523 -0.1457914 -0.1063 1.187943 -0.1453108 -0.1063 1.188386 -0.1448514 -0.1063 1.18885 -0.1444142 -0.1063 1.189336 -0.1440005 -0.1063 1.189842 -0.143611 -0.1063 1.190365 -0.1432468 -0.1063 1.190907 -0.1429087 -0.1063 1.191464 -0.1425977 -0.1063 1.192036 -0.1423143 -0.1063 1.19262 -0.1420593 -0.1063 1.193217 -0.1418333 -0.1063 1.193824 -0.1416369 -0.1063 1.19444 -0.1414705 -0.1063 1.195064 -0.1413345 -0.1063 1.195693 -0.1412293 -0.1063 1.196327 -0.1411551 -0.1063 1.196963 -0.141112 -0.1063 1.197601 -0.1411003 -0.1063 1.198239 -0.1411199 -0.1063 1.198875 -0.1411707 -0.1063 1.199508 -0.1412527 -0.1063 1.200136 -0.1413657 -0.1063 1.200758 -0.1415093 -0.1063 1.201371 -0.1416832 -0.1063 1.18488 -0.1756218 -0.0967 1.192225 -0.1519344 -0.0967 1.200758 -0.1415093 -0.0967 1.200136 -0.1413657 -0.0967 1.199508 -0.1412527 -0.0967 1.198875 -0.1411707 -0.0967 1.198239 -0.1411199 -0.0967 1.197601 -0.1411003 -0.0967 1.196963 -0.141112 -0.0967 1.196327 -0.1411551 -0.0967 1.195693 -0.1412293 -0.0967 1.195064 -0.1413345 -0.0967 1.19444 -0.1414705 -0.0967 1.193824 -0.1416369 -0.0967 1.193217 -0.1418333 -0.0967 1.19262 -0.1420593 -0.0967 1.192036 -0.1423143 -0.0967 1.191464 -0.1425977 -0.0967 1.190907 -0.1429087 -0.0967 1.190365 -0.1432468 -0.0967 1.189842 -0.143611 -0.0967 1.189336 -0.1440005 -0.0967 1.18885 -0.1444142 -0.0967 1.188386 -0.1448514 -0.0967 1.187943 -0.1453108 -0.0967 1.187523 -0.1457914 -0.0967 1.187127 -0.146292 -0.0967 1.186757 -0.1468114 -0.0967 1.186412 -0.1473484 -0.0967 1.186094 -0.1479016 -0.0967 1.185804 -0.1484698 -0.0967 1.185542 -0.1490515 -0.0967 1.185308 -0.1496454 -0.0967 1.185105 -0.15025 -0.0967 1.185325 -0.1741891 -0.0967 1.178352 -0.1720272 -0.0947 1.17776 -0.1739375 -0.0947 1.177316 -0.1753702 -0.0877 1.177316 -0.1753702 -0.0877 1.17776 -0.1739375 -0.09479813 1.177761 -0.1739352 -0.09487173 1.177317 -0.1753661 -0.09489603 1.177763 -0.1739283 -0.09504306 1.177321 -0.1753541 -0.09499346 1.177766 -0.1739168 -0.09521355 1.177327 -0.175334 -0.09509018 1.177771 -0.1739008 -0.09538281 1.177336 -0.175306 -0.09518596 1.177778 -0.1738802 -0.09555043 1.177347 -0.17527 -0.095716 1.17736 -0.1752262 -0.09528057 1.177785 -0.1738552 -0.09537378 1.177795 -0.1738258 -0.09587911 1.177376 -0.1751748 -0.09546537 1.177805 -0.1737921 -0.09603939 1.177395 -0.1751157 -0.09555511 1.177817 -0.1737541 -0.09619644 1.177415 -0.1750492 -0.09564279 1.17783 -0.1737119 -0.09634989 1.177438 -0.1749754 -0.09649936 1.177463 -0.1748946 -0.0957282 1.177844 -0.1736657 -0.09581114 1.17786 -0.1736155 -0.09664449 1.17749 -0.1748068 -0.09678495 1.17752 -0.1747123 -0.0958914 1.177876 -0.1735615 -0.09596879 1.177894 -0.1735039 -0.09692038 1.177551 -0.1746114 -0.09705045 1.177584 -0.1745042 -0.09604312 1.177913 -0.1734426 -0.09611421 1.177933 -0.173378 -0.09717487 1.177619 -0.1743911 -0.09729333 1.177656 -0.1742722 -0.0961819 1.177954 -0.1733101 -0.09624602 1.177976 -0.1732391 -0.09740553 1.177695 -0.174148 -0.09630641 1.177999 -0.1731651 -0.09751122 1.177735 -0.1740186 -0.09761015 1.177776 -0.1738845 -0.09636294 1.178023 -0.1730885 -0.09641546 1.178048 -0.1730093 -0.09770205 1.177819 -0.1737458 -0.09778673 1.177864 -0.1736031 -0.09646384 1.178073 -0.1729277 -0.09786396 1.177909 -0.1734565 -0.09650798 1.178099 -0.1728439 -0.09793358 1.177956 -0.1733065 -0.09654776 1.178126 -0.1727582 -0.09658309 1.178153 -0.1726707 -0.09799541 1.178003 -0.1731534 -0.09661388 1.17818 -0.1725817 -0.09804929 1.178051 -0.1729976 -0.09809511 1.1781 -0.1728395 -0.09664006 1.178208 -0.1724913 -0.09813275 1.17815 -0.1726794 -0.09666157 1.178237 -0.1723999 -0.09816212 1.1782 -0.1725177 -0.09667835 1.178265 -0.1723075 -0.09818314 1.178251 -0.1723549 -0.09669037 1.178294 -0.1722144 -0.09819579 1.178301 -0.1721912 -0.09669759 1.178323 -0.1721209 -0.0963 1.181919 -0.1851732 -0.0947 1.184732 -0.1760994 -0.0877 1.181919 -0.1851732 -0.0877 1.184732 -0.1760994 -0.09479813 1.184733 -0.1760971 -0.09489603 1.184735 -0.1760902 -0.09499346 1.184739 -0.1760787 -0.09509018 1.184744 -0.1760627 -0.09679068 1.181922 -0.1851617 -0.09518596 1.18475 -0.1760422 -0.09528057 1.184758 -0.1760172 -0.09728017 1.181933 -0.1851272 -0.09537378 1.184767 -0.1759877 -0.0982509 1.181976 -0.1849897 -0.0977673 1.181951 -0.1850699 -0.0987298 1.182008 -0.184887 -0.09546537 1.184778 -0.175954 -0.09920285 1.182047 -0.184762 -0.09555511 1.184789 -0.175916 -0.1001268 1.182144 -0.1844462 -0.09564279 1.184802 -0.1758739 -0.0996689 1.182092 -0.1846149 -0.0957282 1.184817 -0.1758276 -0.1005756 1.182203 -0.1842562 -0.09581114 1.184832 -0.1757775 -0.101441 1.18234 -0.1838143 -0.101014 1.182269 -0.1840454 -0.0958914 1.184849 -0.1757235 -0.1018557 1.182418 -0.1835635 -0.1026439 1.182591 -0.1830052 -0.09596879 1.184867 -0.1756658 -0.102257 1.182502 -0.1832936 -0.1030156 1.182686 -0.182699 -0.09604312 1.184886 -0.1756046 -0.09611421 1.184906 -0.1755399 -0.1033711 1.182786 -0.1823757 -0.0961819 1.184927 -0.175472 -0.1037095 1.182892 -0.1820362 -0.1040301 1.183002 -0.1816812 -0.09624602 1.184949 -0.175401 -0.1043321 1.183116 -0.1813116 -0.09630641 1.184972 -0.1753271 -0.1046147 1.183235 -0.1809283 -0.1048773 1.183358 -0.1805322 -0.09636294 1.184996 -0.1752504 -0.1051192 1.183484 -0.1801243 -0.09641546 1.18502 -0.1751712 -0.1053399 1.183614 -0.1797056 -0.1055388 1.183747 -0.179277 -0.09646384 1.185046 -0.1750896 -0.1057154 1.183883 -0.1788396 -0.09650798 1.185072 -0.1750059 -0.1058694 1.184021 -0.1783945 -0.09654776 1.185098 -0.1749202 -0.1060003 1.184161 -0.1779426 -0.1061078 1.184303 -0.1774852 -0.09658309 1.185125 -0.1748327 -0.1061918 1.184446 -0.1770233 -0.09661388 1.185153 -0.1747437 -0.1062518 1.18459 -0.176558 -0.106288 1.184735 -0.1760905 -0.09664006 1.185181 -0.1746533 -0.09666157 1.185209 -0.1745618 -0.09667835 1.185238 -0.1744694 -0.09669037 1.185267 -0.1743764 -0.09669759 1.185296 -0.1742829 -0.0877 1.180453 -0.1831482 -0.0877 1.182378 -0.1769398 -0.0963 1.180453 -0.1831482 -0.0947 1.182378 -0.1769398 -0.09487173 1.182379 -0.1769358 -0.09504306 1.182383 -0.1769237 -0.09521355 1.182389 -0.1769036 -0.09538281 1.182398 -0.1768756 -0.09555043 1.182409 -0.1768396 -0.095716 1.182423 -0.1767959 -0.09587911 1.182438 -0.1767444 -0.09603939 1.182457 -0.1766853 -0.09619644 1.182477 -0.1766189 -0.09634989 1.1825 -0.1765451 -0.09649936 1.182525 -0.1764642 -0.09664449 1.182553 -0.1763764 -0.09678495 1.182582 -0.1762819 -0.09692038 1.182613 -0.176181 -0.09705045 1.182646 -0.1760738 -0.09717487 1.182682 -0.1759607 -0.09729333 1.182718 -0.1758418 -0.09740553 1.182757 -0.1757176 -0.09751122 1.182797 -0.1755882 -0.09761015 1.182839 -0.1754541 -0.09770205 1.182882 -0.1753155 -0.09778673 1.182926 -0.1751727 -0.09786396 1.182971 -0.1750261 -0.09793358 1.183018 -0.1748761 -0.09799541 1.183065 -0.174723 -0.09804929 1.183114 -0.1745672 -0.09809511 1.183163 -0.1744091 -0.09813275 1.183212 -0.174249 -0.09816212 1.183262 -0.1740873 -0.09818314 1.183313 -0.1739245 -0.09819579 1.183364 -0.1737609 -0.09671707 1.180456 -0.1831384 -0.09713315 1.180465 -0.1831091 -0.09754721 1.18048 -0.1830603 -0.09795827 1.180501 -0.1829922 -0.09836533 1.180528 -0.1829049 -0.09876742 1.180561 -0.1827986 -0.09916357 1.1806 -0.1826736 -0.09955281 1.180645 -0.1825302 -0.09993422 1.180695 -0.1823687 -0.1003069 1.18075 -0.1821896 -0.1006699 1.180811 -0.1819932 -0.1010223 1.180877 -0.18178 -0.1013634 1.180948 -0.1815505 -0.1016923 1.181024 -0.1813054 -0.1020082 1.181105 -0.1810451 -0.1023104 1.18119 -0.1807703 -0.1025981 1.18128 -0.1804817 -0.1028706 1.181373 -0.18018 -0.1031273 1.181471 -0.1798658 -0.1033675 1.181572 -0.17954 -0.1035907 1.181676 -0.1792034 -0.1037963 1.181784 -0.1788567 -0.1039839 1.181894 -0.1785007 -0.104153 1.182007 -0.1781364 -0.1043031 1.182122 -0.1777646 -0.104434 1.18224 -0.1773863 -0.1045453 1.182359 -0.1770022 -0.1046367 1.182479 -0.1766134 -0.104708 1.182601 -0.1762208 -0.1047591 1.182724 -0.1758253 -0.1047898 1.182847 -0.1754279</float_array>
          <technique_common>
            <accessor count="684" source="#cubeverts-array0-array" stride="3">
              <param type="float" name="X"/>
              <param type="float" name="Y"/>
              <param type="float" name="Z"/>
            </accessor>
          </technique_common>
        </source>
        <source id="cubenormals-array0">
          <float_array count="4092" id="cubenormals-array0-array">0 -0.9551433 0.2961439 0 -0.9551433 0.2961439 0.0001456101 -0.9551598 0.2960909 -0.0001949291 -0.9551547 0.2961069 -5.475391e-05 -0.9551433 0.2961439 -0.0001389349 -0.9551274 0.2961956 0.0001345956 -0.9551396 0.296156 -5.174848e-05 -0.9551314 0.2961824 -3.244062e-05 -0.9551304 0.2961856 -5.668607e-06 -0.9551215 0.2962143 2.524723e-05 -0.9551233 0.2962085 0.000208355 -0.9551573 0.2960987 0.0001141073 -0.955161 0.296087 -0.0001039825 -0.9551414 0.2961501 -1.533337e-05 -0.9551408 0.2961522 -0.0001155334 -0.9551132 0.2962413 9.215366e-05 -0.9551352 0.2961702 -0.0001033344 -0.9551309 0.2961842 4.101581e-05 -0.9551486 0.2961271 5.932113e-05 -0.9551682 0.2960637 -0.0001239836 -0.9551426 0.2961465 -9.40861e-07 -0.9551512 0.2961185 -4.300409e-05 -0.9551445 0.29614 -2.437625e-05 -0.9551458 0.296136 -0.0001290833 -0.9551272 0.296196 1.967867e-05 -0.9551395 0.2961566 -3.825242e-05 -0.955128 0.2961935 -6.219395e-05 -0.9551256 0.2962011 0.0001640305 -0.9551752 0.2960408 0.0001063746 -0.9551687 0.2960621 -4.234391e-05 -0.9551326 0.2961787 -0.0001505715 -0.9550819 0.2963417 0.0001670021 -0.9551979 0.2959678 4.59472e-05 -0.9551347 0.2961716 -0.0001986835 -0.9550896 0.296317 -8.243763e-05 -0.9551091 0.296254 8.195083e-05 -0.9551629 0.2960808 0.0001227752 -0.9551705 0.2960561 3.120193e-06 -0.955134 0.2961739 -1.32759e-05 -0.9551215 0.2962144 0.0001053158 -0.9551748 0.2960423 -0.000109357 -0.9551252 0.2962025 -0.0001902917 -0.9550893 0.2963182 1.246116e-05 -0.9551412 0.296151 5.523899e-05 -0.9551935 0.2959821 1.724963e-05 -0.9551435 0.2961433 1.706596e-05 -0.9551474 0.2961305 3.872718e-05 -0.9551843 0.2960117 -4.512112e-05 -0.9550868 0.296326 -3.284014e-05 -0.9551162 0.2962313 3.240034e-05 -0.9551663 0.2960696 2.50363e-05 -0.9551371 0.2961642 -6.964289e-05 -0.9551028 0.2962746 -2.198477e-05 -0.9551494 0.2961245 -2.453226e-05 -0.9551193 0.2962216 9.636782e-05 -0.9551805 0.2960239 3.466909e-05 -0.955188 0.2959999 5.00496e-05 -0.9551257 0.2962005 -2.865845e-05 -0.9550779 0.2963548 -3.270047e-05 -0.9550877 0.2963233 3.951347e-05 -0.955186 0.2960063 3.194936e-05 -0.955199 0.2959645 1.345303e-05 -0.9551076 0.296259 2.621725e-05 -0.9550907 0.2963134 0 -0.955214 0.2959159 3.962149e-05 -0.9551715 0.2960529 0 -0.9551389 0.2961585 0 -0.9551389 0.2961585 0 0.2961566 0.9551394 0 0.2961566 0.9551394 0 0.2961797 0.9551323 0 0.2961797 0.9551323 -7.932216e-05 0.2961797 0.9551322 2.874604e-05 0.2961462 0.9551427 5.829784e-06 0.2961213 0.9551504 0 0.2961067 0.9551549 3.973282e-06 0.2961607 0.9551381 4.376758e-05 0.2961645 0.955137 -3.547293e-06 0.2961447 0.9551431 -1.472907e-05 0.2961453 0.9551429 9.824688e-06 0.296199 0.9551263 -1.757177e-05 0.2961177 0.9551514 2.62544e-05 0.296202 0.9551253 -2.65165e-05 0.2961671 0.9551361 -2.334942e-05 0.2961675 0.955136 2.075131e-06 0.2961468 0.9551424 6.55472e-06 0.2961683 0.9551358 2.330675e-05 0.296183 0.9551312 4.035975e-06 0.2961631 0.9551374 6.958644e-06 0.296165 0.9551368 -9.453282e-06 0.2961024 0.9551561 2.483719e-05 0.296164 0.9551371 3.231128e-05 0.2961685 0.9551357 -2.042157e-06 0.2961576 0.9551391 4.498554e-05 0.2961568 0.9551393 -4.045711e-05 0.2961321 0.955147 -1.243451e-05 0.296144 0.9551433 2.003589e-05 0.2962095 0.955123 -2.206354e-05 0.2960972 0.9551578 8.275381e-07 0.2961858 0.9551304 -2.815947e-05 0.2961581 0.9551389 -2.101464e-05 0.2961308 0.9551473 -9.950873e-06 0.2961564 0.9551395 -4.013233e-05 0.2961319 0.9551471 6.64645e-06 0.29617 0.9551352 -1.042141e-05 0.2961507 0.9551412 -1.320286e-07 0.2961477 0.9551421 9.596753e-06 0.2961565 0.9551395 1.765552e-05 0.2961729 0.9551344 2.822521e-05 0.2961917 0.9551285 -1.37142e-05 0.296144 0.9551433 -1.870615e-05 0.2961368 0.9551456 -5.915059e-06 0.2961495 0.9551416 -2.074723e-05 0.2961358 0.9551458 6.670932e-06 0.2961658 0.9551365 2.833452e-05 0.2961923 0.9551283 6.357667e-05 0.2961984 0.9551265 3.224374e-05 0.2961604 0.9551381 7.328256e-06 0.2961413 0.9551441 -1.351886e-05 0.2961256 0.955149 8.617557e-06 0.2961454 0.9551429 -8.603092e-06 0.2961222 0.95515 -8.411868e-06 0.2961322 0.955147 -1.185275e-05 0.2961278 0.9551484 9.400704e-06 0.2961443 0.9551432 -2.858607e-05 0.2961081 0.9551544 -4.823342e-05 0.2961383 0.9551451 3.590119e-05 0.2962043 0.9551246 -6.402934e-06 0.296185 0.9551306 1.84704e-05 0.2962139 0.9551216 1.667354e-05 0.2961667 0.9551363 -3.71949e-05 0.2961099 0.9551538 2.945514e-05 0.2961674 0.9551361 -5.448052e-06 0.2961372 0.9551454 2.253665e-05 0.2961791 0.9551324 1.114566e-05 0.2961682 0.9551358 -1 0 0 -1 0 -0 -1 0 -0 -1 0 -0 -1 0 -0 -1 0 0 -1 0 0 -1 0 0 -1 0 0 -1 0 0 -1 0 0 -1 0 0 -1 0 0 -1 0 0 -1 0 0 -1 0 0 -1 -0 0 -1 -0 0 -1 -0 0 -1 -0 0 -1 -0 0 -1 -0 0 -1 0 0 -1 0 0 -1 0 0 -1 0 0 -1 0 0 -1 0 0 -1 0 0 -1 0 0 -1 0 0 -1 -0 0 -1 0 0 -1 0 0 -1 0 0 -1 0 0 1 0 0 1 0 0 1 0 0 1 0 0 1 0 0 1 0 0 1 -0 0 1 -0 0 1 -0 0 1 -0 0 1 -0 0 1 -0 0 1 -0 0 1 -0 0 1 -0 0 1 -0 0 1 -0 0 1 -0 0 1 -0 0 1 -0 0 1 -0 0 1 -0 0 1 -0 0 1 -0 0 1 -0 0 1 -0 0 1 -0 0 1 -0 0 1 -0 0 1 -0 0 1 0 0 1 0 0 1 -0 0 1 -0 0 1 0 0 1 -0 0 0.9996988 -0.02344302 0.007268835 0.9996988 -0.02344302 0.007268835 0.9972908 -0.07025989 0.02178588 0.9972893 -0.07027894 0.02179096 0.9924757 -0.116949 0.03626166 0.9852823 -0.1632667 0.05062311 0.9924797 -0.1169174 0.03625324 0.9852823 -0.1632667 0.05062311 0.9757021 -0.2092725 0.06488787 0.9757021 -0.2092725 0.06488787 0.963772 -0.254762 0.0789925 0.963772 -0.254762 0.0789925 0.9495395 -0.299576 0.09289135 0.9495121 -0.2996565 0.09291269 0.9329696 -0.3438074 0.1066021 0.9142403 -0.3869963 0.1199934 0.9330073 -0.3437131 0.1065772 0.9141927 -0.3870977 0.1200297 0.8931796 -0.4295266 0.1331807 0.893236 -0.4294179 0.1331522 0.8701279 -0.470718 0.1459524 0.8701305 -0.4707135 0.1459513 0.8448657 -0.5109795 0.1584361 0.8175926 -0.5499669 0.1705249 0.8448625 -0.5109841 0.1584377 0.7882937 -0.5876947 0.1822301 0.8174999 -0.5500907 0.17057 0.7572296 -0.6238487 0.1934327 0.7884036 -0.5875624 0.1821816 0.7572249 -0.6238537 0.1934345 0.7242181 -0.6586369 0.2042192 0.7242233 -0.6586317 0.2042179 0.6895471 -0.6917515 0.2144872 0.6895414 -0.6917567 0.2144885 0.6531456 -0.723263 0.2242578 0.6153399 -0.7529005 0.2334473 0.6531455 -0.7232628 0.2242577 0.6151662 -0.7530274 0.2334958 0.5756829 -0.7809923 0.2421575 0.5758697 -0.780864 0.2421273 0.535112 -0.8068843 0.2501854 0.5351198 -0.8068796 0.2501843 0.4928966 -0.8310558 0.2576804 0.4494515 -0.8532311 0.2645562 0.4928884 -0.8310603 0.2576814 0.4494515 -0.8532311 0.2645562 0.4052785 -0.8731826 0.2707424 0.4052785 -0.8731827 0.2707424 0.3599336 -0.8911246 0.2763056 0.3136835 -0.9069319 0.2812068 0.3599336 -0.8911247 0.2763056 0.3136835 -0.9069319 0.2812068 0.2668081 -0.9205159 0.2854188 0.2668081 -0.920516 0.2854188 0.2190367 -0.931946 0.2889628 0.2190367 -0.931946 0.2889628 0.1709357 -0.9410825 0.2917957 0.1709357 -0.9410825 0.2917957 0.1225199 -0.947944 0.2939233 0.1225199 -0.947944 0.2939233 0.07352704 -0.9525548 0.2953529 0.07352704 -0.9525548 0.2953529 0.02451334 -0.954853 0.2960655 0.02451334 -0.954853 0.2960655 -1.233723e-07 -0.9551401 0.2961545 0 -0.9551399 0.296155 0 -0.9551433 0.2961439 0 -0.9551434 0.2961439 0 0.9551401 -0.2961545 0 0.9551401 -0.2961545 -0.9996992 0.02342815 -0.007264213 -0.999699 0.0234329 -0.007265971 -0.9972894 0.07027811 -0.02179071 -0.9924822 0.1168983 -0.03624595 -0.9972905 0.07026394 -0.02178714 -0.9924791 0.1169219 -0.03625467 -0.9852753 0.1633052 -0.05063505 -0.9852814 0.1632714 -0.05062655 -0.9756995 0.2092836 -0.06489129 -0.9756995 0.2092835 -0.06489127 -0.9637808 0.2547322 -0.07898326 -0.9637806 0.2547322 -0.07898325 -0.9495163 0.2996445 -0.09290893 -0.9495163 0.2996445 -0.09290893 -0.9330047 0.3437207 -0.1065754 -0.9142235 0.3870327 -0.1200049 -0.9330047 0.3437207 -0.1065754 -0.9141896 0.3871043 -0.1200318 -0.8932242 0.4294405 -0.1331593 -0.8932242 0.4294404 -0.1331592 -0.8700501 0.4708473 -0.1459985 -0.8701022 0.4707612 -0.1459658 -0.8448328 0.5110291 -0.1584514 -0.8448942 0.5109347 -0.1584286 -0.8175944 0.5499626 -0.1705302 -0.8175943 0.5499626 -0.1705303 -0.7883663 0.587606 -0.1822026 -0.7882882 0.5877036 -0.1822257 -0.7571862 0.6238967 -0.1934478 -0.7572744 0.6237969 -0.1934245 -0.7242801 0.6585725 -0.2042076 -0.724178 0.6586772 -0.2042317 -0.689501 0.6917934 -0.2144999 -0.6896134 0.6916887 -0.2144762 -0.6531975 0.7232177 -0.2242525 -0.6530791 0.7233177 -0.2242747 -0.6152107 0.7529968 -0.2334771 -0.6153393 0.7528984 -0.2334558 -0.5758006 0.7809104 -0.2421417 -0.5757952 0.7809141 -0.2421424 -0.5348811 0.807024 -0.2502291 -0.5350227 0.8069356 -0.2502111 -0.4929087 0.8310493 -0.257678 -0.4929147 0.831046 -0.2576774 -0.4496583 0.8531318 -0.264525 -0.4496519 0.8531348 -0.2645263 -0.4052873 0.8731788 -0.2707413 -0.4052875 0.8731788 -0.2707413 -0.359802 0.8911731 -0.2763206 -0.359809 0.8911706 -0.2763195 -0.3138015 0.9068914 -0.2812054 -0.3136079 0.9069558 -0.2812138 -0.266722 0.9205355 -0.2854361 -0.2667219 0.9205355 -0.2854361 -0.2189698 0.9319603 -0.2889673 -0.2191664 0.931915 -0.2889646 -0.1709488 0.9410803 -0.2917951 -0.1224856 0.9479482 -0.2939245 -0.1709488 0.9410803 -0.2917951 -0.1224855 0.9479482 -0.2939245 -0.07358558 0.9525505 -0.2953516 -0.02446248 0.9548542 -0.2960659 -0.07358565 0.9525505 -0.2953516 -0.02446251 0.9548542 -0.2960659 0.9996991 -0.02342995 0.007264727 0.9996992 -0.0234241 0.007263163 0.99729 -0.07027061 0.02178896 0.99729 -0.07026997 0.02178874 0.9924777 -0.1169337 0.03625669 0.9852771 -0.1632961 0.05063192 0.9924811 -0.1169069 0.03624952 0.9852774 -0.1632947 0.0506314 0.9757022 -0.2092719 0.06488726 0.9757018 -0.2092738 0.06488777 0.9637851 -0.2547162 0.07898033 0.9637688 -0.254773 0.07899542 0.949515 -0.2996484 0.0929096 0.9330212 -0.3436801 0.1065621 0.9495374 -0.2995827 0.09289213 0.9329904 -0.3437552 0.106589 0.9142075 -0.3870661 0.1200184 0.9142075 -0.3870661 0.1200184 0.8932053 -0.4294782 0.1331647 0.8932551 -0.4293823 0.1331395 0.8700554 -0.4708403 0.1459897 0.8700532 -0.4708441 0.1459907 0.844882 -0.5109549 0.1584277 0.8175958 -0.549963 0.1705226 0.844882 -0.5109549 0.1584277 0.7883804 -0.587591 0.1821896 0.8175958 -0.549963 0.1705226 0.7882905 -0.5876994 0.1822292 0.7572066 -0.6238726 0.1934456 0.7572066 -0.6238726 0.1934455 0.7241912 -0.6586643 0.2042267 0.6895244 -0.6917724 0.2144923 0.7243041 -0.658549 0.2041977 0.6532397 -0.7231858 0.2242324 0.6895244 -0.6917724 0.2144923 0.6531088 -0.7232917 0.2242724 0.6151179 -0.7530664 0.2334972 0.6152599 -0.7529585 0.2334712 0.5759124 -0.780836 0.2421156 0.5757536 -0.7809451 0.2421414 0.5348879 -0.8070203 0.2502263 0.5350574 -0.8069154 0.250202 0.4929137 -0.8310471 0.2576761 0.4496589 -0.8531318 0.2645238 0.4929137 -0.8310471 0.2576761 0.4496589 -0.8531319 0.2645237 0.4051844 -0.8732229 0.2707532 0.4051766 -0.8732263 0.2707539 0.3600754 -0.8910703 0.2762962 0.3598606 -0.8911521 0.276312 0.3135306 -0.9069806 0.2812202 0.3137448 -0.9069104 0.2812077 0.2668689 -0.9204977 0.2854207 0.2666482 -0.9205587 0.2854303 0.2189982 -0.9319549 0.2889638 0.1710643 -0.9410616 0.2917874 0.2192243 -0.9319035 0.2889574 0.1708337 -0.9410971 0.2918081 0.1223822 -0.9479581 0.2939354 0.1223822 -0.9479581 0.2939355 0.07344317 -0.9525612 0.295353 0.07367944 -0.9525418 0.2953567 0.02471212 -0.9548463 0.2960709 0.02448392 -0.9548542 0.296064 0 -0.9551379 0.2961614 0 -0.9551379 0.2961614 1 0 0 1 -0 0 1 0 0 1 0 -0 1 0 -0 1 0 0 -1.554699e-06 0.9551378 -0.2961617 0 0.9551399 -0.296155 0 0.9551295 -0.2961884 0 0.9551296 -0.2961884 -0.9996989 0.02343894 -0.007267762 -0.9996988 0.02344478 -0.007269326 -0.99729 0.07027019 -0.02178811 -0.9924812 0.1169061 -0.03624814 -0.99729 0.07027083 -0.02178828 -0.9924777 0.1169333 -0.03625778 -0.985277 0.1632956 -0.05063342 -0.9757022 0.2092713 -0.06488921 -0.985277 0.1632956 -0.05063344 -0.9757022 0.2092713 -0.06488921 -0.9637682 0.2547752 -0.07899611 -0.9637851 0.2547162 -0.07898042 -0.9495383 0.29958 -0.09289143 -0.9329904 0.3437552 -0.1065889 -0.949515 0.2996484 -0.0929096 -0.9329904 0.3437552 -0.1065889 -0.9142075 0.3870661 -0.1200184 -0.9142075 0.3870661 -0.1200185 -0.8932052 0.4294769 -0.1331689 -0.8932533 0.4293871 -0.1331366 -0.8700621 0.4708291 -0.1459862 -0.8701199 0.4707303 -0.1459604 -0.8448724 0.5109681 -0.158437 -0.8448045 0.5110719 -0.158464 -0.8175988 0.5499589 -0.1705214 -0.8175988 0.5499588 -0.1705213 -0.7883805 0.5875909 -0.1821896 -0.7882905 0.5876994 -0.1822292 -0.7572027 0.6238769 -0.1934469 -0.7572026 0.6238769 -0.1934469 -0.7243162 0.6585369 -0.204194 -0.7242035 0.6586519 -0.2042229 -0.6895167 0.6917794 -0.2144945 -0.6895119 0.691784 -0.2144957 -0.6532528 0.7231752 -0.2242288 -0.6532474 0.7231795 -0.2242304 -0.6151179 0.7530664 -0.2334972 -0.6152653 0.7529544 -0.2334702 -0.5757473 0.7809471 -0.24215 -0.5759063 0.7808425 -0.2421096 -0.5350565 0.8069183 -0.2501947 -0.4929065 0.8310484 -0.257685 -0.5348874 0.8070183 -0.2502339 -0.4929067 0.8310483 -0.257685 -0.4494757 0.8532201 -0.2645508 -0.4053769 0.8731416 -0.2707277 -0.4496725 0.8531228 -0.2645297 -0.405171 0.8732261 -0.2707632 -0.3598607 0.8911495 -0.2763203 -0.3598686 0.8911465 -0.2763198 -0.313758 0.9069061 -0.2812064 -0.2666393 0.9205584 -0.2854396 -0.3137495 0.906909 -0.2812069 -0.2666482 0.9205561 -0.2854385 -0.2190036 0.9319536 -0.2889634 -0.219221 0.9319044 -0.2889573 -0.1710557 0.9410605 -0.2917963 -0.1708337 0.9410999 -0.2917993 -0.1223846 0.9479607 -0.2939262 -0.07344319 0.9525612 -0.2953527 -0.1226181 0.9479304 -0.2939265 -0.02472115 0.9548487 -0.2960623 -0.07343403 0.9525619 -0.2953532 -0.02448392 0.9548515 -0.2960729 -1 0 0 -1 0 0 -1 0 0 -1 0 0 -1 0 0 -1 0 0 -1 0 0 -1 0 0 -1 0 0 -1 0 0 -1 0 0 -1 0 0 -1 0 0 -1 0 0 -1 0 0 -1 0 0 -1 0 0 -1 0 0 -1 0 0 -1 0 0 -1 0 0 -1 0 0 -1 0 0 -1 0 0 -1 0 0 -1 0 0 -1 0 0 -1 0 0 -1 0 0 -1 0 0 -1 0 0 -1 0 0 -1 0 0 -1 0 0 -1 0 0 -1 0 0 1 0 0 1 0 0 1 0 0 1 0 0 1 0 0 1 0 0 1 0 0 1 0 0 1 0 0 1 0 0 1 0 0 1 0 0 1 0 0 1 0 0 1 0 0 1 0 -0 1 0 0 1 0 0 1 0 0 1 0 0 1 0 0 1 0 0 1 -0 0 1 -0 0 1 -0 0 1 -0 0 1 -0 0 1 -0 0 1 -0 0 1 -0 0 1 -0 0 1 -0 0 1 -0 0 1 -0 0 1 0 -0 1 -0 0 0 0.2961474 0.9551423 0 0.2961563 0.9551395 0 0.2961563 0.9551395 1.971871e-05 0.2961474 0.9551422 0 0.2961474 0.9551423 9.39747e-06 0.2961907 0.9551288 0 0.2961634 0.9551373 -4.925474e-05 0.2961656 0.9551366 -1.897514e-05 0.2961041 0.9551557 8.44254e-06 0.2961721 0.9551346 2.310412e-05 0.2961625 0.9551375 4.334342e-05 0.2961699 0.9551352 3.199226e-05 0.2962389 0.9551138 -1.568385e-05 0.2961361 0.9551458 3.973343e-06 0.2961607 0.9551381 -3.10828e-06 0.2961471 0.9551423 -4.075799e-05 0.2961418 0.955144 -8.75168e-06 0.2960948 0.9551585 7.413606e-06 0.2961724 0.9551345 1.728426e-05 0.2961442 0.9551432 -5.079162e-05 0.2961527 0.9551406 6.562216e-06 0.2961635 0.9551372 7.749286e-06 0.2961681 0.9551359 -1.619639e-05 0.2961447 0.9551432 1.604794e-05 0.2961524 0.9551408 5.328304e-05 0.2961725 0.9551345 6.367783e-06 0.2961713 0.9551349 1.619615e-06 0.2961442 0.9551432 -7.424683e-06 0.2961363 0.9551457 -2.712689e-06 0.2961426 0.9551437 2.905067e-06 0.2961446 0.9551431 -1.5809e-05 0.2961379 0.9551452 2.012593e-06 0.296144 0.9551433 3.988324e-06 0.2961393 0.9551448 1.541308e-05 0.2961789 0.9551324 2.753498e-06 0.2961634 0.9551373 -2.686283e-05 0.2961174 0.9551516 2.761756e-05 0.2962275 0.9551174 3.198752e-06 0.2961508 0.9551412 9.842748e-06 0.2961566 0.9551393 -2.51624e-05 0.2961278 0.9551483 1.76556e-05 0.2961729 0.9551343 4.495868e-05 0.2961724 0.9551345 3.696993e-05 0.2961652 0.9551367 -4.334198e-05 0.2960961 0.9551581 -6.498206e-06 0.2961296 0.9551477 2.237709e-05 0.2961748 0.9551338 -1.22284e-05 0.2961401 0.9551445 5.799855e-06 0.2961805 0.9551319 -1.788199e-05 0.2961467 0.9551424 1.376868e-05 0.2961871 0.95513 -4.060658e-05 0.2961251 0.9551492 -1.508217e-05 0.2961534 0.9551405 -1.043678e-05 0.2961682 0.9551358 -3.912925e-05 0.2961293 0.9551479 3.018163e-05 0.2961783 0.9551326 1.629835e-05 0.2961614 0.9551379 1.341103e-05 0.2961717 0.9551347 -3.085304e-05 0.2961419 0.955144 -6.225197e-06 0.2961414 0.9551441 7.002301e-06 0.2961565 0.9551395 4.418561e-06 0.2961537 0.9551403 -7.004959e-06 0.296148 0.9551421 -9.524713e-06 0.2961389 0.9551449 6.38332e-06 0.2961659 0.9551365 1.123123e-05 0.2961701 0.9551352 2.694924e-05 0.2961964 0.955127 -1.656147e-05 0.2961549 0.9551399 0 -0.2961565 -0.9551395 0 -0.2961566 -0.9551395 -4.573705e-05 -0.2961709 -0.9551349 4.185499e-05 -0.2961411 -0.9551442 -9.230049e-06 -0.296161 -0.955138 2.365728e-05 -0.2961468 -0.9551424 -3.355856e-05 -0.2961744 -0.9551339 2.64708e-06 -0.2961553 -0.9551398 2.707518e-05 -0.296141 -0.9551443 -2.37511e-05 -0.2961732 -0.9551343 4.18668e-05 -0.2961276 -0.9551484 -4.682549e-05 -0.2961936 -0.955128 -4.021051e-06 -0.2961599 -0.9551384 2.765677e-05 -0.2961328 -0.9551468 -2.410936e-05 -0.2961792 -0.9551324 0 -0.2961565 -0.9551395 -7.11444e-06 -0.2961634 -0.9551373 -1.515589e-05 -0.2961715 -0.9551347 4.203397e-05 -0.2961103 -0.9551537 -1.383298e-05 -0.2961734 -0.9551342 1.14196e-05 -0.2961431 -0.9551436 -2.799286e-05 -0.2961954 -0.9551274 2.456762e-05 -0.29612 -0.9551508 -3.143394e-06 -0.2961634 -0.9551373 2.467432e-06 -0.2961534 -0.9551404 1.010263e-05 -0.2961391 -0.9551448 -5.357365e-06 -0.2961716 -0.9551348 4.401147e-06 -0.2961485 -0.9551419 1.008867e-05 -0.2961334 -0.9551466 -1.374666e-07 -0.2961566 -0.9551394 -2.444546e-05 -0.2961648 -0.9551369 1.392971e-05 -0.2961218 -0.9551502 -1.423374e-05 -0.2961613 -0.9551379 5.36941e-06 -0.2961446 -0.9551431 6.632526e-05 -0.2961304 -0.9551475 4.339613e-05 -0.2961403 -0.9551444 -1.603677e-05 -0.2961962 -0.9551272 -1.907982e-05 -0.2962029 -0.9551251 -4.98768e-05 -0.296176 -0.9551334 4.349566e-06 -0.2961479 -0.9551421 -5.318899e-06 -0.2961685 -0.9551357 4.405802e-05 -0.296136 -0.9551458 2.638785e-05 -0.2961069 -0.9551548 -2.537626e-05 -0.2961686 -0.9551357 -2.973237e-05 -0.2962065 -0.955124 2.729299e-05 -0.2961415 -0.9551441 -9.090639e-06 -0.2961721 -0.9551346 -3.169233e-06 -0.2961633 -0.9551374 -4.649893e-05 -0.2961839 -0.9551309 -2.345416e-05 -0.2961699 -0.9551352 2.545225e-06 -0.2961532 -0.9551404 -7.09186e-06 -0.2961619 -0.9551377 2.750943e-05 -0.2961158 -0.955152 -2.712678e-06 -0.2961592 -0.9551386 -2.759041e-05 -0.2961921 -0.9551284 1.618621e-05 -0.2961468 -0.9551424 2.359511e-05 -0.2961265 -0.9551488 -4.674424e-05 -0.2961916 -0.9551285 3.482607e-05 -0.2961166 -0.9551518 -3.593747e-06 -0.2961588 -0.9551387 -1.151428e-05 -0.296168 -0.9551359 4.443982e-05 -0.2961216 -0.9551502 -2.606271e-05 -0.2961887 -0.9551294 -4.477391e-05 -0.2961933 -0.955128 9.203894e-06 -0.2961498 -0.9551415 3.698271e-05 -0.2961258 -0.9551489 -1.096079e-05 -0.2961684 -0.9551358 1.829582e-05 -0.2961405 -0.9551444 0 0.2961566 0.9551394 0 0.2961554 0.9551398 2.69569e-05 0.2961633 0.9551373 -1.061721e-05 0.2961498 0.9551415 -1.680825e-06 0.2961536 0.9551404 -2.962074e-05 0.2961396 0.9551446 -3.424979e-06 0.2961548 0.9551399 3.118958e-05 0.2961778 0.9551328 1.064379e-05 0.2961624 0.9551376 -6.577798e-07 0.2961529 0.9551406 -2.442134e-05 0.2961306 0.9551475 4.526622e-06 0.2961604 0.9551381 -2.182939e-05 0.2961308 0.9551474 -4.135814e-06 0.2961523 0.9551407 2.753105e-05 0.2961936 0.9551279 0 0.2961554 0.9551398 2.200583e-05 0.2961673 0.9551361 -4.985217e-05 0.2961171 0.9551516 2.625432e-05 0.2961742 0.955134 -2.874572e-05 0.2961296 0.9551478 1.044898e-05 0.2961643 0.955137 -1.0772e-05 0.2961436 0.9551435 2.204124e-05 0.2961791 0.9551325 -1.850242e-05 0.2961299 0.9551476 3.219899e-05 0.2961996 0.9551261 -5.616416e-06 0.2961401 0.9551445 6.499717e-06 0.2961622 0.9551377 4.516805e-06 0.296158 0.955139 1.303566e-06 0.2961498 0.9551415 5.162096e-06 0.2961563 0.9551395 1.936822e-05 0.2961611 0.955138 1.453179e-05 0.2961905 0.9551289 2.311652e-05 0.2961623 0.9551376 2.466136e-05 0.2962176 0.9551205 -4.023905e-05 0.2961378 0.9551452 1.040955e-05 0.2961598 0.9551384 -2.100914e-06 0.2961517 0.9551409 -1.379775e-05 0.296127 0.9551486 -4.412853e-06 0.2961543 0.9551401 -2.424562e-05 0.2960975 0.9551578 9.902438e-06 0.296172 0.9551345 1.380375e-05 0.2961619 0.9551377 -1.70325e-05 0.2961476 0.9551421 5.716824e-06 0.2961637 0.9551371 -1.905871e-06 0.2961553 0.9551398 3.246309e-05 0.2962107 0.9551226 1.399109e-06 0.2961589 0.9551387 -1.349969e-05 0.2961369 0.9551455 -2.958805e-05 0.2961391 0.9551449 -1.894933e-05 0.2961457 0.9551428 1.673629e-06 0.2961593 0.9551386 8.318407e-06 0.2961599 0.9551383 -4.214378e-06 0.2961501 0.9551414 3.221589e-05 0.2961742 0.9551339 -2.338093e-05 0.2961236 0.9551497 -3.550436e-06 0.2961508 0.9551411 -4.829281e-06 0.2961473 0.9551423 -1.222304e-05 0.2961446 0.9551431 -4.00794e-06 0.2961528 0.9551407 4.458805e-05 0.2962058 0.9551241 1.52902e-05 0.2961693 0.9551355 -3.68469e-05 0.2961256 0.9551491 -1.969935e-05 0.2961338 0.9551464 2.943238e-05 0.2961799 0.9551321 -1.946602e-05 0.2961339 0.9551464 1.385723e-05 0.2961672 0.9551361 -1.647102e-05 0.2961404 0.9551443 2.551216e-05 0.2961806 0.955132 0 -0.9551433 0.2961439 0 -0.9551433 0.2961439 0.0001580325 -0.9551359 0.2961676 -0.0002216123 -0.9551433 0.2961439 -0.0002290589 -0.9551247 0.2962041 -0.0005236544 -0.9551259 0.2961995 6.015946e-06 -0.9551348 0.2961713 0.0001762123 -0.9551365 0.296166 0.0001682141 -0.9551317 0.2961813 -0.0003542776 -0.955119 0.2962223 -0.0004539407 -0.9551091 0.2962541 0.0001015762 -0.9551503 0.2961213 0.0002544578 -0.9551368 0.2961649 0.0005429166 -0.9551994 0.2959626 -0.000323026 -0.9551217 0.2962136 -0.0001571035 -0.9551332 0.2961766 -6.941453e-06 -0.9551417 0.2961491 -0.0003535793 -0.9551123 0.2962438 0.0005538539 -0.9552103 0.2959272 0.0005412512 -0.9552091 0.2959313 0.0001039724 -0.955148 0.2961289 -0.0003775811 -0.9550916 0.2963106 0.0002332497 -0.9551883 0.2959988 -0.0005909631 -0.9550192 0.2965435 0.0004295127 -0.9552005 0.2959593 -7.404195e-06 -0.955134 0.2961738 1.388227e-06 -0.9551358 0.2961682 0.0001564976 -0.9551748 0.2960426 -0.0004726726 -0.9550364 0.2964882 -0.0003072444 -0.9550681 0.2963865 0.0001191662 -0.9551718 0.296052 0.0004839046 -0.9552831 0.2956922 -0.0007118275 -0.954962 0.2967273 0.0002065221 -0.9551783 0.2960309 0.0003839249 -0.9552614 0.2957625 -1.519733e-05 -0.9551127 0.2962427 0.000278807 -0.9552272 0.2958733 -0.0002336258 -0.9550797 0.2963493 -0.0002250126 -0.9550827 0.2963393 0.0002322155 -0.955227 0.295874 -0.0001726747 -0.9550556 0.2964267 0.0001397084 -0.9551942 0.2959799 -8.746142e-05 -0.9550993 0.2962857 4.804151e-05 -0.9551588 0.2960942 9.960895e-05 -0.9552199 0.2958969 -0.0001250609 -0.9550732 0.2963701 -0.000146224 -0.9550452 0.2964603 5.14208e-05 -0.9551933 0.2959829 -9.235708e-05 -0.955053 0.296435 0.0001159636 -0.955202 0.2959546 1.294979e-05 -0.9551449 0.2961388 4.621701e-05 -0.9551778 0.2960327 -3.174064e-05 -0.9551133 0.2962408 -8.399058e-05 -0.9550887 0.2963197 -7.07767e-05 -0.9549865 0.2966494 0.000106506 -0.9552746 0.2957199 8.446639e-05 -0.955262 0.2957607 -2.060555e-06 -0.9550678 0.2963873 -6.021294e-05 -0.9550148 0.2965579 -4.517344e-05 -0.9550691 0.2963832 6.877669e-05 -0.955274 0.2957225 6.855943e-05 -0.955272 0.2957287 1.446033e-07 -0.9550676 0.296388 5.642547e-06 -0.9549666 0.2967133 2.263754e-05 -0.9550691 0.296383 0 -0.9551719 0.296052 0 -0.95514 0.2961546 0 -0.95514 0.2961546 0 0.9551398 -0.2961551 0 0.9551399 -0.2961552 0.0002220818 0.9551289 -0.2961904 0.0005654186 0.9551126 -0.2962424 -0.000218357 0.9551469 -0.2961322 -0.0008213663 0.9551711 -0.2960532 -5.316403e-05 0.9551395 -0.2961564 0.0009844918 0.9551032 -0.2962719 -0.0006194152 0.9551675 -0.2960653 8.635619e-05 0.9551347 -0.2961718 0.0003210265 0.9551201 -0.2962187 -0.0001287692 0.9551495 -0.2961241 5.359484e-05 0.9551358 -0.2961679 1.617814e-05 0.9551353 -0.2961698 0.0003459349 0.9551065 -0.2962626 9.29716e-05 0.9551296 -0.2961884 -0.0005747245 0.955196 -0.2959733 9.702995e-05 0.955126 -0.2961997 -0.0001213832 0.9551545 -0.296108 -9.800547e-05 0.9551515 -0.2961176 0.0006418342 0.9550455 -0.2964586 -0.0001171753 0.955155 -0.2961063 -0.0004215497 0.9552045 -0.2959462 9.622489e-06 0.9551381 -0.2961608 0.0001216006 0.9551182 -0.296225 -0.000122874 0.9551646 -0.2960754 -1.223287e-05 0.9551429 -0.2961453 -0.000113168 0.9551662 -0.2960704 6.162671e-05 0.9551253 -0.2962019 0.0004387043 0.9550459 -0.2964578 3.594752e-05 0.9551303 -0.2961858 -0.0004868641 0.9552618 -0.2957614 -0.0002212457 0.9552018 -0.2959553 -1.286234e-05 0.955145 -0.2961384 0.0004413445 0.9550086 -0.2965778 -7.053661e-05 0.9551594 -0.296092 4.126079e-05 0.9551231 -0.296209 -0.0002619048 0.9552315 -0.2958594 0.0001866173 0.9550688 -0.2963842 3.666283e-05 0.9551269 -0.296197 6.338432e-05 0.9551156 -0.2962334 0.0001815302 0.9550575 -0.2964206 -2.152155e-06 0.9551431 -0.2961447 -0.0001157286 0.9551986 -0.2959656 -9.790566e-06 0.9551448 -0.2961393 -7.588714e-05 0.9551787 -0.2960295 -0.000122494 0.9552161 -0.2959092 3.579445e-05 0.9551166 -0.2962301 1.559584e-06 0.9551401 -0.2961544 0.0001389994 0.9550442 -0.2964638 0.0001100882 0.9550554 -0.2964275 2.794941e-05 0.9551196 -0.2962205 -5.884748e-05 0.9551836 -0.296014 -7.128889e-05 0.9552072 -0.295938 2.571733e-06 0.9551293 -0.2961892 -2.124749e-05 0.9551563 -0.296102 -3.912613e-05 0.9551786 -0.2960305 2.261876e-06 0.9551293 -0.2961891 1.6251e-05 0.9551083 -0.2962569 -9.004084e-05 0.9553241 -0.2955603 7.723605e-05 0.9549261 -0.2968435 -9.296083e-05 0.9553639 -0.2954317 9.275369e-05 0.9549252 -0.2968462 -8.693612e-05 0.9553176 -0.2955815 -1.498088e-05 0.9551716 -0.2960523 -9.736441e-06 0.9551718 -0.2960522 2.343325e-06 0.9551389 -0.2961582 0 0.9551386 -0.2961591 -0.02452487 -0.2960686 -0.9548518 -0.07354496 -0.2953584 -0.9525515 -0.02456868 -0.2960711 -0.9548499 -0.07361832 -0.2953521 -0.9525479 -0.1224313 -0.2939278 -0.9479542 -0.1224314 -0.2939278 -0.9479541 -0.2191168 -0.2889588 -0.9319285 -0.1709044 -0.2917986 -0.9410873 -0.1709043 -0.2917986 -0.9410873 -0.2191167 -0.2889588 -0.9319285 -0.3136626 -0.2812101 -0.9069381 -0.2667291 -0.2854265 -0.9205365 -0.266729 -0.2854265 -0.9205365 -0.3599186 -0.2763085 -0.8911298 -0.3136627 -0.2812101 -0.906938 -0.3599185 -0.2763085 -0.8911298 -0.4051898 -0.2707552 -0.8732198 -0.4495957 -0.26454 -0.8531601 -0.4052513 -0.2707515 -0.8731924 -0.4496545 -0.2645271 -0.8531332 -0.4929137 -0.2576787 -0.8310462 -0.4929138 -0.2576787 -0.8310462 -0.5349868 -0.2502103 -0.8069597 -0.5758256 -0.2421288 -0.7808959 -0.5349869 -0.2502103 -0.8069597 -0.5758255 -0.2421288 -0.780896 -0.6152001 -0.2334806 -0.7530044 -0.6152001 -0.2334806 -0.7530044 -0.6531898 -0.2242474 -0.7232262 -0.6531899 -0.2242474 -0.7232261 -0.6895275 -0.2144936 -0.6917691 -0.6895275 -0.2144936 -0.6917691 -0.7242281 -0.2042173 -0.6586266 -0.7242773 -0.2042066 -0.6585758 -0.7572271 -0.193439 -0.6238497 -0.7883537 -0.1822016 -0.5876232 -0.7571829 -0.1934498 -0.6239 -0.7883537 -0.1822016 -0.5876232 -0.844847 -0.1584457 -0.5110074 -0.8175981 -0.1705233 -0.5499592 -0.817598 -0.1705233 -0.5499592 -0.8448469 -0.1584457 -0.5110075 -0.8700886 -0.1459738 -0.4707838 -0.8700886 -0.1459737 -0.4707837 -0.914212 -0.120013 -0.3870571 -0.8932139 -0.1331611 -0.4294613 -0.893214 -0.1331611 -0.4294612 -0.914212 -0.120013 -0.387057 -0.9329942 -0.1065839 -0.3437464 -0.9329942 -0.1065839 -0.3437464 -0.9495314 -0.09289579 -0.2996006 -0.9495314 -0.0928958 -0.2996007 -0.9637713 -0.07899363 -0.2547644 -0.9637713 -0.07899363 -0.2547645 -0.9757041 -0.06488545 -0.2092638 -0.9757041 -0.06488544 -0.2092638 -0.9852778 -0.05063195 -0.1632916 -0.9852756 -0.05063482 -0.1633037 -0.992479 -0.03625403 -0.1169238 -0.99248 -0.03625195 -0.1169151 -0.9972902 -0.02178773 -0.07026816 -0.9972902 -0.02178773 -0.07026817 -0.9996988 -0.007268963 -0.02344332 -0.9996988 -0.007268963 -0.02344332 0 -0.2961577 -0.955139 0 -0.2961577 -0.955139 1 -0 0 1 0 0 1 -0 0 1 0 0 1 0 -0 1 0 -0 0 0.2961558 0.9551397 0 0.2961558 0.9551397 0.02447939 0.296067 0.9548534 0.0244794 0.296067 0.9548534 0.0738818 0.2953483 0.9525287 0.07373414 0.2953496 0.9525397 0.1223278 0.2939315 0.9479663 0.122474 0.2939281 0.9479485 0.1709923 0.2917987 0.9410713 0.1706348 0.2918124 0.9411319 0.2191347 0.2889594 0.931924 0.219344 0.2889483 0.9318783 0.2664055 0.285453 0.920622 0.3138537 0.2811914 0.9068778 0.2665434 0.2854435 0.9205849 0.3138537 0.2811914 0.9068778 0.3599152 0.2763089 0.8911309 0.3599152 0.2763089 0.8911309 0.4050954 0.2707676 0.8732597 0.4050954 0.2707676 0.8732597 0.4496132 0.2645332 0.853153 0.4496132 0.2645332 0.8531531 0.4931034 0.2576468 0.8309435 0.4931034 0.2576468 0.8309435 0.5348251 0.2502406 0.8070575 0.5348251 0.2502406 0.8070574 0.5758777 0.2421195 0.7808605 0.6152779 0.2334642 0.752946 0.5757783 0.2421386 0.7809277 0.6153701 0.2334413 0.7528777 0.6530818 0.2242764 0.7233148 0.6529967 0.2242968 0.7233853 0.689713 0.2144447 0.6915992 0.6895977 0.2144752 0.6917047 0.724144 0.2042435 0.6587109 0.724319 0.2041923 0.6585343 0.7571719 0.1934536 0.6239122 0.7571719 0.1934536 0.6239122 0.7883704 0.1821953 0.5876028 0.7883704 0.1821953 0.5876029 0.8176178 0.1705151 0.5499326 0.8176178 0.1705151 0.5499326 0.8448018 0.1584668 0.5110755 0.8700858 0.1459753 0.4707887 0.8448018 0.1584668 0.5110755 0.8700858 0.1459753 0.4707887 0.8932257 0.1331542 0.4294389 0.8932258 0.1331542 0.4294389 0.9142397 0.1199946 0.3869976 0.9329742 0.1065992 0.3437959 0.9142397 0.1199946 0.3869976 0.9329742 0.1065992 0.3437959 0.9495153 0.09291016 0.299647 0.9495153 0.09291015 0.299647 0.9638114 0.07895245 0.2546254 0.9756942 0.06489999 0.2093055 0.9637747 0.07899001 0.2547528 0.975719 0.06486583 0.2092005 0.9852764 0.05063423 0.1632989 0.9924787 0.03625512 0.1169253 0.9852656 0.0506518 0.1633584 0.9924843 0.0362413 0.1168827 0.9972887 0.02179403 0.07028726 0.9972867 0.02180169 0.07031319 0.9997002 0.007250674 0.02338393 0.9997002 0.007250675 0.02338393 0 0.2961576 0.9551391 0 0.2961576 0.9551391 0 -0.2961576 -0.9551391 0 -0.2961576 -0.9551391 -0.02450157 -0.2960687 -0.9548523 -0.07362925 -0.2953537 -0.9525465 -0.02450169 -0.2960687 -0.9548523 -0.1223823 -0.2939314 -0.9479594 -0.07362951 -0.2953537 -0.9525465 -0.1708783 -0.2917992 -0.9410918 -0.1224659 -0.2939257 -0.9479503 -0.2192292 -0.2889506 -0.9319046 -0.1708784 -0.2917992 -0.9410918 -0.2666788 -0.2854299 -0.9205499 -0.2192294 -0.2889505 -0.9319045 -0.3138031 -0.2811956 -0.9068939 -0.2666789 -0.2854299 -0.9205499 -0.3598907 -0.2763195 -0.8911376 -0.3135367 -0.2812304 -0.9069753 -0.3598902 -0.2763195 -0.8911378 -0.4050357 -0.2707831 -0.8732827 -0.4052821 -0.2707424 -0.8731809 -0.4497177 -0.264517 -0.853103 -0.4497178 -0.2645169 -0.853103 -0.4928209 -0.2576936 -0.8310966 -0.4928211 -0.2576935 -0.8310965 -0.5350084 -0.2502055 -0.8069469 -0.5350084 -0.2502055 -0.8069469 -0.5758051 -0.2421324 -0.7809099 -0.5758053 -0.2421324 -0.7809098 -0.6153191 -0.2334525 -0.7529159 -0.6153195 -0.2334524 -0.7529156 -0.6531757 -0.2242504 -0.723238 -0.6531268 -0.2242649 -0.7232776 -0.689453 -0.214516 -0.6918363 -0.6894978 -0.2145015 -0.6917962 -0.7243048 -0.2041929 -0.6585498 -0.7242643 -0.2042073 -0.65859 -0.7572343 -0.1934333 -0.6238427 -0.7572708 -0.1934192 -0.6238029 -0.7882907 -0.1822251 -0.5877005 -0.7882905 -0.1822252 -0.5877008 -0.8175951 -0.1705241 -0.5499633 -0.817595 -0.1705242 -0.5499635 -0.8448551 -0.1584415 -0.5109952 -0.8700889 -0.1459732 -0.4707834 -0.8448551 -0.1584415 -0.5109952 -0.8700888 -0.1459733 -0.4707836 -0.8932243 -0.1331546 -0.4294417 -0.8932244 -0.1331546 -0.4294416 -0.9142073 -0.1200159 -0.3870675 -0.9142072 -0.1200159 -0.3870676 -0.9329944 -0.1065835 -0.3437462 -0.9495299 -0.09289692 -0.2996052 -0.9329944 -0.1065835 -0.3437462 -0.9637728 -0.07899171 -0.254759 -0.9495299 -0.09289689 -0.299605 -0.9757003 -0.06489042 -0.2092804 -0.9637728 -0.07899173 -0.254759 -0.9757003 -0.06489041 -0.2092803 -0.9852836 -0.05062103 -0.1632597 -0.9924798 -0.03625199 -0.1169176 -0.9852836 -0.05062104 -0.1632597 -0.9924785 -0.03625534 -0.1169273 -0.9972889 -0.02179284 -0.07028419 -0.9996995 -0.007259856 -0.02341379 -0.9972889 -0.02179283 -0.07028416 -0.9996994 -0.007261542 -0.02341866 0.02455907 0.2960683 0.954851 0.02452416 0.2960659 0.9548526 0.07363962 0.2953535 0.9525458 0.07360487 0.2953517 0.9525491 0.1223929 0.2939284 0.9479589 0.1224273 0.2939297 0.947954 0.1709696 0.2917945 0.9410766 0.1709696 0.2917945 0.9410766 0.2190413 0.288963 0.9319449 0.2190413 0.288963 0.9319448 0.3137226 0.2812035 0.9069194 0.2667108 0.2854273 0.9205415 0.2667108 0.2854273 0.9205415 0.3598843 0.2763117 0.8911426 0.3137226 0.2812035 0.9069194 0.3598539 0.2763176 0.891153 0.4052312 0.2707515 0.8732017 0.4052312 0.2707515 0.8732018 0.4496188 0.2645341 0.8531499 0.449591 0.2645359 0.853164 0.4928966 0.2576809 0.8310557 0.4928966 0.2576809 0.8310556 0.5350432 0.2501991 0.8069258 0.5350432 0.250199 0.8069258 0.615191 0.2334821 0.7530113 0.5758141 0.2421306 0.7809039 0.5758141 0.2421306 0.7809039 0.615191 0.2334821 0.7530114 0.6894833 0.2145121 0.6918073 0.6532291 0.2242437 0.7231919 0.6531594 0.2242546 0.7232515 0.6895472 0.2144875 0.6917514 0.7242925 0.2042012 0.6585607 0.7242514 0.2042096 0.6586034 0.7571812 0.1934499 0.623902 0.7572182 0.1934414 0.6238598 0.7883508 0.1822022 0.5876269 0.7883508 0.1822022 0.5876269 0.8175782 0.1705327 0.5499858 0.8175667 0.1705361 0.550002 0.8448742 0.158436 0.5109653 0.8448594 0.1584409 0.5109883 0.8700638 0.1459864 0.4708259 0.8700849 0.1459786 0.4707894 0.9142205 0.120007 0.3870389 0.8932268 0.1331531 0.4294369 0.8932269 0.1331531 0.4294369 0.9142205 0.120007 0.3870389 0.9329895 0.1065872 0.3437583 0.9329895 0.1065872 0.3437582 0.9637776 0.07898668 0.2547427 0.9495282 0.09289838 0.2996098 0.9495282 0.09289838 0.2996098 0.9637776 0.07898667 0.2547427 0.9757012 0.06488978 0.2092763 0.9756995 0.06489141 0.2092836 0.9852781 0.05063151 0.1632895 0.9852766 0.05063344 0.1632981 0.9924785 0.03625486 0.1169268 0.9924799 0.03625254 0.1169165 0.9972904 0.02178751 0.07026596 0.9972899 0.02178891 0.07027218 0.9996987 0.007268448 0.0234415 0.9996988 0.007268168 0.02344026 0 -0.955138 0.296161 0 -0.955138 0.296161 0.0001568029 -0.9551495 0.2961242 -0.0002291253 -0.9551243 0.2962051 3.063334e-05 -0.9551392 0.2961572 0.0001601552 -0.9551456 0.2961367 -0.0004619643 -0.9551197 0.2962196 -4.315449e-05 -0.9551339 0.2961742 0.0001094724 -0.9551418 0.2961484 -0.0001505428 -0.9551303 0.2961859 0.0004879673 -0.9551707 0.2960552 1.243725e-05 -0.9551452 0.2961382 -2.634819e-05 -0.9551421 0.2961476 -8.735882e-06 -0.955143 0.2961447 0.0002051746 -0.9551615 0.2960852 -5.905833e-05 -0.9551336 0.2961755 -1.288048e-05 -0.9551381 0.2961608 -0.0003824381 -0.9550945 0.2963012 6.466785e-05 -0.9551474 0.2961307 -0.0001261679 -0.9551226 0.2962107 4.44623e-05 -0.9551462 0.2961347 0.000256149 -0.9551763 0.2960374 -1.318253e-05 -0.9551367 0.2961652 -2.317824e-05 -0.9551341 0.2961738 2.581849e-05 -0.9551428 0.2961457 -0.0001089986 -0.9551178 0.2962265 -3.797844e-06 -0.955138 0.2961612 0.0001601514 -0.9551768 0.2960362 -4.185442e-05 -0.9551294 0.2961887 -0.0003179634 -0.9550722 0.2963734 0.0001092924 -0.9551632 0.2960796 2.706451e-05 -0.9551427 0.2961459 0.0002004561 -0.9551915 0.2959884 -5.366246e-06 -0.9551362 0.2961669 -6.877341e-05 -0.955117 0.2962287 1.938923e-05 -0.9551424 0.2961468 -0.0001694664 -0.9550788 0.2963516 -0.0001064658 -0.9551017 0.2962781 0.0002303478 -0.9552274 0.2958724 -4.803513e-06 -0.9551359 0.296168 8.764359e-05 -0.9551746 0.296043 -8.074311e-05 -0.9550978 0.2962907 2.883813e-05 -0.9551499 0.2961225 4.378345e-05 -0.9551596 0.2960913 -4.304927e-05 -0.9551148 0.2962358 1.862575e-05 -0.9551472 0.2961313 -0.0001126932 -0.9550713 0.2963764 -8.115217e-05 -0.9550915 0.2963108 7.629094e-05 -0.9551894 0.2959951 4.214487e-05 -0.9551653 0.2960732 9.902164e-06 -0.9551453 0.2961377 1.09899e-05 -0.9551461 0.2961349 -5.021615e-05 -0.9551013 0.2962797 -2.189579e-05 -0.9551122 0.2962443 4.398303e-05 -0.9551841 0.2960124 -3.33536e-05 -0.9550838 0.2963358 2.849869e-05 -0.9551622 0.2960828 -1.513326e-05 -0.9551046 0.2962688 7.736898e-05 -0.9552771 0.2957122 3.064389e-05 -0.9551737 0.296046 9.696824e-05 -0.9552696 0.2957364 -3.965625e-05 -0.9550685 0.2963852 7.570294e-05 -0.9552639 0.2957549 -2.857324e-06 -0.9551281 0.2961932 -2.261195e-05 -0.955068 0.296387 -2.211089e-05 -0.9550691 0.296383 0 -0.9551391 0.2961577 -3.105583e-06 -0.9551392 0.296157 0 0.2726454 0.9621146 0 0.2250761 0.9743412 0 0.2726454 0.9621146 0 0.1769955 0.9842116 0 0.2250761 0.9743412 0 0.1285314 0.9917054 0 0.1769955 0.9842116 0 0.1285314 0.9917054 0 0.07967299 0.9968211 0 0.07967299 0.9968211 0 0.0306852 0.9995291 0 0.0306852 0.9995291 0 -0.01838698 0.999831 0 -0.01838698 0.999831 0 -0.06743959 0.9977233 0 -0.06743959 0.9977233 0 -0.1163306 0.9932106 0 -0.1163306 0.9932106 0 -0.1648953 0.9863111 0 -0.1648953 0.9863111 0 -0.2131206 0.9770259 0 -0.2131206 0.9770259 0 -0.2607916 0.9653952 0 -0.2607916 0.9653952 0 -0.3078572 0.9514326 0 -0.3078572 0.9514326 0 -0.3541193 0.9352002 0 -0.3541193 0.9352002 0 -0.3996442 0.9166704 0 -0.3996442 0.9166704 0 -0.4440737 0.8959903 0 -0.4440737 0.8959903 0 -0.4875973 0.8730687 0 -0.4875973 0.8730687 0 -0.529741 0.8481595 0 -0.529741 0.8481595 0 -0.5707758 0.821106 0 -0.5707758 0.821106 0 -0.6104178 0.7920796 0 -0.6104178 0.7920796 0 -0.6484921 0.7612213 0 -0.6484921 0.7612213 0 -0.6850603 0.7284864 0 -0.6850603 0.7284864 0 -0.720044 0.6939284 0 -0.720044 0.6939284 0 -0.7531334 0.6578678 0 -0.7531334 0.6578678 0 -0.7845601 0.6200528 0 -0.7845601 0.6200528 0 -0.8140306 0.5808219 0 -0.8140306 0.5808219 0 -0.8416001 0.5401011 0 -0.8416001 0.5401011 0 -0.8670693 0.4981876 0 -0.8670693 0.4981876 0 -0.8904271 0.4551258 0 -0.8904271 0.4551258 0 -0.911673 0.4109164 0 -0.911673 0.4109164 0 -0.930771 0.3656028 0 -0.930771 0.3656028 0 -0.9475896 0.3194902 0 -0.9475896 0.3194902 0 0.2726454 0.9621146 0 0.2726454 0.9621146 0 0.2250761 0.9743412 0 0.2250761 0.9743412 0 0.1769955 0.9842116 0 0.1769955 0.9842116 0 0.1285314 0.9917054 0 0.1285314 0.9917054 0 0.07967299 0.9968211 0 0.07967299 0.9968211 0 0.0306852 0.9995291 0 0.0306852 0.9995291 0 -0.01838698 0.999831 0 -0.01838698 0.999831 0 -0.06743959 0.9977233 0 -0.06743959 0.9977233 0 -0.1163306 0.9932106 0 -0.1163306 0.9932106 0 -0.1648953 0.9863111 0 -0.1648953 0.9863111 0 -0.2131206 0.9770259 0 -0.2131206 0.9770259 0 -0.2607916 0.9653952 0 -0.2607916 0.9653952 0 -0.3078572 0.9514326 0 -0.3078572 0.9514326 0 -0.3541193 0.9352002 0 -0.3541193 0.9352002 0 -0.3996442 0.9166704 0 -0.3996442 0.9166704 0 -0.4440737 0.8959903 0 -0.4440737 0.8959903 0 -0.4875973 0.8730687 0 -0.4875973 0.8730687 0 -0.529741 0.8481595 0 -0.529741 0.8481595 0 -0.5707758 0.821106 0 -0.5707758 0.821106 0 -0.6104178 0.7920796 0 -0.6104178 0.7920796 0 -0.6484921 0.7612213 0 -0.6484921 0.7612213 0 -0.6850603 0.7284864 0 -0.6850603 0.7284864 0 -0.720044 0.6939284 0 -0.720044 0.6939284 0 -0.7531334 0.6578678 0 -0.7531334 0.6578678 0 -0.7845601 0.6200528 0 -0.7845601 0.6200528 0 -0.8140306 0.5808219 0 -0.8140306 0.5808219 0 -0.8416001 0.5401011 0 -0.8416001 0.5401011 0 -0.8670693 0.4981876 0 -0.8670693 0.4981876 0 -0.8904271 0.4551258 0 -0.8904271 0.4551258 0 -0.911673 0.4109164 0 -0.911673 0.4109164 0 -0.930771 0.3656028 0 -0.930771 0.3656028 0 -0.9475896 0.3194902 0 -0.9475896 0.3194902 0 0.2961474 0.9551423 0 0.2961474 0.9551423 1 0 0 1 -0 0</float_array>
          <technique_common>
            <accessor count="1364" source="#cubenormals-array0-array" stride="3">
              <param type="float" name="X"/>
              <param type="float" name="Y"/>
              <param type="float" name="Z"/>
            </accessor>
          </technique_common>
        </source>
        <vertices id="cubeverts-array0-vertices">
          <input semantic="POSITION" source="#cubeverts-array0"/>
        </vertices>
        <triangles count="1364" material="ref_Arducam_support_Rcover_shape">
          <input offset="0" semantic="VERTEX" source="#cubeverts-array0-vertices"/>
          <input offset="1" semantic="NORMAL" source="#cubenormals-array0"/>
          <p>0 0 1 0 2 0 3 1 0 1 2 1 4 2 5 2 6 2 4 3 6 3 0 3 4 4 0 4 3 4 7 5 5 5 4 5 8 6 9 6 10 6 8 7 10 7 5 7 8 8 5 8 7 8 11 9 12 9 9 9 11 10 9 10 8 10 13 11 12 11 11 11 14 12 15 12 16 12 14 13 16 13 12 13 14 14 12 14 13 14 17 15 15 15 14 15 18 16 15 16 17 16 18 17 19 17 15 17 20 18 19 18 18 18 20 19 21 19 22 19 20 20 22 20 19 20 23 21 21 21 20 21 24 22 21 22 23 22 24 23 25 23 21 23 26 24 25 24 24 24 26 25 27 25 25 25 28 26 27 26 26 26 28 27 29 27 27 27 30 28 29 28 28 28 30 29 31 29 29 29 32 30 31 30 30 30 33 31 32 31 30 31 34 32 33 32 35 32 34 33 32 33 33 33 36 34 34 34 35 34 37 35 34 35 36 35 38 36 37 36 36 36 39 37 37 37 38 37 40 38 38 38 41 38 40 39 39 39 38 39 42 40 40 40 41 40 43 41 40 41 42 41 44 42 43 42 42 42 45 43 43 43 44 43 46 44 44 44 47 44 46 45 45 45 44 45 48 46 47 46 49 46 48 47 46 47 47 47 50 48 49 48 51 48 50 49 48 49 49 49 52 50 51 50 53 50 52 51 50 51 51 51 54 52 55 52 56 52 54 53 53 53 55 53 54 54 52 54 53 54 57 55 54 55 56 55 58 56 56 56 59 56 58 57 57 57 56 57 60 58 59 58 61 58 60 59 58 59 59 59 62 60 61 60 63 60 62 61 60 61 61 61 64 62 62 62 63 62 64 63 63 63 65 63 66 64 65 64 67 64 66 65 64 65 65 65 68 66 66 66 67 66 68 67 67 67 69 67 70 68 71 68 72 68 71 69 73 69 72 69 74 70 75 70 76 70 76 71 75 71 77 71 77 72 75 72 78 72 75 73 79 73 78 73 80 74 81 74 71 74 71 75 81 75 73 75 82 76 83 76 84 76 78 77 83 77 82 77 79 78 83 78 78 78 85 79 86 79 80 79 80 80 86 80 81 80 85 81 87 81 86 81 88 82 87 82 85 82 83 83 89 83 84 83 84 84 89 84 90 84 91 85 92 85 88 85 93 86 92 86 91 86 88 87 92 87 87 87 89 88 94 88 90 88 93 89 95 89 92 89 96 90 95 90 93 90 90 91 97 91 98 91 94 92 97 92 90 92 97 93 99 93 98 93 100 94 99 94 101 94 98 95 99 95 100 95 96 96 102 96 95 96 103 97 104 97 96 97 105 98 104 98 103 98 96 99 104 99 102 99 99 100 106 100 101 100 105 101 107 101 104 101 108 102 107 102 105 102 101 103 109 103 110 103 106 104 109 104 101 104 108 105 111 105 107 105 109 106 112 106 110 106 110 107 112 107 113 107 114 108 115 108 108 108 116 109 115 109 114 109 108 110 115 110 111 110 113 111 117 111 118 111 112 112 117 112 113 112 117 113 119 113 118 113 118 114 119 114 120 114 116 115 121 115 115 115 119 116 122 116 120 116 120 117 122 117 123 117 124 118 125 118 116 118 116 119 125 119 121 119 122 120 126 120 123 120 123 121 126 121 127 121 128 122 129 122 124 122 130 123 129 123 128 123 124 124 129 124 125 124 126 125 131 125 127 125 132 126 131 126 133 126 127 127 131 127 132 127 134 128 135 128 130 128 130 129 135 129 129 129 136 130 137 130 134 130 134 131 137 131 135 131 131 132 138 132 133 132 138 133 139 133 133 133 136 134 139 134 137 134 133 135 139 135 136 135 140 136 72 136 73 136 141 137 142 137 143 137 144 138 142 138 141 138 145 139 142 139 144 139 146 140 142 140 145 140 147 141 142 141 146 141 148 142 142 142 147 142 149 143 142 143 148 143 150 144 142 144 149 144 151 145 142 145 150 145 152 146 142 146 151 146 153 147 142 147 152 147 154 148 142 148 153 148 155 149 142 149 154 149 156 150 142 150 155 150 157 151 142 151 156 151 158 152 142 152 157 152 159 153 142 153 158 153 160 154 142 154 159 154 161 155 142 155 160 155 162 156 142 156 161 156 72 157 142 157 162 157 142 158 163 158 143 158 142 159 164 159 163 159 142 160 165 160 164 160 142 161 166 161 165 161 142 162 167 162 166 162 142 163 168 163 167 163 142 164 169 164 168 164 142 165 170 165 169 165 142 166 171 166 170 166 142 167 172 167 171 167 142 168 173 168 172 168 142 169 174 169 173 169 174 170 175 170 173 170 140 171 142 171 72 171 176 172 177 172 178 172 179 173 177 173 176 173 180 174 177 174 179 174 181 175 177 175 180 175 182 176 177 176 181 176 183 177 177 177 182 177 184 178 177 178 183 178 185 179 177 179 184 179 186 180 177 180 185 180 187 181 177 181 186 181 188 182 177 182 187 182 189 183 177 183 188 183 190 184 177 184 189 184 191 185 177 185 190 185 192 186 177 186 191 186 193 187 177 187 192 187 194 188 177 188 193 188 195 189 177 189 194 189 196 190 177 190 195 190 197 191 177 191 196 191 198 192 177 192 197 192 199 193 177 193 198 193 200 194 177 194 199 194 201 195 177 195 200 195 202 196 177 196 201 196 203 197 177 197 202 197 204 198 177 198 203 198 205 199 177 199 204 199 206 200 177 200 205 200 207 201 177 201 206 201 208 202 177 202 207 202 69 203 177 203 208 203 67 204 209 204 69 204 69 205 209 205 177 205 178 206 210 206 211 206 177 207 210 207 178 207 210 208 212 208 211 208 211 209 212 209 213 209 213 210 214 210 215 210 212 211 214 211 213 211 215 212 216 212 217 212 217 213 216 213 218 213 214 214 216 214 215 214 216 215 219 215 218 215 218 216 220 216 221 216 219 217 220 217 218 217 221 218 222 218 223 218 220 219 222 219 221 219 223 220 224 220 225 220 222 221 224 221 223 221 225 222 226 222 227 222 227 223 226 223 228 223 224 224 226 224 225 224 226 225 229 225 228 225 228 226 230 226 231 226 229 227 230 227 228 227 231 228 232 228 233 228 230 229 232 229 231 229 233 230 232 230 234 230 234 231 235 231 236 231 232 232 235 232 234 232 236 233 237 233 238 233 235 234 237 234 236 234 238 235 239 235 240 235 237 236 239 236 238 236 239 237 241 237 240 237 240 238 242 238 243 238 241 239 242 239 240 239 243 240 244 240 245 240 242 241 244 241 243 241 245 242 246 242 247 242 247 243 246 243 248 243 244 244 246 244 245 244 246 245 249 245 248 245 248 246 250 246 251 246 249 247 250 247 248 247 251 248 252 248 253 248 250 249 252 249 251 249 253 250 254 250 255 250 255 251 254 251 256 251 252 252 254 252 253 252 254 253 257 253 256 253 257 254 258 254 256 254 256 255 258 255 259 255 259 256 260 256 261 256 261 257 260 257 262 257 258 258 260 258 259 258 260 259 263 259 262 259 262 260 264 260 265 260 263 261 264 261 262 261 265 262 266 262 267 262 264 263 266 263 265 263 267 264 268 264 269 264 266 265 268 265 267 265 269 266 270 266 271 266 268 267 270 267 269 267 271 268 272 268 273 268 270 269 272 269 271 269 273 270 274 270 275 270 272 271 274 271 273 271 274 272 276 272 275 272 275 273 276 273 277 273 276 274 278 274 279 274 274 275 278 275 276 275 280 276 75 276 74 276 280 277 74 277 281 277 140 278 73 278 81 278 282 279 140 279 81 279 283 280 81 280 86 280 283 281 86 281 87 281 283 282 282 282 81 282 284 283 283 283 87 283 285 284 87 284 92 284 285 285 284 285 87 285 286 286 92 286 95 286 286 287 285 287 92 287 287 288 95 288 102 288 287 289 286 289 95 289 288 290 102 290 104 290 288 291 287 291 102 291 289 292 104 292 107 292 289 293 107 293 111 293 289 294 288 294 104 294 290 295 289 295 111 295 291 296 290 296 111 296 291 297 111 297 115 297 291 298 115 298 121 298 292 299 291 299 121 299 293 300 292 300 121 300 293 301 121 301 125 301 293 302 125 302 129 302 294 303 293 303 129 303 295 304 294 304 129 304 295 305 129 305 135 305 296 306 295 306 135 306 296 307 135 307 137 307 297 308 296 308 137 308 297 309 137 309 139 309 298 310 297 310 139 310 298 311 139 311 138 311 299 312 298 312 138 312 299 313 138 313 131 313 300 314 299 314 131 314 300 315 131 315 126 315 301 316 300 316 126 316 301 317 126 317 122 317 302 318 122 318 119 318 302 319 301 319 122 319 303 320 119 320 117 320 303 321 302 321 119 321 303 322 117 322 112 322 304 323 303 323 112 323 305 324 112 324 109 324 305 325 304 325 112 325 305 326 109 326 106 326 306 327 305 327 106 327 307 328 106 328 99 328 307 329 306 329 106 329 308 330 99 330 97 330 308 331 307 331 99 331 309 332 97 332 94 332 309 333 308 333 97 333 310 334 94 334 89 334 310 335 89 335 83 335 310 336 309 336 94 336 311 337 310 337 83 337 312 338 83 338 79 338 312 339 79 339 75 339 312 340 311 340 83 340 280 341 312 341 75 341 313 342 314 342 71 342 71 343 314 343 80 343 80 344 314 344 85 344 314 345 315 345 85 345 85 346 316 346 88 346 88 347 316 347 91 347 315 348 316 348 85 348 316 349 317 349 91 349 91 350 318 350 93 350 317 351 318 351 91 351 93 352 319 352 96 352 318 353 319 353 93 353 96 354 320 354 103 354 103 355 320 355 105 355 319 356 320 356 96 356 320 357 321 357 105 357 321 358 322 358 105 358 105 359 322 359 108 359 108 360 323 360 114 360 322 361 323 361 108 361 114 362 324 362 116 362 323 363 324 363 114 363 116 364 325 364 124 364 124 365 325 365 128 365 324 366 325 366 116 366 128 367 326 367 130 367 325 368 326 368 128 368 326 369 327 369 130 369 130 370 328 370 134 370 327 371 328 371 130 371 134 372 329 372 136 372 136 373 329 373 133 373 328 374 329 374 134 374 133 375 330 375 132 375 329 376 330 376 133 376 330 377 331 377 132 377 132 378 332 378 127 378 331 379 332 379 132 379 127 380 333 380 123 380 332 381 333 381 127 381 123 382 334 382 120 382 333 383 334 383 123 383 120 384 335 384 118 384 118 385 335 385 113 385 334 386 335 386 120 386 335 387 336 387 113 387 336 388 337 388 113 388 113 389 337 389 110 389 110 390 338 390 101 390 337 391 338 391 110 391 101 392 339 392 100 392 338 393 339 393 101 393 100 394 340 394 98 394 339 395 340 395 100 395 98 396 341 396 90 396 90 397 341 397 84 397 340 398 341 398 98 398 341 399 342 399 84 399 84 400 343 400 82 400 342 401 343 401 84 401 82 402 344 402 78 402 343 403 344 403 82 403 78 404 345 404 77 404 344 405 345 405 78 405 345 406 76 406 77 406 345 407 346 407 76 407 347 408 278 408 346 408 346 409 278 409 281 409 278 410 348 410 279 410 347 411 348 411 278 411 281 412 76 412 346 412 281 413 74 413 76 413 349 414 350 414 351 414 349 415 351 415 352 415 347 416 349 416 348 416 347 417 350 417 349 417 353 418 354 418 355 418 353 419 355 419 356 419 357 420 356 420 358 420 357 421 358 421 359 421 357 422 353 422 356 422 360 423 357 423 359 423 361 424 359 424 362 424 361 425 362 425 363 425 361 426 360 426 359 426 364 427 361 427 363 427 365 428 363 428 366 428 365 429 364 429 363 429 367 430 366 430 368 430 367 431 368 431 369 431 367 432 365 432 366 432 370 433 367 433 369 433 371 434 370 434 369 434 371 435 369 435 372 435 371 436 372 436 373 436 374 437 371 437 373 437 375 438 374 438 373 438 375 439 373 439 376 439 377 440 375 440 376 440 377 441 376 441 378 441 377 442 378 442 379 442 380 443 377 443 379 443 380 444 379 444 381 444 382 445 380 445 381 445 382 446 381 446 383 446 384 447 382 447 383 447 385 448 384 448 383 448 385 449 383 449 386 449 387 450 385 450 386 450 387 451 386 451 388 451 387 452 388 452 389 452 390 453 387 453 389 453 391 454 390 454 389 454 391 455 389 455 392 455 391 456 392 456 393 456 394 457 391 457 393 457 394 458 393 458 395 458 396 459 395 459 397 459 396 460 394 460 395 460 398 461 396 461 397 461 399 462 397 462 400 462 399 463 400 463 401 463 399 464 398 464 397 464 402 465 399 465 401 465 403 466 401 466 404 466 403 467 402 467 401 467 405 468 404 468 406 468 405 469 406 469 407 469 405 470 403 470 404 470 408 471 405 471 407 471 409 472 407 472 410 472 409 473 408 473 407 473 411 474 410 474 412 474 411 475 409 475 410 475 413 476 412 476 414 476 413 477 414 477 415 477 413 478 411 478 412 478 416 479 415 479 351 479 416 480 413 480 415 480 350 481 416 481 351 481 417 482 68 482 418 482 417 483 418 483 419 483 417 484 419 484 420 484 417 485 420 485 421 485 417 486 421 486 422 486 417 487 422 487 423 487 417 488 423 488 424 488 417 489 424 489 425 489 417 490 425 490 426 490 417 491 426 491 427 491 417 492 427 492 428 492 417 493 428 493 429 493 417 494 429 494 430 494 417 495 430 495 431 495 417 496 431 496 432 496 417 497 432 497 433 497 417 498 433 498 434 498 417 499 434 499 435 499 417 500 435 500 436 500 417 501 436 501 437 501 417 502 437 502 438 502 417 503 438 503 439 503 417 504 439 504 440 504 417 505 440 505 441 505 417 506 441 506 442 506 417 507 442 507 443 507 417 508 443 508 444 508 417 509 444 509 445 509 417 510 445 510 446 510 417 511 446 511 447 511 417 512 447 512 448 512 417 513 448 513 449 513 450 514 66 514 68 514 450 515 68 515 417 515 354 516 449 516 355 516 354 517 417 517 449 517 70 518 313 518 71 518 451 519 70 519 452 519 451 520 452 520 453 520 451 521 453 521 454 521 451 522 454 522 455 522 451 523 455 523 456 523 451 524 456 524 457 524 451 525 457 525 458 525 451 526 458 526 459 526 451 527 459 527 460 527 451 528 460 528 461 528 451 529 461 529 462 529 451 530 462 530 463 530 451 531 463 531 464 531 451 532 464 532 465 532 451 533 465 533 466 533 451 534 466 534 467 534 451 535 467 535 468 535 451 536 468 536 469 536 451 537 469 537 470 537 451 538 470 538 471 538 451 539 471 539 472 539 451 540 313 540 70 540 473 541 451 541 472 541 474 542 451 542 473 542 475 543 451 543 474 543 476 544 451 544 475 544 477 545 451 545 476 545 478 546 451 546 477 546 479 547 451 547 478 547 480 548 451 548 479 548 481 549 451 549 480 549 482 550 451 550 481 550 483 551 451 551 482 551 484 552 451 552 483 552 485 553 484 553 483 553 352 554 275 554 277 554 211 555 355 555 178 555 178 556 355 556 449 556 275 557 351 557 273 557 352 558 351 558 275 558 213 559 356 559 211 559 211 560 356 560 355 560 351 561 415 561 273 561 215 562 358 562 213 562 213 563 358 563 356 563 273 564 414 564 271 564 415 565 414 565 273 565 217 566 359 566 215 566 215 567 359 567 358 567 414 568 412 568 271 568 269 569 412 569 267 569 271 570 412 570 269 570 218 571 362 571 217 571 221 572 362 572 218 572 217 573 362 573 359 573 412 574 410 574 267 574 223 575 363 575 221 575 221 576 363 576 362 576 265 577 407 577 262 577 267 578 407 578 265 578 410 579 407 579 267 579 223 580 366 580 363 580 407 581 406 581 262 581 225 582 368 582 223 582 223 583 368 583 366 583 406 584 404 584 262 584 261 585 404 585 259 585 262 586 404 586 261 586 404 587 401 587 259 587 227 588 369 588 225 588 225 589 369 589 368 589 228 590 372 590 227 590 231 591 372 591 228 591 227 592 372 592 369 592 259 593 400 593 256 593 401 594 400 594 259 594 231 595 373 595 372 595 400 596 397 596 256 596 256 597 397 597 255 597 233 598 376 598 231 598 231 599 376 599 373 599 255 600 395 600 253 600 397 601 395 601 255 601 234 602 378 602 233 602 236 603 378 603 234 603 233 604 378 604 376 604 253 605 393 605 251 605 395 606 393 606 253 606 236 607 379 607 378 607 248 608 392 608 247 608 251 609 392 609 248 609 393 610 392 610 251 610 238 611 381 611 236 611 236 612 381 612 379 612 392 613 389 613 247 613 240 614 383 614 238 614 243 615 383 615 240 615 238 616 383 616 381 616 389 617 388 617 247 617 245 618 388 618 243 618 247 619 388 619 245 619 243 620 386 620 383 620 388 621 386 621 243 621 345 622 347 622 346 622 313 623 451 623 417 623 350 624 333 624 332 624 350 625 334 625 333 625 350 626 335 626 334 626 350 627 336 627 335 627 350 628 337 628 336 628 350 629 338 629 337 629 350 630 339 630 338 630 350 631 340 631 339 631 350 632 341 632 340 632 350 633 342 633 341 633 350 634 343 634 342 634 350 635 344 635 343 635 350 636 345 636 344 636 350 637 347 637 345 637 354 638 314 638 313 638 354 639 315 639 314 639 354 640 316 640 315 640 354 641 317 641 316 641 354 642 318 642 317 642 354 643 319 643 318 643 354 644 320 644 319 644 354 645 321 645 320 645 354 646 322 646 321 646 354 647 323 647 322 647 354 648 324 648 323 648 354 649 325 649 324 649 354 650 326 650 325 650 354 651 313 651 417 651 416 652 350 652 332 652 353 653 326 653 354 653 413 654 416 654 332 654 357 655 326 655 353 655 411 656 413 656 332 656 411 657 332 657 331 657 360 658 327 658 326 658 360 659 326 659 357 659 409 660 411 660 331 660 361 661 327 661 360 661 364 662 327 662 361 662 408 663 409 663 331 663 365 664 327 664 364 664 405 665 408 665 331 665 367 666 327 666 365 666 403 667 405 667 331 667 370 668 328 668 327 668 370 669 327 669 367 669 402 670 331 670 330 670 402 671 403 671 331 671 371 672 328 672 370 672 399 673 402 673 330 673 374 674 328 674 371 674 398 675 399 675 330 675 375 676 328 676 374 676 396 677 398 677 330 677 377 678 328 678 375 678 394 679 396 679 330 679 380 680 329 680 328 680 380 681 328 681 377 681 391 682 330 682 329 682 391 683 394 683 330 683 382 684 329 684 380 684 390 685 391 685 329 685 384 686 329 686 382 686 387 687 390 687 329 687 385 688 387 688 329 688 385 689 329 689 384 689 142 690 140 690 177 690 278 691 280 691 281 691 301 692 274 692 300 692 302 693 274 693 301 693 303 694 274 694 302 694 304 695 274 695 303 695 305 696 274 696 304 696 306 697 274 697 305 697 307 698 274 698 306 698 308 699 274 699 307 699 309 700 274 700 308 700 310 701 274 701 309 701 311 702 274 702 310 702 312 703 274 703 311 703 280 704 274 704 312 704 278 705 274 705 280 705 282 706 210 706 140 706 283 707 210 707 282 707 284 708 210 708 283 708 285 709 210 709 284 709 286 710 210 710 285 710 287 711 210 711 286 711 288 712 210 712 287 712 289 713 210 713 288 713 290 714 210 714 289 714 291 715 210 715 290 715 292 716 210 716 291 716 293 717 210 717 292 717 294 718 210 718 293 718 140 719 210 719 177 719 274 720 272 720 300 720 294 721 212 721 210 721 272 722 270 722 300 722 294 723 214 723 212 723 270 724 268 724 300 724 300 725 268 725 299 725 295 726 216 726 294 726 294 727 216 727 214 727 268 728 266 728 299 728 295 729 219 729 216 729 295 730 220 730 219 730 266 731 264 731 299 731 264 732 263 732 299 732 295 733 222 733 220 733 263 734 260 734 299 734 295 735 224 735 222 735 296 736 226 736 295 736 295 737 226 737 224 737 299 738 258 738 298 738 260 739 258 739 299 739 296 740 229 740 226 740 258 741 257 741 298 741 296 742 230 742 229 742 257 743 254 743 298 743 296 744 232 744 230 744 254 745 252 745 298 745 296 746 235 746 232 746 252 747 250 747 298 747 297 748 237 748 296 748 296 749 237 749 235 749 298 750 249 750 297 750 250 751 249 751 298 751 297 752 239 752 237 752 249 753 246 753 297 753 297 754 241 754 239 754 246 755 244 755 297 755 244 756 242 756 297 756 297 757 242 757 241 757 486 758 487 758 488 758 486 759 488 759 489 759 490 760 491 760 487 760 490 761 487 761 486 761 492 762 493 762 491 762 492 763 491 763 490 763 494 764 495 764 493 764 494 765 493 765 492 765 496 766 497 766 495 766 496 767 495 767 494 767 498 768 499 768 497 768 498 769 500 769 499 769 498 770 497 770 496 770 501 771 500 771 498 771 502 772 500 772 501 772 502 773 503 773 500 773 504 774 505 774 503 774 504 775 503 775 502 775 506 776 505 776 504 776 506 777 507 777 505 777 508 778 507 778 506 778 508 779 509 779 507 779 508 780 510 780 509 780 511 781 510 781 508 781 512 782 510 782 511 782 512 783 513 783 510 783 512 784 514 784 513 784 515 785 514 785 512 785 516 786 514 786 515 786 516 787 517 787 514 787 518 788 517 788 516 788 519 789 518 789 516 789 520 790 518 790 519 790 520 791 521 791 518 791 522 792 520 792 523 792 522 793 521 793 520 793 524 794 522 794 523 794 525 795 524 795 526 795 525 796 522 796 524 796 527 797 525 797 526 797 528 798 526 798 529 798 528 799 529 799 530 799 528 800 527 800 526 800 531 801 528 801 530 801 532 802 530 802 533 802 532 803 531 803 530 803 534 804 533 804 535 804 534 805 532 805 533 805 536 806 535 806 537 806 536 807 537 807 538 807 536 808 534 808 535 808 539 809 538 809 540 809 539 810 536 810 538 810 541 811 539 811 540 811 542 812 540 812 543 812 542 813 541 813 540 813 544 814 543 814 545 814 544 815 542 815 543 815 546 816 545 816 547 816 546 817 544 817 545 817 548 818 547 818 549 818 548 819 546 819 547 819 550 820 548 820 549 820 550 821 549 821 551 821 175 822 550 822 551 822 175 823 551 823 485 823 173 824 485 824 483 824 173 825 175 825 485 825 552 826 553 826 554 826 554 827 553 827 555 827 552 828 556 828 553 828 552 829 557 829 556 829 552 830 558 830 557 830 552 831 559 831 558 831 560 832 561 832 552 832 552 833 561 833 559 833 560 834 562 834 561 834 563 835 562 835 560 835 563 836 564 836 562 836 565 837 564 837 566 837 566 838 564 838 563 838 567 839 568 839 565 839 565 840 568 840 564 840 569 841 570 841 567 841 567 842 570 842 568 842 571 843 572 843 573 843 573 844 572 844 569 844 569 845 572 845 570 845 571 846 574 846 572 846 575 847 574 847 571 847 575 848 576 848 574 848 577 849 576 849 578 849 578 850 576 850 575 850 577 851 579 851 576 851 580 852 579 852 577 852 581 853 582 853 583 853 583 854 582 854 580 854 580 855 582 855 579 855 584 856 585 856 581 856 581 857 585 857 582 857 584 858 586 858 585 858 584 859 587 859 586 859 587 860 588 860 586 860 587 861 589 861 588 861 589 862 590 862 588 862 588 863 590 863 591 863 591 864 592 864 593 864 590 865 592 865 591 865 592 866 594 866 593 866 593 867 595 867 596 867 594 868 595 868 593 868 596 869 597 869 598 869 595 870 597 870 596 870 597 871 599 871 598 871 598 872 600 872 601 872 599 873 600 873 598 873 600 874 602 874 601 874 601 875 602 875 603 875 603 876 604 876 605 876 602 877 604 877 603 877 604 878 606 878 605 878 605 879 607 879 608 879 606 880 607 880 605 880 607 881 609 881 608 881 608 882 609 882 610 882 609 883 611 883 610 883 611 884 612 884 610 884 610 885 612 885 613 885 613 886 450 886 614 886 614 887 450 887 615 887 615 888 450 888 616 888 616 889 450 889 617 889 617 890 450 890 484 890 612 891 450 891 613 891 450 892 417 892 484 892 484 893 417 893 451 893 560 894 552 894 0 894 560 895 6 895 5 895 560 896 0 896 6 896 563 897 560 897 5 897 566 898 5 898 10 898 566 899 563 899 5 899 565 900 9 900 12 900 565 901 10 901 9 901 565 902 566 902 10 902 567 903 565 903 12 903 569 904 16 904 15 904 569 905 12 905 16 905 569 906 567 906 12 906 573 907 15 907 19 907 573 908 569 908 15 908 571 909 573 909 19 909 575 910 571 910 19 910 575 911 22 911 21 911 575 912 19 912 22 912 578 913 575 913 21 913 577 914 578 914 21 914 577 915 21 915 25 915 580 916 577 916 25 916 580 917 27 917 29 917 580 918 25 918 27 918 583 919 580 919 29 919 583 920 29 920 31 920 581 921 583 921 31 921 584 922 581 922 31 922 584 923 31 923 32 923 587 924 584 924 32 924 587 925 32 925 34 925 589 926 587 926 34 926 589 927 34 927 37 927 590 928 589 928 37 928 590 929 39 929 40 929 590 930 37 930 39 930 592 931 590 931 40 931 594 932 43 932 45 932 594 933 40 933 43 933 594 934 592 934 40 934 595 935 594 935 45 935 597 936 45 936 46 936 597 937 595 937 45 937 599 938 48 938 50 938 599 939 46 939 48 939 599 940 597 940 46 940 600 941 599 941 50 941 602 942 50 942 52 942 602 943 600 943 50 943 604 944 52 944 54 944 604 945 602 945 52 945 606 946 54 946 57 946 606 947 604 947 54 947 607 948 57 948 58 948 607 949 606 949 57 949 609 950 58 950 60 950 609 951 607 951 58 951 611 952 60 952 62 952 611 953 609 953 60 953 612 954 62 954 64 954 612 955 611 955 62 955 450 956 64 956 66 956 450 957 612 957 64 957 552 958 1 958 0 958 552 959 554 959 1 959 1 960 618 960 2 960 1 961 554 961 618 961 488 962 619 962 489 962 618 963 555 963 619 963 554 964 555 964 618 964 619 965 555 965 489 965 555 966 553 966 489 966 489 967 553 967 486 967 553 968 556 968 486 968 486 969 556 969 490 969 490 970 557 970 492 970 556 971 557 971 490 971 492 972 558 972 494 972 557 973 558 973 492 973 494 974 559 974 496 974 558 975 559 975 494 975 496 976 561 976 498 976 559 977 561 977 496 977 498 978 562 978 501 978 501 979 562 979 502 979 561 980 562 980 498 980 562 981 564 981 502 981 564 982 568 982 502 982 502 983 568 983 504 983 568 984 570 984 504 984 504 985 570 985 506 985 506 986 572 986 508 986 570 987 572 987 506 987 508 988 572 988 511 988 572 989 574 989 511 989 511 990 576 990 512 990 574 991 576 991 511 991 512 992 579 992 515 992 515 993 579 993 516 993 576 994 579 994 512 994 579 995 582 995 516 995 516 996 585 996 519 996 582 997 585 997 516 997 519 998 586 998 520 998 585 999 586 999 519 999 520 1000 588 1000 523 1000 586 1001 588 1001 520 1001 523 1002 591 1002 524 1002 588 1003 591 1003 523 1003 524 1004 593 1004 526 1004 591 1005 593 1005 524 1005 526 1006 596 1006 529 1006 593 1007 596 1007 526 1007 529 1008 598 1008 530 1008 530 1009 598 1009 533 1009 596 1010 598 1010 529 1010 598 1011 601 1011 533 1011 533 1012 603 1012 535 1012 601 1013 603 1013 533 1013 535 1014 605 1014 537 1014 537 1015 605 1015 538 1015 603 1016 605 1016 535 1016 605 1017 608 1017 538 1017 538 1018 610 1018 540 1018 608 1019 610 1019 538 1019 540 1020 613 1020 543 1020 543 1021 613 1021 545 1021 610 1022 613 1022 540 1022 613 1023 614 1023 545 1023 545 1024 615 1024 547 1024 547 1025 615 1025 549 1025 614 1026 615 1026 545 1026 615 1027 616 1027 549 1027 549 1028 617 1028 551 1028 616 1029 617 1029 549 1029 551 1030 484 1030 485 1030 617 1031 484 1031 551 1031 618 1032 620 1032 3 1032 618 1033 3 1033 2 1033 621 1034 488 1034 487 1034 621 1035 619 1035 488 1035 621 1036 487 1036 491 1036 622 1037 491 1037 493 1037 622 1038 621 1038 491 1038 623 1039 493 1039 495 1039 623 1040 622 1040 493 1040 624 1041 495 1041 497 1041 624 1042 623 1042 495 1042 625 1043 497 1043 499 1043 625 1044 624 1044 497 1044 626 1045 499 1045 500 1045 626 1046 625 1046 499 1046 627 1047 500 1047 503 1047 627 1048 626 1048 500 1048 628 1049 503 1049 505 1049 628 1050 627 1050 503 1050 629 1051 628 1051 505 1051 629 1052 505 1052 507 1052 630 1053 629 1053 507 1053 630 1054 507 1054 509 1054 631 1055 630 1055 509 1055 631 1056 509 1056 510 1056 632 1057 631 1057 510 1057 632 1058 510 1058 513 1058 633 1059 632 1059 513 1059 633 1060 513 1060 514 1060 634 1061 633 1061 514 1061 634 1062 514 1062 517 1062 635 1063 634 1063 517 1063 635 1064 517 1064 518 1064 636 1065 635 1065 518 1065 636 1066 518 1066 521 1066 637 1067 636 1067 521 1067 637 1068 521 1068 522 1068 638 1069 637 1069 522 1069 638 1070 522 1070 525 1070 639 1071 638 1071 525 1071 640 1072 639 1072 525 1072 640 1073 525 1073 527 1073 640 1074 527 1074 528 1074 641 1075 640 1075 528 1075 642 1076 528 1076 531 1076 642 1077 531 1077 532 1077 642 1078 641 1078 528 1078 643 1079 642 1079 532 1079 644 1080 532 1080 534 1080 644 1081 643 1081 532 1081 645 1082 534 1082 536 1082 645 1083 644 1083 534 1083 646 1084 536 1084 539 1084 646 1085 539 1085 541 1085 646 1086 645 1086 536 1086 647 1087 541 1087 542 1087 647 1088 646 1088 541 1088 648 1089 542 1089 544 1089 648 1090 647 1090 542 1090 649 1091 648 1091 544 1091 650 1092 544 1092 546 1092 650 1093 546 1093 548 1093 650 1094 649 1094 544 1094 651 1095 650 1095 548 1095 651 1096 548 1096 550 1096 652 1097 550 1097 175 1097 652 1098 651 1098 550 1098 174 1099 652 1099 175 1099 620 1100 653 1100 3 1100 3 1101 653 1101 4 1101 4 1102 654 1102 7 1102 653 1103 654 1103 4 1103 7 1104 655 1104 8 1104 654 1105 655 1105 7 1105 8 1106 656 1106 11 1106 655 1107 656 1107 8 1107 11 1108 657 1108 13 1108 656 1109 657 1109 11 1109 14 1110 658 1110 17 1110 13 1111 658 1111 14 1111 657 1112 658 1112 13 1112 17 1113 659 1113 18 1113 658 1114 659 1114 17 1114 659 1115 660 1115 18 1115 660 1116 661 1116 18 1116 18 1117 661 1117 20 1117 661 1118 662 1118 20 1118 20 1119 662 1119 23 1119 662 1120 663 1120 23 1120 23 1121 663 1121 24 1121 663 1122 664 1122 24 1122 24 1123 664 1123 26 1123 28 1124 665 1124 30 1124 26 1125 665 1125 28 1125 664 1126 665 1126 26 1126 665 1127 666 1127 30 1127 33 1128 667 1128 35 1128 30 1129 667 1129 33 1129 666 1130 667 1130 30 1130 667 1131 668 1131 35 1131 35 1132 669 1132 36 1132 668 1133 669 1133 35 1133 36 1134 670 1134 38 1134 669 1135 670 1135 36 1135 38 1136 671 1136 41 1136 670 1137 671 1137 38 1137 41 1138 672 1138 42 1138 671 1139 672 1139 41 1139 42 1140 673 1140 44 1140 672 1141 673 1141 42 1141 44 1142 674 1142 47 1142 673 1143 674 1143 44 1143 49 1144 675 1144 51 1144 47 1145 675 1145 49 1145 674 1146 675 1146 47 1146 675 1147 676 1147 51 1147 51 1148 677 1148 53 1148 676 1149 677 1149 51 1149 55 1150 678 1150 56 1150 53 1151 678 1151 55 1151 677 1152 678 1152 53 1152 678 1153 679 1153 56 1153 56 1154 680 1154 59 1154 679 1155 680 1155 56 1155 59 1156 681 1156 61 1156 680 1157 681 1157 59 1157 61 1158 682 1158 63 1158 681 1159 682 1159 61 1159 63 1160 683 1160 65 1160 682 1161 683 1161 63 1161 65 1162 209 1162 67 1162 683 1163 209 1163 65 1163 621 1164 620 1164 618 1164 621 1165 618 1165 619 1165 622 1166 620 1166 621 1166 623 1167 620 1167 622 1167 624 1168 620 1168 623 1168 625 1169 620 1169 624 1169 626 1170 620 1170 625 1170 626 1171 653 1171 620 1171 627 1172 653 1172 626 1172 627 1173 654 1173 653 1173 628 1174 654 1174 627 1174 628 1175 656 1175 655 1175 628 1176 655 1176 654 1176 629 1177 656 1177 628 1177 629 1178 657 1178 656 1178 630 1179 657 1179 629 1179 630 1180 658 1180 657 1180 631 1181 658 1181 630 1181 631 1182 660 1182 659 1182 631 1183 659 1183 658 1183 632 1184 661 1184 660 1184 632 1185 660 1185 631 1185 633 1186 661 1186 632 1186 633 1187 663 1187 662 1187 633 1188 662 1188 661 1188 634 1189 664 1189 663 1189 634 1190 663 1190 633 1190 635 1191 666 1191 665 1191 635 1192 665 1192 664 1192 635 1193 664 1193 634 1193 636 1194 666 1194 635 1194 636 1195 667 1195 666 1195 637 1196 667 1196 636 1196 668 1197 667 1197 637 1197 638 1198 668 1198 637 1198 669 1199 668 1199 638 1199 670 1200 638 1200 639 1200 670 1201 669 1201 638 1201 671 1202 639 1202 640 1202 671 1203 670 1203 639 1203 672 1204 671 1204 640 1204 673 1205 640 1205 641 1205 673 1206 672 1206 640 1206 674 1207 641 1207 642 1207 674 1208 673 1208 641 1208 675 1209 674 1209 642 1209 676 1210 642 1210 643 1210 676 1211 675 1211 642 1211 677 1212 643 1212 644 1212 677 1213 676 1213 643 1213 678 1214 644 1214 645 1214 678 1215 677 1215 644 1215 679 1216 678 1216 645 1216 680 1217 645 1217 646 1217 680 1218 679 1218 645 1218 681 1219 646 1219 647 1219 681 1220 680 1220 646 1220 682 1221 681 1221 647 1221 683 1222 647 1222 648 1222 683 1223 682 1223 647 1223 209 1224 652 1224 174 1224 209 1225 651 1225 652 1225 209 1226 650 1226 651 1226 209 1227 683 1227 648 1227 209 1228 649 1228 650 1228 209 1229 648 1229 649 1229 177 1230 174 1230 142 1230 177 1231 209 1231 174 1231 70 1232 72 1232 162 1232 452 1233 162 1233 161 1233 452 1234 70 1234 162 1234 453 1235 161 1235 160 1235 453 1236 452 1236 161 1236 454 1237 160 1237 159 1237 454 1238 453 1238 160 1238 455 1239 454 1239 159 1239 456 1240 159 1240 158 1240 456 1241 455 1241 159 1241 457 1242 158 1242 157 1242 457 1243 456 1243 158 1243 458 1244 157 1244 156 1244 458 1245 457 1245 157 1245 459 1246 458 1246 156 1246 459 1247 156 1247 155 1247 460 1248 459 1248 155 1248 460 1249 155 1249 154 1249 461 1250 460 1250 154 1250 461 1251 154 1251 153 1251 462 1252 461 1252 153 1252 462 1253 153 1253 152 1253 463 1254 462 1254 152 1254 463 1255 152 1255 151 1255 464 1256 463 1256 151 1256 464 1257 151 1257 150 1257 465 1258 464 1258 150 1258 465 1259 150 1259 149 1259 466 1260 465 1260 149 1260 466 1261 149 1261 148 1261 467 1262 466 1262 148 1262 467 1263 148 1263 147 1263 468 1264 467 1264 147 1264 468 1265 147 1265 146 1265 469 1266 468 1266 146 1266 469 1267 146 1267 145 1267 470 1268 145 1268 144 1268 470 1269 469 1269 145 1269 471 1270 144 1270 141 1270 471 1271 470 1271 144 1271 472 1272 471 1272 141 1272 472 1273 141 1273 143 1273 473 1274 143 1274 163 1274 473 1275 472 1275 143 1275 474 1276 473 1276 163 1276 474 1277 163 1277 164 1277 475 1278 164 1278 165 1278 475 1279 474 1279 164 1279 476 1280 165 1280 166 1280 476 1281 475 1281 165 1281 477 1282 166 1282 167 1282 477 1283 476 1283 166 1283 478 1284 167 1284 168 1284 478 1285 477 1285 167 1285 479 1286 168 1286 169 1286 479 1287 478 1287 168 1287 480 1288 169 1288 170 1288 480 1289 479 1289 169 1289 481 1290 170 1290 171 1290 481 1291 480 1291 170 1291 482 1292 171 1292 172 1292 482 1293 481 1293 171 1293 483 1294 172 1294 173 1294 483 1295 482 1295 172 1295 176 1296 178 1296 449 1296 176 1297 449 1297 448 1297 179 1298 448 1298 447 1298 179 1299 176 1299 448 1299 180 1300 447 1300 446 1300 180 1301 179 1301 447 1301 181 1302 446 1302 445 1302 181 1303 180 1303 446 1303 182 1304 445 1304 444 1304 182 1305 181 1305 445 1305 183 1306 444 1306 443 1306 183 1307 182 1307 444 1307 184 1308 443 1308 442 1308 184 1309 183 1309 443 1309 185 1310 184 1310 442 1310 185 1311 442 1311 441 1311 186 1312 185 1312 441 1312 186 1313 441 1313 440 1313 187 1314 186 1314 440 1314 187 1315 440 1315 439 1315 188 1316 187 1316 439 1316 188 1317 439 1317 438 1317 189 1318 188 1318 438 1318 189 1319 438 1319 437 1319 190 1320 189 1320 437 1320 190 1321 437 1321 436 1321 191 1322 190 1322 436 1322 191 1323 436 1323 435 1323 192 1324 191 1324 435 1324 192 1325 435 1325 434 1325 193 1326 192 1326 434 1326 193 1327 434 1327 433 1327 194 1328 193 1328 433 1328 194 1329 433 1329 432 1329 195 1330 194 1330 432 1330 195 1331 432 1331 431 1331 196 1332 431 1332 430 1332 196 1333 195 1333 431 1333 197 1334 430 1334 429 1334 197 1335 196 1335 430 1335 198 1336 197 1336 429 1336 198 1337 429 1337 428 1337 199 1338 428 1338 427 1338 199 1339 198 1339 428 1339 200 1340 199 1340 427 1340 200 1341 427 1341 426 1341 201 1342 426 1342 425 1342 201 1343 200 1343 426 1343 202 1344 425 1344 424 1344 202 1345 201 1345 425 1345 203 1346 424 1346 423 1346 203 1347 202 1347 424 1347 204 1348 423 1348 422 1348 204 1349 203 1349 423 1349 205 1350 422 1350 421 1350 205 1351 204 1351 422 1351 206 1352 421 1352 420 1352 206 1353 205 1353 421 1353 207 1354 420 1354 419 1354 207 1355 206 1355 420 1355 208 1356 419 1356 418 1356 208 1357 207 1357 419 1357 69 1358 418 1358 68 1358 69 1359 208 1359 418 1359 348 1360 276 1360 279 1360 348 1361 349 1361 276 1361 277 1362 276 1362 352 1362 276 1363 349 1363 352 1363</p>
        </triangles>
      </mesh>
    </geometry>
  </library_geometries>
  <library_materials>
    <material id="mat_Arducam_support_Rcover_shape" name="Arducam_support_Rcover_shape">
      <instance_effect url="#effect_Arducam_support_Rcover_shape"/>
    </material>
  </library_materials>
  <library_visual_scenes>
    <visual_scene id="myscene">
      <node id="node0" name="node0">
        <instance_geometry url="#geometry0">
          <bind_material>
            <technique_common>
              <instance_material symbol="ref_Arducam_support_Rcover_shape" target="#mat_Arducam_support_Rcover_shape"/>
            </technique_common>
          </bind_material>
        </instance_geometry>
      </node>
    </visual_scene>
  </library_visual_scenes>
  <scene>
    <instance_visual_scene url="#myscene"/>
  </scene>
</COLLADA>
