<COLLADA xmlns="http://www.collada.org/2005/11/COLLADASchema" version="1.4.1">
  <asset>
    <contributor/>
    <created>2026-07-22T21:26:32.916835</created>
    <modified>2026-07-22T21:26:32.916840</modified>
    <unit name="meter" meter="1.0"/>
    <up_axis>Z_UP</up_axis>
  </asset>
  <library_effects>
    <effect id="effect_back_lid001_shape" name="effect_back_lid001_shape">
      <profile_COMMON>
        <technique sid="common">
          <phong>
            <emission>
              <color>0.0 0.0 0.0 1.0</color>
            </emission>
            <ambient>
              <color>0.0 0.0 0.0 1.0</color>
            </ambient>
            <diffuse>
              <color>0.800000011920929 0.800000011920929 0.9019607901573181 1.0</color>
            </diffuse>
            <specular>
              <color>1 1 1 1.0</color>
            </specular>
            <shininess>
              <float>0.0</float>
            </shininess>
            <reflective>
              <color>0.0 0.0 0.0 1.0</color>
            </reflective>
            <reflectivity>
              <float>0.0</float>
            </reflectivity>
            <transparent>
              <color>0.0 0.0 0.0 1.0</color>
            </transparent>
            <transparency>
              <float>1.0</float>
            </transparency>
          </phong>
        </technique>
        <extra>
          <technique profile="GOOGLEEARTH">
            <double_sided>0</double_sided>
          </technique>
        </extra>
      </profile_COMMON>
    </effect>
  </library_effects>
  <library_geometries>
    <geometry id="geometry0" name="back_lid001_shape">
      <mesh>
        <source id="cubeverts-array0">
          <float_array count="894" id="cubeverts-array0-array">0.001477752 0.9195142 -0.2312593 -6.56e-16 0.9193765 -0.2318635 0.002940428 0.9194485 -0.2318776 -6.56e-16 0.919496 -0.2312561 0.002953869 0.9195688 -0.231269 0.005023107 0.919707 -0.2312934 0.005873547 0.9196642 -0.23192 0.007089117 0.9199171 -0.2313305 0.008792063 0.9200231 -0.2319906 0.009151881 0.9201995 -0.2313803 0.01121213 0.9205551 -0.2314432 0.01168872 0.9205242 -0.2320891 0.0132656 0.9209841 -0.231519 0.01455632 0.9211664 -0.2322154 0.01529634 0.9214832 -0.2316073 0.01738772 0.9219481 -0.2323691 0.01729932 0.9220504 -0.2317076 0.01927484 0.9226849 -0.23182 0.0201759 0.9228672 -0.2325499 0.02122315 0.9233862 -0.2319442 0.02291392 0.9239216 -0.2327572 0.02314429 0.9241542 -0.2320804 0.02503824 0.9249889 -0.2322285 0.02559497 0.9251086 -0.2329906 0.02690493 0.9258904 -0.2323886 0.02821239 0.9264254 -0.2332495 0.02874422 0.9268595 -0.2325609 0.03075967 0.9278683 -0.2335333 0.03055586 0.9278969 -0.2327455 0.0323311 0.9289983 -0.2329418 0.03323047 0.9294342 -0.2338412 0.03405758 0.9301556 -0.2331483 0.03561866 0.9311189 -0.2341724 0.0357352 0.9313679 -0.2333648 0.03736451 0.9326345 -0.2335913 0.0379183 0.9329183 -0.2345263 0.03894577 0.933955 -0.2338277 0.04012366 0.9348281 -0.2349018 0.04047895 0.9353295 -0.2340742 0.04222927 0.9368432 -0.235298 0.04203334 0.9368271 -0.2343432 0.0439351 0.9388199 -0.2347018 0.04422989 0.9389589 -0.2357141 0.0457495 0.9409108 -0.2350787 0.04612055 0.9411697 -0.2361488 0.04751865 0.9431534 -0.2355197 0.04789655 0.9434703 -0.2366012 0.04917374 0.9454783 -0.2359769 0.04955346 0.9458549 -0.2370701 0.05071078 0.94788 -0.2364491 0.05108718 0.9483176 -0.2375543 0.05212608 0.9503527 -0.2369354 0.05249389 0.9508522 -0.2380527 0.05341626 0.9528904 -0.2374344 0.05377009 0.9534524 -0.238564 0.0545782 0.9554871 -0.237945 0.05491261 0.9561119 -0.239087 0.05560912 0.9581365 -0.238466 0.05591861 0.9588239 -0.2396203 0.05650656 0.9608323 -0.238996 0.05678559 0.9615817 -0.2401626 0.05726834 0.963568 -0.239534 0.05751138 0.9643786 -0.2407125 0.05789265 0.966337 -0.2400785 0.0580942 0.9672074 -0.2412688 0.05837798 0.9691327 -0.2406282 0.05853259 0.9700613 -0.2418299 0.05872318 0.9719484 -0.2411819 0.05882545 0.972933 -0.2423946 0.0589274 0.9747772 -0.2417381 0.05897206 0.9758155 -0.2429614 0.05899017 0.9776125 -0.2422957 0.05897206 0.9787015 -0.2435289 0.05891132 0.9804474 -0.2428531 0.05882545 0.981584 -0.2440957 0.05869106 0.9832751 -0.2434091 0.05853259 0.9844558 -0.2446604 0.05832991 0.9860889 -0.2439624 0.0580942 0.9873096 -0.2452216 0.05782872 0.9888818 -0.2445116 0.05751138 0.9901385 -0.2457779 0.05718872 0.9916474 -0.2450554 0.05678559 0.9929353 -0.2463278 0.05641144 0.9943789 -0.2455925 0.05591861 0.9956932 -0.2468701 0.05549873 0.9970697 -0.2461217 0.05491261 0.9984052 -0.2474034 0.0544528 0.9997135 -0.2466415 0.05377009 1.001065 -0.2479264 0.05327615 1.002304 -0.2471509 0.05249389 1.003665 -0.2484377 0.0519716 1.004834 -0.2476485 0.05108718 1.0062 -0.2489361 0.0505423 1.007299 -0.2481332 0.04955346 1.008662 -0.2494203 0.04899166 1.009693 -0.2486038 0.04789655 1.011047 -0.2498892 0.04732342 1.012008 -0.2490592 0.04612055 1.013347 -0.2503416 0.04554157 1.014241 -0.2494982 0.04422989 1.015558 -0.2507763 0.0436504 1.016386 -0.24992 0.04222927 1.017674 -0.2511923 0.04165445 1.018437 -0.2503233 0.04012366 1.019689 -0.2515886 0.03955849 1.02039 -0.2507073 0.0379183 1.021599 -0.2519641 0.03736758 1.02224 -0.251071 0.03561866 1.023398 -0.2523179 0.03508696 1.023982 -0.2514135 0.03323047 1.025083 -0.2526492 0.03272212 1.025612 -0.2517341 0.03075967 1.026649 -0.2529571 0.03027872 1.027127 -0.252032 0.02821239 1.028092 -0.2532409 0.02776264 1.028522 -0.2523064 0.02559497 1.029408 -0.2534998 0.02517991 1.029796 -0.2525568 0.02291392 1.030595 -0.2537332 0.02253674 1.030943 -0.2527824 0.0201759 1.03165 -0.2539405 0.01983946 1.031962 -0.2529827 0.01738772 1.032569 -0.2541213 0.01709456 1.03285 -0.2531573 0.01455632 1.033351 -0.254275 0.01430862 1.033605 -0.2533058 0.01168872 1.033993 -0.2544013 0.01148833 1.034225 -0.2534278 0.008792063 1.034494 -0.2544998 0.008640469 1.034709 -0.253523 0.005873547 1.034853 -0.2545704 0.005771862 1.035056 -0.2535911 0.002940428 1.035069 -0.2546128 0.002889399 1.035264 -0.2536321 -6.49e-16 1.035141 -0.2546269 -6.49e-16 1.035333 -0.2536457 0.01486761 0.5927422 -0.1834059 0.01486761 0.5995361 -0.1842024 0.074 0.5921144 -0.1833327 0.01486761 0.606329 -0.1850072 0.01486761 0.6131208 -0.1858202 0.074 0.7231231 -0.2001554 -0.01486761 0.6131208 -0.1858202 -0.01486761 0.606329 -0.1850072 -0.074 0.5921144 -0.1833327 -0.01486761 0.5995361 -0.1842024 -0.01486761 0.5927422 -0.1834059 -0.074 0.7231231 -0.2001554 0.074 0.8537016 -0.220044 0.074 0.9837781 -0.2429874 -0.074 0.8537016 -0.220044 -0.002806762 0.9195617 -0.2312677 -0.005619481 0.9197602 -0.2313028 -0.007799939 0.9200062 -0.2313462 -0.009899233 0.9203199 -0.2314016 -0.0119754 0.9207058 -0.2314698 -0.01402968 0.9211631 -0.2315506 -0.01606224 0.9216912 -0.2316441 -0.01807313 0.9222899 -0.23175 -0.02006239 0.9229592 -0.2318685 -0.02202994 0.9236993 -0.2319997 -0.02397557 0.9245109 -0.2321437 -0.02589893 0.9253947 -0.2323006 -0.02779248 0.9263478 -0.2324699 -0.02964132 0.9273626 -0.2326504 -0.03144512 0.9284378 -0.2328419 -0.03320453 0.9295728 -0.2330443 -0.0349197 0.9307675 -0.2332575 -0.03659072 0.9320215 -0.2334816 -0.03821759 0.9333351 -0.2337167 -0.03979993 0.9347087 -0.2339629 -0.04133732 0.9361429 -0.2342203 -0.04282815 0.9376373 -0.2344889 -0.04426431 0.9391848 -0.2347675 -0.04501527 0.9400405 -0.2349217 -0.0457495 0.9409108 -0.2350787 -0.074 0.9837781 -0.2429874 -0.074 1.113281 -0.2689731 0.074 1.113281 -0.2689731 -0.074 0.5924615 -0.1803528 0.074 0.5924615 -0.1803528 0.074 0.72354 -0.1971845 -0.074 0.72354 -0.1971845 0.074 0.854188 -0.2170837 -0.074 0.854188 -0.2170837 -0.074 0.9843337 -0.2400393 0.074 0.9843337 -0.2400393 -0.074 1.113906 -0.2660388 0.074 1.113906 -0.2660388 0.01486761 0.613126 -0.1834502 -0.01486761 0.613126 -0.1834502 -0.002889399 1.035264 -0.2536321 -0.002940428 1.035069 -0.2546128 -0.005771862 1.035056 -0.2535911 -0.005873547 1.034853 -0.2545704 -0.008640469 1.034709 -0.253523 -0.008792063 1.034494 -0.2544998 -0.01148833 1.034225 -0.2534278 -0.01168872 1.033993 -0.2544013 -0.01430862 1.033605 -0.2533058 -0.01455632 1.033351 -0.254275 -0.01709456 1.03285 -0.2531573 -0.01738772 1.032569 -0.2541213 -0.01983946 1.031962 -0.2529827 -0.0201759 1.03165 -0.2539405 -0.02253674 1.030943 -0.2527824 -0.02291392 1.030595 -0.2537332 -0.02517991 1.029796 -0.2525568 -0.02559497 1.029408 -0.2534998 -0.02776264 1.028522 -0.2523064 -0.02821239 1.028092 -0.2532409 -0.03027872 1.027127 -0.252032 -0.03075967 1.026649 -0.2529571 -0.03272212 1.025612 -0.2517341 -0.03323047 1.025083 -0.2526492 -0.03508696 1.023982 -0.2514135 -0.03561866 1.023398 -0.2523179 -0.03736758 1.02224 -0.251071 -0.0379183 1.021599 -0.2519641 -0.03955849 1.02039 -0.2507073 -0.04012366 1.019689 -0.2515886 -0.04165445 1.018437 -0.2503233 -0.04222927 1.017674 -0.2511923 -0.0436504 1.016386 -0.24992 -0.04422989 1.015558 -0.2507763 -0.04554157 1.014241 -0.2494982 -0.04612055 1.013347 -0.2503416 -0.04732342 1.012008 -0.2490592 -0.04789655 1.011047 -0.2498892 -0.04899166 1.009693 -0.2486038 -0.04955346 1.008662 -0.2494203 -0.0505423 1.007299 -0.2481332 -0.05108718 1.0062 -0.2489361 -0.0519716 1.004834 -0.2476485 -0.05249389 1.003665 -0.2484377 -0.05327615 1.002304 -0.2471509 -0.05377009 1.001065 -0.2479264 -0.0544528 0.9997135 -0.2466415 -0.05491261 0.9984052 -0.2474034 -0.05549873 0.9970697 -0.2461217 -0.05591861 0.9956932 -0.2468701 -0.05641144 0.9943789 -0.2455925 -0.05678559 0.9929353 -0.2463278 -0.05718872 0.9916474 -0.2450554 -0.05751138 0.9901385 -0.2457779 -0.05782872 0.9888818 -0.2445116 -0.0580942 0.9873096 -0.2452216 -0.05832991 0.9860889 -0.2439624 -0.05853259 0.9844558 -0.2446604 -0.05869106 0.9832751 -0.2434091 -0.05882545 0.981584 -0.2440957 -0.05891132 0.9804474 -0.2428531 -0.05897206 0.9787015 -0.2435289 -0.05899017 0.9776125 -0.2422957 -0.05897206 0.9758155 -0.2429614 -0.0589274 0.9747772 -0.2417381 -0.05882545 0.972933 -0.2423946 -0.05872318 0.9719484 -0.2411819 -0.05853259 0.9700613 -0.2418299 -0.05837798 0.9691327 -0.2406282 -0.0580942 0.9672074 -0.2412688 -0.05789265 0.966337 -0.2400785 -0.05751138 0.9643786 -0.2407125 -0.05726834 0.963568 -0.239534 -0.05678559 0.9615817 -0.2401626 -0.05650656 0.9608323 -0.238996 -0.05591861 0.9588239 -0.2396203 -0.05560912 0.9581365 -0.238466 -0.05491261 0.9561119 -0.239087 -0.0545782 0.9554871 -0.237945 -0.05377009 0.9534524 -0.238564 -0.05341626 0.9528904 -0.2374344 -0.05249389 0.9508522 -0.2380527 -0.05212608 0.9503527 -0.2369354 -0.05108718 0.9483176 -0.2375543 -0.05071078 0.94788 -0.2364491 -0.04955346 0.9458549 -0.2370701 -0.04917374 0.9454783 -0.2359769 -0.04789655 0.9434703 -0.2366012 -0.04751865 0.9431534 -0.2355197 -0.04612055 0.9411697 -0.2361488 -0.04422989 0.9389589 -0.2357141 -0.04222927 0.9368432 -0.235298 -0.04012366 0.9348281 -0.2349018 -0.0379183 0.9329183 -0.2345263 -0.03561866 0.9311189 -0.2341724 -0.03323047 0.9294342 -0.2338412 -0.03075967 0.9278683 -0.2335333 -0.02821239 0.9264254 -0.2332495 -0.02559497 0.9251086 -0.2329906 -0.02291392 0.9239216 -0.2327572 -0.0201759 0.9228672 -0.2325499 -0.01738772 0.9219481 -0.2323691 -0.01455632 0.9211664 -0.2322154 -0.01168872 0.9205242 -0.2320891 -0.008792063 0.9200231 -0.2319906 -0.005873547 0.9196642 -0.23192 -0.002940428 0.9194485 -0.2318776</float_array>
          <technique_common>
            <accessor count="298" source="#cubeverts-array0-array" stride="3">
              <param type="float" name="X"/>
              <param type="float" name="Y"/>
              <param type="float" name="Z"/>
            </accessor>
          </technique_common>
        </source>
        <source id="cubenormals-array0">
          <float_array count="1776" id="cubenormals-array0-array">0.02492242 -0.9861927 0.1637155 0.01249632 -0.9811276 0.192957 0.03754539 -0.9804857 0.192972 0.07471488 -0.9828652 0.1685045 0.0676441 -0.9790561 0.1920248 0.1243009 -0.9786834 0.163487 0.1026564 -0.9732022 0.2057648 0.1376496 -0.9702263 0.1992822 0.1736254 -0.9692381 0.174447 0.1726632 -0.9687264 0.1782036 0.2224333 -0.9616445 0.1605093 0.2074525 -0.9578196 0.1988595 0.2707621 -0.948476 0.1645634 0.2420277 -0.9494277 0.2000243 0.2763415 -0.943491 0.182921 0.3184023 -0.9344109 0.1596745 0.3100438 -0.9324079 0.1857102 0.3652214 -0.9179178 0.155049 0.3431715 -0.9189982 0.1941018 0.3760816 -0.9081153 0.1840904 0.4112305 -0.8974875 0.1593919 0.4085083 -0.896933 0.1692103 0.4560852 -0.8776532 0.1473469 0.4402359 -0.8789318 0.183497 0.4999258 -0.852713 0.151508 0.4716583 -0.8632212 0.1799657 0.5027519 -0.8493286 0.1608775 0.5424283 -0.828182 0.1410183 0.5330419 -0.8292448 0.1679861 0.5836162 -0.8004332 0.1367444 0.5626521 -0.8089023 0.1705868 0.5916562 -0.7904848 0.1583557 0.6197109 -0.7707088 0.1482106 0.6234126 -0.770074 0.1354351 0.6467678 -0.7464716 0.1564337 0.6615548 -0.7395136 0.1243578 0.6981882 -0.7045385 0.1271166 0.6732388 -0.7241151 0.1496892 0.6995298 -0.7023561 0.1317347 0.7330202 -0.6692454 0.1216221 0.7287965 -0.6706236 0.1382737 0.7602866 -0.635578 0.1341823 0.7659848 -0.6329449 0.1124635 0.7970716 -0.5948237 0.1042198 0.7907227 -0.598339 0.1294146 0.8261664 -0.5552332 0.09573501 0.8197466 -0.5594717 0.122502 0.853213 -0.514258 0.08698443 0.846798 -0.5192704 0.115288 0.8781285 -0.4720154 0.07805035 0.8718212 -0.4778271 0.1077457 0.9008644 -0.4285904 0.06894537 0.8947503 -0.4352342 0.09996496 0.9213665 -0.3840854 0.05968444 0.9155354 -0.3915865 0.09195017 0.9395727 -0.3386407 0.05025572 0.9341156 -0.3470203 0.08369517 0.955442 -0.2923586 0.04070956 0.9504554 -0.301624 0.07521656 0.968941 -0.2453318 0.03107691 0.9645177 -0.2554885 0.06656832 0.980027 -0.197714 0.02136361 0.9762611 -0.2087587 0.0577416 0.9886801 -0.1495896 0.01160384 0.9856634 -0.1615166 0.04878764 0.9948742 -0.1011031 0.001810667 0.9926991 -0.1138961 0.03970144 0.9985961 -0.05236247 -0.007986808 0.9973528 -0.06600079 0.03051848 0.9998361 -0.003493325 -0.01776531 0.9996129 -0.01794922 0.02125806 0.9985911 0.04538495 -0.02749644 0.9994741 0.030147 0.01194589 0.9948642 0.09414764 -0.03716668 0.996937 0.07816544 0.002602449 0.9886646 0.1426813 -0.04673938 0.992007 0.1260025 -0.006748442 0.9800081 0.1908569 -0.05619401 0.9846962 0.1735354 -0.01608429 0.9689156 0.2385579 -0.06551912 0.9750236 0.2206465 -0.025381 0.9630109 0.2672284 -0.03462849 0.9554155 0.2856628 -0.07468588 0.9486837 0.3131811 -0.04378069 0.939541 0.332065 -0.083639 0.9320869 0.3583612 -0.05283128 0.9213283 0.377639 -0.09242745 0.9132445 0.4027011 -0.06177674 0.9008309 0.4222705 -0.1009528 0.8922156 0.4460658 -0.07054557 0.8780893 0.4658623 -0.1092311 0.869045 0.4883577 -0.07916882 0.8531669 0.5082904 -0.1172484 0.843793 0.5294669 -0.08762481 0.8261236 0.5494494 -0.125 0.8165048 0.5693234 -0.09586906 0.7970293 0.5892484 -0.132403 0.7872633 0.6078057 -0.1038688 0.7659512 0.627588 -0.1394712 0.7561306 0.6448302 -0.1116275 0.73296 0.664376 -0.1461988 0.7231759 0.68031 -0.1191433 0.698167 0.6994968 -0.1525354 0.6616187 0.7328967 -0.1585026 0.688502 0.7141431 -0.1263511 0.6234326 0.7644679 -0.1640753 0.6521623 0.7462673 -0.133302 0.5837016 0.794143 -0.1692024 0.6142536 0.7766038 -0.1399253 0.5424989 0.8218614 -0.1738929 0.5748751 0.8050742 -0.1461994 0.4999565 0.8475116 -0.1782349 0.5341336 0.8315811 -0.1522309 0.4561837 0.8710734 -0.1820094 0.4920577 0.8561315 -0.1578543 0.4112695 0.8924541 -0.1854263 0.448877 0.8785694 -0.1631726 0.3653387 0.911635 -0.1882796 0.4045527 0.8989359 -0.1680822 0.3184804 0.9285666 -0.1906153 0.3592762 0.9171384 -0.1725625 0.2708186 0.9431916 -0.1924756 0.3131362 0.9331303 -0.1766735 0.222517 0.9554699 -0.1938129 0.2662244 0.9468815 -0.1803888 0.1736649 0.9653588 -0.1947379 0.2187433 0.9583199 -0.183778 0.1243502 0.9728804 -0.1950405 0.1706669 0.9674861 -0.1866642 0.07473665 0.978004 -0.1947375 0.1221599 0.9743385 -0.1890542 0.07343291 0.9788172 -0.191114 0.02491397 0.980683 -0.1940102 0.02453322 0.9809054 -0.192932 -6.994015e-06 -0.1164448 -0.9931972 -0.0001604275 -0.1176506 -0.993055 -0.0004542892 -0.1188562 -0.9929114 -0.003520863 -0.1273628 -0.99185 -0 -0.1292248 -0.9916153 0.0004542892 -0.1188562 -0.9929114 0.0001604275 -0.1176506 -0.993055 6.994015e-06 -0.1164448 -0.9931972 -0 -0.1505745 -0.9885986 0 -0.1292249 -0.9916154 0.003520863 -0.1273628 -0.99185 -0.006534348 -0.1719444 -0.985085 -0.005809238 -0.1716966 -0.9851328 -0.005249525 -0.171488 -0.9851722 -0.004808441 -0.1713128 -0.985205 -0.01211433 -0.1736901 -0.9847258 -0.00442003 -0.171148 -0.9852355 -0.004054028 -0.1709837 -0.9852655 -0.003718222 -0.1708229 -0.9852948 -0.003421964 -0.170673 -0.9853218 -0.003133598 -0.1705178 -0.9853496 -0.002859606 -0.170362 -0.9853774 -0.002626718 -0.1702229 -0.9854021 -0.002390726 -0.1700731 -0.9854285 -0.002179423 -0.1699321 -0.9854534 -0.001974422 -0.1697886 -0.9854785 -0.00178488 -0.1696492 -0.985503 -0.001603324 -0.1695091 -0.9855273 -0.001420382 -0.1693617 -0.985553 -0.001240249 -0.16921 -0.9855793 -0.001071119 -0.1690616 -0.9856049 -0.0009095193 -0.1689146 -0.9856303 -0.0007254808 -0.1687403 -0.9856603 -0.0005627 -0.1685807 -0.9856877 -0.0003709997 -0.1683857 -0.9857212 -0.0002142198 -0.1682221 -0.9857491 -7.934865e-05 -0.1680769 -0.9857739 0.0001402734 -0.1681436 -0.9857625 0.0003934924 -0.1684096 -0.985717 0.0006149423 -0.1686323 -0.9856788 0.000793919 -0.1688059 -0.985649 0.0009647261 -0.1689656 -0.9856215 0.001133418 -0.1691173 -0.9855953 0.001316491 -0.1692753 -0.9855679 0.001485455 -0.1694152 -0.9855437 0.001670915 -0.1695621 -0.9855181 0.00186051 -0.1697055 -0.9854931 -0 -0.1679903 -0.9857886 0 -0.1505745 -0.9885986 0.00206173 -0.1698506 -0.9854677 0.002274836 -0.1699969 -0.9854419 0.002496167 -0.1701407 -0.9854166 0.002740628 -0.1702917 -0.9853899 0.002991367 -0.1704383 -0.9853638 0.003277418 -0.1705963 -0.9853355 0.003564238 -0.170746 -0.9853086 0.003898626 -0.1709103 -0.9852788 0.004238394 -0.1710676 -0.9852502 0.004626408 -0.1712368 -0.985219 0.005049171 -0.1714094 -0.9851869 0.005503122 -0.1715841 -0.9851541 0.006014062 -0.1717679 -0.9851191 0.006435168 -0.1719093 -0.9850917 0.006775124 -0.17202 -0.9850702 0.01211434 -0.1736901 -0.9847258 0 -0.1814298 -0.9834039 0 -0.1814298 -0.9834039 0 -0.1967357 -0.9804565 0 -0.1967357 -0.9804565 -0 -0.115795 -0.9932731 -0 -0.115795 -0.9932731 -0 0.1273635 0.9918562 -0 0.1505745 0.9885986 -0 0.1273635 0.9918562 -0 0.1505745 0.9885986 -0 0.1737028 0.9847981 0 0.1737028 0.9847981 -0 0.1967355 0.9804566 0 0.1967355 0.9804566 0 -0.9932815 0.1157227 0 -0.9932815 0.1157227 0 0.978084 -0.2082103 0 0.978084 -0.2082103 1 0 -0 1 0 0 1 0 0 1 0 -0 1 0 -0 1 0 0 1 0 0 1 0 -0 -1 0 -0 -1 -0 0 -1 0 -0 -1 -0 0 -1 0 -0 -1 -0 0 -1 0 -0 -1 -0 0 -1 0 0 -1 0 0 -1 0 0 0 -0.9999976 0.002163257 0 -0.9999976 0.002163257 1 0 -0 1 0 0 1 0 0 0 -0.002173862 -0.9999977 0 -0.002173862 -0.9999977 -0.02453322 0.9809054 -0.192932 -0.02491397 0.980683 -0.1940102 -0.07473665 0.978004 -0.1947375 -0.07343291 0.9788172 -0.191114 -0.1243502 0.9728804 -0.1950405 -0.1221599 0.9743385 -0.1890542 -0.1736649 0.9653588 -0.1947379 -0.1706669 0.967486 -0.1866642 -0.222517 0.9554699 -0.1938129 -0.2187433 0.9583199 -0.1837779 -0.2708186 0.9431916 -0.1924756 -0.2662244 0.9468815 -0.1803888 -0.3184804 0.9285666 -0.1906153 -0.3131362 0.9331303 -0.1766735 -0.3653387 0.911635 -0.1882796 -0.3592762 0.9171384 -0.1725625 -0.4112695 0.8924541 -0.1854263 -0.4045527 0.8989357 -0.1680821 -0.4561837 0.8710734 -0.1820094 -0.448877 0.8785694 -0.1631726 -0.4999565 0.8475116 -0.1782349 -0.4920577 0.8561315 -0.1578543 -0.5424989 0.8218614 -0.1738929 -0.5341336 0.8315811 -0.1522309 -0.5837016 0.794143 -0.1692024 -0.5748751 0.8050742 -0.1461993 -0.6234326 0.7644679 -0.1640753 -0.6142536 0.7766038 -0.1399253 -0.6616187 0.7328967 -0.1585026 -0.6521623 0.7462673 -0.1333019 -0.688502 0.7141431 -0.1263511 -0.698167 0.6994968 -0.1525354 -0.7231758 0.68031 -0.1191433 -0.73296 0.664376 -0.1461988 -0.7561306 0.6448301 -0.1116275 -0.7659512 0.627588 -0.1394712 -0.7872633 0.6078057 -0.1038687 -0.7970293 0.5892484 -0.132403 -0.8165047 0.5693234 -0.095869 -0.8261236 0.5494494 -0.125 -0.8531669 0.5082904 -0.1172484 -0.843793 0.5294669 -0.08762481 -0.8780893 0.4658623 -0.1092311 -0.869045 0.4883577 -0.07916886 -0.9008309 0.4222705 -0.1009528 -0.8922156 0.4460657 -0.07054561 -0.9213283 0.377639 -0.09242745 -0.9132445 0.402701 -0.06177673 -0.939541 0.332065 -0.083639 -0.9320869 0.3583612 -0.05283128 -0.9554155 0.2856628 -0.07468588 -0.9486837 0.3131812 -0.04378069 -0.9689156 0.2385579 -0.06551912 -0.9630108 0.2672284 -0.03462849 -0.9800081 0.1908569 -0.05619401 -0.9750236 0.2206465 -0.02538102 -0.9886646 0.1426813 -0.04673938 -0.9846962 0.1735354 -0.01608429 -0.9948642 0.09414764 -0.03716668 -0.992007 0.1260025 -0.006748442 -0.9985911 0.04538495 -0.02749644 -0.996937 0.07816545 0.002602449 -0.9998361 -0.003493325 -0.01776531 -0.9994741 0.030147 0.01194588 -0.9985961 -0.05236247 -0.007986808 -0.9996129 -0.01794922 0.02125806 -0.9948742 -0.1011031 0.001810667 -0.9973527 -0.06600077 0.03051847 -0.9886801 -0.1495896 0.01160384 -0.9926991 -0.1138961 0.03970144 -0.980027 -0.197714 0.02136361 -0.9856634 -0.1615166 0.04878765 -0.968941 -0.2453318 0.03107691 -0.9762611 -0.2087587 0.0577416 -0.955442 -0.2923586 0.04070956 -0.9645177 -0.2554885 0.06656829 -0.9395727 -0.3386407 0.05025572 -0.9504554 -0.3016239 0.07521654 -0.9213665 -0.3840854 0.05968444 -0.9341156 -0.3470203 0.08369521 -0.9155355 -0.3915865 0.09195019 -0.9008644 -0.4285904 0.06894537 -0.8947503 -0.4352342 0.09996489 -0.8781285 -0.4720154 0.07805035 -0.8718212 -0.4778272 0.1077457 -0.853213 -0.514258 0.08698443 -0.8467981 -0.5192703 0.1152879 -0.8261664 -0.5552332 0.09573501 -0.8197467 -0.5594718 0.122502 -0.7970716 -0.5948237 0.1042198 -0.7907227 -0.598339 0.1294146 -0.7693878 -0.6283917 0.1147451 -0.7659144 -0.6340805 0.1063814 -0.7567781 -0.6414989 0.1255635 -0.7382975 -0.6616235 0.131038 -0.7329609 -0.6703998 0.1154659 -0.713392 -0.685623 0.1448895 -0.6980993 -0.7060493 0.1189608 -0.6877688 -0.7109351 0.1467833 -0.6614332 -0.7378858 0.1342781 -0.6616647 -0.737528 0.1351012 -0.63408 -0.7574586 0.1555605 -0.623353 -0.7710083 0.1302964 -0.6061008 -0.7782809 0.1640753 -0.5836366 -0.8001112 0.1385293 -0.5775124 -0.8009245 0.1581112 -0.54246 -0.8276653 0.1439009 -0.5480369 -0.8208871 0.1606238 -0.49985 -0.8540674 0.1439398 -0.517732 -0.837189 0.1762614 -0.4867838 -0.8553717 0.1771462 -0.4562016 -0.8750543 0.1617412 -0.4552221 -0.876234 0.1580717 -0.4111655 -0.8988254 0.1518413 -0.4227571 -0.8878272 0.1817671 -0.3652384 -0.9175867 0.156957 -0.3899024 -0.9009078 0.1906341 -0.3567922 -0.9160615 0.1831144 -0.3184266 -0.9338099 0.1631054 -0.3233087 -0.9291512 0.1793029 -0.270721 -0.9495231 0.1584804 -0.2893023 -0.9367525 0.1969742 -0.2224887 -0.9597481 0.1714126 -0.255002 -0.9466106 0.1972365 -0.2204743 -0.9588156 0.1790638 -0.1735824 -0.9712126 0.1631424 -0.185425 -0.962819 0.1964621 -0.1243086 -0.9783061 0.1657248 -0.1499497 -0.9671018 0.2054974 -0.07473364 -0.9802257 0.1832277 -0.1137707 -0.9735255 0.1982536 -0.071454 -0.9777607 0.1971758 -0.02493299 -0.9819006 0.1877484 -0.02377161 -0.9809269 0.1929175 3.151405e-05 -0.1929808 -0.9812025 1.328118e-05 -0.1929595 -0.9812068 -1.337281e-05 -0.1929256 -0.9812134 6.924432e-06 -0.1929518 -0.9812082 -9.815609e-06 -0.1929299 -0.9812125 -7.228675e-06 -0.1929334 -0.9812118 -2.929363e-06 -0.192939 -0.9812108 7.557353e-06 -0.1929519 -0.9812082 -9.416649e-06 -0.192932 -0.9812121 -9.771092e-06 -0.1929299 -0.9812125 -2.929899e-05 -0.1929266 -0.9812132 -5.459099e-05 -0.1929225 -0.981214 2.985479e-05 -0.1929502 -0.9812086 -2.656156e-05 -0.1928582 -0.9812266 -8.758716e-06 -0.1929148 -0.9812155 1.438655e-05 -0.1929457 -0.9812094 3.040842e-05 -0.1929486 -0.9812089 6.255957e-06 -0.1929443 -0.9812098 4.840479e-06 -0.1929439 -0.9812098 -1.610704e-05 -0.19282 -0.9812342 -1.659992e-05 -0.1929413 -0.9812104 3.870089e-05 -0.1929426 -0.9812101 0 -0.1932322 -0.981153 0 -0.1928981 -0.9812189 8.163793e-07 -0.1929302 -0.9812124 0.0001243932 -0.1929346 -0.9812116 -0.0001165682 -0.1929523 -0.9812081 -1.744107e-07 -0.1929422 -0.9812101 1.272634e-06 -0.1929421 -0.9812102 5.761561e-05 -0.1929353 -0.9812115 -2.471557e-05 -0.1930471 -0.9811895 6.363041e-06 -0.1928964 -0.9812192 -1.511961e-06 -0.1929416 -0.9812102 -4.954183e-06 -0.1929414 -0.9812103 -3.980561e-07 -0.192942 -0.9812102 -9.91505e-06 -0.1929407 -0.9812104 -9.183921e-06 -0.1929829 -0.9812021 1.304074e-06 -0.1929319 -0.9812121 3.923457e-07 -0.1929426 -0.9812101 3.808068e-06 -0.1929441 -0.9812098 -7.74126e-06 -0.1929476 -0.981209 8.405941e-07 -0.1929428 -0.9812101 1.822135e-06 -0.1929434 -0.9812099 -2.495328e-05 -0.1929991 -0.981199 4.836878e-07 -0.1929426 -0.9812101 0.0002548233 -0.1928299 -0.9812322 -2.958252e-06 -0.1929502 -0.9812085 -1.844641e-05 -0.192984 -0.9812019 -3.424439e-06 -0.19294 -0.9812105 -0.0001293947 -0.1930115 -0.9811965 -4.838292e-06 -0.1929483 -0.9812089 -1.126494e-05 -0.1929519 -0.9812082 3.301281e-05 -0.1929156 -0.9812154 -5.806911e-05 -0.1929946 -0.9811998 6.658935e-06 -0.1929378 -0.9812109 -1.078469e-05 -0.19295 -0.9812086 6.277947e-07 -0.1929423 -0.9812101 -1.186425e-05 -0.1929531 -0.981208 -1.420121e-05 -0.192953 -0.981208 1.675858e-05 -0.1929273 -0.9812131 -3.656379e-05 -0.1929735 -0.981204 4.53272e-05 -0.1928863 -0.9812211 -8.652529e-05 -0.1929962 -0.9811996 2.9299e-05 -0.1929267 -0.9812131 -3.296185e-06 -0.1929412 -0.9812103 -5.042444e-07 -0.1929418 -0.9812102 1.560364e-05 -0.1929103 -0.9812164 -2.951928e-05 -0.1929968 -0.9811994 -2.818746e-05 -0.192994 -0.9811999 -1.310688e-05 -0.1929621 -0.9812062 -4.113294e-05 -0.1929621 -0.9812062 -8.061662e-06 -0.1929465 -0.9812092 9.469883e-06 -0.1929241 -0.9812137 1.844042e-06 -0.1929442 -0.9812098 -1.824524e-05 -0.1929468 -0.9812093 -2.582227e-05 -0.192949 -0.9812087 4.539715e-06 -0.1929397 -0.9812106 -6.371518e-06 -0.1929685 -0.9812049 -6.659375e-06 -0.1929692 -0.9812048 -4.831473e-07 -0.192942 -0.9812102 2.112494e-06 -0.192943 -0.98121 -3.989822e-07 -0.1929421 -0.9812101 -2.226187e-07 -0.1929421 -0.9812101 1.141555e-06 -0.1929423 -0.9812102 -9.139424e-06 -0.1930176 -0.9811953 4.395316e-05 -0.1929385 -0.9812108 3.116969e-05 -0.1929395 -0.9812106 3.69338e-07 -0.1929425 -0.9812101 -1.832775e-06 -0.192946 -0.9812093 -3.329625e-07 -0.1929426 -0.9812101 9.134474e-07 -0.19291 -0.9812164 -0.0001241168 -0.1929346 -0.9812116 0 -0.1929221 -0.9812141 4.573397e-06 -0.1929819 -0.9812024 0 -0.1929323 -0.981212 1.293204e-06 -0.1929424 -0.9812101 2.949493e-05 -0.1929459 -0.9812094 -0.000228308 -0.1929014 -0.9812181 2.583376e-07 -0.1929423 -0.9812101 2.464759e-07 -0.192942 -0.9812101 1.105271e-06 -0.1929546 -0.9812077 7.741263e-06 -0.1929477 -0.981209 -5.394962e-06 -0.1929338 -0.9812118 0.0001169436 -0.1929838 -0.9812019 -3.545475e-05 -0.1929294 -0.9812126 -2.289761e-05 -0.1928828 -0.9812217 -6.570094e-05 -0.1929194 -0.9812146 3.028703e-05 -0.1929984 -0.9811991 0 -0.1929423 -0.9812101 2.4719e-07 -0.1929423 -0.9812101 -4.586592e-06 -0.1929322 -0.981212 -3.319648e-05 -0.1928834 -0.9812217 -0.0001511804 -0.1928431 -0.9812296 3.320182e-05 -0.19296 -0.9812067 -5.629983e-06 -0.1929414 -0.9812103 -6.279728e-07 -0.192942 -0.9812101 1.200359e-06 -0.1929409 -0.9812104 -1.851549e-05 -0.1929192 -0.9812146 6.845848e-07 -0.1929425 -0.9812101 0 -0.1929423 -0.9812102 4.367978e-06 -0.1929444 -0.9812097 2.176793e-05 -0.1929664 -0.9812053 -1.67643e-05 -0.1929295 -0.9812127 5.820734e-05 -0.1929944 -0.9811999 -2.912882e-07 0.1929429 0.98121 6.059169e-05 0.1928703 0.9812242 -2.721141e-06 0.1929464 0.9812093 -3.498656e-06 0.1929446 0.9812097 -3.380209e-05 0.192963 0.9812061 0.0001355142 0.1927213 0.9812536 6.99805e-06 0.1929316 0.9812122 4.312266e-05 0.1929215 0.9812142 1.943564e-06 0.1929408 0.9812104 3.583413e-05 0.1928561 0.981227 1.768806e-06 0.1929413 0.9812104 1.564493e-06 0.1929415 0.9812104 -1.634931e-05 0.1929489 0.9812088 -2.019535e-06 0.1929433 0.9812099 9.47554e-07 0.1929418 0.9812102 -5.588366e-06 0.1929543 0.9812077 1.206303e-05 0.1929093 0.9812166 -1.165402e-05 0.1929433 0.9812099 -8.217929e-06 0.1930724 0.9811845 -1.341511e-05 0.1929439 0.9812098 2.292364e-05 0.1929411 0.9812104 8.563172e-06 0.1929418 0.9812102 -7.853376e-05 0.1929442 0.9812098 -2.971666e-05 0.192944 0.9812098 0 0.1925973 0.9812779 0 0.1929903 0.9812006 8.217929e-06 0.1930724 0.9811845 0 0.1929325 0.9812121 6.882018e-07 0.192905 0.9812175 -3.0535e-06 0.1929798 0.9812027 0 0.1929903 0.9812007 3.498967e-05 0.1929451 0.9812096 8.390967e-05 0.192952 0.9812081 0.0001363656 0.1929754 0.9812036 5.601685e-07 0.1929421 0.9812101 5.638491e-07 0.1929421 0.9812101 -1.543963e-05 0.192939 0.9812108 -3.615333e-05 0.1929336 0.9812118 -5.409355e-05 0.1927769 0.9812427 3.884938e-05 0.1930782 0.9811834 -3.583413e-05 0.1928561 0.981227 9.547746e-07 0.1929435 0.9812099 7.311276e-07 0.1929421 0.9812102 5.909535e-05 0.1929673 0.9812052 -5.592586e-05 0.1929145 0.9812156 2.181693e-06 0.1929449 0.9812096 4.564148e-08 0.1929385 0.9812108 -7.440393e-06 0.1929184 0.9812148 0 0.192938 0.9812109 2.155944e-05 0.1929561 0.9812074 6.499676e-05 0.1930325 0.9811924 -4.078721e-06 0.1929384 0.9812109 -6.059162e-05 0.1928704 0.9812242 -2.264839e-08 0.1929429 0.9812101 -7.239457e-07 0.1929431 0.9812099 1.620281e-05 0.1929607 0.9812065 -1.459373e-07 0.1929428 0.98121 -9.908841e-06 0.192933 0.9812119 -2.819069e-05 0.1929073 0.981217 0 0.192943 0.98121 -8.462692e-08 0.1929422 0.9812101 6.99262e-06 0.1929471 0.9812092 -5.442878e-06 0.192938 0.981211 -5.059557e-06 0.1929383 0.9812108 9.941714e-06 0.1929493 0.9812087 3.359622e-06 0.1929447 0.9812096 1.980656e-05 0.1929491 0.9812087 -5.884357e-06 0.1929386 0.9812108 5.31854e-06 0.1929453 0.9812095 3.326652e-07 0.1929415 0.9812103 3.885628e-09 0.1929422 0.9812101 8.6828e-05 0.1929602 0.9812065 3.576839e-05 0.1929501 0.9812086 -7.06568e-07 0.1929419 0.9812102 2.971666e-05 0.192944 0.9812098 7.853376e-05 0.1929442 0.9812098 -6.081836e-06 0.1929422 0.9812101 5.254758e-06 0.1929422 0.9812102 0.0001561485 0.1929118 0.9812161 -3.110162e-06 0.1929423 0.9812102 0.0001200123 0.1929065 0.9812171 5.373381e-09 0.1929421 0.9812101 -1.81604e-06 0.1929423 0.9812101 0 0.1929419 0.9812102 5.592586e-05 0.1929145 0.9812156 -5.909535e-05 0.1929673 0.9812052 7.573692e-08 0.1929417 0.9812102 -2.680759e-05 0.1929598 0.9812067 -1.907344e-05 0.1929547 0.9812077 0 0.1929425 0.9812101 -6.026149e-06 0.192946 0.9812094</float_array>
          <technique_common>
            <accessor count="592" source="#cubenormals-array0-array" stride="3">
              <param type="float" name="X"/>
              <param type="float" name="Y"/>
              <param type="float" name="Z"/>
            </accessor>
          </technique_common>
        </source>
        <vertices id="cubeverts-array0-vertices">
          <input semantic="POSITION" source="#cubeverts-array0"/>
        </vertices>
        <triangles count="592" material="ref_back_lid001_shape">
          <input offset="0" semantic="VERTEX" source="#cubeverts-array0-vertices"/>
          <input offset="1" semantic="NORMAL" source="#cubenormals-array0"/>
          <p>0 0 1 0 2 0 0 1 3 1 1 1 4 2 0 2 2 2 5 3 2 3 6 3 5 4 4 4 2 4 7 5 6 5 8 5 7 6 5 6 6 6 9 7 7 7 8 7 10 8 8 8 11 8 10 9 9 9 8 9 12 10 11 10 13 10 12 11 10 11 11 11 14 12 13 12 15 12 14 13 12 13 13 13 16 14 14 14 15 14 17 15 15 15 18 15 17 16 16 16 15 16 19 17 18 17 20 17 19 18 17 18 18 18 21 19 19 19 20 19 22 20 20 20 23 20 22 21 21 21 20 21 24 22 23 22 25 22 24 23 22 23 23 23 26 24 25 24 27 24 26 25 24 25 25 25 28 26 26 26 27 26 29 27 27 27 30 27 29 28 28 28 27 28 31 29 30 29 32 29 31 30 29 30 30 30 33 31 31 31 32 31 34 32 33 32 32 32 34 33 32 33 35 33 36 34 34 34 35 34 36 35 35 35 37 35 38 36 37 36 39 36 38 37 36 37 37 37 40 38 38 38 39 38 41 39 39 39 42 39 41 40 40 40 39 40 43 41 41 41 42 41 43 42 42 42 44 42 45 43 44 43 46 43 45 44 43 44 44 44 47 45 46 45 48 45 47 46 45 46 46 46 49 47 48 47 50 47 49 48 47 48 48 48 51 49 50 49 52 49 51 50 49 50 50 50 53 51 52 51 54 51 53 52 51 52 52 52 55 53 54 53 56 53 55 54 53 54 54 54 57 55 56 55 58 55 57 56 55 56 56 56 59 57 58 57 60 57 59 58 57 58 58 58 61 59 60 59 62 59 61 60 59 60 60 60 63 61 62 61 64 61 63 62 61 62 62 62 65 63 64 63 66 63 65 64 63 64 64 64 67 65 66 65 68 65 67 66 65 66 66 66 69 67 68 67 70 67 69 68 67 68 68 68 71 69 70 69 72 69 71 70 69 70 70 70 73 71 72 71 74 71 73 72 71 72 72 72 75 73 74 73 76 73 75 74 73 74 74 74 77 75 76 75 78 75 77 76 75 76 76 76 79 77 78 77 80 77 79 78 77 78 78 78 81 79 80 79 82 79 81 80 79 80 80 80 83 81 81 81 82 81 83 82 82 82 84 82 85 83 83 83 84 83 85 84 84 84 86 84 87 85 85 85 86 85 87 86 86 86 88 86 89 87 87 87 88 87 89 88 88 88 90 88 91 89 89 89 90 89 91 90 90 90 92 90 93 91 91 91 92 91 93 92 92 92 94 92 95 93 93 93 94 93 95 94 94 94 96 94 97 95 95 95 96 95 97 96 96 96 98 96 99 97 97 97 98 97 99 98 98 98 100 98 101 99 99 99 100 99 101 100 100 100 102 100 103 101 101 101 102 101 103 102 102 102 104 102 105 103 104 103 106 103 105 104 103 104 104 104 107 105 106 105 108 105 107 106 105 106 106 106 109 107 108 107 110 107 109 108 107 108 108 108 111 109 110 109 112 109 111 110 109 110 110 110 113 111 112 111 114 111 113 112 111 112 112 112 115 113 114 113 116 113 115 114 113 114 114 114 117 115 116 115 118 115 117 116 115 116 116 116 119 117 118 117 120 117 119 118 117 118 118 118 121 119 120 119 122 119 121 120 119 120 120 120 123 121 122 121 124 121 123 122 121 122 122 122 125 123 124 123 126 123 125 124 123 124 124 124 127 125 126 125 128 125 127 126 125 126 126 126 129 127 128 127 130 127 129 128 127 128 128 128 131 129 130 129 132 129 131 130 129 130 130 130 133 131 131 131 132 131 133 132 132 132 134 132 135 133 133 133 134 133 136 134 137 134 138 134 137 135 139 135 138 135 139 136 140 136 138 136 140 137 141 137 138 137 140 138 142 138 141 138 143 139 144 139 142 139 145 140 144 140 143 140 146 141 144 141 145 141 141 142 147 142 148 142 142 143 147 143 141 143 144 144 147 144 142 144 148 145 41 145 43 145 148 146 40 146 41 146 148 147 38 147 40 147 148 148 36 148 38 148 43 149 149 149 148 149 148 150 34 150 36 150 148 151 33 151 34 151 148 152 31 152 33 152 148 153 29 153 31 153 148 154 28 154 29 154 148 155 26 155 28 155 148 156 24 156 26 156 148 157 22 157 24 157 148 158 21 158 22 158 148 159 19 159 21 159 148 160 17 160 19 160 148 161 16 161 17 161 148 162 14 162 16 162 148 163 12 163 14 163 148 164 10 164 12 164 148 165 9 165 10 165 148 166 7 166 9 166 148 167 5 167 7 167 148 168 4 168 5 168 148 169 0 169 4 169 148 170 3 170 0 170 3 171 150 171 151 171 151 172 150 172 152 172 152 173 150 173 153 173 153 174 150 174 154 174 154 175 150 175 155 175 155 176 150 176 156 176 156 177 150 177 157 177 157 178 150 178 158 178 158 179 150 179 159 179 159 180 150 180 160 180 148 181 150 181 3 181 147 182 150 182 148 182 150 183 161 183 160 183 150 184 162 184 161 184 150 185 163 185 162 185 150 186 164 186 163 186 150 187 165 187 164 187 150 188 166 188 165 188 150 189 167 189 166 189 150 190 168 190 167 190 150 191 169 191 168 191 150 192 170 192 169 192 150 193 171 193 170 193 150 194 172 194 171 194 150 195 173 195 172 195 150 196 174 196 173 196 150 197 175 197 174 197 150 198 176 198 175 198 175 199 176 199 43 199 43 200 176 200 149 200 149 201 177 201 178 201 176 202 177 202 149 202 138 203 144 203 136 203 136 204 144 204 146 204 179 205 180 205 181 205 182 206 181 206 183 206 182 207 179 207 181 207 184 208 182 208 183 208 185 209 183 209 186 209 185 210 184 210 183 210 187 211 186 211 188 211 187 212 185 212 186 212 138 213 179 213 144 213 138 214 180 214 179 214 188 215 177 215 187 215 188 216 178 216 177 216 141 217 181 217 180 217 141 218 180 218 138 218 183 219 181 219 141 219 148 220 183 220 141 220 149 221 186 221 183 221 149 222 183 222 148 222 188 223 186 223 149 223 178 224 188 224 149 224 179 225 182 225 144 225 182 226 147 226 144 226 182 227 184 227 147 227 184 228 150 228 147 228 184 229 185 229 150 229 185 230 176 230 150 230 185 231 187 231 176 231 187 232 177 232 176 232 139 233 189 233 140 233 136 234 189 234 137 234 137 235 189 235 139 235 140 236 189 236 190 236 140 237 190 237 142 237 142 238 190 238 143 238 190 239 146 239 145 239 190 240 145 240 143 240 190 241 189 241 146 241 146 242 189 242 136 242 191 243 135 243 134 243 191 244 134 244 192 244 193 245 192 245 194 245 193 246 191 246 192 246 195 247 194 247 196 247 195 248 193 248 194 248 197 249 196 249 198 249 197 250 195 250 196 250 199 251 198 251 200 251 199 252 197 252 198 252 201 253 200 253 202 253 201 254 199 254 200 254 203 255 202 255 204 255 203 256 201 256 202 256 205 257 204 257 206 257 205 258 203 258 204 258 207 259 206 259 208 259 207 260 205 260 206 260 209 261 208 261 210 261 209 262 207 262 208 262 211 263 210 263 212 263 211 264 209 264 210 264 213 265 212 265 214 265 213 266 211 266 212 266 215 267 214 267 216 267 215 268 213 268 214 268 217 269 216 269 218 269 217 270 215 270 216 270 219 271 218 271 220 271 219 272 217 272 218 272 221 273 219 273 220 273 221 274 220 274 222 274 223 275 221 275 222 275 223 276 222 276 224 276 225 277 223 277 224 277 225 278 224 278 226 278 227 279 225 279 226 279 227 280 226 280 228 280 229 281 227 281 228 281 229 282 228 282 230 282 231 283 230 283 232 283 231 284 229 284 230 284 233 285 232 285 234 285 233 286 231 286 232 286 235 287 234 287 236 287 235 288 233 288 234 288 237 289 236 289 238 289 237 290 235 290 236 290 239 291 238 291 240 291 239 292 237 292 238 292 241 293 240 293 242 293 241 294 239 294 240 294 243 295 242 295 244 295 243 296 241 296 242 296 245 297 244 297 246 297 245 298 243 298 244 298 247 299 246 299 248 299 247 300 245 300 246 300 249 301 248 301 250 301 249 302 247 302 248 302 251 303 250 303 252 303 251 304 249 304 250 304 253 305 252 305 254 305 253 306 251 306 252 306 255 307 254 307 256 307 255 308 253 308 254 308 257 309 256 309 258 309 257 310 255 310 256 310 259 311 258 311 260 311 259 312 257 312 258 312 261 313 260 313 262 313 261 314 259 314 260 314 263 315 262 315 264 315 263 316 261 316 262 316 265 317 264 317 266 317 265 318 263 318 264 318 267 319 266 319 268 319 267 320 265 320 266 320 269 321 268 321 270 321 269 322 267 322 268 322 271 323 269 323 270 323 271 324 270 324 272 324 273 325 271 325 272 325 273 326 272 326 274 326 275 327 273 327 274 327 275 328 274 328 276 328 277 329 275 329 276 329 277 330 276 330 278 330 279 331 277 331 278 331 279 332 278 332 280 332 175 333 279 333 280 333 174 334 175 334 280 334 174 335 280 335 281 335 173 336 174 336 281 336 172 337 173 337 281 337 172 338 281 338 282 338 171 339 172 339 282 339 171 340 282 340 283 340 170 341 171 341 283 341 169 342 170 342 283 342 169 343 283 343 284 343 168 344 169 344 284 344 168 345 284 345 285 345 167 346 168 346 285 346 167 347 285 347 286 347 166 348 167 348 286 348 165 349 286 349 287 349 165 350 166 350 286 350 164 351 287 351 288 351 164 352 165 352 287 352 163 353 164 353 288 353 162 354 288 354 289 354 162 355 163 355 288 355 161 356 289 356 290 356 161 357 162 357 289 357 160 358 290 358 291 358 160 359 161 359 290 359 159 360 160 360 291 360 158 361 291 361 292 361 158 362 159 362 291 362 157 363 292 363 293 363 157 364 158 364 292 364 156 365 293 365 294 365 156 366 157 366 293 366 155 367 156 367 294 367 154 368 294 368 295 368 154 369 155 369 294 369 153 370 295 370 296 370 153 371 154 371 295 371 152 372 296 372 297 372 152 373 153 373 296 373 151 374 152 374 297 374 151 375 297 375 1 375 3 376 151 376 1 376 218 377 216 377 220 377 216 378 214 378 220 378 220 379 212 379 222 379 214 380 212 380 220 380 210 381 208 381 212 381 222 382 208 382 224 382 224 383 208 383 226 383 226 384 208 384 228 384 228 385 208 385 230 385 212 386 208 386 222 386 232 387 236 387 234 387 236 388 242 388 238 388 238 389 242 389 240 389 202 390 200 390 204 390 204 391 200 391 206 391 242 392 248 392 244 392 244 393 248 393 246 393 236 394 248 394 242 394 232 395 248 395 236 395 196 396 194 396 198 396 248 397 254 397 250 397 250 398 254 398 252 398 134 399 132 399 192 399 192 400 132 400 194 400 194 401 132 401 198 401 254 402 258 402 256 402 254 403 260 403 258 403 232 404 262 404 248 404 248 405 262 405 254 405 254 406 262 406 260 406 126 407 124 407 128 407 128 408 124 408 130 408 206 409 264 409 208 409 230 410 264 410 232 410 208 411 264 411 230 411 232 412 264 412 262 412 124 413 122 413 130 413 122 414 120 414 130 414 198 415 268 415 200 415 206 416 268 416 264 416 264 417 268 417 266 417 200 418 268 418 206 418 132 419 268 419 198 419 118 420 116 420 120 420 132 421 272 421 268 421 268 422 272 422 270 422 120 423 114 423 130 423 116 424 114 424 120 424 132 425 276 425 272 425 272 426 276 426 274 426 108 427 106 427 110 427 276 428 282 428 278 428 278 429 282 429 280 429 280 430 282 430 281 430 276 431 283 431 282 431 102 432 100 432 104 432 132 433 284 433 276 433 276 434 284 434 283 434 100 435 98 435 104 435 104 436 96 436 106 436 98 437 96 437 104 437 284 438 286 438 285 438 94 439 92 439 96 439 90 440 88 440 92 440 130 441 290 441 132 441 132 442 290 442 284 442 286 443 290 443 287 443 287 444 290 444 288 444 288 445 290 445 289 445 284 446 290 446 286 446 88 447 86 447 92 447 92 448 86 448 96 448 290 449 292 449 291 449 290 450 293 450 292 450 82 451 80 451 84 451 84 452 80 452 86 452 86 453 80 453 96 453 290 454 294 454 293 454 290 455 295 455 294 455 110 456 295 456 112 456 112 457 295 457 114 457 114 458 295 458 130 458 106 459 295 459 110 459 130 460 295 460 290 460 295 461 297 461 296 461 74 462 72 462 76 462 76 463 72 463 78 463 78 464 72 464 80 464 295 465 1 465 297 465 72 466 70 466 80 466 1 467 6 467 2 467 68 468 66 468 70 468 295 469 8 469 1 469 1 470 8 470 6 470 295 471 11 471 8 471 70 472 62 472 80 472 66 473 62 473 70 473 64 474 62 474 66 474 106 475 13 475 295 475 295 476 13 476 11 476 13 477 18 477 15 477 58 478 56 478 60 478 13 479 20 479 18 479 56 480 54 480 60 480 60 481 54 481 62 481 13 482 23 482 20 482 54 483 52 483 62 483 23 484 27 484 25 484 106 485 30 485 13 485 96 486 30 486 106 486 13 487 30 487 23 487 23 488 30 488 27 488 48 489 46 489 50 489 50 490 46 490 52 490 96 491 32 491 30 491 80 492 32 492 96 492 46 493 44 493 52 493 32 494 37 494 35 494 62 495 39 495 80 495 80 496 39 496 32 496 52 497 39 497 62 497 32 498 39 498 37 498 44 499 39 499 52 499 42 500 39 500 44 500 225 501 221 501 223 501 215 502 217 502 219 502 215 503 219 503 221 503 233 504 227 504 229 504 233 505 229 505 231 505 209 506 211 506 213 506 209 507 213 507 215 507 237 508 233 508 235 508 239 509 233 509 237 509 203 510 205 510 207 510 241 511 215 511 221 511 241 512 227 512 233 512 241 513 233 513 239 513 241 514 225 514 227 514 241 515 221 515 225 515 201 516 203 516 207 516 201 517 207 517 209 517 245 518 241 518 243 518 191 519 193 519 195 519 255 520 241 520 245 520 255 521 245 521 247 521 255 522 247 522 249 522 255 523 249 523 251 523 255 524 251 524 253 524 133 525 135 525 191 525 133 526 191 526 195 526 129 527 131 527 133 527 129 528 195 528 197 528 129 529 197 529 199 529 129 530 199 530 201 530 129 531 133 531 195 531 261 532 255 532 257 532 261 533 257 533 259 533 265 534 261 534 263 534 267 535 241 535 255 535 267 536 215 536 241 536 267 537 255 537 261 537 267 538 261 538 265 538 121 539 123 539 125 539 121 540 125 540 127 540 117 541 119 541 121 541 117 542 121 542 127 542 273 543 215 543 267 543 273 544 267 544 269 544 273 545 269 545 271 545 115 546 127 546 129 546 115 547 129 547 201 547 115 548 117 548 127 548 115 549 201 549 209 549 277 550 273 550 275 550 109 551 111 551 113 551 175 552 277 552 279 552 105 553 107 553 109 553 101 554 209 554 215 554 101 555 273 555 277 555 101 556 109 556 113 556 101 557 105 557 109 557 101 558 103 558 105 558 101 559 113 559 115 559 101 560 115 560 209 560 101 561 215 561 273 561 95 562 97 562 99 562 95 563 99 563 101 563 93 564 95 564 101 564 91 565 93 565 101 565 89 566 91 566 101 566 85 567 87 567 89 567 85 568 89 568 101 568 83 569 85 569 101 569 77 570 277 570 175 570 77 571 101 571 277 571 77 572 79 572 81 572 77 573 81 573 83 573 77 574 83 574 101 574 69 575 71 575 73 575 69 576 73 576 75 576 67 577 75 577 77 577 67 578 69 578 75 578 61 579 63 579 65 579 61 580 65 580 67 580 57 581 59 581 61 581 57 582 77 582 175 582 57 583 67 583 77 583 57 584 61 584 67 584 51 585 53 585 55 585 51 586 55 586 57 586 51 587 57 587 175 587 45 588 47 588 49 588 43 589 49 589 51 589 43 590 51 590 175 590 43 591 45 591 49 591</p>
        </triangles>
      </mesh>
    </geometry>
  </library_geometries>
  <library_materials>
    <material id="mat_back_lid001_shape" name="back_lid001_shape">
      <instance_effect url="#effect_back_lid001_shape"/>
    </material>
  </library_materials>
  <library_visual_scenes>
    <visual_scene id="myscene">
      <node id="node0" name="node0">
        <instance_geometry url="#geometry0">
          <bind_material>
            <technique_common>
              <instance_material symbol="ref_back_lid001_shape" target="#mat_back_lid001_shape"/>
            </technique_common>
          </bind_material>
        </instance_geometry>
      </node>
    </visual_scene>
  </library_visual_scenes>
  <scene>
    <instance_visual_scene url="#myscene"/>
  </scene>
</COLLADA>
