<COLLADA xmlns="http://www.collada.org/2005/11/COLLADASchema" version="1.4.1">
  <asset>
    <contributor/>
    <created>2026-07-22T21:26:33.601376</created>
    <modified>2026-07-22T21:26:33.601384</modified>
    <unit name="meter" meter="1.0"/>
    <up_axis>Z_UP</up_axis>
  </asset>
  <library_effects>
    <effect id="effect_Base001_shape" name="effect_Base001_shape">
      <profile_COMMON>
        <technique sid="common">
          <phong>
            <emission>
              <color>0.0 0.0 0.0 1.0</color>
            </emission>
            <ambient>
              <color>0.0 0.0 0.0 1.0</color>
            </ambient>
            <diffuse>
              <color>0.800000011920929 0.800000011920929 0.9019607901573181 1.0</color>
            </diffuse>
            <specular>
              <color>1 1 1 1.0</color>
            </specular>
            <shininess>
              <float>0.0</float>
            </shininess>
            <reflective>
              <color>0.0 0.0 0.0 1.0</color>
            </reflective>
            <reflectivity>
              <float>0.0</float>
            </reflectivity>
            <transparent>
              <color>0.0 0.0 0.0 1.0</color>
            </transparent>
            <transparency>
              <float>1.0</float>
            </transparency>
          </phong>
        </technique>
        <extra>
          <technique profile="GOOGLEEARTH">
            <double_sided>0</double_sided>
          </technique>
        </extra>
      </profile_COMMON>
    </effect>
  </library_effects>
  <library_geometries>
    <geometry id="geometry0" name="Base001_shape">
      <mesh>
        <source id="cubeverts-array0">
          <float_array count="900" id="cubeverts-array0-array">0.2121465 0.04082475 0.1944547 0.2117971 0.04082475 0.1944634 0.2117971 0.03982475 0.1944634 0.2121465 0.03982475 0.1944547 0.212495 0.04082475 0.1944285 0.212495 0.03982475 0.1944285 0.2128418 0.04082475 0.194385 0.2128418 0.03982475 0.194385 0.213186 0.04082475 0.1943242 0.213186 0.03982475 0.1943242 0.2135267 0.04082475 0.1942463 0.2135267 0.03982475 0.1942463 0.2138631 0.04082475 0.1941516 0.2138631 0.03982475 0.1941516 0.2141944 0.04082475 0.1940401 0.2141944 0.03982475 0.1940401 0.2145197 0.04082475 0.1939122 0.2145197 0.03982475 0.1939122 0.2148382 0.04082475 0.1937683 0.2148382 0.03982475 0.1937683 0.2151491 0.04082475 0.1936086 0.2151491 0.03982475 0.1936086 0.2154516 0.04082475 0.1934337 0.2154516 0.03982475 0.1934337 0.2157451 0.04082475 0.1932438 0.2157451 0.03982475 0.1932438 0.2160287 0.04082475 0.1930395 0.2160287 0.03982475 0.1930395 0.2163018 0.03982475 0.1928213 0.2163018 0.04082475 0.1928213 0.2165636 0.04082475 0.1925898 0.2165636 0.03982475 0.1925898 0.2168135 0.04082475 0.1923455 0.2168135 0.03982475 0.1923455 0.217051 0.04082475 0.192089 0.217051 0.03982475 0.192089 0.2172753 0.03982475 0.191821 0.2172753 0.04082475 0.191821 0.217486 0.04082475 0.1915421 0.217486 0.03982475 0.1915421 0.2176825 0.03982475 0.1912531 0.2176825 0.04082475 0.1912531 0.2178643 0.04082475 0.1909546 0.2178643 0.03982475 0.1909546 0.218031 0.03982475 0.1906474 0.218031 0.04082475 0.1906474 0.2181822 0.04082475 0.1903322 0.2181822 0.03982475 0.1903322 0.2183174 0.03982475 0.1900099 0.2183174 0.04082475 0.1900099 0.2184364 0.04082475 0.1896813 0.2184364 0.03982475 0.1896813 0.2185388 0.04082475 0.1893471 0.2185388 0.03982475 0.1893471 0.2186245 0.04082475 0.1890083 0.2186245 0.03982475 0.1890083 0.2186931 0.04082475 0.1886656 0.2186931 0.03982475 0.1886656 0.2187445 0.04082475 0.1883199 0.2187445 0.03982475 0.1883199 0.2187785 0.04082475 0.187972 0.2187785 0.03982475 0.187972 0.2187952 0.04082475 0.1876229 0.2187952 0.03982475 0.1876229 0.2187945 0.04082475 0.1872734 0.2187945 0.03982475 0.1872734 0.2187763 0.03982475 0.1869243 0.2187763 0.04082475 0.1869243 0.2187407 0.04082475 0.1865766 0.2187407 0.03982475 0.1865766 0.2186877 0.04082475 0.1862312 0.2186877 0.03982475 0.1862312 0.2186176 0.04082475 0.1858887 0.2186176 0.03982475 0.1858887 -0.2117971 0.03982475 0.1944634 -0.2117971 0.04082475 0.1944634 -0.2186877 0.04082475 0.1862312 -0.2186176 0.04082475 0.1858887 -0.2186176 0.03982475 0.1858887 -0.2186877 0.03982475 0.1862312 -0.2187407 0.04082475 0.1865766 -0.2187407 0.03982475 0.1865766 -0.2187763 0.04082475 0.1869243 -0.2187763 0.03982475 0.1869243 -0.2187945 0.04082475 0.1872734 -0.2187945 0.03982475 0.1872734 -0.2187952 0.04082475 0.1876229 -0.2187952 0.03982475 0.1876229 -0.2187785 0.04082475 0.187972 -0.2187785 0.03982475 0.187972 -0.2187445 0.04082475 0.1883199 -0.2187445 0.03982475 0.1883199 -0.2186931 0.04082475 0.1886656 -0.2186931 0.03982475 0.1886656 -0.2186245 0.03982475 0.1890083 -0.2186245 0.04082475 0.1890083 -0.2185388 0.04082475 0.1893471 -0.2185388 0.03982475 0.1893471 -0.2184364 0.04082475 0.1896813 -0.2184364 0.03982475 0.1896813 -0.2183174 0.04082475 0.1900099 -0.2183174 0.03982475 0.1900099 -0.2181822 0.04082475 0.1903322 -0.2181822 0.03982475 0.1903322 -0.218031 0.04082475 0.1906474 -0.218031 0.03982475 0.1906474 -0.2178643 0.04082475 0.1909546 -0.2178643 0.03982475 0.1909546 -0.2176825 0.04082475 0.1912531 -0.2176825 0.03982475 0.1912531 -0.217486 0.04082475 0.1915421 -0.217486 0.03982475 0.1915421 -0.2172753 0.03982475 0.191821 -0.2172753 0.04082475 0.191821 -0.217051 0.04082475 0.192089 -0.217051 0.03982475 0.192089 -0.2168135 0.03982475 0.1923455 -0.2168135 0.04082475 0.1923455 -0.2165636 0.04082475 0.1925898 -0.2165636 0.03982475 0.1925898 -0.2163018 0.03982475 0.1928213 -0.2163018 0.04082475 0.1928213 -0.2160287 0.04082475 0.1930395 -0.2160287 0.03982475 0.1930395 -0.2157451 0.03982475 0.1932438 -0.2157451 0.04082475 0.1932438 -0.2154516 0.04082475 0.1934337 -0.2154516 0.03982475 0.1934337 -0.2151491 0.03982475 0.1936086 -0.2151491 0.04082475 0.1936086 -0.2148382 0.04082475 0.1937683 -0.2148382 0.03982475 0.1937683 -0.2145197 0.03982475 0.1939122 -0.2145197 0.04082475 0.1939122 -0.2141944 0.04082475 0.1940401 -0.2141944 0.03982475 0.1940401 -0.2138631 0.03982475 0.1941516 -0.2138631 0.04082475 0.1941516 -0.2135267 0.04082475 0.1942463 -0.2135267 0.03982475 0.1942463 -0.213186 0.03982475 0.1943242 -0.213186 0.04082475 0.1943242 -0.2128418 0.03982475 0.194385 -0.2128418 0.04082475 0.194385 -0.212495 0.04082475 0.1944285 -0.212495 0.03982475 0.1944285 -0.2121465 0.03982475 0.1944547 -0.2121465 0.04082475 0.1944547 -0.2181298 0.03982475 0.1837757 -0.2181298 0.04082475 0.1837757 -0.1700943 0.04082475 0.1837757 -0.1700943 0.03982475 0.1837757 -0.1700943 0.04082475 0.1318026 -0.1700943 0.03982475 0.1318026 -0.1550943 0.04082475 0.1318026 -0.1550943 0.03982475 0.1318026 -0.1550943 0.03982475 0.05680256 -0.1550943 0.04082475 0.05680256 -0.1700943 0.04082475 0.05680256 -0.1700943 0.03982475 0.05680256 -0.1700943 0.03982475 0.006802559 -0.1700943 0.04082475 0.006802559 -0.1772723 0.04082475 0.006802559 -0.1772723 0.03982475 0.006802559 -0.1320421 0.04082475 -0.1891113 -0.1320421 0.03982475 -0.1891113 -0.1252215 0.04082475 -0.1945366 -0.1252215 0.03982475 -0.1945366 -0.1255698 0.03982475 -0.1945279 -0.1255698 0.04082475 -0.1945279 -0.1259172 0.04082475 -0.194502 -0.1259172 0.03982475 -0.194502 -0.1262629 0.04082475 -0.1944587 -0.1262629 0.03982475 -0.1944587 -0.126606 0.04082475 -0.1943983 -0.126606 0.03982475 -0.1943983 -0.1269456 0.04082475 -0.1943209 -0.1269456 0.03982475 -0.1943209 -0.1272811 0.04082475 -0.1942268 -0.1272811 0.03982475 -0.1942268 -0.1276114 0.04082475 -0.194116 -0.1276114 0.03982475 -0.194116 -0.1279358 0.04082475 -0.1939889 -0.1279358 0.03982475 -0.1939889 -0.1282534 0.04082475 -0.1938459 -0.1282534 0.03982475 -0.1938459 -0.1285636 0.04082475 -0.1936872 -0.1285636 0.03982475 -0.1936872 -0.1288655 0.04082475 -0.1935134 -0.1288655 0.03982475 -0.1935134 -0.1291583 0.04082475 -0.1933246 -0.1291583 0.03982475 -0.1933246 -0.1294414 0.04082475 -0.1931216 -0.1294414 0.03982475 -0.1931216 -0.1297141 0.04082475 -0.1929047 -0.1297141 0.03982475 -0.1929047 -0.1299756 0.04082475 -0.1926746 -0.1299756 0.03982475 -0.1926746 -0.1302253 0.04082475 -0.1924317 -0.1302253 0.03982475 -0.1924317 -0.1304627 0.04082475 -0.1921766 -0.1304627 0.03982475 -0.1921766 -0.130687 0.04082475 -0.1919101 -0.130687 0.03982475 -0.1919101 -0.1308979 0.04082475 -0.1916328 -0.1308979 0.03982475 -0.1916328 -0.1310946 0.04082475 -0.1913453 -0.1310946 0.03982475 -0.1913453 -0.1312769 0.04082475 -0.1910484 -0.1312769 0.03982475 -0.1910484 -0.1314441 0.03982475 -0.1907427 -0.1314441 0.04082475 -0.1907427 -0.1315959 0.04082475 -0.1904292 -0.1315959 0.03982475 -0.1904292 -0.1317319 0.04082475 -0.1901084 -0.1317319 0.03982475 -0.1901084 -0.1318518 0.04082475 -0.1897813 -0.1318518 0.03982475 -0.1897813 -0.1319553 0.03982475 -0.1894487 -0.1319553 0.04082475 -0.1894487 -0.051 0.04082475 -0.1945366 -0.051 0.03982475 -0.1945366 -0.051 0.04082475 -0.0726665 -0.051 0.03982475 -0.0726665 0.051 0.04082475 -0.0726665 0.051 0.03982475 -0.0726665 0.051 0.04082475 -0.1945366 0.051 0.03982475 -0.1945366 0.1252215 0.04082475 -0.1945366 0.1252215 0.03982475 -0.1945366 0.1320421 0.04082475 -0.1891113 0.1320421 0.03982475 -0.1891113 0.1319553 0.03982475 -0.1894487 0.1319553 0.04082475 -0.1894487 0.1318518 0.04082475 -0.1897813 0.1318518 0.03982475 -0.1897813 0.1317319 0.04082475 -0.1901084 0.1317319 0.03982475 -0.1901084 0.1315959 0.04082475 -0.1904292 0.1315959 0.03982475 -0.1904292 0.1314441 0.03982475 -0.1907427 0.1314441 0.04082475 -0.1907427 0.1312769 0.04082475 -0.1910484 0.1312769 0.03982475 -0.1910484 0.1310946 0.04082475 -0.1913453 0.1310946 0.03982475 -0.1913453 0.1308979 0.04082475 -0.1916328 0.1308979 0.03982475 -0.1916328 0.130687 0.04082475 -0.1919101 0.130687 0.03982475 -0.1919101 0.1304627 0.04082475 -0.1921766 0.1304627 0.03982475 -0.1921766 0.1302253 0.04082475 -0.1924317 0.1302253 0.03982475 -0.1924317 0.1299756 0.04082475 -0.1926746 0.1299756 0.03982475 -0.1926746 0.1297141 0.03982475 -0.1929047 0.1297141 0.04082475 -0.1929047 0.1294414 0.04082475 -0.1931216 0.1294414 0.03982475 -0.1931216 0.1291583 0.04082475 -0.1933246 0.1291583 0.03982475 -0.1933246 0.1288655 0.04082475 -0.1935134 0.1288655 0.03982475 -0.1935134 0.1285636 0.04082475 -0.1936872 0.1285636 0.03982475 -0.1936872 0.1282534 0.03982475 -0.1938459 0.1282534 0.04082475 -0.1938459 0.1279358 0.04082475 -0.1939889 0.1279358 0.03982475 -0.1939889 0.1276114 0.04082475 -0.194116 0.1276114 0.03982475 -0.194116 0.1272811 0.04082475 -0.1942268 0.1272811 0.03982475 -0.1942268 0.1269456 0.03982475 -0.1943209 0.1269456 0.04082475 -0.1943209 0.126606 0.04082475 -0.1943983 0.126606 0.03982475 -0.1943983 0.1262629 0.03982475 -0.1944587 0.1262629 0.04082475 -0.1944587 0.1259172 0.04082475 -0.194502 0.1259172 0.03982475 -0.194502 0.1255698 0.03982475 -0.1945279 0.1255698 0.04082475 -0.1945279 0.1772723 0.04082475 0.006802559 0.1772723 0.03982475 0.006802559 0.1700943 0.04082475 0.006802559 0.1700943 0.03982475 0.006802559 0.1700943 0.04082475 0.05680256 0.1700943 0.03982475 0.05680256 0.1550943 0.04082475 0.05680256 0.1550943 0.03982475 0.05680256 0.1550943 0.03982475 0.1318026 0.1550943 0.04082475 0.1318026 0.1700943 0.04082475 0.1318026 0.1700943 0.03982475 0.1318026 0.1700943 0.04082475 0.1837757 0.1700943 0.03982475 0.1837757 0.2181298 0.04082475 0.1837757 0.2181298 0.03982475 0.1837757</float_array>
          <technique_common>
            <accessor count="300" source="#cubeverts-array0-array" stride="3">
              <param type="float" name="X"/>
              <param type="float" name="Y"/>
              <param type="float" name="Z"/>
            </accessor>
          </technique_common>
        </source>
        <source id="cubenormals-array0">
          <float_array count="1788" id="cubenormals-array0-array">0.02497256 0 0.9996881 0.02497256 0 0.9996881 0.07482685 0 0.9971966 0.07482685 0 0.9971966 0.1245129 0 0.992218 0.1245129 0 0.992218 0.173885 0 0.984766 0.173885 0 0.984766 0.2228248 0 0.9748585 0.2228248 0 0.9748585 0.271202 0 0.9625224 0.271202 0 0.9625224 0.3189114 0 0.9477846 0.3189114 0 0.9477846 0.3658442 0 0.9306761 0.3658442 0 0.9306761 0.4118218 0 0.9112644 0.4118218 0 0.9112644 0.4567925 0 0.8895732 0.4567925 0 0.8895732 0.5006129 0 0.8656713 0.5006129 0 0.8656713 0.5432132 0 0.8395947 0.5432132 0 0.8395947 0.5844508 0 0.8114291 0.6242424 0 0.7812307 0.5844508 0 0.8114291 0.6242424 0 0.7812307 0.6624241 0 0.7491291 0.6624241 0 0.7491291 0.6989842 0 0.7151371 0.6989842 0 0.7151371 0.7338453 0 0.6793166 0.7668132 0 0.6418704 0.7338453 0 0.6793166 0.7668132 0 0.6418704 0.8269923 0 0.5622133 0.7979154 0 0.6027695 0.7979154 0 0.6027695 0.8269923 0 0.5622133 0.8789512 0 0.4769117 0.8540299 0 0.5202239 0.8540299 0 0.5202239 0.8789512 0 0.4769117 0.9221105 0 0.3869267 0.9016246 0 0.4325196 0.9016246 0 0.4325196 0.9221105 0 0.3869267 0.9402832 0 0.3403932 0.9402832 0 0.3403932 0.9560909 0 0.2930703 0.9560909 0 0.2930703 0.9695231 0 0.2450002 0.9695231 0 0.2450002 0.9805471 0 0.1962841 0.9805471 0 0.1962841 0.9891239 0 0.147085 0.9891239 0 0.147085 0.9952328 0 0.09752818 0.9952328 0 0.09752818 0.9988609 0 0.04771657 0.9988609 0 0.04771657 0.9999976 0 -0.002182924 0.9986428 0 -0.05208223 0.9999976 0 -0.002182924 0.9986428 0 -0.05208223 0.9947998 0 -0.1018505 0.9947998 0 -0.1018505 0.9884714 0 -0.1514076 0.9884714 0 -0.1514076 0.9796823 0 -0.2005553 0.9796823 0 -0.2005553 0 0 1 0 0 1 -0.9796823 0 -0.2005553 -0.9796823 -0 -0.2005553 -0.9884714 -0 -0.1514076 -0.9884714 0 -0.1514076 -0.9947998 -0 -0.1018505 -0.9947998 0 -0.1018505 -0.9986428 -0 -0.05208223 -0.9986428 0 -0.05208223 -0.9999976 -0 -0.002182924 -0.9999976 0 -0.002182924 -0.9988609 0 0.04771657 -0.9988609 0 0.04771657 -0.9952328 0 0.09752818 -0.9952328 0 0.09752818 -0.9891239 0 0.147085 -0.9805471 0 0.1962841 -0.9891239 0 0.147085 -0.9805471 0 0.1962841 -0.9695231 0 0.2450002 -0.9695231 0 0.2450002 -0.9560909 0 0.2930703 -0.9560909 0 0.2930703 -0.9402832 0 0.3403932 -0.9402832 0 0.3403932 -0.9221105 0 0.3869267 -0.9221105 0 0.3869267 -0.9016246 0 0.4325196 -0.9016246 0 0.4325196 -0.8789512 0 0.4769117 -0.8789512 0 0.4769117 -0.8540299 0 0.5202239 -0.8540299 0 0.5202239 -0.8269923 0 0.5622133 -0.7979154 0 0.6027695 -0.8269923 0 0.5622133 -0.7979154 0 0.6027695 -0.7338453 0 0.6793166 -0.7668132 0 0.6418704 -0.7668132 0 0.6418704 -0.7338453 0 0.6793166 -0.6624241 0 0.7491291 -0.6989842 0 0.7151371 -0.6989842 0 0.7151371 -0.6624241 0 0.7491291 -0.5844508 0 0.8114291 -0.6242424 0 0.7812307 -0.6242424 0 0.7812307 -0.5844508 0 0.8114291 -0.5006129 0 0.8656713 -0.5432132 0 0.8395947 -0.5432132 0 0.8395947 -0.5006129 0 0.8656713 -0.4118218 0 0.9112644 -0.4567925 0 0.8895732 -0.4567925 0 0.8895732 -0.4118218 0 0.9112644 -0.3189114 0 0.9477846 -0.3658442 0 0.9306761 -0.3658442 0 0.9306761 -0.3189114 0 0.9477846 -0.271202 0 0.9625224 -0.2228248 0 0.9748585 -0.271202 0 0.9625224 -0.2228248 0 0.9748585 -0.173885 0 0.984766 -0.173885 0 0.984766 -0.1245129 0 0.992218 -0.07482685 0 0.9971966 -0.1245129 0 0.992218 -0.07482685 0 0.9971966 -0.02497256 0 0.9996881 -0.02497256 0 0.9996881 -0.9743699 -0 -0.2249515 -0.9743699 0 -0.2249515 0 0 -1 0 0 -1 -1 -0 -0 -1 0 0 0 0 -1 0 0 -1 -1 -0 0 -1 0 -0 0 0 1 0 0 1 -1 -0 0 -1 0 -0 0 0 1 0 0 1 -0.9743701 -0 -0.224951 -0.9743701 0 -0.224951 -0.02487784 -0 -0.9996905 -0.02487784 -0 -0.9996905 -0.0745896 -0 -0.9972143 -0.0745896 0 -0.9972143 -0.1241264 -0 -0.9922664 -0.1241264 0 -0.9922664 -0.1733131 -0 -0.9848668 -0.1733131 0 -0.9848668 -0.2221445 -0 -0.9750138 -0.2221445 0 -0.9750138 -0.2703276 -0 -0.9627683 -0.2703276 0 -0.9627683 -0.3179354 -0 -0.9481124 -0.3179354 0 -0.9481124 -0.3647057 -0 -0.9311228 -0.3647057 0 -0.9311228 -0.4105796 -0 -0.9118248 -0.4105796 0 -0.9118248 -0.4554112 0 -0.8902812 -0.4554112 -0 -0.8902812 -0.4991359 0 -0.8665237 -0.4991359 -0 -0.8665237 -0.5416649 0 -0.8405945 -0.5416649 -0 -0.8405945 -0.582828 0 -0.8125955 -0.582828 -0 -0.8125955 -0.6225187 0 -0.7826049 -0.6225187 -0 -0.7826049 -0.6606693 0 -0.750677 -0.6606693 -0 -0.750677 -0.697206 0 -0.7168708 -0.697206 -0 -0.7168708 -0.7320114 0 -0.6812922 -0.7320114 -0 -0.6812922 -0.7650021 0 -0.6440278 -0.7650021 -0 -0.6440278 -0.7960938 -0 -0.6051732 -0.7960938 0 -0.6051732 -0.8252438 -0 -0.5647765 -0.8252438 0 -0.5647765 -0.8522983 0 -0.523056 -0.8772772 -0 -0.4799841 -0.8522983 -0 -0.523056 -0.8772772 -0 -0.4799841 -0.9000657 -0 -0.4357544 -0.9000657 0 -0.4357544 -0.9206156 -0 -0.39047 -0.9206156 0 -0.39047 -0.9548797 -0 -0.2969929 -0.9389221 -0 -0.3441298 -0.9389221 0 -0.3441298 -0.9548797 -0 -0.2969929 -0.9684685 -0 -0.2491361 -0.9684685 0 -0.2491361 0 0 -1 0 0 -1 1 0 -0 1 0 0 0 0 -1 0 0 -1 -1 -0 -0 -1 0 0 0 0 -1 0 0 -1 0.9684685 0 -0.2491361 0.9684685 0 -0.2491361 0.9548797 0 -0.2969929 0.9548797 0 -0.2969929 0.9389221 0 -0.3441298 0.9389221 0 -0.3441298 0.9000657 0 -0.4357544 0.9206156 0 -0.39047 0.9206156 0 -0.39047 0.9000657 0 -0.4357544 0.8772772 0 -0.4799841 0.8772772 0 -0.4799841 0.8522983 0 -0.523056 0.8522983 0 -0.523056 0.8252438 0 -0.5647765 0.8252438 0 -0.5647765 0.7960938 0 -0.6051732 0.7960938 0 -0.6051732 0.7650021 0 -0.6440278 0.7650021 0 -0.6440278 0.7320114 0 -0.6812922 0.7320114 0 -0.6812922 0.697206 0 -0.7168708 0.6606693 0 -0.750677 0.697206 0 -0.7168708 0.6606693 0 -0.750677 0.6225187 0 -0.7826049 0.6225187 0 -0.7826049 0.582828 0 -0.8125955 0.582828 0 -0.8125955 0.5416649 0 -0.8405945 0.5416649 0 -0.8405945 0.4991359 0 -0.8665237 0.4554112 0 -0.8902812 0.4991359 0 -0.8665237 0.4554112 0 -0.8902812 0.4105796 0 -0.9118248 0.4105796 0 -0.9118248 0.3647057 0 -0.9311228 0.3647057 0 -0.9311228 0.2703276 0 -0.9627683 0.3179354 0 -0.9481124 0.3179354 0 -0.9481124 0.2703276 0 -0.9627683 0.1733131 0 -0.9848668 0.2221445 0 -0.9750138 0.2221445 0 -0.9750138 0.1733131 0 -0.9848668 0.0745896 0 -0.9972143 0.1241264 0 -0.9922664 0.1241264 0 -0.9922664 0.0745896 0 -0.9972143 0.02487784 0 -0.9996905 0.02487784 0 -0.9996905 0.9743701 0 -0.224951 0.9743701 0 -0.224951 0 0 1 0 0 1 1 0 -0 1 0 0 0 0 1 0 0 1 1 0 0 1 0 -0 0 0 -1 0 0 -1 1 0 -0 1 0 0 0 0 -1 0 0 -1 0.9743699 0 -0.2249515 0.9743699 0 -0.2249515 0 -1 0 0 -1 0 0 -1 0 0 -1 0 0 -1 0 0 -1 0 0 -1 0 0 -1 0 0 -1 0 0 -1 0 0 -1 0 0 -1 0 0 -1 0 0 -1 0 0 -1 0 0 -1 0 0 -1 0 0 -1 0 0 -1 0 0 -1 0 0 -1 0 0 -1 0 0 -1 0 0 -1 0 0 -1 0 0 -1 0 0 -1 0 0 -1 0 0 -1 0 0 -1 0 0 -1 0 0 -1 0 0 -1 0 0 -1 0 0 -1 0 0 -1 0 0 -1 0 0 -1 0 0 -1 0 0 -1 0 0 -1 0 0 -1 0 0 -1 0 0 -1 0 0 -1 0 0 -1 0 0 -1 0 0 -1 0 0 -1 0 0 -1 0 0 -1 0 0 -1 0 0 -1 0 0 -1 0 0 -1 0 0 -1 0 0 -1 0 0 -1 0 0 -1 0 0 -1 0 0 -1 0 0 -1 0 0 -1 0 0 -1 0 0 -1 0 0 -1 0 0 -1 0 0 -1 0 0 -1 0 0 -1 0 0 -1 0 0 -1 0 0 -1 0 0 -1 0 0 -1 0 0 -1 0 0 -1 0 0 -1 0 0 -1 0 0 -1 0 0 -1 0 0 -1 0 0 -1 0 0 -1 0 0 -1 0 0 -1 0 0 -1 0 0 -1 0 0 -1 0 0 -1 0 0 -1 0 0 -1 0 0 -1 0 0 -1 0 0 -1 0 0 -1 0 0 -1 0 0 -1 0 0 -1 0 0 -1 0 0 -1 0 0 -1 0 0 -1 0 0 -1 0 0 -1 0 0 -1 0 0 -1 0 0 -1 0 0 -1 0 0 -1 0 0 -1 0 0 -1 0 0 -1 0 0 -1 0 0 -1 0 -0 -1 0 -0 -1 0 0 -1 0 0 -1 0 0 -1 0 0 -1 0 0 -1 0 0 -1 0 0 -1 0 0 -1 0 0 -1 0 -0 -1 0 0 -1 0 0 -1 0 -0 -1 0 0 -1 0 0 -1 0 0 -1 0 0 -1 0 0 -1 0 0 -1 0 0 -1 0 0 -1 0 0 -1 0 0 -1 0 0 -1 0 0 -1 0 -0 -1 0 0 -1 0 0 -1 0 0 -1 0 -0 -1 0 0 -1 0 0 1 0 -0 1 0 0 1 0 -0 1 0 -0 1 0 0 1 0 -0 1 0 -0 1 0 0 1 0 0 1 0 0 1 0 0 1 0 -0 1 0 -0 1 0 -0 1 0 -0 1 0 -0 1 0 0 1 0 0 1 0 -0 1 0 0 1 0 0 1 0 -0 1 0 -0 1 0 -0 1 0 -0 1 0 0 1 0 0 1 0 0 1 0 0 1 0 0 1 0 0 1 0 0 1 0 0 1 0 0 1 0 0 1 0 0 1 0 0 1 0 0 1 0 0 1 0 0 1 0 0 1 0 0 1 0 0 1 0 0 1 0 0 1 0 0 1 0 0 1 0 0 1 0 0 1 0 0 1 0 0 1 0 0 1 0 0 1 0 0 1 0 0 1 0 0 1 0 0 1 0 0 1 0 0 1 0 0 1 0 0 1 0 0 1 0 0 1 0 0 1 0 0 1 0 0 1 0 0 1 0 0 1 0 0 1 0 0 1 0 0 1 0 0 1 0 0 1 0 0 1 -0 0 1 -0 0 1 0 0 1 0 0 1 0 0 1 0 0 1 0 0 1 0 0 1 0 0 1 0 0 1 0 0 1 0 0 1 0 0 1 0 0 1 0 0 1 0 0 1 0 0 1 0 0 1 0 0 1 0 0 1 0 0 1 0 0 1 0 0 1 0 0 1 0 0 1 0 0 1 0 0 1 0 0 1 0 0 1 0 0 1 0 0 1 0 0 1 0 0 1 0 0 1 0 0 1 0 0 1 0 0 1 0 0 1 0 0 1 0 0 1 0 0 1 0 0 1 0 0 1 0 0 1 0 0 1 0 0 1 0 0 1 -0 0 1 0 0 1 0 0 1 0 0 1 0 0 1 0 0 1 0 0 1 0 0 1 -0 0 1 0 0 1 -0 0 1 -0 0 1 0 0 1 0 0 1 -0 0 1 0 0 1 0 0 1 -0 0 1 0 0 1 0 0 1 0 0 1 0 0 1 -0 0 1 -0 0 1 -0 -0 1 0 0 1 0</float_array>
          <technique_common>
            <accessor count="596" source="#cubenormals-array0-array" stride="3">
              <param type="float" name="X"/>
              <param type="float" name="Y"/>
              <param type="float" name="Z"/>
            </accessor>
          </technique_common>
        </source>
        <vertices id="cubeverts-array0-vertices">
          <input semantic="POSITION" source="#cubeverts-array0"/>
        </vertices>
        <triangles count="596" material="ref_Base001_shape">
          <input offset="0" semantic="VERTEX" source="#cubeverts-array0-vertices"/>
          <input offset="1" semantic="NORMAL" source="#cubenormals-array0"/>
          <p>0 0 1 0 2 0 0 1 2 1 3 1 4 2 3 2 5 2 4 3 0 3 3 3 6 4 5 4 7 4 6 5 4 5 5 5 8 6 7 6 9 6 8 7 6 7 7 7 10 8 9 8 11 8 10 9 8 9 9 9 12 10 10 10 11 10 12 11 11 11 13 11 14 12 12 12 13 12 14 13 13 13 15 13 16 14 14 14 15 14 16 15 15 15 17 15 18 16 16 16 17 16 18 17 17 17 19 17 20 18 18 18 19 18 20 19 19 19 21 19 22 20 20 20 21 20 22 21 21 21 23 21 24 22 22 22 23 22 24 23 23 23 25 23 26 24 24 24 25 24 26 25 27 25 28 25 26 26 25 26 27 26 29 27 26 27 28 27 30 28 29 28 28 28 30 29 28 29 31 29 32 30 30 30 31 30 32 31 31 31 33 31 34 32 32 32 33 32 34 33 35 33 36 33 34 34 33 34 35 34 37 35 34 35 36 35 38 36 39 36 40 36 38 37 36 37 39 37 38 38 37 38 36 38 41 39 38 39 40 39 42 40 43 40 44 40 42 41 40 41 43 41 42 42 41 42 40 42 45 43 42 43 44 43 46 44 47 44 48 44 46 45 44 45 47 45 46 46 45 46 44 46 49 47 46 47 48 47 50 48 48 48 51 48 50 49 49 49 48 49 52 50 51 50 53 50 52 51 50 51 51 51 54 52 53 52 55 52 54 53 52 53 53 53 56 54 55 54 57 54 56 55 54 55 55 55 58 56 57 56 59 56 58 57 56 57 57 57 60 58 59 58 61 58 60 59 58 59 59 59 62 60 60 60 61 60 62 61 61 61 63 61 64 62 62 62 63 62 64 63 65 63 66 63 64 64 63 64 65 64 67 65 64 65 66 65 68 66 67 66 66 66 68 67 66 67 69 67 70 68 68 68 69 68 70 69 69 69 71 69 72 70 70 70 71 70 72 71 71 71 73 71 1 72 74 72 2 72 1 73 75 73 74 73 76 74 77 74 78 74 76 75 78 75 79 75 80 76 79 76 81 76 80 77 76 77 79 77 82 78 81 78 83 78 82 79 80 79 81 79 84 80 83 80 85 80 84 81 82 81 83 81 86 82 85 82 87 82 86 83 84 83 85 83 88 84 86 84 87 84 88 85 87 85 89 85 90 86 88 86 89 86 90 87 89 87 91 87 92 88 90 88 91 88 92 89 93 89 94 89 92 90 91 90 93 90 95 91 92 91 94 91 96 92 95 92 94 92 96 93 94 93 97 93 98 94 96 94 97 94 98 95 97 95 99 95 100 96 98 96 99 96 100 97 99 97 101 97 102 98 100 98 101 98 102 99 101 99 103 99 104 100 102 100 103 100 104 101 103 101 105 101 106 102 104 102 105 102 106 103 105 103 107 103 108 104 106 104 107 104 108 105 107 105 109 105 110 106 108 106 109 106 110 107 111 107 112 107 110 108 109 108 111 108 113 109 110 109 112 109 114 110 115 110 116 110 114 111 112 111 115 111 114 112 113 112 112 112 117 113 114 113 116 113 118 114 119 114 120 114 118 115 116 115 119 115 118 116 117 116 116 116 121 117 118 117 120 117 122 118 123 118 124 118 122 119 120 119 123 119 122 120 121 120 120 120 125 121 122 121 124 121 126 122 127 122 128 122 126 123 124 123 127 123 126 124 125 124 124 124 129 125 126 125 128 125 130 126 131 126 132 126 130 127 128 127 131 127 130 128 129 128 128 128 133 129 130 129 132 129 134 130 135 130 136 130 134 131 132 131 135 131 134 132 133 132 132 132 137 133 134 133 136 133 138 134 137 134 136 134 138 135 139 135 140 135 138 136 136 136 139 136 141 137 138 137 140 137 141 138 140 138 142 138 143 139 141 139 142 139 144 140 143 140 142 140 144 141 145 141 146 141 144 142 142 142 145 142 147 143 144 143 146 143 147 144 146 144 74 144 75 145 147 145 74 145 77 146 148 146 78 146 77 147 149 147 148 147 149 148 150 148 148 148 148 149 150 149 151 149 150 150 152 150 151 150 151 151 152 151 153 151 152 152 154 152 153 152 153 153 154 153 155 153 154 154 156 154 155 154 154 155 157 155 156 155 157 156 158 156 156 156 156 157 158 157 159 157 158 158 160 158 159 158 158 159 161 159 160 159 161 160 162 160 160 160 160 161 162 161 163 161 162 162 164 162 163 162 163 163 164 163 165 163 166 164 167 164 168 164 169 165 166 165 168 165 170 166 168 166 171 166 170 167 169 167 168 167 172 168 171 168 173 168 172 169 170 169 171 169 174 170 173 170 175 170 174 171 172 171 173 171 176 172 175 172 177 172 176 173 174 173 175 173 178 174 177 174 179 174 178 175 176 175 177 175 180 176 179 176 181 176 180 177 178 177 179 177 182 178 181 178 183 178 182 179 180 179 181 179 184 180 183 180 185 180 184 181 182 181 183 181 186 182 184 182 185 182 186 183 185 183 187 183 188 184 186 184 187 184 188 185 187 185 189 185 190 186 188 186 189 186 190 187 189 187 191 187 192 188 190 188 191 188 192 189 191 189 193 189 194 190 192 190 193 190 194 191 193 191 195 191 196 192 194 192 195 192 196 193 195 193 197 193 198 194 196 194 197 194 198 195 197 195 199 195 200 196 198 196 199 196 200 197 199 197 201 197 202 198 200 198 201 198 202 199 201 199 203 199 204 200 203 200 205 200 204 201 202 201 203 201 206 202 205 202 207 202 206 203 204 203 205 203 208 204 206 204 207 204 208 205 209 205 210 205 208 206 207 206 209 206 211 207 208 207 210 207 212 208 210 208 213 208 212 209 211 209 210 209 214 210 213 210 215 210 214 211 212 211 213 211 216 212 217 212 218 212 216 213 215 213 217 213 216 214 214 214 215 214 219 215 216 215 218 215 164 216 218 216 165 216 164 217 219 217 218 217 166 218 220 218 167 218 167 219 220 219 221 219 220 220 222 220 221 220 221 221 222 221 223 221 222 222 224 222 223 222 223 223 224 223 225 223 224 224 226 224 225 224 225 225 226 225 227 225 226 226 228 226 227 226 227 227 228 227 229 227 230 228 231 228 232 228 233 229 230 229 232 229 234 230 232 230 235 230 234 231 233 231 232 231 236 232 235 232 237 232 236 233 234 233 235 233 238 234 239 234 240 234 238 235 237 235 239 235 238 236 236 236 237 236 241 237 238 237 240 237 242 238 240 238 243 238 242 239 241 239 240 239 244 240 243 240 245 240 244 241 242 241 243 241 246 242 245 242 247 242 246 243 244 243 245 243 248 244 247 244 249 244 248 245 246 245 247 245 250 246 248 246 249 246 250 247 249 247 251 247 252 248 250 248 251 248 252 249 251 249 253 249 254 250 252 250 253 250 254 251 255 251 256 251 254 252 253 252 255 252 257 253 254 253 256 253 258 254 257 254 256 254 258 255 256 255 259 255 260 256 258 256 259 256 260 257 259 257 261 257 262 258 260 258 261 258 262 259 261 259 263 259 264 260 262 260 263 260 264 261 265 261 266 261 264 262 263 262 265 262 267 263 264 263 266 263 268 264 267 264 266 264 268 265 266 265 269 265 270 266 269 266 271 266 270 267 268 267 269 267 272 268 273 268 274 268 272 269 271 269 273 269 272 270 270 270 271 270 275 271 272 271 274 271 276 272 277 272 278 272 276 273 274 273 277 273 276 274 275 274 274 274 279 275 276 275 278 275 280 276 281 276 282 276 280 277 278 277 281 277 280 278 279 278 278 278 283 279 280 279 282 279 228 280 282 280 229 280 228 281 283 281 282 281 230 282 284 282 231 282 231 283 284 283 285 283 284 284 286 284 285 284 285 285 286 285 287 285 286 286 288 286 287 286 287 287 288 287 289 287 288 288 290 288 289 288 289 289 290 289 291 289 290 290 292 290 291 290 290 291 293 291 292 291 293 292 294 292 292 292 292 293 294 293 295 293 294 294 296 294 295 294 295 295 296 295 297 295 296 296 298 296 297 296 297 297 298 297 299 297 298 298 73 298 299 298 298 299 72 299 73 299 115 300 119 300 116 300 112 301 120 301 119 301 112 302 119 302 115 302 123 303 120 303 112 303 128 304 127 304 124 304 105 305 109 305 107 305 131 306 124 306 123 306 131 307 128 307 124 307 103 308 109 308 105 308 132 309 131 309 123 309 101 310 112 310 111 310 101 311 111 311 109 311 101 312 109 312 103 312 136 313 135 313 132 313 136 314 123 314 112 314 136 315 112 315 101 315 136 316 132 316 123 316 97 317 101 317 99 317 94 318 101 318 97 318 140 319 139 319 136 319 91 320 94 320 93 320 145 321 142 321 140 321 89 322 94 322 91 322 146 323 145 323 140 323 146 324 140 324 136 324 74 325 146 325 136 325 85 326 89 326 87 326 79 327 83 327 81 327 78 328 89 328 85 328 78 329 94 329 89 329 78 330 74 330 136 330 78 331 83 331 79 331 78 332 85 332 83 332 78 333 136 333 101 333 78 334 101 334 94 334 148 335 74 335 78 335 151 336 74 336 148 336 155 337 151 337 153 337 160 338 156 338 159 338 5 339 3 339 2 339 9 340 7 340 5 340 9 341 5 341 2 341 11 342 9 342 2 342 13 343 11 343 2 343 17 344 15 344 13 344 19 345 17 345 13 345 19 346 13 346 2 346 223 347 156 347 160 347 25 348 23 348 21 348 25 349 21 349 19 349 25 350 19 350 2 350 292 351 297 351 151 351 292 352 151 352 155 352 28 353 27 353 25 353 28 354 25 354 2 354 33 355 31 355 28 355 33 356 28 356 2 356 35 357 33 357 2 357 39 358 36 358 35 358 39 359 35 359 2 359 40 360 39 360 2 360 44 361 43 361 40 361 44 362 40 362 2 362 47 363 44 363 2 363 51 364 48 364 47 364 55 365 53 365 51 365 55 366 51 366 47 366 55 367 47 367 2 367 57 368 55 368 2 368 65 369 63 369 61 369 65 370 61 370 59 370 65 371 59 371 57 371 69 372 66 372 65 372 73 373 71 373 69 373 73 374 57 374 2 374 73 375 65 375 57 375 73 376 69 376 65 376 299 377 73 377 2 377 299 378 2 378 297 378 295 379 297 379 292 379 165 380 223 380 160 380 165 381 160 381 163 381 210 382 165 382 218 382 210 383 218 383 217 383 210 384 217 384 215 384 210 385 215 385 213 385 207 386 210 386 209 386 205 387 210 387 207 387 203 388 165 388 210 388 203 389 210 389 205 389 201 390 165 390 203 390 197 391 201 391 199 391 195 392 201 392 197 392 193 393 165 393 201 393 193 394 201 394 195 394 191 395 165 395 193 395 187 396 191 396 189 396 185 397 191 397 187 397 181 398 185 398 183 398 179 399 191 399 185 399 179 400 185 400 181 400 175 401 179 401 177 401 173 402 191 402 179 402 173 403 179 403 175 403 168 404 173 404 171 404 168 405 165 405 191 405 168 406 191 406 173 406 167 407 165 407 168 407 291 408 292 408 155 408 291 409 155 409 156 409 225 410 291 410 156 410 225 411 156 411 223 411 221 412 223 412 165 412 221 413 165 413 167 413 287 414 289 414 291 414 287 415 291 415 225 415 231 416 225 416 227 416 231 417 227 417 229 417 231 418 285 418 287 418 231 419 287 419 225 419 274 420 278 420 277 420 273 421 278 421 274 421 273 422 282 422 281 422 273 423 281 423 278 423 235 424 229 424 282 424 235 425 232 425 231 425 235 426 231 426 229 426 269 427 273 427 271 427 239 428 237 428 235 428 240 429 235 429 282 429 240 430 282 430 273 430 240 431 273 431 269 431 240 432 239 432 235 432 240 433 269 433 266 433 263 434 266 434 265 434 259 435 263 435 261 435 249 436 247 436 245 436 249 437 245 437 243 437 249 438 243 438 240 438 256 439 266 439 263 439 256 440 263 440 259 440 255 441 266 441 256 441 253 442 240 442 266 442 253 443 251 443 249 443 253 444 249 444 240 444 253 445 266 445 255 445 2 446 74 446 151 446 2 447 151 447 297 447 118 448 114 448 117 448 118 449 121 449 114 449 121 450 113 450 114 450 121 451 122 451 113 451 126 452 129 452 125 452 108 453 104 453 106 453 125 454 130 454 122 454 129 455 130 455 125 455 108 456 102 456 104 456 113 457 100 457 110 457 110 458 100 458 108 458 108 459 100 459 102 459 134 460 137 460 133 460 133 461 137 461 130 461 122 462 137 462 113 462 113 463 137 463 100 463 130 464 137 464 122 464 100 465 96 465 98 465 100 466 95 466 96 466 138 467 141 467 137 467 95 468 90 468 92 468 95 469 88 469 90 469 144 470 147 470 143 470 143 471 147 471 141 471 141 472 147 472 137 472 147 473 75 473 137 473 88 474 84 474 86 474 82 475 76 475 80 475 88 476 77 476 84 476 95 477 77 477 88 477 75 478 77 478 137 478 82 479 77 479 76 479 84 480 77 480 82 480 137 481 77 481 100 481 100 482 77 482 95 482 75 483 149 483 77 483 75 484 150 484 149 484 150 485 154 485 152 485 157 486 161 486 158 486 0 487 4 487 1 487 6 488 8 488 4 488 4 489 8 489 1 489 12 490 14 490 10 490 10 491 16 491 8 491 14 492 16 492 10 492 16 493 18 493 8 493 157 494 222 494 161 494 22 495 24 495 20 495 20 496 24 496 18 496 8 497 24 497 1 497 18 498 24 498 8 498 296 499 293 499 150 499 150 500 293 500 154 500 26 501 29 501 24 501 24 502 29 502 1 502 30 503 32 503 29 503 29 504 32 504 1 504 32 505 34 505 1 505 37 506 38 506 34 506 34 507 38 507 1 507 41 508 42 508 38 508 38 509 45 509 1 509 42 510 45 510 38 510 45 511 46 511 1 511 49 512 50 512 46 512 52 513 54 513 50 513 46 514 54 514 1 514 50 515 54 515 46 515 54 516 56 516 1 516 56 517 58 517 1 517 58 518 60 518 1 518 62 519 64 519 60 519 60 520 68 520 1 520 64 521 68 521 60 521 67 522 68 522 64 522 70 523 72 523 68 523 68 524 72 524 1 524 72 525 298 525 1 525 1 526 298 526 296 526 296 527 294 527 293 527 222 528 164 528 161 528 161 529 164 529 162 529 219 530 214 530 216 530 219 531 212 531 214 531 164 532 212 532 219 532 164 533 211 533 212 533 164 534 208 534 211 534 164 535 206 535 208 535 206 536 202 536 204 536 202 537 196 537 200 537 200 538 196 538 198 538 164 539 194 539 206 539 206 540 194 540 202 540 202 541 194 541 196 541 164 542 192 542 194 542 192 543 184 543 190 543 190 544 184 544 188 544 188 545 184 545 186 545 192 546 182 546 184 546 164 547 178 547 192 547 192 548 178 548 182 548 182 549 178 549 180 549 164 550 176 550 178 550 164 551 174 551 176 551 174 552 169 552 172 552 164 553 169 553 174 553 172 554 169 554 170 554 164 555 166 555 169 555 154 556 290 556 157 556 293 557 290 557 154 557 290 558 224 558 157 558 157 559 224 559 222 559 222 560 220 560 164 560 164 561 220 561 166 561 288 562 286 562 290 562 290 563 286 563 224 563 284 564 230 564 286 564 224 565 230 565 226 565 226 566 230 566 228 566 228 567 230 567 283 567 286 568 230 568 224 568 233 569 234 569 230 569 283 570 234 570 280 570 230 571 234 571 283 571 280 572 270 572 279 572 279 573 270 573 276 573 276 574 270 574 275 574 275 575 270 575 272 575 280 576 268 576 270 576 236 577 238 577 234 577 280 578 267 578 268 578 238 579 241 579 234 579 241 580 242 580 234 580 280 581 262 581 267 581 267 582 262 582 264 582 242 583 244 583 234 583 234 584 260 584 280 584 280 585 260 585 262 585 244 586 258 586 234 586 234 587 258 587 260 587 258 588 254 588 257 588 244 589 252 589 258 589 258 590 252 590 254 590 250 591 252 591 248 591 248 592 252 592 246 592 246 593 252 593 244 593 75 594 1 594 296 594 75 595 296 595 150 595</p>
        </triangles>
      </mesh>
    </geometry>
  </library_geometries>
  <library_materials>
    <material id="mat_Base001_shape" name="Base001_shape">
      <instance_effect url="#effect_Base001_shape"/>
    </material>
  </library_materials>
  <library_visual_scenes>
    <visual_scene id="myscene">
      <node id="node0" name="node0">
        <instance_geometry url="#geometry0">
          <bind_material>
            <technique_common>
              <instance_material symbol="ref_Base001_shape" target="#mat_Base001_shape"/>
            </technique_common>
          </bind_material>
        </instance_geometry>
      </node>
    </visual_scene>
  </library_visual_scenes>
  <scene>
    <instance_visual_scene url="#myscene"/>
  </scene>
</COLLADA>
