<COLLADA xmlns="http://www.collada.org/2005/11/COLLADASchema" version="1.4.1">
  <asset>
    <contributor/>
    <created>2026-07-22T21:26:31.424610</created>
    <modified>2026-07-22T21:26:31.424616</modified>
    <unit name="meter" meter="1.0"/>
    <up_axis>Z_UP</up_axis>
  </asset>
  <library_effects>
    <effect id="effect_Hinge_A_shape" name="effect_Hinge_A_shape">
      <profile_COMMON>
        <technique sid="common">
          <phong>
            <emission>
              <color>0.0 0.0 0.0 1.0</color>
            </emission>
            <ambient>
              <color>0.0 0.0 0.0 1.0</color>
            </ambient>
            <diffuse>
              <color>0.800000011920929 0.800000011920929 0.9019607901573181 1.0</color>
            </diffuse>
            <specular>
              <color>1 1 1 1.0</color>
            </specular>
            <shininess>
              <float>0.0</float>
            </shininess>
            <reflective>
              <color>0.0 0.0 0.0 1.0</color>
            </reflective>
            <reflectivity>
              <float>0.0</float>
            </reflectivity>
            <transparent>
              <color>0.0 0.0 0.0 1.0</color>
            </transparent>
            <transparency>
              <float>1.0</float>
            </transparency>
          </phong>
        </technique>
        <extra>
          <technique profile="GOOGLEEARTH">
            <double_sided>0</double_sided>
          </technique>
        </extra>
      </profile_COMMON>
    </effect>
  </library_effects>
  <library_geometries>
    <geometry id="geometry0" name="Hinge_A_shape">
      <mesh>
        <source id="cubeverts-array0">
          <float_array count="2004" id="cubeverts-array0-array">-0.004326976 0.5850678 -0.183652 -0.004330084 0.585338 -0.1822727 -0.004330084 0.5851918 -0.183665 -0.004326976 0.585214 -0.1822597 -0.004339399 0.5854615 -0.1822857 -0.004339399 0.5853154 -0.183678 -0.004354899 0.5855846 -0.1822986 -0.004354899 0.5854384 -0.1836909 -0.004376545 0.5857067 -0.1823114 -0.004376545 0.5855605 -0.1837037 -0.004404283 0.5858275 -0.1823241 -0.004404283 0.5856813 -0.1837164 -0.004438044 0.5859468 -0.1823366 -0.004438044 0.5858007 -0.183729 -0.004477745 0.5860644 -0.182349 -0.004477745 0.5859182 -0.1837413 -0.004523285 0.5861798 -0.1823611 -0.004523285 0.5860336 -0.1837534 -0.004574554 0.5862928 -0.1823729 -0.004574554 0.5861466 -0.1837653 -0.004631422 0.5864031 -0.1823845 -0.004631422 0.5862569 -0.1837769 -0.004693749 0.5865105 -0.1823958 -0.004693749 0.5863643 -0.1837881 -0.004761379 0.5866146 -0.1824067 -0.004761379 0.5864684 -0.1837991 -0.004834145 0.5867153 -0.1824173 -0.004834145 0.5865691 -0.1838096 -0.004911865 0.5868122 -0.1824275 -0.004911865 0.586666 -0.1838198 -0.004994346 0.5869052 -0.1824372 -0.004994346 0.586759 -0.1838296 -0.005081384 0.5869939 -0.1824465 -0.005081384 0.5868477 -0.1838389 -0.005172761 0.5870782 -0.1824554 -0.005172761 0.586932 -0.1838477 -0.005268251 0.5871579 -0.1824638 -0.005268251 0.5870117 -0.1838561 -0.005367617 0.5872328 -0.1824716 -0.005367617 0.5870865 -0.183864 -0.00547061 0.5873026 -0.1824789 -0.00547061 0.5871564 -0.1838713 -0.005576976 0.5873672 -0.1824857 -0.005576976 0.5872211 -0.1838781 -0.00568645 0.5874265 -0.182492 -0.00568645 0.5872803 -0.1838843 -0.005798758 0.5874803 -0.1824976 -0.005798758 0.5873341 -0.18389 -0.005913623 0.5875284 -0.1825027 -0.005913623 0.5873823 -0.183895 -0.006030759 0.5875709 -0.1825071 -0.006030759 0.5874247 -0.1838995 -0.006149875 0.5876074 -0.182511 -0.006149875 0.5874612 -0.1839033 -0.006270674 0.587638 -0.1825142 -0.006270674 0.5874918 -0.1839065 -0.006392856 0.5876626 -0.1825167 -0.006392856 0.5875164 -0.1839091 -0.006516117 0.587681 -0.1825187 -0.006516117 0.5875349 -0.183911 -0.006640151 0.5875472 -0.1839123 -0.006640151 0.5876934 -0.18252 -0.006764649 0.5876996 -0.1825206 -0.006764649 0.5875534 -0.183913 -0.006889303 0.5876996 -0.1825206 -0.006889303 0.5875534 -0.183913 -0.007013801 0.5876934 -0.18252 -0.007013801 0.5875472 -0.1839123 -0.007137835 0.587681 -0.1825187 -0.007137835 0.5875349 -0.183911 -0.007261096 0.5876626 -0.1825167 -0.007261096 0.5875164 -0.1839091 -0.007383278 0.587638 -0.1825142 -0.007383278 0.5874918 -0.1839065 -0.007504077 0.5876074 -0.182511 -0.007504077 0.5874612 -0.1839033 -0.007623193 0.5875709 -0.1825071 -0.007623193 0.5874247 -0.1838995 -0.007740328 0.5875284 -0.1825027 -0.007740328 0.5873823 -0.183895 -0.007855194 0.5874803 -0.1824976 -0.007855194 0.5873341 -0.18389 -0.007967503 0.5874265 -0.182492 -0.007967503 0.5872803 -0.1838843 -0.008076976 0.5873672 -0.1824857 -0.008076976 0.5872211 -0.1838781 -0.008183342 0.5873026 -0.1824789 -0.008183342 0.5871564 -0.1838713 -0.008286335 0.5872328 -0.1824716 -0.008286335 0.5870865 -0.183864 -0.0083857 0.5871579 -0.1824638 -0.0083857 0.5870117 -0.1838561 -0.008481191 0.5870782 -0.1824554 -0.008481191 0.586932 -0.1838477 -0.008572568 0.5869939 -0.1824465 -0.008572568 0.5868477 -0.1838389 -0.008659606 0.5869052 -0.1824372 -0.008659606 0.586759 -0.1838296 -0.008742087 0.5868122 -0.1824275 -0.008742087 0.586666 -0.1838198 -0.008819807 0.5867153 -0.1824173 -0.008819807 0.5865691 -0.1838096 -0.008892573 0.5866146 -0.1824067 -0.008892573 0.5864684 -0.1837991 -0.008960203 0.5865105 -0.1823958 -0.008960203 0.5863643 -0.1837881 -0.00902253 0.5864031 -0.1823845 -0.00902253 0.5862569 -0.1837769 -0.009079398 0.5862928 -0.1823729 -0.009079398 0.5861466 -0.1837653 -0.009130667 0.5860336 -0.1837534 -0.009130667 0.5861798 -0.1823611 -0.009176208 0.5860644 -0.182349 -0.009176208 0.5859182 -0.1837413 -0.009215908 0.5858007 -0.183729 -0.009215908 0.5859468 -0.1823366 -0.009249669 0.5858275 -0.1823241 -0.009249669 0.5856813 -0.1837164 -0.009277407 0.5855605 -0.1837037 -0.009277407 0.5857067 -0.1823114 -0.009299053 0.5855846 -0.1822986 -0.009299053 0.5854384 -0.1836909 -0.009314553 0.5854615 -0.1822857 -0.009314553 0.5853154 -0.183678 -0.009323868 0.585338 -0.1822727 -0.009323868 0.5851918 -0.183665 -0.009326976 0.585214 -0.1822597 -0.009326976 0.5850678 -0.183652 0.01067302 0.5850678 -0.183652 0.01066992 0.585338 -0.1822727 0.01066992 0.5851918 -0.183665 0.01067302 0.585214 -0.1822597 0.0106606 0.5854615 -0.1822857 0.0106606 0.5853154 -0.183678 0.0106451 0.5855846 -0.1822986 0.0106451 0.5854384 -0.1836909 0.01062346 0.5857067 -0.1823114 0.01062346 0.5855605 -0.1837037 0.01059572 0.5858275 -0.1823241 0.01059572 0.5856813 -0.1837164 0.01056196 0.5859468 -0.1823366 0.01056196 0.5858007 -0.183729 0.01052226 0.5860644 -0.182349 0.01052226 0.5859182 -0.1837413 0.01047671 0.5861798 -0.1823611 0.01047671 0.5860336 -0.1837534 0.01042545 0.5862928 -0.1823729 0.01042545 0.5861466 -0.1837653 0.01036858 0.5864031 -0.1823845 0.01036858 0.5862569 -0.1837769 0.01030625 0.5865105 -0.1823958 0.01030625 0.5863643 -0.1837881 0.01023862 0.5866146 -0.1824067 0.01023862 0.5864684 -0.1837991 0.01016586 0.5867153 -0.1824173 0.01016586 0.5865691 -0.1838096 0.01008813 0.5868122 -0.1824275 0.01008813 0.586666 -0.1838198 0.01000565 0.5869052 -0.1824372 0.01000565 0.586759 -0.1838296 0.009918616 0.5869939 -0.1824465 0.009918616 0.5868477 -0.1838389 0.009827239 0.5870782 -0.1824554 0.009827239 0.586932 -0.1838477 0.009731749 0.5871579 -0.1824638 0.009731749 0.5870117 -0.1838561 0.009632383 0.5872328 -0.1824716 0.009632383 0.5870865 -0.183864 0.009529389 0.5873026 -0.1824789 0.009529389 0.5871564 -0.1838713 0.009423024 0.5873672 -0.1824857 0.009423024 0.5872211 -0.1838781 0.009313551 0.5874265 -0.182492 0.009313551 0.5872803 -0.1838843 0.009201241 0.5874803 -0.1824976 0.009201241 0.5873341 -0.18389 0.009086376 0.5875284 -0.1825027 0.009086376 0.5873823 -0.183895 0.00896924 0.5875709 -0.1825071 0.00896924 0.5874247 -0.1838995 0.008850125 0.5876074 -0.182511 0.008850125 0.5874612 -0.1839033 0.008729326 0.587638 -0.1825142 0.008729326 0.5874918 -0.1839065 0.008607144 0.5876626 -0.1825167 0.008607144 0.5875164 -0.1839091 0.008483883 0.587681 -0.1825187 0.008483883 0.5875349 -0.183911 0.008359849 0.5875472 -0.1839123 0.008359849 0.5876934 -0.18252 0.008235351 0.5876996 -0.1825206 0.008235351 0.5875534 -0.183913 0.008110698 0.5876996 -0.1825206 0.008110698 0.5875534 -0.183913 0.007986199 0.5876934 -0.18252 0.007986199 0.5875472 -0.1839123 0.007862165 0.587681 -0.1825187 0.007862165 0.5875349 -0.183911 0.007738904 0.5876626 -0.1825167 0.007738904 0.5875164 -0.1839091 0.007616722 0.587638 -0.1825142 0.007616722 0.5874918 -0.1839065 0.007495923 0.5876074 -0.182511 0.007495923 0.5874612 -0.1839033 0.007376807 0.5875709 -0.1825071 0.007376807 0.5874247 -0.1838995 0.007259672 0.5875284 -0.1825027 0.007259672 0.5873823 -0.183895 0.007144806 0.5874803 -0.1824976 0.007144806 0.5873341 -0.18389 0.007032497 0.5874265 -0.182492 0.007032497 0.5872803 -0.1838843 0.006923024 0.5873672 -0.1824857 0.006923024 0.5872211 -0.1838781 0.006816658 0.5873026 -0.1824789 0.006816658 0.5871564 -0.1838713 0.006713665 0.5872328 -0.1824716 0.006713665 0.5870865 -0.183864 0.0066143 0.5871579 -0.1824638 0.0066143 0.5870117 -0.1838561 0.006518809 0.5870782 -0.1824554 0.006518809 0.586932 -0.1838477 0.006427432 0.5869939 -0.1824465 0.006427432 0.5868477 -0.1838389 0.006340394 0.5869052 -0.1824372 0.006340394 0.586759 -0.1838296 0.006257913 0.5868122 -0.1824275 0.006257913 0.586666 -0.1838198 0.006180193 0.5867153 -0.1824173 0.006180193 0.5865691 -0.1838096 0.006107427 0.5866146 -0.1824067 0.006107427 0.5864684 -0.1837991 0.006039797 0.5865105 -0.1823958 0.006039797 0.5863643 -0.1837881 0.00597747 0.5864031 -0.1823845 0.00597747 0.5862569 -0.1837769 0.005920602 0.5862928 -0.1823729 0.005920602 0.5861466 -0.1837653 0.005869334 0.5860336 -0.1837534 0.005869334 0.5861798 -0.1823611 0.005823792 0.5860644 -0.182349 0.005823792 0.5859182 -0.1837413 0.005784092 0.5858007 -0.183729 0.005784092 0.5859468 -0.1823366 0.005750331 0.5858275 -0.1823241 0.005750331 0.5856813 -0.1837164 0.005722593 0.5855605 -0.1837037 0.005722593 0.5857067 -0.1823114 0.005700947 0.5855846 -0.1822986 0.005700947 0.5854384 -0.1836909 0.005685447 0.5854615 -0.1822857 0.005685447 0.5853154 -0.183678 0.005676132 0.585338 -0.1822727 0.005676132 0.5851918 -0.183665 0.005673024 0.585214 -0.1822597 0.005673024 0.5850678 -0.183652 -0.0075 0.5976011 -0.1851671 0.0075 0.5976146 -0.1850698 0.0075 0.5976011 -0.1851671 -0.0075 0.5976146 -0.1850698 -0.0075 0.5975814 -0.1852632 0.0075 0.5975814 -0.1852632 -0.0075 0.5975554 -0.1853579 0.0075 0.5975554 -0.1853579 -0.0075 0.5975232 -0.1854506 0.0075 0.5975232 -0.1854506 -0.0075 0.597485 -0.185541 0.0075 0.597485 -0.185541 -0.0075 0.5974411 -0.1856288 0.0075 0.5974411 -0.1856288 -0.0075 0.5973915 -0.1857135 0.0075 0.5973915 -0.1857135 -0.0075 0.5973364 -0.1857948 0.0075 0.5973364 -0.1857948 -0.0075 0.5972762 -0.1858722 0.0075 0.5972762 -0.1858722 -0.0075 0.5972109 -0.1859456 0.0075 0.5972109 -0.1859456 -0.0075 0.5971411 -0.1860146 0.0075 0.5971411 -0.1860146 -0.0075 0.5970669 -0.1860788 0.0075 0.5970669 -0.1860788 -0.0075 0.5969886 -0.1861381 0.0075 0.5969886 -0.1861381 -0.0075 0.5969067 -0.1861921 0.0075 0.5969067 -0.1861921 -0.0075 0.5968214 -0.1862406 0.0075 0.5968214 -0.1862406 -0.0075 0.596733 -0.1862835 0.0075 0.596733 -0.1862835 -0.0075 0.5966422 -0.1863204 0.0075 0.5966422 -0.1863204 -0.0075 0.596549 -0.1863514 0.0075 0.596549 -0.1863514 -0.0075 0.596454 -0.1863762 0.0075 0.596454 -0.1863762 -0.0075 0.5963576 -0.1863947 0.0075 0.5963576 -0.1863947 -0.0075 0.5962602 -0.1864069 0.0075 0.5962602 -0.1864069 -0.0075 0.5961622 -0.1864127 0.0075 0.5961622 -0.1864127 -0.0075 0.5960641 -0.1864121 0.0075 0.5960641 -0.1864121 -0.0075 0.5959662 -0.186405 0.0075 0.5959662 -0.186405 -0.0075 0.595869 -0.1863916 0.0075 0.595869 -0.1863916 -0.0075 0.5957728 -0.1863718 0.0075 0.5957728 -0.1863718 -0.0075 0.5956782 -0.1863458 0.0075 0.5956782 -0.1863458 0.0075 0.5955854 -0.1863136 -0.0075 0.5955854 -0.1863136 -0.0075 0.5954949 -0.1862755 0.0075 0.5954949 -0.1862755 -0.0075 0.5954072 -0.1862315 0.0075 0.5954072 -0.1862315 -0.0075 0.5953225 -0.1861819 0.0075 0.5953225 -0.1861819 -0.0075 0.5952413 -0.1861268 0.0075 0.5952413 -0.1861268 0.0075 0.5951638 -0.1860666 -0.0075 0.5951638 -0.1860666 -0.0075 0.5950904 -0.1860014 0.0075 0.5950904 -0.1860014 -0.0075 0.5950214 -0.1859315 0.0075 0.5950214 -0.1859315 -0.0075 0.5949572 -0.1858573 0.0075 0.5949572 -0.1858573 -0.0075 0.5948979 -0.1857791 0.0075 0.5948979 -0.1857791 0.0075 0.5948439 -0.1856971 -0.0075 0.5948439 -0.1856971 -0.0075 0.5947954 -0.1856118 0.0075 0.5947954 -0.1856118 -0.0075 0.5947526 -0.1855235 0.0075 0.5947526 -0.1855235 -0.0075 0.5947156 -0.1854326 0.0075 0.5947156 -0.1854326 -0.0075 0.5946846 -0.1853394 0.0075 0.5946846 -0.1853394 -0.0075 0.5946598 -0.1852444 0.0075 0.5946598 -0.1852444 -0.0075 0.5946413 -0.185148 0.0075 0.5946413 -0.185148 -0.0075 0.5946291 -0.1850506 0.0075 0.5946291 -0.1850506 0.0075 0.5946233 -0.1849527 -0.0075 0.5946233 -0.1849527 -0.0075 0.594624 -0.1848545 0.0075 0.594624 -0.1848545 -0.0075 0.594631 -0.1847566 0.0075 0.594631 -0.1847566 -0.0075 0.5962794 -0.1834214 0.0075 0.5962794 -0.1834214 0.0075 0.5963766 -0.1834349 -0.0075 0.5963766 -0.1834349 0.0075 0.5964728 -0.1834546 -0.0075 0.5964728 -0.1834546 0.0075 0.5965674 -0.1834806 -0.0075 0.5965674 -0.1834806 0.0075 0.5966602 -0.1835128 -0.0075 0.5966602 -0.1835128 0.0075 0.5967506 -0.1835509 -0.0075 0.5967506 -0.1835509 0.0075 0.5968384 -0.1835949 -0.0075 0.5968384 -0.1835949 0.0075 0.596923 -0.1836445 -0.0075 0.596923 -0.1836445 0.0075 0.5970043 -0.1836996 -0.0075 0.5970043 -0.1836996 0.0075 0.5970818 -0.1837598 -0.0075 0.5970818 -0.1837598 0.0075 0.5971552 -0.183825 -0.0075 0.5971552 -0.183825 0.0075 0.5972242 -0.1838949 -0.0075 0.5972242 -0.1838949 0.0075 0.5972884 -0.1839691 -0.0075 0.5972884 -0.1839691 0.0075 0.5973477 -0.1840474 -0.0075 0.5973477 -0.1840474 0.0075 0.5974017 -0.1841293 -0.0075 0.5974017 -0.1841293 0.0075 0.5974502 -0.1842146 -0.0075 0.5974502 -0.1842146 0.0075 0.597493 -0.184303 -0.0075 0.597493 -0.184303 0.0075 0.59753 -0.1843939 -0.0075 0.59753 -0.1843939 0.0075 0.597561 -0.184487 -0.0075 0.597561 -0.184487 0.0075 0.5975858 -0.184582 -0.0075 0.5975858 -0.184582 0.0075 0.5976043 -0.1846784 -0.0075 0.5976043 -0.1846784 0.0075 0.5976165 -0.1847758 -0.0075 0.5976165 -0.1847758 0.0075 0.5976223 -0.1848738 -0.0075 0.5976223 -0.1848738 0.0075 0.5976216 -0.1849719 -0.0075 0.5976216 -0.1849719 -0.015 0.5942903 -0.1832126 -0.0075 0.5942903 -0.1832126 -0.015 0.5793723 -0.1816464 -0.009323868 0.5850901 -0.1822467 -0.009314553 0.5849664 -0.1822337 -0.009299053 0.5848434 -0.1822208 -0.009277407 0.5847214 -0.1822079 -0.009249669 0.5846005 -0.1821953 -0.009215908 0.5844811 -0.1821827 -0.009176208 0.5843636 -0.1821704 -0.009130667 0.5842482 -0.1821583 -0.009079398 0.5841353 -0.1821464 -0.00902253 0.5840249 -0.1821348 -0.008960203 0.5839175 -0.1821236 -0.008892573 0.5838134 -0.1821126 -0.008819807 0.5837128 -0.1821021 -0.008742087 0.5836158 -0.1820919 -0.008659606 0.5835229 -0.1820821 -0.008572568 0.5834341 -0.1820728 -0.008481191 0.5833498 -0.1820639 -0.0083857 0.5832701 -0.1820556 -0.008286335 0.5831953 -0.1820477 -0.008183342 0.5831254 -0.1820404 -0.008076976 0.5830608 -0.1820336 -0.007967503 0.5830015 -0.1820274 -0.007855194 0.5829477 -0.1820217 -0.007740328 0.5828995 -0.1820167 -0.007623193 0.5828571 -0.1820122 -0.007504077 0.5828206 -0.1820084 -0.007383278 0.58279 -0.1820052 -0.007261096 0.5827654 -0.1820026 -0.007137835 0.5827469 -0.1820007 -0.007013801 0.5827346 -0.1819994 -0.006889303 0.5827285 -0.1819987 -0.006764649 0.5827285 -0.1819987 -0.006640151 0.5827346 -0.1819994 -0.006516117 0.5827469 -0.1820007 0.0075 0.5942903 -0.1832126 -0.004330084 0.5850901 -0.1822467 0.005676132 0.5850901 -0.1822467 -0.004339399 0.5849664 -0.1822337 0.005685447 0.5849664 -0.1822337 -0.004354899 0.5848434 -0.1822208 0.005700947 0.5848434 -0.1822208 -0.004376545 0.5847214 -0.1822079 0.005722593 0.5847214 -0.1822079 -0.004404283 0.5846005 -0.1821953 0.005750331 0.5846005 -0.1821953 0.005784092 0.5844811 -0.1821827 -0.004438044 0.5844811 -0.1821827 -0.004477745 0.5843636 -0.1821704 0.005823792 0.5843636 -0.1821704 -0.004523285 0.5842482 -0.1821583 0.005869334 0.5842482 -0.1821583 -0.004574554 0.5841353 -0.1821464 0.015 0.5942903 -0.1832126 0.005920602 0.5841353 -0.1821464 -0.004631422 0.5840249 -0.1821348 0.00597747 0.5840249 -0.1821348 0.006039797 0.5839175 -0.1821236 -0.004693749 0.5839175 -0.1821236 -0.004761379 0.5838134 -0.1821126 0.006107427 0.5838134 -0.1821126 0.006180193 0.5837128 -0.1821021 -0.004834145 0.5837128 -0.1821021 -0.004911865 0.5836158 -0.1820919 -0.004994346 0.5835229 -0.1820821 0.006257913 0.5836158 -0.1820919 0.006340394 0.5835229 -0.1820821 -0.005081384 0.5834341 -0.1820728 0.006427432 0.5834341 -0.1820728 0.006518809 0.5833498 -0.1820639 -0.005172761 0.5833498 -0.1820639 -0.005268251 0.5832701 -0.1820556 0.0066143 0.5832701 -0.1820556 -0.005367617 0.5831953 -0.1820477 0.006713665 0.5831953 -0.1820477 -0.00547061 0.5831254 -0.1820404 0.006816658 0.5831254 -0.1820404 0.006923024 0.5830608 -0.1820336 -0.005576976 0.5830608 -0.1820336 -0.00568645 0.5830015 -0.1820274 0.007032497 0.5830015 -0.1820274 -0.005798758 0.5829477 -0.1820217 0.007144806 0.5829477 -0.1820217 -0.005913623 0.5828995 -0.1820167 0.007259672 0.5828995 -0.1820167 0.015 0.5793723 -0.1816464 0.01066992 0.5850901 -0.1822467 0.0106606 0.5849664 -0.1822337 0.0106451 0.5848434 -0.1822208 0.01062346 0.5847214 -0.1822079 0.01059572 0.5846005 -0.1821953 0.01056196 0.5844811 -0.1821827 0.01052226 0.5843636 -0.1821704 0.01047671 0.5842482 -0.1821583 0.01042545 0.5841353 -0.1821464 0.01036858 0.5840249 -0.1821348 0.01030625 0.5839175 -0.1821236 0.01023862 0.5838134 -0.1821126 0.01016586 0.5837128 -0.1821021 0.01008813 0.5836158 -0.1820919 0.01000565 0.5835229 -0.1820821 0.009918616 0.5834341 -0.1820728 0.009827239 0.5833498 -0.1820639 0.009731749 0.5832701 -0.1820556 0.009632383 0.5831953 -0.1820477 0.009529389 0.5831254 -0.1820404 0.009423024 0.5830608 -0.1820336 0.009313551 0.5830015 -0.1820274 0.009201241 0.5829477 -0.1820217 0.009086376 0.5828995 -0.1820167 0.00896924 0.5828571 -0.1820122 0.008850125 0.5828206 -0.1820084 0.008729326 0.58279 -0.1820052 0.008607144 0.5827654 -0.1820026 0.008483883 0.5827469 -0.1820007 0.008359849 0.5827346 -0.1819994 0.008235351 0.5827285 -0.1819987 0.008110698 0.5827285 -0.1819987 0.007986199 0.5827346 -0.1819994 0.007862165 0.5827469 -0.1820007 0.007738904 0.5827654 -0.1820026 0.007616722 0.58279 -0.1820052 -0.006392856 0.5827654 -0.1820026 -0.006270674 0.58279 -0.1820052 -0.006149875 0.5828206 -0.1820084 -0.006030759 0.5828571 -0.1820122 0.007495923 0.5828206 -0.1820084 0.007376807 0.5828571 -0.1820122 -0.015 0.5941442 -0.1846049 -0.0075 0.5941442 -0.1846049 -0.015 0.5792261 -0.1830387 -0.009323868 0.5849439 -0.183639 -0.009314553 0.5848203 -0.183626 -0.009299053 0.5846973 -0.1836131 -0.009277407 0.5845752 -0.1836003 -0.009249669 0.5844543 -0.1835876 -0.009215908 0.584335 -0.1835751 -0.009176208 0.5842175 -0.1835627 -0.009130667 0.5841021 -0.1835506 -0.009079398 0.5839891 -0.1835388 -0.00902253 0.5838787 -0.1835272 -0.008960203 0.5837714 -0.1835159 -0.008892573 0.5836672 -0.183505 -0.008819807 0.5835666 -0.1834944 -0.008742087 0.5834697 -0.1834842 -0.008659606 0.5833767 -0.1834745 -0.008572568 0.583288 -0.1834651 -0.008481191 0.5832036 -0.1834563 -0.0083857 0.583124 -0.1834479 -0.008286335 0.5830491 -0.1834401 -0.008183342 0.5829792 -0.1834327 -0.008076976 0.5829146 -0.1834259 -0.007967503 0.5828553 -0.1834197 -0.007855194 0.5828015 -0.1834141 -0.007740328 0.5827534 -0.183409 -0.007623193 0.5827109 -0.1834046 -0.007504077 0.5826744 -0.1834007 -0.007383278 0.5826439 -0.1833975 -0.007261096 0.5826193 -0.1833949 -0.007137835 0.5826008 -0.183393 -0.007013801 0.5825884 -0.1833917 -0.006889303 0.5825823 -0.1833911 -0.006764649 0.5825823 -0.1833911 -0.006640151 0.5825884 -0.1833917 -0.006516117 0.5826008 -0.183393 -0.006392856 0.5826193 -0.1833949 -0.006270674 0.5826439 -0.1833975 0.0075 0.5946448 -0.1846575 0.0075 0.5941442 -0.1846049 -0.0075 0.5946448 -0.1846575 0.005676132 0.5849439 -0.183639 -0.004330084 0.5849439 -0.183639 0.005685447 0.5848203 -0.183626 -0.004339399 0.5848203 -0.183626 0.005700947 0.5846973 -0.1836131 -0.004354899 0.5846973 -0.1836131 -0.004376545 0.5845752 -0.1836003 0.005722593 0.5845752 -0.1836003 0.005750331 0.5844543 -0.1835876 -0.004404283 0.5844543 -0.1835876 0.005784092 0.584335 -0.1835751 -0.004438044 0.584335 -0.1835751 0.005823792 0.5842175 -0.1835627 -0.004477745 0.5842175 -0.1835627 0.005869334 0.5841021 -0.1835506 -0.004523285 0.5841021 -0.1835506 0.015 0.5941442 -0.1846049 0.005920602 0.5839891 -0.1835388 -0.004574554 0.5839891 -0.1835388 0.00597747 0.5838787 -0.1835272 -0.004631422 0.5838787 -0.1835272 0.006039797 0.5837714 -0.1835159 -0.004693749 0.5837714 -0.1835159 0.006107427 0.5836672 -0.183505 -0.004761379 0.5836672 -0.183505 -0.004834145 0.5835666 -0.1834944 0.006180193 0.5835666 -0.1834944 0.006257913 0.5834697 -0.1834842 -0.004911865 0.5834697 -0.1834842 0.006340394 0.5833767 -0.1834745 -0.004994346 0.5833767 -0.1834745 -0.005081384 0.583288 -0.1834651 0.006427432 0.583288 -0.1834651 0.006518809 0.5832036 -0.1834563 -0.005172761 0.5832036 -0.1834563 0.0066143 0.583124 -0.1834479 -0.005268251 0.583124 -0.1834479 0.006713665 0.5830491 -0.1834401 -0.005367617 0.5830491 -0.1834401 -0.00547061 0.5829792 -0.1834327 0.006816658 0.5829792 -0.1834327 -0.005576976 0.5829146 -0.1834259 0.006923024 0.5829146 -0.1834259 0.007032497 0.5828553 -0.1834197 -0.00568645 0.5828553 -0.1834197 0.007144806 0.5828015 -0.1834141 -0.005798758 0.5828015 -0.1834141 0.007259672 0.5827534 -0.183409 -0.005913623 0.5827534 -0.183409 0.007376807 0.5827109 -0.1834046 -0.006030759 0.5827109 -0.1834046 0.007495923 0.5826744 -0.1834007 -0.006149875 0.5826744 -0.1834007 0.015 0.5792261 -0.1830387 0.01066992 0.5849439 -0.183639 0.0106606 0.5848203 -0.183626 0.0106451 0.5846973 -0.1836131 0.01062346 0.5845752 -0.1836003 0.01059572 0.5844543 -0.1835876 0.01056196 0.584335 -0.1835751 0.01052226 0.5842175 -0.1835627 0.01047671 0.5841021 -0.1835506 0.01042545 0.5839891 -0.1835388 0.01036858 0.5838787 -0.1835272 0.01030625 0.5837714 -0.1835159 0.01023862 0.5836672 -0.183505 0.01016586 0.5835666 -0.1834944 0.01008813 0.5834697 -0.1834842 0.01000565 0.5833767 -0.1834745 0.009918616 0.583288 -0.1834651 0.009827239 0.5832036 -0.1834563 0.009731749 0.583124 -0.1834479 0.009632383 0.5830491 -0.1834401 0.009529389 0.5829792 -0.1834327 0.009423024 0.5829146 -0.1834259 0.009313551 0.5828553 -0.1834197 0.009201241 0.5828015 -0.1834141 0.009086376 0.5827534 -0.183409 0.00896924 0.5827109 -0.1834046 0.008850125 0.5826744 -0.1834007 0.008729326 0.5826439 -0.1833975 0.008607144 0.5826193 -0.1833949 0.008483883 0.5826008 -0.183393 0.008359849 0.5825884 -0.1833917 0.008235351 0.5825823 -0.1833911 0.008110698 0.5825823 -0.1833911 0.007986199 0.5825884 -0.1833917 0.007862165 0.5826008 -0.183393 0.007738904 0.5826193 -0.1833949 0.007616722 0.5826439 -0.1833975 -0.0075 0.5946348 -0.1847235 0.0075 0.5946348 -0.1847235 -0.0075 0.5946394 -0.1846904 0.0075 0.5946394 -0.1846904</float_array>
          <technique_common>
            <accessor count="668" source="#cubeverts-array0-array" stride="3">
              <param type="float" name="X"/>
              <param type="float" name="Y"/>
              <param type="float" name="Z"/>
            </accessor>
          </technique_common>
        </source>
        <source id="cubenormals-array0">
          <float_array count="4020" id="cubenormals-array0-array">-0.9996893 -0.02479156 0.002602802 -0.9996893 -0.02479156 0.002602802 -0.9972027 -0.07433575 0.007804322 -0.9972027 -0.07433575 0.007804321 -0.9922435 -0.12363 0.0129796 -0.9922435 -0.12363 0.0129796 -0.9848031 -0.1727253 0.01813419 -0.9848034 -0.1727232 0.01813377 -0.9749224 -0.2213287 0.02323674 -0.9749217 -0.2213315 0.02323728 -0.9626158 -0.2693897 0.02828255 -0.9626158 -0.2693897 0.02828254 -0.9479578 -0.3166554 0.03324484 -0.9479579 -0.3166555 0.03324485 -0.9308904 -0.3633019 0.03814214 -0.9308904 -0.3633019 0.03814214 -0.9114701 -0.4091178 0.04295224 -0.9114701 -0.4091178 0.04295224 -0.8898245 -0.4538068 0.04766391 -0.8899258 -0.4536122 0.04762359 -0.8661431 -0.4970642 0.0521855 -0.8660215 -0.4972716 0.05222907 -0.8399951 -0.539628 0.05665417 -0.8399952 -0.539628 0.05665417 -0.8119077 -0.5805949 0.06095517 -0.8119076 -0.5805948 0.06095517 -0.7818275 -0.6200868 0.06510133 -0.7818275 -0.6200868 0.06510133 -0.7497999 -0.6580479 0.06908677 -0.7497999 -0.6580479 0.06908677 -0.715852 -0.6944354 0.07290701 -0.715852 -0.6944354 0.07290699 -0.6800312 -0.7291754 0.07655511 -0.6800382 -0.7291692 0.07655362 -0.6428992 -0.761764 0.07997654 -0.6429066 -0.761758 0.07997502 -0.6036737 -0.7928702 0.08327619 -0.603983 -0.7926408 0.08321734 -0.5635841 -0.8215434 0.08625174 -0.5632518 -0.8217651 0.08631104 -0.5213954 -0.8486509 0.08909769 -0.5213954 -0.8486509 0.08909769 -0.4780994 -0.8735049 0.09170705 -0.4780994 -0.8735049 0.09170705 -0.4337706 -0.8960942 0.09411794 -0.4341658 -0.895909 0.09405921 -0.3884422 -0.9164362 0.09621535 -0.3880394 -0.9166009 0.09627177 -0.3421531 -0.9345081 0.09811163 -0.3421418 -0.934512 0.09811311 -0.2948979 -0.9503058 0.09977019 -0.2948979 -0.9503058 0.09977019 -0.2466581 -0.9638054 0.1011875 -0.2466581 -0.9638054 0.1011875 -0.1983956 -0.9747646 0.1023381 -0.1983956 -0.9747646 0.1023381 -0.148694 -0.983478 0.1032528 -0.09945401 -0.9896033 0.1038959 -0.148694 -0.983478 0.1032528 -0.09993614 -0.9895507 0.1039338 -0.04973293 -0.9932987 0.1043274 -0.05021867 -0.9932792 0.1042819 0 -0.994534 0.1044136 0 -0.994534 0.1044136 0.04973312 -0.9933033 0.1042844 0.05021887 -0.9932746 0.1043249 0.09993614 -0.9895507 0.1039338 0.09945401 -0.9896033 0.1038959 0.1486934 -0.9834781 0.1032529 0.1486934 -0.9834781 0.1032529 0.1983956 -0.9747646 0.1023381 0.1983956 -0.9747646 0.1023381 0.246659 -0.9638052 0.1011875 0.2466591 -0.9638052 0.1011875 0.2948969 -0.9503061 0.09977022 0.2948969 -0.9503061 0.09977022 0.3421543 -0.9345075 0.09811263 0.3421431 -0.9345117 0.09811201 0.3884422 -0.9164321 0.09625405 0.3880394 -0.916605 0.09623307 0.433769 -0.8960991 0.09407916 0.4341643 -0.8959057 0.09409813 0.478101 -0.873504 0.09170697 0.478101 -0.873504 0.09170697 0.5213937 -0.8486519 0.0890978 0.5213937 -0.8486519 0.0890978 0.5632536 -0.8217677 0.08627529 0.5635859 -0.8215385 0.08628725 0.6039831 -0.7926372 0.08325171 0.6036736 -0.7928739 0.08324181 0.6428972 -0.7617657 0.07997585 0.6429047 -0.7617594 0.07997605 0.6800382 -0.7291691 0.07655445 0.6800312 -0.7291754 0.07655428 0.715852 -0.6944354 0.07290699 0.715852 -0.6944354 0.07290701 0.7497999 -0.6580479 0.06908677 0.7497999 -0.6580479 0.06908677 0.7818293 -0.6200844 0.06510109 0.7818293 -0.6200845 0.06510109 0.8119041 -0.5805999 0.0609557 0.8119041 -0.5805998 0.0609557 0.839997 -0.5396253 0.05665389 0.839997 -0.5396253 0.05665389 0.8660231 -0.497271 0.05220721 0.8661447 -0.4970591 0.05220675 0.8899242 -0.4536132 0.04764358 0.9114701 -0.4091178 0.04295224 0.8898229 -0.4538119 0.04764455 0.9114701 -0.4091178 0.04295224 0.9308904 -0.3633019 0.03814214 0.9479579 -0.3166555 0.03324485 0.9308904 -0.3633019 0.03814214 0.9479578 -0.3166554 0.03324484 0.9626158 -0.2693897 0.02828254 0.9749233 -0.2213251 0.02323636 0.9626158 -0.2693897 0.02828254 0.9749226 -0.2213279 0.0232369 0.9848024 -0.1727291 0.01813439 0.9848028 -0.1727269 0.01813435 0.9922435 -0.12363 0.0129796 0.9922435 -0.12363 0.0129796 0.9972031 -0.07433198 0.007803925 0.9972031 -0.07433198 0.007803924 0.9996893 -0.02479156 0.002602802 0.9996893 -0.02479156 0.002602802 -0.9996893 -0.02479156 0.002602802 -0.9996893 -0.02479156 0.002602802 -0.9972025 -0.07433954 0.007804719 -0.9972025 -0.07433954 0.007804719 -0.9922435 -0.12363 0.0129796 -0.9922435 -0.12363 0.0129796 -0.9848038 -0.1727217 0.0181338 -0.9848042 -0.1727195 0.01813338 -0.9749233 -0.2213251 0.02323636 -0.9749226 -0.2213279 0.0232369 -0.9626158 -0.2693897 0.02828255 -0.9626158 -0.2693897 0.02828254 -0.9479578 -0.3166554 0.03324484 -0.9479579 -0.3166555 0.03324485 -0.9308878 -0.3633085 0.03814283 -0.9308878 -0.3633085 0.03814283 -0.9114729 -0.4091115 0.04295157 -0.9114729 -0.4091115 0.04295157 -0.8898229 -0.4538098 0.04766423 -0.8899243 -0.4536153 0.04762391 -0.8661448 -0.4970614 0.0521852 -0.8660231 -0.4972687 0.05222877 -0.8399935 -0.5396307 0.05665446 -0.8399935 -0.5396307 0.05665445 -0.8119077 -0.5805949 0.06095517 -0.8119076 -0.5805948 0.06095517 -0.7818256 -0.6200891 0.06510157 -0.7818257 -0.6200891 0.06510157 -0.7497999 -0.6580479 0.06908677 -0.7497999 -0.6580479 0.06908677 -0.7158558 -0.6944315 0.07290658 -0.7158558 -0.6944314 0.07290659 -0.6800312 -0.7291754 0.07655511 -0.6800382 -0.7291692 0.07655362 -0.6428972 -0.7617657 0.07997671 -0.6429048 -0.7617595 0.0799752 -0.6036737 -0.7928702 0.08327619 -0.603983 -0.7926408 0.08321734 -0.5635824 -0.8215446 0.08625187 -0.56325 -0.8217663 0.08631117 -0.5213972 -0.8486498 0.08909759 -0.5213972 -0.8486499 0.08909759 -0.478101 -0.873504 0.09170695 -0.478101 -0.873504 0.09170697 -0.4337676 -0.8960957 0.09411808 -0.4341628 -0.8959104 0.09405935 -0.3884422 -0.9164362 0.09621535 -0.3880394 -0.9166009 0.09627177 -0.3421531 -0.9345081 0.09811163 -0.3421418 -0.934512 0.09811311 -0.294899 -0.9503055 0.09977016 -0.294899 -0.9503055 0.09977015 -0.2466581 -0.9638054 0.1011875 -0.2466581 -0.9638054 0.1011875 -0.1983956 -0.9747646 0.1023381 -0.1983956 -0.9747646 0.1023381 -0.1486934 -0.9834781 0.1032529 -0.09945401 -0.9896033 0.1038959 -0.1486934 -0.9834781 0.1032529 -0.09993614 -0.9895507 0.1039338 -0.04973312 -0.9932988 0.1043275 -0.05021887 -0.9932791 0.1042819 0 -0.994534 0.1044136 0 -0.994534 0.1044136 0.04973293 -0.9933033 0.1042844 0.05021868 -0.9932746 0.1043249 0.09993614 -0.9895507 0.1039338 0.09945401 -0.9896033 0.1038959 0.1486934 -0.9834781 0.1032529 0.1486934 -0.9834781 0.1032529 0.1983956 -0.9747646 0.1023381 0.1983956 -0.9747646 0.1023381 0.246659 -0.9638052 0.1011875 0.2466591 -0.9638052 0.1011875 0.2948969 -0.9503061 0.09977022 0.2948969 -0.9503061 0.09977022 0.3421543 -0.9345075 0.09811263 0.3421431 -0.9345117 0.09811201 0.3884422 -0.9164321 0.09625405 0.3880394 -0.916605 0.09623307 0.433769 -0.8960991 0.09407916 0.4341643 -0.8959057 0.09409813 0.478101 -0.873504 0.09170697 0.478101 -0.873504 0.09170697 0.5213954 -0.8486509 0.08909769 0.5213954 -0.8486509 0.0890977 0.5632517 -0.8217688 0.08627541 0.5635841 -0.8215396 0.08628737 0.6039831 -0.7926372 0.08325171 0.6036736 -0.7928739 0.08324181 0.6428972 -0.7617657 0.07997585 0.6429047 -0.7617594 0.07997605 0.6800382 -0.7291691 0.07655445 0.6800312 -0.7291754 0.07655428 0.7158539 -0.6944334 0.07290679 0.7158539 -0.6944335 0.07290679 0.7497999 -0.6580479 0.06908677 0.7497999 -0.6580479 0.06908677 0.7818275 -0.6200868 0.06510133 0.7818275 -0.6200868 0.06510133 0.8119059 -0.5805974 0.06095544 0.8119059 -0.5805974 0.06095544 0.8399952 -0.539628 0.05665417 0.8399952 -0.539628 0.05665417 0.8660215 -0.4972738 0.05220751 0.8661431 -0.4970619 0.05220705 0.8899258 -0.4536102 0.04764326 0.9114715 -0.4091147 0.04295191 0.8898245 -0.4538088 0.04764423 0.9114715 -0.4091147 0.04295191 0.9308891 -0.3633052 0.03814249 0.9479579 -0.3166555 0.03324485 0.9308891 -0.3633052 0.03814249 0.9479578 -0.3166554 0.03324484 0.9626158 -0.2693897 0.02828254 0.9749224 -0.2213287 0.02323674 0.9626158 -0.2693897 0.02828254 0.9749218 -0.2213315 0.02323728 0.9848031 -0.1727254 0.018134 0.9848034 -0.1727232 0.01813396 0.9922439 -0.1236263 0.01297921 0.9922439 -0.1236263 0.01297921 0.9972025 -0.07433954 0.007804719 0.9972025 -0.07433954 0.007804719 0.9996893 -0.02478775 0.002602403 0.9996893 -0.02478776 0.002602403 0 0.9905979 -0.1368057 0 0.9905979 -0.1368057 0 0.9794959 -0.2014643 0 0.9794959 -0.2014643 0 0.9642779 -0.2648927 0 0.9642779 -0.2648927 0 0.94479 -0.3276764 0 0.94479 -0.3276764 0 0.9213894 -0.3886407 0 0.9213894 -0.3886407 0 0.8941472 -0.4477732 0 0.8941472 -0.4477732 0 0.8628359 -0.5054841 0 0.8628359 -0.5054841 0 0.8278652 -0.5609272 0 0.8278652 -0.5609272 0 0.7894694 -0.6137899 0 0.7894694 -0.6137899 0 0.747375 -0.6644024 0 0.747375 -0.6644024 0 0.7026614 -0.7115244 0 0.7026614 -0.7115244 0 0.6544451 -0.7561095 0 0.6544451 -0.7561095 0 0.6036751 -0.7972304 0 0.6036751 -0.7972304 0 0.5502444 -0.8350037 0 0.5502444 -0.8350037 0 0.4943299 -0.8692744 0 0.4943299 -0.8692744 0 0.436487 -0.8997105 0 0.436487 -0.8997105 0 0.376961 -0.9262292 0 0.376961 -0.9262292 0 0.3151088 -0.9490556 0 0.3151088 -0.9490556 0 0.2526181 -0.9675661 0 0.2526181 -0.9675661 0 0.1889051 -0.9819954 0 0.1889051 -0.9819954 0 0.1240347 -0.9922779 0 0.1240347 -0.9922779 0 0.05908662 -0.9982528 0 0.05908662 -0.9982528 0 -0.006529711 -0.9999786 0 -0.006529711 -0.9999786 0 -0.07182153 -0.9974175 0 -0.07182153 -0.9974175 0 -0.1368057 -0.9905979 0 -0.1368057 -0.9905979 0 -0.2013723 -0.9795148 0 -0.2013723 -0.9795148 0 -0.2651565 -0.9642054 0 -0.3274415 -0.9448715 0 -0.2651565 -0.9642054 0 -0.3274415 -0.9448715 0 -0.3885851 -0.9214129 0 -0.3885851 -0.9214129 0 -0.4482086 -0.8939289 0 -0.4482086 -0.8939289 0 -0.5054164 -0.8628756 0 -0.5054164 -0.8628756 0 -0.6137362 -0.7895112 0 -0.5609994 -0.8278162 0 -0.5609994 -0.8278162 0 -0.6137362 -0.7895112 0 -0.6642094 -0.7475466 0 -0.6642094 -0.7475466 0 -0.7116001 -0.7025846 0 -0.7116001 -0.7025846 0 -0.7559557 -0.6546228 0 -0.7559557 -0.6546228 0 -0.8349566 -0.5503159 0 -0.7975115 -0.6033037 0 -0.7975115 -0.6033037 0 -0.8349566 -0.5503159 0 -0.8692744 -0.4943299 0 -0.8692744 -0.4943299 0 -0.8996809 -0.4365481 0 -0.8996809 -0.4365481 0 -0.9262954 -0.3767981 0 -0.9262954 -0.3767981 0 -0.9490092 -0.3152483 0 -0.9490092 -0.3152483 0 -0.967452 -0.2530546 0 -0.967452 -0.2530546 0 -0.9820873 -0.1884264 0 -0.9820873 -0.1884264 0 -0.9982539 -0.05906828 0 -0.9922372 -0.12436 0 -0.9922372 -0.12436 0 -0.9982539 -0.05906828 0 -0.9999766 0.006839572 0 -0.9999766 0.006839572 0 -0.9974397 0.0715122 0 -0.9974397 0.0715122 -0 0.1369583 0.9905768 -0 0.2013458 0.9795202 -0 0.1369583 0.9905768 -0 0.2649975 0.9642491 -0 0.2013458 0.9795202 -0 0.3276339 0.9448047 -0 0.2649975 0.9642491 -0 0.3885851 0.9214129 -0 0.3276339 0.9448047 -0 0.4479595 0.8940538 -0 0.3885851 0.9214129 -0 0.5056875 0.8627167 -0 0.4479595 0.8940538 -0 0.5607107 0.8280118 -0 0.5056875 0.8627167 -0 0.6140375 0.7892768 -0 0.5607107 0.8280118 -0 0.6639876 0.7477436 -0 0.6140375 0.7892768 -0 0.7116001 0.7025846 -0 0.6639876 0.7477436 -0 0.7561968 0.6543443 -0 0.7116001 0.7025846 -0 0.7561968 0.6543443 -0 0.7972122 0.603699 -0 0.7972122 0.603699 -0 0.8349566 0.5503159 -0 0.8692744 0.4943299 -0 0.8349566 0.5503159 -0 0.8997105 0.436487 -0 0.8692744 0.4943299 -0 0.9262733 0.3768524 -0 0.8997105 0.436487 -0 0.9490092 0.3152483 -0 0.9262733 0.3768524 -0 0.967604 0.2524725 -0 0.9490092 0.3152483 -0 0.981972 0.1890261 -0 0.967604 0.2524725 -0 0.9923161 0.1237286 -0 0.981972 0.1890261 -0 0.9982534 0.05907745 -0 0.9923161 0.1237286 0 0.9999806 -0.006217818 -0 0.9982534 0.05907745 0 0.9999806 -0.006217818 0 0.9973952 -0.07213082 0 0.9973952 -0.07213082 -5.704292e-05 0.1043657 0.994539 9.49757e-05 0.1044986 0.994525 3.838083e-05 0.1044473 0.9945304 -4.12158e-05 0.1043768 0.9945378 1.038105e-05 0.1044237 0.9945329 -0 0.1044153 0.9945338 -2.550241e-05 0.1043912 0.9945363 -5.012238e-05 0.1043754 0.9945379 -6.858788e-05 0.1044228 0.994533 5.624812e-05 0.1044593 0.9945291 3.974206e-05 0.1044123 0.9945341 3.054611e-05 0.1044388 0.9945313 3.204764e-05 0.104413 0.9945341 -3.124016e-05 0.1043931 0.9945362 -5.605313e-05 0.1044189 0.9945334 -3.868027e-05 0.1043879 0.9945366 0.0001447595 0.1044086 0.9945346 -1.585628e-05 0.1044037 0.994535 -0.00011356 0.1044176 0.9945335 2.063532e-05 0.1044293 0.9945323 5.704541e-05 0.1044145 0.9945338 -1.951842e-06 0.1044138 0.994534 -4.986184e-05 0.1044146 0.9945338 -7.090557e-05 0.1043674 0.9945388 -3.005577e-05 0.1044149 0.9945338 0.0001614053 0.1045204 0.9945227 2.108452e-05 0.1044168 0.9945336 -3.060184e-05 0.104414 0.9945339 7.092611e-05 0.1044214 0.9945331 -0 0.1044149 0.9945338 -7.164718e-05 0.1044069 0.9945346 -2.130073e-06 0.1044147 0.9945339 -6.012717e-05 0.1044729 0.9945277 0.0001204587 0.1042994 0.9945459 -8.522658e-05 0.104493 0.9945256 9.538001e-05 0.1043262 0.9945431 -2.072376e-05 0.1044342 0.9945318 3.123379e-05 0.1044202 0.9945333 2.11188e-05 0.1043917 0.9945363 -2.174137e-05 0.1044124 0.9945341 -9.899859e-06 0.1044243 0.9945329 3.132737e-05 0.1044212 0.9945331 -7.618911e-06 0.1044217 0.9945331 5.254083e-05 0.1044251 0.9945328 2.748656e-07 0.1044135 0.994534 -6.080545e-05 0.1044024 0.9945351 3.547024e-05 0.1043739 0.9945381 0.0001225031 0.1044421 0.994531 1.133545e-05 0.1044018 0.9945352 -0.0001581402 0.1043769 0.9945378 -5.375514e-05 0.1044787 0.9945271 6.207541e-05 0.1044313 0.9945321 2.078143e-05 0.1043874 0.9945368 -3.601776e-05 0.1044057 0.9945348 -2.341308e-05 0.1044432 0.9945308 -4.539138e-05 0.1044031 0.9945351 3.165629e-05 0.104371 0.9945384 7.97404e-05 0.1044391 0.9945313 -3.564841e-05 0.104463 0.9945288 5.670448e-05 0.1044322 0.994532 -8.863207e-06 0.104425 0.9945328 9.897345e-05 0.1044453 0.9945306 3.957349e-05 0.1043542 0.9945402 -2.65617e-05 0.1044545 0.9945297 2.466401e-05 0.1043739 0.9945381 2.505557e-06 0.10441 0.9945343 1.880479e-05 0.1043825 0.9945372 -3.821254e-05 0.1044819 0.9945268 -1.86347e-05 0.1044466 0.9945304 1.266358e-05 0.1043887 0.9945366 -1.810644e-06 0.1044162 0.9945337 2.419054e-05 0.1043646 0.9945391 -9.864533e-06 0.1044345 0.9945318 1.004814e-05 0.1043926 0.9945362 -4.901866e-05 0.1045195 0.9945229 2.018648e-05 0.1043665 0.9945388 2.217571e-05 0.1043622 0.9945394 -1.67888e-05 0.1044521 0.99453 4.536271e-05 0.1043064 0.9945452 0 0.1044149 0.9945338 -5.781337e-05 0.104555 0.9945191 2.756573e-05 0.1043435 0.9945413 -0 0.1044155 0.9945338 -0 0.1044155 0.9945338 -6.645246e-05 0.1045292 0.9945218 3.921537e-05 0.104349 0.9945408 -2.596784e-05 0.104458 0.9945293 0 0.1044137 0.994534 -0.0001273677 0.1044343 0.9945318 0.0001991573 0.1043869 0.9945368 -0 0.1044154 0.9945338 9.175361e-05 0.1044005 0.9945353 -8.157778e-05 0.1044247 0.9945328 -0 0.1044321 0.994532 -0 0.1044321 0.994532 -4.780049e-05 0.1044205 0.9945332 -0 0.1043394 0.9945418 -0 0.1043394 0.9945418 -6.858754e-05 0.1044228 0.994533 -0 0.1044951 0.9945254 -0 0.1044951 0.9945254 3.974224e-05 0.1044123 0.9945341 -0 0.1044567 0.9945295 -0 0.1044567 0.9945294 3.204764e-05 0.104413 0.9945341 -0 0.104377 0.9945378 -0 0.104377 0.9945378 -5.605313e-05 0.1044189 0.9945334 -0 0.1043701 0.9945385 -0 0.1043701 0.9945385 0.0001447595 0.1044086 0.9945346 -0 0.1043973 0.9945356 -0 0.1043973 0.9945357 -0.00011356 0.1044176 0.9945335 -0 0.1044362 0.9945316 0 0.1044134 0.994534 -0 0.1044361 0.9945316 5.704541e-05 0.1044145 0.9945338 -0 0.1044133 0.994534 -4.986184e-05 0.1044146 0.9945338 -0 0.1043514 0.9945406 -0 0.1043514 0.9945405 -3.005577e-05 0.1044149 0.9945338 -0 0.1045489 0.9945198 -0 0.1045489 0.9945198 2.108452e-05 0.1044168 0.9945336 -0 0.1043381 0.9945419 -0 0.1043381 0.9945419 -3.060184e-05 0.104414 0.9945339 -0 0.1044867 0.9945263 -0 0.1044867 0.9945263 7.092584e-05 0.1044214 0.9945331 -0 0.1043024 0.9945456 -0 0.1043024 0.9945457 -0 0.1044149 0.9945338 -0 0.1044744 0.9945276 -0 0.1044744 0.9945276 -7.164745e-05 0.104407 0.9945346 -0 0.1044356 0.9945317 -0 0.1044356 0.9945317 3.123379e-05 0.1044202 0.9945333 -0 0.1043893 0.9945365 -0 0.1043893 0.9945365 -2.174128e-05 0.1044124 0.9945341 -0 0.1044259 0.9945327 -0 0.1044259 0.9945326 3.132737e-05 0.1044212 0.9945331 -0 0.1044234 0.9945329 -0 0.1044234 0.9945329 5.254083e-05 0.1044251 0.9945328 -0 0.1044133 0.994534 -0 0.1044134 0.994534 0 0.104362 0.9945393 -6.080571e-05 0.1044024 0.9945351 -0 0.1043621 0.9945394 0.0001225031 0.1044421 0.994531 -0 0.1043973 0.9945356 0 0.104503 0.9945245 -0 0.1043973 0.9945357 -0 0.104416 0.9945337 -0.0001581402 0.1043769 0.9945378 -0 0.104503 0.9945245 3.880412e-05 0.1043833 0.9945372 -0 0.104377 0.9945378 -0 0.104377 0.9945378 -2.130881e-05 0.1044326 0.994532 -0 0.1044567 0.9945294 -0 0.1044567 0.9945295 0 0.104351 0.9945405 -2.532995e-05 0.1044358 0.9945317 -0 0.104351 0.9945406 4.183578e-05 0.1043838 0.9945371 -0 0.1044886 0.9945261 -0 0.1044886 0.994526 0 0.1044321 0.994532 2.783595e-05 0.1043943 0.994536 0 0.1043194 0.9945439 -0 0.1044321 0.994532 4.52323e-05 0.1043816 0.9945373 -0 0.1043194 0.9945439 -0.0001048163 0.104488 0.9945261 -0 0.1044801 0.994527 -0 0.1044801 0.994527 6.325642e-05 0.1043723 0.9945383 -0 0.1043476 0.9945409 -0 0.1043476 0.9945409 -4.283407e-05 0.1044432 0.9945308 -0 0.1044071 0.9945346 -0 0.1044071 0.9945347 -1.158486e-05 0.1044229 0.994533 -0 0.1043578 0.9945398 0 0.1045377 0.9945209 -0 0.1043578 0.9945398 5.659457e-05 0.1043799 0.9945375 -0 0.1045377 0.994521 -6.408864e-05 0.104454 0.9945297 -0 0.104477 0.9945273 -0 0.104477 0.9945273 0 0.1043652 0.994539 -3.499537e-05 0.1044366 0.9945316 -0 0.1043652 0.994539 3.603709e-05 0.1043953 0.9945359 -0 0.1044203 0.9945332 0 0.1043075 0.9945451 -0 0.1044203 0.9945332 4.493905e-05 0.1043903 0.9945364 -0 0.1043075 0.9945451 1.886059e-05 0.1044047 0.9945349 -2.442873e-05 0.104428 0.9945324 2.2104e-06 0.104414 0.9945339 8.588575e-05 0.1043709 0.9945384 -0.0001981375 0.1045141 0.9945233 2.795753e-06 0.1044147 0.9945338 7.821903e-05 0.1044724 0.9945278 2.645697e-05 0.1044337 0.9945319 -2.696914e-05 0.1043927 0.9945362 1.248218e-05 0.1044237 0.9945329 9.470909e-06 0.1044213 0.9945331 -6.332821e-08 0.1044134 0.994534 -4.303655e-05 0.1043765 0.9945379 -1.354266e-05 0.1044026 0.9945351 6.437091e-05 0.1044741 0.9945276 -2.465116e-05 0.1043895 0.9945365 2.751346e-05 0.1044409 0.9945311 -3.715002e-05 0.1043748 0.994538 4.186153e-05 0.1044586 0.9945292 1.034858e-05 0.1044239 0.9945329 -4.583632e-05 0.1043596 0.9945396 3.051515e-05 0.1044505 0.9945301 -2.817932e-05 0.1043778 0.9945377 -2.830775e-06 0.1044104 0.9945343 -2.130515e-05 0.1043857 0.9945369 4.297719e-05 0.104475 0.9945275 2.084015e-05 0.1044431 0.9945308 -1.407034e-05 0.1043909 0.9945363 -0.0001313189 0.1043217 0.9945436 2.116405e-06 0.104416 0.9945337 0.0001147909 0.1044952 0.9945254 -2.651428e-05 0.10437 0.9945385 -0.0001592443 0.1042985 0.9945461 1.077552e-05 0.1044319 0.994532 -1.079182e-05 0.104395 0.9945359 5.230208e-05 0.1045063 0.9945242 -2.141524e-05 0.1043725 0.9945383 -2.335493e-05 0.1043689 0.9945387 1.747353e-05 0.1044469 0.9945305 -4.603238e-05 0.1043228 0.9945435 -0 0.1044146 0.9945339 5.635306e-05 0.104529 0.9945219 -2.637218e-05 0.1043583 0.9945398 4.412284e-05 0.1045058 0.9945243 5.189322e-05 0.1045222 0.9945226 -0 0.1044135 0.994534 -1.539464e-05 0.1043164 0.9945442 -1.301663e-05 0.1043312 0.9945426 2.973978e-05 0.1045944 0.9945149 -5.796138e-06 0.1043788 0.9945376 5.502629e-06 0.1044463 0.9945305 -7.150622e-07 0.1044098 0.9945343 1.803785e-06 0.1047177 0.994502 -3.299481e-07 0.1043591 0.9945397 -0 0.1044613 0.9945289 5.698774e-05 -0.1043662 -0.9945389 -3.13931e-06 -0.1044189 -0.9945334 -3.836224e-05 -0.1044471 -0.9945304 -4.827369e-05 -0.1044588 -0.9945292 -1.031242e-05 -0.1044239 -0.9945329 -0 -0.1044144 -0.9945339 -1.22137e-05 -0.104426 -0.9945327 5.005912e-05 -0.1043752 -0.994538 0.000135508 -0.1044293 -0.9945323 -5.631222e-05 -0.1044589 -0.9945291 -3.934458e-05 -0.1044123 -0.9945341 1.32093e-05 -0.1044056 -0.9945349 -3.210908e-05 -0.104413 -0.9945341 -1.479567e-05 -0.1044265 -0.9945326 -2.543708e-06 -0.104415 -0.9945338 3.860462e-05 -0.1043874 -0.9945366 4.648501e-05 -0.1044175 -0.9945335 1.606156e-05 -0.1044036 -0.994535 -1.637653e-05 -0.1044153 -0.9945338 -2.060604e-05 -0.1044293 -0.9945323 -5.660551e-05 -0.1044145 -0.9945338 1.845097e-06 -0.1044139 -0.994534 4.993987e-05 -0.1044146 -0.9945338 -6.728634e-05 -0.1044603 -0.994529 3.023292e-05 -0.1044149 -0.9945338 -1.193967e-05 -0.1044238 -0.9945328 -2.078568e-05 -0.1044168 -0.9945337 -2.013732e-05 -0.1044167 -0.9945337 -2.013497e-05 -0.1044167 -0.9945337 0 -0.1044148 -0.9945338 2.034167e-05 -0.1044126 -0.9945341 2.13565e-06 -0.1044147 -0.9945338 6.012717e-05 -0.1044729 -0.9945278 -0.0001204587 -0.1042994 -0.9945459 8.522657e-05 -0.104493 -0.9945256 -9.538001e-05 -0.1043262 -0.9945431 2.062559e-05 -0.1044341 -0.9945318 2.05511e-05 -0.1044124 -0.9945341 -2.129798e-05 -0.104392 -0.9945363 2.143322e-05 -0.1044124 -0.9945341 9.963543e-06 -0.1044242 -0.9945329 -3.151199e-05 -0.1044211 -0.9945331 7.636542e-06 -0.1044217 -0.9945332 -5.262307e-05 -0.1044251 -0.9945327 -5.153734e-08 -0.1044134 -0.994534 6.03366e-05 -0.1044025 -0.9945351 -3.531911e-05 -0.1043739 -0.9945381 1.766665e-05 -0.1044117 -0.9945341 -1.120364e-05 -0.1044017 -0.9945353 -5.078761e-05 -0.1044276 -0.9945325 5.364969e-05 -0.1044789 -0.9945271 2.817149e-06 -0.1044143 -0.9945338 -2.068924e-05 -0.1043875 -0.9945366 3.608681e-05 -0.1044058 -0.9945348 2.324606e-05 -0.1044433 -0.9945308 4.493736e-05 -0.104403 -0.9945351 -3.158902e-05 -0.1043713 -0.9945384 -0.0001575655 -0.1044612 -0.9945289 3.581828e-05 -0.104463 -0.9945287 2.713806e-05 -0.1044063 -0.9945347 8.910681e-06 -0.1044251 -0.9945328 0.000115924 -0.104379 -0.9945377 -3.968485e-05 -0.1043542 -0.9945402 2.656571e-05 -0.1044543 -0.9945297 -2.467619e-05 -0.1043741 -0.9945381 -2.493195e-06 -0.10441 -0.9945344 4.814474e-05 -0.104495 -0.9945254 -2.774053e-05 -0.1043632 -0.9945393 1.868323e-05 -0.1044466 -0.9945305 -1.269085e-05 -0.1043884 -0.9945366 1.921453e-06 -0.1044164 -0.9945337 -2.423961e-05 -0.1043647 -0.9945391 9.921037e-06 -0.1044342 -0.9945318 -1.001701e-05 -0.1043925 -0.9945362 4.896848e-05 -0.1045193 -0.9945229 -2.024316e-05 -0.1043667 -0.9945388 -2.231929e-05 -0.104362 -0.9945394 1.691099e-05 -0.1044524 -0.9945298 -4.521599e-05 -0.1043065 -0.9945452 0 -0.1044146 -0.9945338 5.762679e-05 -0.1045544 -0.9945192 -2.776618e-05 -0.1043444 -0.9945413 4.836274e-05 -0.1045337 -0.9945213 6.036219e-05 -0.1045638 -0.9945182 -0 -0.1044007 -0.9945353 0 -0.1044007 -0.9945353 2.34667e-06 -0.1044198 -0.9945333 -3.921959e-05 -0.104349 -0.9945408 2.596784e-05 -0.104458 -0.9945293 0 -0.1044158 -0.9945337 0.0001272443 -0.1044343 -0.9945318 -6.58284e-06 -0.1044148 -0.9945338 0 -0.1044154 -0.9945338 -9.170918e-05 -0.1044003 -0.9945353 -9.554852e-05 -0.1044029 -0.9945351 -0 -0.1044321 -0.994532 0 -0.1044321 -0.994532 -2.288327e-05 -0.1044117 -0.9945341 -0 -0.1043394 -0.9945418 0 -0.1043394 -0.9945418 0 -0.1044951 -0.9945254 0.0001355074 -0.1044293 -0.9945323 0 -0.1044951 -0.9945254 -3.934477e-05 -0.1044123 -0.9945341 -0 -0.104398 -0.9945356 0 -0.104398 -0.9945356 -3.210908e-05 -0.104413 -0.9945341 -0 -0.1044341 -0.9945319 0 -0.1044341 -0.9945318 -2.543708e-06 -0.104415 -0.9945338 0 -0.1043701 -0.9945385 -0 -0.1043701 -0.9945385 4.648501e-05 -0.1044175 -0.9945335 0 -0.1043973 -0.9945357 -0 -0.1043973 -0.9945356 -1.637653e-05 -0.1044153 -0.9945338 -0 -0.1044361 -0.9945316 0 -0.1044361 -0.9945316 -5.660551e-05 -0.1044145 -0.9945338 -0 -0.1044134 -0.994534 0 -0.1044133 -0.994534 4.993987e-05 -0.1044146 -0.9945338 0 -0.1044756 -0.9945275 -0 -0.1044756 -0.9945275 3.023292e-05 -0.1044149 -0.9945338 -0 -0.1044259 -0.9945327 0 -0.1044259 -0.9945326 0 -0.1043381 -0.9945419 -2.078568e-05 -0.1044168 -0.9945337 0 -0.1043381 -0.9945419 -2.013732e-05 -0.1044167 -0.9945337 -0 -0.1044867 -0.9945263 0 -0.1044867 -0.9945263 0 -0.1043024 -0.9945456 -2.013488e-05 -0.1044167 -0.9945336 0 -0.1043024 -0.9945457 0 -0.1044149 -0.9945338 0 -0.1044744 -0.9945275 -0 -0.1044744 -0.9945276 2.034176e-05 -0.1044126 -0.9945341 0 -0.1044356 -0.9945316 -0 -0.1044356 -0.9945317 2.055111e-05 -0.1044126 -0.9945341 0 -0.1043893 -0.9945365 0 -0.1044259 -0.9945326 -0 -0.1043893 -0.9945365 2.143313e-05 -0.1044124 -0.9945341 0 -0.1044259 -0.9945327 -3.151199e-05 -0.1044211 -0.9945331 -0 -0.1044234 -0.9945329 0 -0.1044234 -0.9945329 -5.262307e-05 -0.1044251 -0.9945327 0 -0.1044134 -0.994534 -0 -0.1044133 -0.994534 6.033683e-05 -0.1044024 -0.9945351 -0 -0.1043621 -0.9945394 0 -0.1043621 -0.9945394 1.766665e-05 -0.1044117 -0.9945341 0 -0.1043973 -0.9945356 -0 -0.1043973 -0.9945357 -0 -0.1044151 -0.9945338 -5.078768e-05 -0.1044278 -0.9945325 -0 -0.104503 -0.9945245 0 -0.104503 -0.9945245 1.761883e-06 -0.1044167 -0.9945337 0 -0.104377 -0.9945378 -0 -0.104377 -0.9945378 2.134967e-05 -0.1044326 -0.994532 -0 -0.1044567 -0.9945294 0 -0.1044567 -0.9945295 2.507661e-05 -0.1044359 -0.9945316 -0 -0.104351 -0.9945405 0 -0.104351 -0.9945406 0 -0.1044886 -0.9945261 -8.262447e-05 -0.1043523 -0.9945405 0 -0.1044886 -0.994526 1.33291e-05 -0.1044244 -0.9945328 -0 -0.1044321 -0.994532 0 -0.1044321 -0.994532 5.297805e-05 -0.1044531 -0.9945298 -0 -0.1043194 -0.9945439 0 -0.1043194 -0.9945439 0 -0.1044801 -0.994527 3.464585e-06 -0.1044187 -0.9945334 0 -0.1044801 -0.994527 -6.33178e-05 -0.1043724 -0.9945383 -0 -0.1043476 -0.9945409 0 -0.1043476 -0.9945409 4.285491e-05 -0.1044436 -0.9945308 0 -0.1044071 -0.9945346 -0 -0.1044071 -0.9945347 1.166193e-05 -0.1044227 -0.994533 -0 -0.1045582 -0.9945188 0 -0.1045582 -0.9945188 0 -0.1043227 -0.9945435 -5.666589e-05 -0.1043797 -0.9945376 0 -0.1043227 -0.9945436 0 -0.104477 -0.9945273 6.401573e-05 -0.104454 -0.9945297 0 -0.104477 -0.9945273 -1.534261e-05 -0.1044067 -0.9945347 0 -0.1043652 -0.994539 -0 -0.1043652 -0.994539 1.730155e-05 -0.1044255 -0.9945327 -0 -0.1044203 -0.9945332 0 -0.1044203 -0.9945332 -4.502702e-05 -0.1043903 -0.9945365 0 -0.1043075 -0.9945451 -0 -0.1043075 -0.9945451 -1.861955e-05 -0.1044046 -0.9945349 0 -0.1044613 -0.9945289 -0 -0.1044613 -0.9945289 2.446345e-05 -0.1044278 -0.9945325 -0 -0.1043601 -0.9945396 0 -0.1043601 -0.9945396 -2.338275e-06 -0.1044142 -0.9945339 8.161489e-05 -0.1044569 -0.9945294 1.448942e-05 -0.1044227 -0.9945331 -2.788453e-06 -0.1044147 -0.9945338 -7.821903e-05 -0.1044725 -0.9945278 -2.645697e-05 -0.1044337 -0.9945319 2.698109e-05 -0.1043927 -0.9945362 -1.248218e-05 -0.1044237 -0.9945329 -9.470909e-06 -0.1044213 -0.9945331 6.332821e-08 -0.1044134 -0.994534 4.303143e-05 -0.1043764 -0.9945378 1.354266e-05 -0.1044026 -0.9945351 -6.437091e-05 -0.1044741 -0.9945276 2.465116e-05 -0.1043895 -0.9945365 -2.751347e-05 -0.1044409 -0.9945311 3.715003e-05 -0.1043748 -0.994538 -4.186615e-05 -0.1044586 -0.9945292 -1.035318e-05 -0.1044239 -0.9945329 4.584092e-05 -0.1043596 -0.9945396 -3.051054e-05 -0.1044505 -0.9945301 2.817932e-05 -0.1043778 -0.9945377 2.830775e-06 -0.1044104 -0.9945343 -5.43522e-05 -0.1044869 -0.9945262 3.11329e-05 -0.1043682 -0.9945387 -2.084261e-05 -0.1044431 -0.9945308 1.407034e-05 -0.1043909 -0.9945363 0.0001313189 -0.1043217 -0.9945436 -2.116405e-06 -0.104416 -0.9945337 -0.0001147909 -0.1044952 -0.9945254 2.651697e-05 -0.10437 -0.9945385 0.0001592443 -0.1042985 -0.9945461 -1.077412e-05 -0.1044319 -0.994532 1.079182e-05 -0.104395 -0.9945359 -5.230208e-05 -0.1045063 -0.9945242 2.141524e-05 -0.1043725 -0.9945383 2.335493e-05 -0.1043689 -0.9945387 -1.747353e-05 -0.1044469 -0.9945305 4.603238e-05 -0.1043228 -0.9945435 -0 -0.1044146 -0.9945339 -5.635306e-05 -0.104529 -0.9945219 2.637218e-05 -0.1043583 -0.9945398 -4.412285e-05 -0.1045058 -0.9945243 -5.189322e-05 -0.1045222 -0.9945226 0.000169033 -0.1040502 -0.994572 -2.973978e-05 -0.1045944 -0.994515 0 -0.1044113 -0.9945342 -0 -0.104414 -0.9945339 0 -0.9933305 0.1153014 0 -0.9933305 0.1153014 0 -0.9905442 0.1371945 0 -0.9905442 0.1371945 0 -0.9869565 0.1609864 0 -0.9869565 0.1609864 1 0 0 1 -0 0 -1 0 0 -1 0 0 0 -0.9945339 0.1044136 0 -0.9945339 0.1044136 0.999689 0.02479951 -0.002603637 0.9972051 0.07430345 -0.007800929 0.999689 0.02479951 -0.002603637 0.9922364 0.123686 -0.01298548 0.9972051 0.07430345 -0.007800929 0.9848031 0.1727254 -0.018134 0.9922364 0.123686 -0.01298548 0.9749464 0.2212237 -0.02322571 0.9848031 0.1727254 -0.018134 0.9626158 0.2693897 -0.02828254 0.9749464 0.2212237 -0.02322571 0.9479072 0.3168055 -0.0332606 0.9626158 0.2693897 -0.02828255 0.9308891 0.3633052 -0.03814249 0.9479072 0.3168055 -0.0332606 0.9114736 0.4091099 -0.04295141 0.9308891 0.3633052 -0.03814249 0.8899258 0.4536122 -0.04762359 0.9114736 0.4091099 -0.04295141 0.8660215 0.4972738 -0.05220751 0.8899258 0.4536122 -0.04762359 0.8399914 0.5396338 -0.05665477 0.8660215 0.4972738 -0.05220751 0.8119102 0.5805914 -0.06095481 0.8399914 0.5396338 -0.05665478 0.7818275 0.6200868 -0.06510133 0.8119102 0.5805913 -0.06095481 0.7497943 0.6580542 -0.06908744 0.7818275 0.6200868 -0.06510133 0.7158601 0.694427 -0.07290613 0.7497943 0.6580542 -0.06908744 0.680293 0.728934 -0.07652894 0.7158601 0.6944271 -0.07290613 0.6802929 0.728934 -0.07652892 0.6426114 0.7620043 -0.08000088 0.6426114 0.7620043 -0.08000088 0.6039912 0.7926346 -0.08321669 0.603983 0.7926406 -0.08321823 0.5632517 0.8217687 -0.08627634 0.5213954 0.8486509 -0.08909769 0.5632605 0.8217629 -0.0862748 0.4784766 0.8733006 -0.0916856 0.5213954 0.8486509 -0.08909769 0.4337691 0.8960991 -0.09407916 0.4784766 0.8733006 -0.09168562 0.3884422 0.9164363 -0.09621431 0.4337691 0.8960991 -0.09407916 0.3421544 0.9345077 -0.09811158 0.3884422 0.9164363 -0.09621432 0.2944405 0.9504461 -0.09978491 0.3421544 0.9345077 -0.09811158 0.2466711 0.9638022 -0.1011871 0.2944405 0.9504461 -0.0997849 0.2466711 0.9638022 -0.1011871 0.1983956 0.9747646 -0.1023381 0.1983956 0.9747646 -0.1023381 0.1491696 0.9834068 -0.1032454 0.1491696 0.9834068 -0.1032454 0.09945401 0.9896033 -0.1038959 0.09945401 0.9896033 -0.1038959 0.04972018 0.9933039 -0.1042844 0.04972018 0.9933039 -0.1042845 0 0.994534 -0.1044136 0 0.994534 -0.1044136 -0.04972037 0.9933039 -0.1042844 -0.04972037 0.9933039 -0.1042844 -0.09945401 0.9896033 -0.1038959 -0.09945401 0.9896033 -0.1038959 -0.1491696 0.9834068 -0.1032454 -0.1491696 0.9834068 -0.1032454 -0.1983956 0.9747646 -0.1023381 -0.1983956 0.9747646 -0.1023381 -0.2466701 0.9638023 -0.1011871 -0.2466702 0.9638023 -0.1011871 -0.2944427 0.9504455 -0.09978484 -0.2944427 0.9504454 -0.09978484 -0.3421531 0.9345081 -0.09811161 -0.3884422 0.9164363 -0.09621431 -0.3421531 0.9345081 -0.09811163 -0.4337676 0.8960997 -0.09407923 -0.3884422 0.9164363 -0.09621432 -0.4337676 0.8960997 -0.09407923 -0.4784766 0.8733006 -0.0916856 -0.5213972 0.8486499 -0.08909759 -0.4784766 0.8733006 -0.09168562 -0.56325 0.82177 -0.08627554 -0.5213972 0.8486499 -0.08909759 -0.5632587 0.821764 -0.08627585 -0.6039912 0.7926345 -0.08321759 -0.6039831 0.7926408 -0.08321734 -0.6426114 0.7620043 -0.08000088 -0.6426114 0.7620043 -0.08000088 -0.680293 0.728934 -0.07652894 -0.6802929 0.728934 -0.07652892 -0.7158621 0.6944251 -0.07290593 -0.7497943 0.6580542 -0.06908744 -0.715862 0.6944251 -0.07290592 -0.7497943 0.6580542 -0.06908744 -0.7818257 0.6200891 -0.06510157 -0.811912 0.5805889 -0.06095454 -0.7818256 0.6200891 -0.06510157 -0.811912 0.5805889 -0.06095454 -0.8399897 0.5396364 -0.05665506 -0.8399897 0.5396364 -0.05665506 -0.8660231 0.497271 -0.05220721 -0.8660231 0.497271 -0.05220721 -0.8899243 0.4536153 -0.04762391 -0.8899243 0.4536152 -0.04762391 -0.9114751 0.4091067 -0.04295107 -0.9114751 0.4091067 -0.04295107 -0.9308878 0.3633085 -0.03814283 -0.9308878 0.3633085 -0.03814283 -0.9479072 0.3168055 -0.0332606 -0.9479072 0.3168055 -0.0332606 -0.9626158 0.2693897 -0.02828254 -0.9626158 0.2693897 -0.02828255 -0.9749473 0.2212201 -0.02322533 -0.9749473 0.2212201 -0.02322533 -0.992236 0.1236898 -0.01298587 -0.9848037 0.1727217 -0.01813361 -0.9848037 0.1727217 -0.01813361 -0.992236 0.1236898 -0.01298588 -0.9972051 0.07430345 -0.007800929 -0.9972052 0.07430346 -0.007800931 -0.9996889 0.02480331 -0.002604037 -0.9996889 0.02480331 -0.002604037 0.9996889 0.02480331 -0.002604037 0.9972058 0.07429589 -0.007800136 0.9996889 0.02480331 -0.002604037 0.992236 0.1236898 -0.01298587 0.9972058 0.07429589 -0.007800136 0.9848024 0.1727291 -0.01813439 0.992236 0.1236898 -0.01298587 0.9749473 0.2212201 -0.02322533 0.9848024 0.1727291 -0.01813439 0.9626158 0.2693897 -0.02828254 0.9749473 0.2212201 -0.02322533 0.9479072 0.3168055 -0.0332606 0.9626158 0.2693897 -0.02828255 0.9308904 0.3633019 -0.03814214 0.9479072 0.3168055 -0.0332606 0.9114723 0.4091131 -0.04295174 0.9308904 0.3633019 -0.03814214 0.8899243 0.4536153 -0.04762391 0.9114723 0.409113 -0.04295174 0.8660231 0.497271 -0.05220721 0.8899243 0.4536152 -0.04762391 0.8399932 0.5396311 -0.05665449 0.8660231 0.497271 -0.05220721 0.8119084 0.5805939 -0.06095507 0.8399932 0.5396311 -0.05665449 0.7818293 0.6200844 -0.06510109 0.8119084 0.5805938 -0.06095507 0.7497943 0.6580542 -0.06908744 0.7818293 0.6200844 -0.06510109 0.7158582 0.694429 -0.07290633 0.7497943 0.6580542 -0.06908744 0.680293 0.728934 -0.07652894 0.7158582 0.694429 -0.07290634 0.6802929 0.728934 -0.07652892 0.6426114 0.7620043 -0.08000088 0.6426114 0.7620043 -0.08000088 0.6039912 0.7926346 -0.08321669 0.603983 0.7926406 -0.08321823 0.5632535 0.8217675 -0.08627622 0.5213937 0.8486519 -0.0890978 0.5632623 0.8217617 -0.08627467 0.4784766 0.8733006 -0.0916856 0.5213938 0.8486519 -0.0890978 0.4337691 0.8960991 -0.09407916 0.4784766 0.8733006 -0.09168562 0.3884422 0.9164363 -0.09621431 0.4337691 0.8960991 -0.09407916 0.3421544 0.9345077 -0.09811158 0.3884422 0.9164363 -0.09621432 0.2944405 0.9504461 -0.09978491 0.3421544 0.9345077 -0.09811158 0.2466711 0.9638022 -0.1011871 0.2944405 0.9504461 -0.0997849 0.2466711 0.9638022 -0.1011871 0.1983956 0.9747646 -0.1023381 0.1983956 0.9747646 -0.1023381 0.1491696 0.9834068 -0.1032454 0.1491696 0.9834068 -0.1032454 0.09945401 0.9896033 -0.1038959 0.09945401 0.9896033 -0.1038959 0.04972037 0.9933039 -0.1042844 0.04972037 0.9933039 -0.1042844 0 0.994534 -0.1044136 0 0.994534 -0.1044136 -0.04972018 0.9933039 -0.1042844 -0.04972018 0.9933039 -0.1042844 -0.09945401 0.9896033 -0.1038959 -0.09945401 0.9896033 -0.1038959 -0.1491701 0.9834066 -0.1032454 -0.1491701 0.9834066 -0.1032454 -0.1983956 0.9747646 -0.1023381 -0.1983956 0.9747646 -0.1023381 -0.2466701 0.9638023 -0.1011871 -0.2466702 0.9638023 -0.1011871 -0.2944416 0.9504458 -0.09978488 -0.2944416 0.9504457 -0.09978488 -0.3421531 0.9345081 -0.09811161 -0.3884422 0.9164363 -0.09621431 -0.3421531 0.9345081 -0.09811163 -0.4337706 0.8960984 -0.09407908 -0.3884422 0.9164363 -0.09621432 -0.4337705 0.8960984 -0.09407908 -0.478475 0.8733014 -0.09168569 -0.5213954 0.8486509 -0.08909769 -0.478475 0.8733014 -0.09168569 -0.5632517 0.8217688 -0.08627541 -0.5213954 0.8486509 -0.0890977 -0.5632605 0.8217627 -0.08627573 -0.6039912 0.7926345 -0.08321759 -0.6039831 0.7926408 -0.08321734 -0.6426133 0.7620027 -0.08000072 -0.6426134 0.7620026 -0.08000072 -0.680293 0.728934 -0.07652894 -0.6802929 0.728934 -0.07652892 -0.7158582 0.694429 -0.07290633 -0.7497943 0.6580542 -0.06908744 -0.7158582 0.694429 -0.07290634 -0.7497943 0.6580542 -0.06908744 -0.7818275 0.6200868 -0.06510133 -0.811912 0.5805889 -0.06095454 -0.7818275 0.6200868 -0.06510133 -0.811912 0.5805889 -0.06095454 -0.8399914 0.5396338 -0.05665477 -0.8399914 0.5396338 -0.05665477 -0.8660215 0.4972738 -0.05220751 -0.8660215 0.4972738 -0.05220751 -0.8899258 0.4536122 -0.04762359 -0.8899258 0.4536122 -0.04762359 -0.9114723 0.4091131 -0.04295174 -0.9114723 0.409113 -0.04295174 -0.9308904 0.3633019 -0.03814214 -0.9308904 0.3633019 -0.03814214 -0.9479072 0.3168055 -0.0332606 -0.9479072 0.3168055 -0.0332606 -0.9626158 0.2693897 -0.02828254 -0.9626158 0.2693897 -0.02828255 -0.9749464 0.2212237 -0.02322571 -0.9749464 0.2212237 -0.02322571 -0.992236 0.1236898 -0.01298587 -0.9848031 0.1727254 -0.018134 -0.9848031 0.1727254 -0.018134 -0.992236 0.1236898 -0.01298588 -0.9972054 0.07429966 -0.007800533 -0.9972054 0.07429967 -0.007800534 -0.9996889 0.02480331 -0.002604037 -0.9996889 0.02480331 -0.002604037 -1 0 0 -1 -0 0 -1 0 0 -1 0 0 -1 0 0 -1 0 0 -1 0 0 -1 0 0 -1 0 0 -1 0 0 -1 0 0 -1 0 0 -1 0 0 -1 0 0 -1 0 0 -1 0 0 -1 0 0 -1 0 0 -1 0 0 -1 0 0 -1 0 0 -1 -0 0 -1 0 0 -1 0 0 -1 0 0 -1 0 0 -1 0 0 -1 0 0 -1 0 0 -1 0 0 -1 0 0 -1 0 0 -1 0 0 -1 0 0 -1 0 0 -1 0 0 -1 0 0 -1 0 0 -1 0 0 -1 0 0 -1 0 0 -1 0 0 -1 0 0 -1 0 0 -1 0 0 -1 0 0 -1 0 0 -1 0 0 -1 -0 0 -1 0 0 -1 0 0 -1 0 0 -1 0 0 -1 0 0 -1 0 0 -1 0 0 -1 0 0 -1 0 0 -1 0 0 -1 0 0 -1 0 0 -1 0 0 -1 0 0 -1 0 0 -1 0 0 -1 0 0 -1 0 0 -1 0 0 -1 0 0 -1 0 0 -1 0 0 -1 -0 0 -1 0 0 -1 0 0 -1 0 0 -1 0 0 0 0.9945339 -0.1044136 0 0.9945339 -0.1044136 1 0 0 1 0 0 1 0 0 1 0 0 1 0 0 1 0 0 1 0 0 1 0 -0 1 0 0 1 0 0 1 0 0 1 0 0 1 0 0 1 0 0 1 0 0 1 0 0 1 0 0 1 0 0 1 0 0 1 0 0 1 0 0 1 0 0 1 0 0 1 0 0 1 0 0 1 0 0 1 0 -0 1 0 0 1 0 0 1 0 0 1 -0 0 1 0 0 1 0 0 1 0 0 1 0 0 1 0 0 1 0 0 1 -0 0 1 0 0 1 0 0 1 -0 0 1 0 0 1 0 0 1 0 0 1 0 0 1 0 0 1 0 0 1 -0 0 1 0 0 1 0 0 1 0 0 1 0 0 1 0 0 1 -0 -0 1 0 0 1 0 0 1 0 0 1 0 0 1 0 0 1 0 0 1 -0 -0 1 0 0 1 0 0 1 0 0 1 0 0 1 0 0 1 0 0 1 0 0 1 0 0 1 0 0 1 0 0 1 0 0 1 0 0 1 -0 0 1 0 0 1 0 -0 0 0.9945339 -0.1044136 0 0.9945339 -0.1044136</float_array>
          <technique_common>
            <accessor count="1340" source="#cubenormals-array0-array" stride="3">
              <param type="float" name="X"/>
              <param type="float" name="Y"/>
              <param type="float" name="Z"/>
            </accessor>
          </technique_common>
        </source>
        <vertices id="cubeverts-array0-vertices">
          <input semantic="POSITION" source="#cubeverts-array0"/>
        </vertices>
        <triangles count="1340" material="ref_Hinge_A_shape">
          <input offset="0" semantic="VERTEX" source="#cubeverts-array0-vertices"/>
          <input offset="1" semantic="NORMAL" source="#cubenormals-array0"/>
          <p>0 0 1 0 2 0 3 1 1 1 0 1 2 2 4 2 5 2 1 3 4 3 2 3 5 4 6 4 7 4 4 5 6 5 5 5 7 6 8 6 9 6 6 7 8 7 7 7 9 8 10 8 11 8 8 9 10 9 9 9 11 10 12 10 13 10 10 11 12 11 11 11 13 12 14 12 15 12 12 13 14 13 13 13 15 14 16 14 17 14 14 15 16 15 15 15 17 16 18 16 19 16 16 17 18 17 17 17 19 18 20 18 21 18 18 19 20 19 19 19 21 20 22 20 23 20 20 21 22 21 21 21 23 22 24 22 25 22 22 23 24 23 23 23 25 24 26 24 27 24 24 25 26 25 25 25 27 26 28 26 29 26 26 27 28 27 27 27 29 28 30 28 31 28 28 29 30 29 29 29 31 30 32 30 33 30 30 31 32 31 31 31 33 32 34 32 35 32 32 33 34 33 33 33 34 34 36 34 35 34 35 35 36 35 37 35 37 36 38 36 39 36 36 37 38 37 37 37 39 38 40 38 41 38 38 39 40 39 39 39 41 40 42 40 43 40 40 41 42 41 41 41 43 42 44 42 45 42 42 43 44 43 43 43 45 44 46 44 47 44 44 45 46 45 45 45 47 46 48 46 49 46 46 47 48 47 47 47 49 48 50 48 51 48 48 49 50 49 49 49 51 50 52 50 53 50 50 51 52 51 51 51 53 52 54 52 55 52 52 53 54 53 53 53 55 54 56 54 57 54 54 55 56 55 55 55 56 56 58 56 57 56 59 57 58 57 60 57 57 58 58 58 59 58 58 59 61 59 60 59 61 60 62 60 60 60 60 61 62 61 63 61 62 62 64 62 63 62 63 63 64 63 65 63 64 64 66 64 65 64 65 65 66 65 67 65 66 66 68 66 67 66 67 67 68 67 69 67 68 68 70 68 69 68 69 69 70 69 71 69 70 70 72 70 71 70 71 71 72 71 73 71 72 72 74 72 73 72 73 73 74 73 75 73 74 74 76 74 75 74 75 75 76 75 77 75 77 76 78 76 79 76 76 77 78 77 77 77 79 78 80 78 81 78 78 79 80 79 79 79 81 80 82 80 83 80 80 81 82 81 81 81 83 82 84 82 85 82 82 83 84 83 83 83 84 84 86 84 85 84 85 85 86 85 87 85 86 86 88 86 87 86 87 87 88 87 89 87 88 88 90 88 89 88 89 89 90 89 91 89 90 90 92 90 91 90 91 91 92 91 93 91 92 92 94 92 93 92 93 93 94 93 95 93 94 94 96 94 95 94 95 95 96 95 97 95 96 96 98 96 97 96 97 97 98 97 99 97 98 98 100 98 99 98 99 99 100 99 101 99 100 100 102 100 101 100 101 101 102 101 103 101 102 102 104 102 103 102 103 103 104 103 105 103 104 104 106 104 105 104 105 105 106 105 107 105 106 106 108 106 107 106 109 107 108 107 110 107 107 108 108 108 109 108 108 109 111 109 110 109 111 110 112 110 110 110 113 111 112 111 114 111 110 112 112 112 113 112 112 113 115 113 114 113 115 114 116 114 114 114 117 115 116 115 118 115 114 116 116 116 117 116 116 117 119 117 118 117 118 118 120 118 121 118 119 119 120 119 118 119 121 120 122 120 123 120 120 121 122 121 121 121 123 122 124 122 125 122 122 123 124 123 123 123 125 124 126 124 127 124 124 125 126 125 125 125 128 126 129 126 130 126 131 127 129 127 128 127 130 128 132 128 133 128 129 129 132 129 130 129 133 130 134 130 135 130 132 131 134 131 133 131 135 132 136 132 137 132 134 133 136 133 135 133 137 134 138 134 139 134 136 135 138 135 137 135 139 136 140 136 141 136 138 137 140 137 139 137 141 138 142 138 143 138 140 139 142 139 141 139 143 140 144 140 145 140 142 141 144 141 143 141 145 142 146 142 147 142 144 143 146 143 145 143 147 144 148 144 149 144 146 145 148 145 147 145 149 146 150 146 151 146 148 147 150 147 149 147 151 148 152 148 153 148 150 149 152 149 151 149 153 150 154 150 155 150 152 151 154 151 153 151 155 152 156 152 157 152 154 153 156 153 155 153 157 154 158 154 159 154 156 155 158 155 157 155 159 156 160 156 161 156 158 157 160 157 159 157 161 158 162 158 163 158 160 159 162 159 161 159 162 160 164 160 163 160 163 161 164 161 165 161 165 162 166 162 167 162 164 163 166 163 165 163 167 164 168 164 169 164 166 165 168 165 167 165 169 166 170 166 171 166 168 167 170 167 169 167 171 168 172 168 173 168 170 169 172 169 171 169 173 170 174 170 175 170 172 171 174 171 173 171 175 172 176 172 177 172 174 173 176 173 175 173 177 174 178 174 179 174 176 175 178 175 177 175 179 176 180 176 181 176 178 177 180 177 179 177 181 178 182 178 183 178 180 179 182 179 181 179 183 180 184 180 185 180 182 181 184 181 183 181 184 182 186 182 185 182 187 183 186 183 188 183 185 184 186 184 187 184 186 185 189 185 188 185 189 186 190 186 188 186 188 187 190 187 191 187 190 188 192 188 191 188 191 189 192 189 193 189 192 190 194 190 193 190 193 191 194 191 195 191 194 192 196 192 195 192 195 193 196 193 197 193 196 194 198 194 197 194 197 195 198 195 199 195 198 196 200 196 199 196 199 197 200 197 201 197 200 198 202 198 201 198 201 199 202 199 203 199 202 200 204 200 203 200 203 201 204 201 205 201 205 202 206 202 207 202 204 203 206 203 205 203 207 204 208 204 209 204 206 205 208 205 207 205 209 206 210 206 211 206 208 207 210 207 209 207 211 208 212 208 213 208 210 209 212 209 211 209 212 210 214 210 213 210 213 211 214 211 215 211 214 212 216 212 215 212 215 213 216 213 217 213 216 214 218 214 217 214 217 215 218 215 219 215 218 216 220 216 219 216 219 217 220 217 221 217 220 218 222 218 221 218 221 219 222 219 223 219 222 220 224 220 223 220 223 221 224 221 225 221 224 222 226 222 225 222 225 223 226 223 227 223 226 224 228 224 227 224 227 225 228 225 229 225 228 226 230 226 229 226 229 227 230 227 231 227 230 228 232 228 231 228 231 229 232 229 233 229 232 230 234 230 233 230 233 231 234 231 235 231 234 232 236 232 235 232 237 233 236 233 238 233 235 234 236 234 237 234 236 235 239 235 238 235 239 236 240 236 238 236 241 237 240 237 242 237 238 238 240 238 241 238 240 239 243 239 242 239 243 240 244 240 242 240 245 241 244 241 246 241 242 242 244 242 245 242 244 243 247 243 246 243 246 244 248 244 249 244 247 245 248 245 246 245 249 246 250 246 251 246 248 247 250 247 249 247 251 248 252 248 253 248 250 249 252 249 251 249 253 250 254 250 255 250 252 251 254 251 253 251 256 252 257 252 258 252 256 253 259 253 257 253 260 254 256 254 258 254 260 255 258 255 261 255 262 256 260 256 261 256 262 257 261 257 263 257 264 258 262 258 263 258 264 259 263 259 265 259 266 260 264 260 265 260 266 261 265 261 267 261 268 262 266 262 267 262 268 263 267 263 269 263 270 264 268 264 269 264 270 265 269 265 271 265 272 266 270 266 271 266 272 267 271 267 273 267 274 268 272 268 273 268 274 269 273 269 275 269 276 270 275 270 277 270 276 271 274 271 275 271 278 272 277 272 279 272 278 273 276 273 277 273 280 274 279 274 281 274 280 275 278 275 279 275 282 276 281 276 283 276 282 277 280 277 281 277 284 278 283 278 285 278 284 279 282 279 283 279 286 280 285 280 287 280 286 281 284 281 285 281 288 282 287 282 289 282 288 283 286 283 287 283 290 284 289 284 291 284 290 285 288 285 289 285 292 286 291 286 293 286 292 287 290 287 291 287 294 288 293 288 295 288 294 289 292 289 293 289 296 290 295 290 297 290 296 291 294 291 295 291 298 292 297 292 299 292 298 293 296 293 297 293 300 294 299 294 301 294 300 295 298 295 299 295 302 296 301 296 303 296 302 297 300 297 301 297 304 298 303 298 305 298 304 299 302 299 303 299 306 300 304 300 305 300 306 301 305 301 307 301 308 302 306 302 307 302 308 303 307 303 309 303 310 304 308 304 309 304 310 305 311 305 312 305 310 306 309 306 311 306 313 307 310 307 312 307 314 308 313 308 312 308 314 309 312 309 315 309 316 310 315 310 317 310 316 311 314 311 315 311 318 312 316 312 317 312 318 313 317 313 319 313 320 314 321 314 322 314 320 315 319 315 321 315 320 316 318 316 319 316 323 317 320 317 322 317 324 318 322 318 325 318 324 319 323 319 322 319 326 320 325 320 327 320 326 321 324 321 325 321 328 322 327 322 329 322 328 323 326 323 327 323 330 324 331 324 332 324 330 325 329 325 331 325 330 326 328 326 329 326 333 327 330 327 332 327 334 328 332 328 335 328 334 329 333 329 332 329 336 330 335 330 337 330 336 331 334 331 335 331 338 332 337 332 339 332 338 333 336 333 337 333 340 334 339 334 341 334 340 335 338 335 339 335 342 336 341 336 343 336 342 337 340 337 341 337 344 338 343 338 345 338 344 339 342 339 343 339 346 340 347 340 348 340 346 341 345 341 347 341 346 342 344 342 345 342 349 343 346 343 348 343 350 344 348 344 351 344 350 345 349 345 348 345 352 346 351 346 353 346 352 347 350 347 351 347 354 348 355 348 356 348 357 349 356 349 358 349 357 350 354 350 356 350 359 351 358 351 360 351 359 352 357 352 358 352 361 353 360 353 362 353 361 354 359 354 360 354 363 355 362 355 364 355 363 356 361 356 362 356 365 357 364 357 366 357 365 358 363 358 364 358 367 359 366 359 368 359 367 360 365 360 366 360 369 361 368 361 370 361 369 362 367 362 368 362 371 363 370 363 372 363 371 364 369 364 370 364 373 365 372 365 374 365 373 366 371 366 372 366 375 367 374 367 376 367 375 368 373 368 374 368 377 369 376 369 378 369 377 370 375 370 376 370 379 371 377 371 378 371 379 372 378 372 380 372 381 373 379 373 380 373 381 374 380 374 382 374 383 375 382 375 384 375 383 376 381 376 382 376 385 377 384 377 386 377 385 378 383 378 384 378 387 379 386 379 388 379 387 380 385 380 386 380 389 381 388 381 390 381 389 382 387 382 388 382 391 383 390 383 392 383 391 384 389 384 390 384 393 385 392 385 394 385 393 386 391 386 392 386 395 387 394 387 396 387 395 388 393 388 394 388 397 389 396 389 398 389 397 390 395 390 396 390 399 391 398 391 400 391 399 392 397 392 398 392 401 393 399 393 400 393 259 394 400 394 257 394 259 395 401 395 400 395 402 396 96 396 94 396 94 397 92 397 402 397 402 398 98 398 96 398 92 399 90 399 402 399 402 400 100 400 98 400 402 401 88 401 403 401 90 402 88 402 402 402 402 403 102 403 100 403 88 404 86 404 403 404 402 405 104 405 102 405 86 406 84 406 403 406 402 407 106 407 104 407 84 408 82 408 403 408 402 409 108 409 106 409 82 410 80 410 403 410 402 411 111 411 108 411 80 412 78 412 403 412 402 413 112 413 111 413 78 414 76 414 403 414 402 415 115 415 112 415 76 416 74 416 403 416 402 417 116 417 115 417 74 418 72 418 403 418 402 419 119 419 116 419 72 420 70 420 403 420 402 421 120 421 119 421 70 422 68 422 403 422 68 423 66 423 403 423 66 424 64 424 403 424 64 425 62 425 403 425 62 426 61 426 403 426 402 427 404 427 120 427 126 428 404 428 405 428 124 429 404 429 126 429 122 430 404 430 124 430 120 431 404 431 122 431 404 432 406 432 405 432 61 433 58 433 403 433 404 434 407 434 406 434 58 435 56 435 403 435 404 436 408 436 407 436 56 437 54 437 403 437 404 438 409 438 408 438 54 439 52 439 403 439 404 440 410 440 409 440 52 441 50 441 403 441 404 442 411 442 410 442 50 443 48 443 403 443 404 444 412 444 411 444 48 445 46 445 403 445 404 446 413 446 412 446 46 447 44 447 403 447 404 448 414 448 413 448 44 449 42 449 403 449 404 450 415 450 414 450 42 451 40 451 403 451 404 452 416 452 415 452 40 453 38 453 403 453 404 454 417 454 416 454 38 455 36 455 403 455 404 456 418 456 417 456 36 457 34 457 403 457 404 458 419 458 418 458 404 459 420 459 419 459 404 460 421 460 420 460 404 461 422 461 421 461 404 462 423 462 422 462 404 463 424 463 423 463 404 464 425 464 424 464 404 465 426 465 425 465 404 466 427 466 426 466 404 467 428 467 427 467 404 468 429 468 428 468 404 469 430 469 429 469 404 470 431 470 430 470 404 471 432 471 431 471 404 472 433 472 432 472 404 473 434 473 433 473 404 474 435 474 434 474 404 475 436 475 435 475 404 476 437 476 436 476 404 477 438 477 437 477 403 478 439 478 354 478 354 479 439 479 355 479 32 480 439 480 34 480 30 481 439 481 32 481 28 482 439 482 30 482 34 483 439 483 403 483 439 484 224 484 222 484 222 485 220 485 439 485 28 486 226 486 439 486 439 487 226 487 224 487 220 488 218 488 439 488 26 489 228 489 28 489 28 490 228 490 226 490 218 491 216 491 439 491 24 492 230 492 26 492 26 493 230 493 228 493 216 494 214 494 439 494 24 495 232 495 230 495 22 496 232 496 24 496 214 497 212 497 439 497 22 498 234 498 232 498 20 499 234 499 22 499 212 500 210 500 439 500 20 501 236 501 234 501 18 502 236 502 20 502 210 503 208 503 439 503 18 504 239 504 236 504 16 505 239 505 18 505 208 506 206 506 439 506 16 507 240 507 239 507 14 508 240 508 16 508 206 509 204 509 439 509 12 510 243 510 14 510 10 511 243 511 12 511 14 512 243 512 240 512 204 513 202 513 439 513 10 514 244 514 243 514 202 515 200 515 439 515 10 516 247 516 244 516 8 517 247 517 10 517 200 518 198 518 439 518 6 519 248 519 8 519 8 520 248 520 247 520 198 521 196 521 439 521 6 522 250 522 248 522 4 523 250 523 6 523 196 524 194 524 439 524 1 525 252 525 4 525 4 526 252 526 250 526 194 527 192 527 439 527 1 528 254 528 252 528 3 529 254 529 1 529 192 530 190 530 439 530 440 531 441 531 3 531 3 532 441 532 254 532 190 533 189 533 439 533 442 534 443 534 440 534 440 535 443 535 441 535 189 536 186 536 439 536 444 537 445 537 442 537 442 538 445 538 443 538 186 539 184 539 439 539 446 540 447 540 444 540 444 541 447 541 445 541 184 542 182 542 439 542 448 543 449 543 446 543 446 544 449 544 447 544 182 545 180 545 439 545 448 546 450 546 449 546 451 547 450 547 448 547 452 548 450 548 451 548 180 549 178 549 439 549 452 550 453 550 450 550 178 551 176 551 439 551 454 552 455 552 452 552 456 553 455 553 454 553 452 554 455 554 453 554 439 555 174 555 457 555 176 556 174 556 439 556 456 557 458 557 455 557 174 558 172 558 457 558 459 559 460 559 456 559 456 560 460 560 458 560 172 561 170 561 457 561 459 562 461 562 460 562 462 563 461 563 459 563 463 564 461 564 462 564 170 565 168 565 457 565 463 566 464 566 461 566 168 567 166 567 457 567 463 568 465 568 464 568 466 569 465 569 463 569 467 570 465 570 466 570 166 571 164 571 457 571 468 572 469 572 467 572 467 573 469 573 465 573 164 574 162 574 457 574 468 575 470 575 469 575 162 576 160 576 457 576 471 577 472 577 468 577 468 578 472 578 470 578 160 579 158 579 457 579 471 580 473 580 472 580 474 581 473 581 471 581 158 582 156 582 457 582 475 583 476 583 474 583 474 584 476 584 473 584 156 585 154 585 457 585 477 586 478 586 475 586 479 587 478 587 477 587 475 588 478 588 476 588 154 589 152 589 457 589 479 590 480 590 478 590 152 591 150 591 457 591 479 592 481 592 480 592 482 593 481 593 479 593 483 594 481 594 482 594 150 595 148 595 457 595 483 596 484 596 481 596 148 597 146 597 457 597 485 598 486 598 483 598 487 599 486 599 485 599 483 600 486 600 484 600 146 601 144 601 457 601 487 602 488 602 486 602 144 603 142 603 457 603 142 604 140 604 457 604 140 605 138 605 457 605 138 606 136 606 457 606 136 607 134 607 457 607 134 608 489 608 457 608 490 609 489 609 131 609 491 610 489 610 490 610 492 611 489 611 491 611 493 612 489 612 492 612 494 613 489 613 493 613 495 614 489 614 494 614 496 615 489 615 495 615 497 616 489 616 496 616 498 617 489 617 497 617 499 618 489 618 498 618 500 619 489 619 499 619 501 620 489 620 500 620 502 621 489 621 501 621 503 622 489 622 502 622 504 623 489 623 503 623 505 624 489 624 504 624 506 625 489 625 505 625 507 626 489 626 506 626 508 627 489 627 507 627 509 628 489 628 508 628 510 629 489 629 509 629 511 630 489 630 510 630 132 631 489 631 134 631 512 632 489 632 511 632 129 633 489 633 132 633 513 634 489 634 512 634 131 635 489 635 129 635 514 636 489 636 513 636 515 637 489 637 514 637 516 638 489 638 515 638 517 639 489 639 516 639 518 640 489 640 517 640 519 641 489 641 518 641 520 642 489 642 519 642 521 643 489 643 520 643 522 644 489 644 521 644 523 645 489 645 522 645 524 646 489 646 523 646 525 647 489 647 524 647 404 648 489 648 438 648 438 649 489 649 526 649 526 650 489 650 527 650 527 651 489 651 528 651 528 652 489 652 529 652 529 653 489 653 487 653 487 654 489 654 525 654 487 655 525 655 530 655 487 656 530 656 531 656 487 657 531 657 488 657 95 658 97 658 532 658 532 659 93 659 95 659 97 660 99 660 532 660 532 661 91 661 93 661 99 662 101 662 532 662 533 663 89 663 532 663 532 664 89 664 91 664 101 665 103 665 532 665 533 666 87 666 89 666 103 667 105 667 532 667 533 668 85 668 87 668 105 669 107 669 532 669 533 670 83 670 85 670 107 671 109 671 532 671 533 672 81 672 83 672 109 673 110 673 532 673 533 674 79 674 81 674 110 675 113 675 532 675 533 676 77 676 79 676 113 677 114 677 532 677 533 678 75 678 77 678 114 679 117 679 532 679 533 680 73 680 75 680 117 681 118 681 532 681 533 682 71 682 73 682 118 683 121 683 532 683 533 684 69 684 71 684 533 685 67 685 69 685 533 686 65 686 67 686 533 687 63 687 65 687 533 688 60 688 63 688 121 689 534 689 532 689 535 690 534 690 127 690 127 691 534 691 125 691 125 692 534 692 123 692 123 693 534 693 121 693 535 694 536 694 534 694 533 695 59 695 60 695 536 696 537 696 534 696 533 697 57 697 59 697 537 698 538 698 534 698 533 699 55 699 57 699 538 700 539 700 534 700 533 701 53 701 55 701 539 702 540 702 534 702 533 703 51 703 53 703 540 704 541 704 534 704 533 705 49 705 51 705 541 706 542 706 534 706 533 707 47 707 49 707 542 708 543 708 534 708 533 709 45 709 47 709 543 710 544 710 534 710 533 711 43 711 45 711 544 712 545 712 534 712 533 713 41 713 43 713 545 714 546 714 534 714 533 715 39 715 41 715 546 716 547 716 534 716 533 717 37 717 39 717 547 718 548 718 534 718 533 719 35 719 37 719 548 720 549 720 534 720 549 721 550 721 534 721 550 722 551 722 534 722 551 723 552 723 534 723 552 724 553 724 534 724 553 725 554 725 534 725 554 726 555 726 534 726 555 727 556 727 534 727 556 728 557 728 534 728 557 729 558 729 534 729 558 730 559 730 534 730 559 731 560 731 534 731 560 732 561 732 534 732 561 733 562 733 534 733 562 734 563 734 534 734 563 735 564 735 534 735 564 736 565 736 534 736 565 737 566 737 534 737 566 738 567 738 534 738 567 739 568 739 534 739 568 740 569 740 534 740 569 741 570 741 534 741 571 742 572 742 573 742 573 743 572 743 533 743 35 744 572 744 33 744 33 745 572 745 31 745 31 746 572 746 29 746 533 747 572 747 35 747 223 748 225 748 572 748 572 749 221 749 223 749 572 750 227 750 29 750 225 751 227 751 572 751 572 752 219 752 221 752 227 753 229 753 29 753 29 754 229 754 27 754 572 755 217 755 219 755 229 756 231 756 27 756 27 757 231 757 25 757 25 758 231 758 23 758 572 759 215 759 217 759 231 760 233 760 23 760 572 761 213 761 215 761 233 762 235 762 23 762 23 763 235 763 21 763 572 764 211 764 213 764 235 765 237 765 21 765 21 766 237 766 19 766 572 767 209 767 211 767 19 768 238 768 17 768 237 769 238 769 19 769 572 770 207 770 209 770 17 771 241 771 15 771 238 772 241 772 17 772 572 773 205 773 207 773 241 774 242 774 15 774 15 775 242 775 13 775 572 776 203 776 205 776 242 777 245 777 13 777 13 778 245 778 11 778 572 779 201 779 203 779 11 780 246 780 9 780 245 781 246 781 11 781 572 782 199 782 201 782 246 783 249 783 9 783 9 784 249 784 7 784 7 785 249 785 5 785 572 786 197 786 199 786 249 787 251 787 5 787 572 788 195 788 197 788 251 789 253 789 5 789 5 790 253 790 2 790 2 791 253 791 0 791 572 792 193 792 195 792 253 793 255 793 0 793 572 794 191 794 193 794 0 795 574 795 575 795 255 796 574 796 0 796 572 797 188 797 191 797 575 798 576 798 577 798 574 799 576 799 575 799 572 800 187 800 188 800 577 801 578 801 579 801 579 802 578 802 580 802 576 803 578 803 577 803 572 804 185 804 187 804 578 805 581 805 580 805 572 806 183 806 185 806 581 807 582 807 580 807 580 808 582 808 583 808 572 809 181 809 183 809 583 810 584 810 585 810 582 811 584 811 583 811 572 812 179 812 181 812 584 813 586 813 585 813 585 814 586 814 587 814 572 815 177 815 179 815 587 816 588 816 589 816 586 817 588 817 587 817 590 818 175 818 572 818 572 819 175 819 177 819 588 820 591 820 589 820 589 821 591 821 592 821 590 822 173 822 175 822 592 823 593 823 594 823 591 824 593 824 592 824 590 825 171 825 173 825 593 826 595 826 594 826 594 827 595 827 596 827 590 828 169 828 171 828 595 829 597 829 596 829 596 830 597 830 598 830 598 831 597 831 599 831 590 832 167 832 169 832 597 833 600 833 599 833 590 834 165 834 167 834 600 835 601 835 599 835 599 836 601 836 602 836 590 837 163 837 165 837 601 838 603 838 602 838 602 839 603 839 604 839 604 840 603 840 605 840 590 841 161 841 163 841 603 842 606 842 605 842 590 843 159 843 161 843 606 844 607 844 605 844 605 845 607 845 608 845 590 846 157 846 159 846 608 847 609 847 610 847 607 848 609 848 608 848 590 849 155 849 157 849 609 850 611 850 610 850 610 851 611 851 612 851 612 852 611 852 613 852 590 853 153 853 155 853 611 854 614 854 613 854 613 855 614 855 615 855 590 856 151 856 153 856 614 857 616 857 615 857 590 858 149 858 151 858 615 859 617 859 618 859 616 860 617 860 615 860 590 861 147 861 149 861 617 862 619 862 618 862 618 863 619 863 620 863 590 864 145 864 147 864 620 865 621 865 622 865 619 866 621 866 620 866 590 867 143 867 145 867 622 868 623 868 624 868 621 869 623 869 622 869 590 870 141 870 143 870 623 871 625 871 624 871 624 872 625 872 626 872 590 873 139 873 141 873 590 874 137 874 139 874 590 875 135 875 137 875 590 876 627 876 135 876 128 877 627 877 628 877 628 878 627 878 629 878 629 879 627 879 630 879 630 880 627 880 631 880 631 881 627 881 632 881 632 882 627 882 633 882 633 883 627 883 634 883 634 884 627 884 635 884 635 885 627 885 636 885 636 886 627 886 637 886 637 887 627 887 638 887 638 888 627 888 639 888 639 889 627 889 640 889 640 890 627 890 641 890 641 891 627 891 642 891 642 892 627 892 643 892 643 893 627 893 644 893 644 894 627 894 645 894 645 895 627 895 646 895 646 896 627 896 647 896 647 897 627 897 648 897 648 898 627 898 649 898 135 899 627 899 133 899 649 900 627 900 650 900 133 901 627 901 130 901 650 902 627 902 651 902 130 903 627 903 128 903 651 904 627 904 652 904 652 905 627 905 653 905 653 906 627 906 654 906 654 907 627 907 655 907 655 908 627 908 656 908 656 909 627 909 657 909 657 910 627 910 658 910 658 911 627 911 659 911 659 912 627 912 660 912 660 913 627 913 661 913 661 914 627 914 662 914 662 915 627 915 663 915 663 916 627 916 625 916 626 917 627 917 570 917 570 918 627 918 534 918 625 919 627 919 626 919 664 920 352 920 353 920 664 921 353 921 665 921 666 922 665 922 667 922 666 923 664 923 665 923 573 924 667 924 571 924 573 925 666 925 667 925 627 926 590 926 457 926 627 927 457 927 489 927 402 928 534 928 404 928 532 929 534 929 402 929 404 930 627 930 489 930 534 931 627 931 404 931 255 932 254 932 574 932 574 933 441 933 576 933 254 934 441 934 574 934 576 935 443 935 578 935 441 936 443 936 576 936 578 937 445 937 581 937 443 938 445 938 578 938 581 939 447 939 582 939 445 940 447 940 581 940 582 941 449 941 584 941 447 942 449 942 582 942 584 943 450 943 586 943 449 944 450 944 584 944 586 945 453 945 588 945 450 946 453 946 586 946 588 947 455 947 591 947 453 948 455 948 588 948 591 949 458 949 593 949 455 950 458 950 591 950 593 951 460 951 595 951 458 952 460 952 593 952 595 953 461 953 597 953 460 954 461 954 595 954 597 955 464 955 600 955 461 956 464 956 597 956 600 957 465 957 601 957 464 958 465 958 600 958 601 959 469 959 603 959 465 960 469 960 601 960 603 961 470 961 606 961 469 962 470 962 603 962 606 963 472 963 607 963 470 964 472 964 606 964 472 965 473 965 607 965 607 966 473 966 609 966 473 967 476 967 609 967 609 968 476 968 611 968 476 969 478 969 611 969 611 970 478 970 614 970 614 971 480 971 616 971 478 972 480 972 614 972 616 973 481 973 617 973 480 974 481 974 616 974 617 975 484 975 619 975 481 976 484 976 617 976 619 977 486 977 621 977 484 978 486 978 619 978 621 979 488 979 623 979 486 980 488 980 621 980 623 981 531 981 625 981 488 982 531 982 623 982 625 983 530 983 663 983 531 984 530 984 625 984 530 985 525 985 663 985 663 986 525 986 662 986 525 987 524 987 662 987 662 988 524 988 661 988 524 989 523 989 661 989 661 990 523 990 660 990 523 991 522 991 660 991 660 992 522 992 659 992 522 993 521 993 659 993 659 994 521 994 658 994 521 995 520 995 658 995 658 996 520 996 657 996 520 997 519 997 657 997 657 998 519 998 656 998 519 999 518 999 656 999 656 1000 518 1000 655 1000 518 1001 517 1001 655 1001 655 1002 517 1002 654 1002 517 1003 516 1003 654 1003 654 1004 516 1004 653 1004 516 1005 515 1005 653 1005 653 1006 515 1006 652 1006 515 1007 514 1007 652 1007 514 1008 513 1008 652 1008 651 1009 513 1009 650 1009 652 1010 513 1010 651 1010 650 1011 512 1011 649 1011 513 1012 512 1012 650 1012 512 1013 511 1013 649 1013 511 1014 510 1014 649 1014 648 1015 510 1015 647 1015 649 1016 510 1016 648 1016 647 1017 509 1017 646 1017 510 1018 509 1018 647 1018 509 1019 508 1019 646 1019 646 1020 508 1020 645 1020 508 1021 507 1021 645 1021 507 1022 506 1022 645 1022 645 1023 506 1023 644 1023 506 1024 505 1024 644 1024 644 1025 505 1025 643 1025 505 1026 504 1026 643 1026 642 1027 504 1027 641 1027 643 1028 504 1028 642 1028 504 1029 503 1029 641 1029 503 1030 502 1030 641 1030 640 1031 502 1031 639 1031 641 1032 502 1032 640 1032 502 1033 501 1033 639 1033 639 1034 501 1034 638 1034 501 1035 500 1035 638 1035 500 1036 499 1036 638 1036 638 1037 499 1037 637 1037 499 1038 498 1038 637 1038 637 1039 498 1039 636 1039 498 1040 497 1040 636 1040 636 1041 497 1041 635 1041 497 1042 496 1042 635 1042 635 1043 496 1043 634 1043 496 1044 495 1044 634 1044 634 1045 495 1045 633 1045 495 1046 494 1046 633 1046 633 1047 494 1047 632 1047 632 1048 493 1048 631 1048 494 1049 493 1049 632 1049 630 1050 492 1050 629 1050 631 1051 492 1051 630 1051 493 1052 492 1052 631 1052 492 1053 491 1053 629 1053 629 1054 491 1054 628 1054 491 1055 490 1055 628 1055 628 1056 131 1056 128 1056 490 1057 131 1057 628 1057 127 1058 126 1058 535 1058 535 1059 405 1059 536 1059 126 1060 405 1060 535 1060 536 1061 406 1061 537 1061 405 1062 406 1062 536 1062 537 1063 407 1063 538 1063 406 1064 407 1064 537 1064 538 1065 408 1065 539 1065 407 1066 408 1066 538 1066 539 1067 409 1067 540 1067 408 1068 409 1068 539 1068 540 1069 410 1069 541 1069 409 1070 410 1070 540 1070 541 1071 411 1071 542 1071 410 1072 411 1072 541 1072 542 1073 412 1073 543 1073 411 1074 412 1074 542 1074 543 1075 413 1075 544 1075 412 1076 413 1076 543 1076 544 1077 414 1077 545 1077 413 1078 414 1078 544 1078 545 1079 415 1079 546 1079 414 1080 415 1080 545 1080 546 1081 416 1081 547 1081 415 1082 416 1082 546 1082 547 1083 417 1083 548 1083 416 1084 417 1084 547 1084 548 1085 418 1085 549 1085 417 1086 418 1086 548 1086 549 1087 419 1087 550 1087 418 1088 419 1088 549 1088 550 1089 420 1089 551 1089 419 1090 420 1090 550 1090 420 1091 421 1091 551 1091 551 1092 421 1092 552 1092 421 1093 422 1093 552 1093 552 1094 422 1094 553 1094 422 1095 423 1095 553 1095 553 1096 423 1096 554 1096 554 1097 424 1097 555 1097 423 1098 424 1098 554 1098 555 1099 425 1099 556 1099 424 1100 425 1100 555 1100 556 1101 426 1101 557 1101 425 1102 426 1102 556 1102 557 1103 427 1103 558 1103 426 1104 427 1104 557 1104 558 1105 428 1105 559 1105 427 1106 428 1106 558 1106 559 1107 429 1107 560 1107 428 1108 429 1108 559 1108 560 1109 430 1109 561 1109 429 1110 430 1110 560 1110 430 1111 431 1111 561 1111 561 1112 431 1112 562 1112 431 1113 432 1113 562 1113 562 1114 432 1114 563 1114 432 1115 433 1115 563 1115 563 1116 433 1116 564 1116 433 1117 434 1117 564 1117 564 1118 434 1118 565 1118 434 1119 435 1119 565 1119 565 1120 435 1120 566 1120 435 1121 436 1121 566 1121 566 1122 436 1122 567 1122 436 1123 437 1123 567 1123 567 1124 437 1124 568 1124 437 1125 438 1125 568 1125 568 1126 438 1126 569 1126 438 1127 526 1127 569 1127 569 1128 526 1128 570 1128 526 1129 527 1129 570 1129 570 1130 527 1130 626 1130 527 1131 528 1131 626 1131 626 1132 528 1132 624 1132 528 1133 529 1133 624 1133 529 1134 487 1134 624 1134 622 1135 487 1135 620 1135 624 1136 487 1136 622 1136 620 1137 485 1137 618 1137 487 1138 485 1138 620 1138 485 1139 483 1139 618 1139 483 1140 482 1140 618 1140 615 1141 482 1141 613 1141 618 1142 482 1142 615 1142 613 1143 479 1143 612 1143 482 1144 479 1144 613 1144 479 1145 477 1145 612 1145 612 1146 477 1146 610 1146 477 1147 475 1147 610 1147 475 1148 474 1148 610 1148 610 1149 474 1149 608 1149 474 1150 471 1150 608 1150 608 1151 471 1151 605 1151 471 1152 468 1152 605 1152 604 1153 468 1153 602 1153 605 1154 468 1154 604 1154 468 1155 467 1155 602 1155 467 1156 466 1156 602 1156 599 1157 466 1157 598 1157 602 1158 466 1158 599 1158 466 1159 463 1159 598 1159 598 1160 463 1160 596 1160 463 1161 462 1161 596 1161 462 1162 459 1162 596 1162 596 1163 459 1163 594 1163 459 1164 456 1164 594 1164 594 1165 456 1165 592 1165 456 1166 454 1166 592 1166 592 1167 454 1167 589 1167 454 1168 452 1168 589 1168 589 1169 452 1169 587 1169 452 1170 451 1170 587 1170 587 1171 451 1171 585 1171 451 1172 448 1172 585 1172 585 1173 448 1173 583 1173 583 1174 446 1174 580 1174 448 1175 446 1175 583 1175 579 1176 444 1176 577 1176 580 1177 444 1177 579 1177 446 1178 444 1178 580 1178 444 1179 442 1179 577 1179 577 1180 442 1180 575 1180 442 1181 440 1181 575 1181 575 1182 3 1182 0 1182 440 1183 3 1183 575 1183 573 1184 533 1184 403 1184 354 1185 573 1185 403 1185 349 1186 350 1186 352 1186 349 1187 352 1187 664 1187 349 1188 664 1188 666 1188 361 1189 354 1189 357 1189 361 1190 357 1190 359 1190 365 1191 361 1191 363 1191 342 1192 344 1192 346 1192 369 1193 361 1193 365 1193 369 1194 365 1194 367 1194 373 1195 361 1195 369 1195 373 1196 369 1196 371 1196 334 1197 336 1197 338 1197 334 1198 338 1198 340 1198 377 1199 373 1199 375 1199 377 1200 361 1200 373 1200 330 1201 333 1201 334 1201 381 1202 377 1202 379 1202 381 1203 361 1203 377 1203 381 1204 666 1204 573 1204 381 1205 573 1205 354 1205 381 1206 354 1206 361 1206 326 1207 328 1207 330 1207 324 1208 326 1208 330 1208 387 1209 381 1209 383 1209 387 1210 383 1210 385 1210 320 1211 323 1211 324 1211 393 1212 387 1212 389 1212 393 1213 389 1213 391 1213 314 1214 316 1214 318 1214 314 1215 318 1215 320 1215 395 1216 387 1216 393 1216 313 1217 320 1217 324 1217 313 1218 314 1218 320 1218 397 1219 381 1219 387 1219 397 1220 666 1220 381 1220 397 1221 387 1221 395 1221 308 1222 310 1222 313 1222 259 1223 399 1223 401 1223 304 1224 306 1224 308 1224 256 1225 397 1225 399 1225 256 1226 399 1226 259 1226 300 1227 302 1227 304 1227 262 1228 256 1228 260 1228 262 1229 397 1229 256 1229 296 1230 298 1230 300 1230 296 1231 300 1231 304 1231 296 1232 304 1232 308 1232 266 1233 349 1233 666 1233 266 1234 262 1234 264 1234 266 1235 346 1235 349 1235 266 1236 666 1236 397 1236 266 1237 397 1237 262 1237 292 1238 294 1238 296 1238 270 1239 266 1239 268 1239 290 1240 292 1240 296 1240 274 1241 266 1241 270 1241 274 1242 270 1242 272 1242 286 1243 296 1243 308 1243 286 1244 290 1244 296 1244 286 1245 288 1245 290 1245 286 1246 308 1246 313 1246 278 1247 266 1247 274 1247 278 1248 342 1248 346 1248 278 1249 274 1249 276 1249 278 1250 346 1250 266 1250 280 1251 286 1251 313 1251 280 1252 342 1252 278 1252 280 1253 334 1253 340 1253 280 1254 330 1254 334 1254 280 1255 313 1255 324 1255 280 1256 282 1256 284 1256 280 1257 284 1257 286 1257 280 1258 324 1258 330 1258 280 1259 340 1259 342 1259 533 1260 532 1260 402 1260 533 1261 402 1261 403 1261 382 1262 380 1262 378 1262 384 1263 378 1263 376 1263 384 1264 382 1264 378 1264 364 1265 372 1265 370 1265 364 1266 370 1266 368 1266 364 1267 368 1267 366 1267 394 1268 392 1268 390 1268 400 1269 398 1269 396 1269 355 1270 376 1270 374 1270 355 1271 374 1271 372 1271 355 1272 364 1272 362 1272 355 1273 362 1273 360 1273 355 1274 360 1274 358 1274 355 1275 358 1275 356 1275 355 1276 372 1276 364 1276 271 1277 269 1277 267 1277 277 1278 275 1278 273 1278 277 1279 273 1279 271 1279 281 1280 279 1280 277 1280 285 1281 283 1281 281 1281 285 1282 281 1282 277 1282 289 1283 287 1283 285 1283 301 1284 299 1284 297 1284 301 1285 297 1285 295 1285 301 1286 295 1286 293 1286 301 1287 293 1287 291 1287 571 1288 355 1288 439 1288 667 1289 376 1289 355 1289 667 1290 394 1290 390 1290 667 1291 400 1291 396 1291 667 1292 396 1292 394 1292 667 1293 390 1293 388 1293 667 1294 388 1294 386 1294 667 1295 386 1295 384 1295 667 1296 355 1296 571 1296 667 1297 384 1297 376 1297 305 1298 303 1298 301 1298 305 1299 301 1299 291 1299 351 1300 667 1300 665 1300 351 1301 665 1301 353 1301 348 1302 400 1302 667 1302 348 1303 261 1303 258 1303 348 1304 258 1304 257 1304 348 1305 257 1305 400 1305 348 1306 667 1306 351 1306 309 1307 307 1307 305 1307 312 1308 311 1308 309 1308 572 1309 571 1309 439 1309 343 1310 348 1310 347 1310 343 1311 347 1311 345 1311 343 1312 267 1312 265 1312 343 1313 265 1313 263 1313 343 1314 263 1314 261 1314 343 1315 261 1315 348 1315 315 1316 312 1316 309 1316 315 1317 309 1317 305 1317 319 1318 317 1318 315 1318 337 1319 343 1319 341 1319 337 1320 341 1320 339 1320 337 1321 271 1321 267 1321 337 1322 267 1322 343 1322 322 1323 315 1323 305 1323 322 1324 321 1324 319 1324 322 1325 305 1325 291 1325 322 1326 319 1326 315 1326 331 1327 337 1327 335 1327 331 1328 335 1328 332 1328 329 1329 327 1329 325 1329 329 1330 325 1330 322 1330 329 1331 289 1331 285 1331 329 1332 337 1332 331 1332 329 1333 322 1333 291 1333 329 1334 291 1334 289 1334 329 1335 277 1335 271 1335 329 1336 285 1336 277 1336 329 1337 271 1337 337 1337 590 1338 572 1338 439 1338 590 1339 439 1339 457 1339</p>
        </triangles>
      </mesh>
    </geometry>
  </library_geometries>
  <library_materials>
    <material id="mat_Hinge_A_shape" name="Hinge_A_shape">
      <instance_effect url="#effect_Hinge_A_shape"/>
    </material>
  </library_materials>
  <library_visual_scenes>
    <visual_scene id="myscene">
      <node id="node0" name="node0">
        <instance_geometry url="#geometry0">
          <bind_material>
            <technique_common>
              <instance_material symbol="ref_Hinge_A_shape" target="#mat_Hinge_A_shape"/>
            </technique_common>
          </bind_material>
        </instance_geometry>
      </node>
    </visual_scene>
  </library_visual_scenes>
  <scene>
    <instance_visual_scene url="#myscene"/>
  </scene>
</COLLADA>
