<COLLADA xmlns="http://www.collada.org/2005/11/COLLADASchema" version="1.4.1">
  <asset>
    <contributor/>
    <created>2026-07-22T21:26:30.437288</created>
    <modified>2026-07-22T21:26:30.437295</modified>
    <unit name="meter" meter="1.0"/>
    <up_axis>Z_UP</up_axis>
  </asset>
  <library_effects>
    <effect id="effect_Main_body_shape" name="effect_Main_body_shape">
      <profile_COMMON>
        <technique sid="common">
          <phong>
            <emission>
              <color>0.0 0.0 0.0 1.0</color>
            </emission>
            <ambient>
              <color>0.0 0.0 0.0 1.0</color>
            </ambient>
            <diffuse>
              <color>0.800000011920929 0.800000011920929 0.9019607901573181 1.0</color>
            </diffuse>
            <specular>
              <color>1 1 1 1.0</color>
            </specular>
            <shininess>
              <float>0.0</float>
            </shininess>
            <reflective>
              <color>0.0 0.0 0.0 1.0</color>
            </reflective>
            <reflectivity>
              <float>0.0</float>
            </reflectivity>
            <transparent>
              <color>0.0 0.0 0.0 1.0</color>
            </transparent>
            <transparency>
              <float>1.0</float>
            </transparency>
          </phong>
        </technique>
        <extra>
          <technique profile="GOOGLEEARTH">
            <double_sided>0</double_sided>
          </technique>
        </extra>
      </profile_COMMON>
    </effect>
  </library_effects>
  <library_geometries>
    <geometry id="geometry0" name="Main_body_shape">
      <mesh>
        <source id="cubeverts-array0">
          <float_array count="816" id="cubeverts-array0-array">-0.08242613 0.5128248 0.05398755 -0.08242613 0.5148248 -0.09124734 -0.08242613 0.5128248 -0.09124734 -0.08242613 0.5148248 0.05398755 0.08137439 0.5148248 0.05398755 0.08137439 0.5128248 0.05398755 0.08137439 0.5148248 -0.09124734 0.08137439 0.5128248 -0.09124734 0.06649577 0.5148248 -0.09124734 0.06649577 0.5128248 -0.09124734 0.05650781 0.5128248 -0.08173802 0.05649577 0.5128248 -0.08124734 0.05649577 0.5148248 -0.08124734 0.05650781 0.5148248 -0.08173802 0.05654392 0.5128248 -0.08222752 0.05654392 0.5148248 -0.08222752 0.056604 0.5128248 -0.08271465 0.056604 0.5148248 -0.08271465 0.05668792 0.5128248 -0.08319825 0.05668792 0.5148248 -0.08319825 0.05679546 0.5128248 -0.08367715 0.05679546 0.5148248 -0.08367715 0.05692636 0.5128248 -0.08415019 0.05692636 0.5148248 -0.08415019 0.05708033 0.5128248 -0.08461624 0.05708033 0.5148248 -0.08461624 0.05725697 0.5128248 -0.08507418 0.05725697 0.5148248 -0.08507418 0.05745588 0.5128248 -0.0855229 0.05745588 0.5148248 -0.0855229 0.05767656 0.5128248 -0.08596131 0.05767656 0.5148248 -0.08596131 0.05791848 0.5128248 -0.08638837 0.05791848 0.5148248 -0.08638837 0.05818107 0.5128248 -0.08680305 0.05818107 0.5148248 -0.08680305 0.05846369 0.5128248 -0.08720434 0.05846369 0.5148248 -0.08720434 0.05876566 0.5128248 -0.08759128 0.05876566 0.5148248 -0.08759128 0.05908626 0.5128248 -0.08796294 0.05908626 0.5148248 -0.08796294 0.0594247 0.5128248 -0.08831841 0.0594247 0.5148248 -0.08831841 0.05978018 0.5128248 -0.08865685 0.05978018 0.5148248 -0.08865685 0.06015184 0.5128248 -0.08897745 0.06015184 0.5148248 -0.08897745 0.06053878 0.5128248 -0.08927942 0.06053878 0.5148248 -0.08927942 0.06094006 0.5148248 -0.08956204 0.06094006 0.5128248 -0.08956204 0.06135474 0.5128248 -0.08982463 0.06135474 0.5148248 -0.08982463 0.0617818 0.5128248 -0.09006656 0.0617818 0.5148248 -0.09006656 0.06222021 0.5128248 -0.09028724 0.06222021 0.5148248 -0.09028724 0.06266893 0.5128248 -0.09048614 0.06266893 0.5148248 -0.09048614 0.06312687 0.5148248 -0.09066278 0.06312687 0.5128248 -0.09066278 0.06359292 0.5128248 -0.09081675 0.06359292 0.5148248 -0.09081675 0.06406596 0.5128248 -0.09094765 0.06406596 0.5148248 -0.09094765 0.06454486 0.5128248 -0.0910552 0.06454486 0.5148248 -0.0910552 0.06502847 0.5148248 -0.09113911 0.06502847 0.5128248 -0.09113911 0.06551559 0.5128248 -0.09119919 0.06551559 0.5148248 -0.09119919 0.06600509 0.5148248 -0.0912353 0.06600509 0.5128248 -0.0912353 0.05649577 0.5148248 -0.07918854 0.05649577 0.5128248 -0.07918854 0.05648372 0.5128248 -0.07869786 0.05648372 0.5148248 -0.07869786 0.05644762 0.5128248 -0.07820837 0.05644762 0.5148248 -0.07820837 0.05638753 0.5128248 -0.07772124 0.05638753 0.5148248 -0.07772124 0.05630362 0.5128248 -0.07723763 0.05630362 0.5148248 -0.07723763 0.05619608 0.5128248 -0.07675874 0.05619608 0.5148248 -0.07675874 0.05606517 0.5128248 -0.07628569 0.05606517 0.5148248 -0.07628569 0.05591121 0.5128248 -0.07581964 0.05591121 0.5148248 -0.07581964 0.05573456 0.5128248 -0.0753617 0.05573456 0.5148248 -0.0753617 0.05553566 0.5128248 -0.07491299 0.05553566 0.5148248 -0.07491299 0.05531498 0.5128248 -0.07447457 0.05531498 0.5148248 -0.07447457 0.05507306 0.5128248 -0.07404751 0.05507306 0.5148248 -0.07404751 0.05481046 0.5128248 -0.07363284 0.05481046 0.5148248 -0.07363284 0.05452784 0.5128248 -0.07323154 0.05452784 0.5148248 -0.07323154 0.05422587 0.5148248 -0.0728446 0.05422587 0.5128248 -0.0728446 0.05390528 0.5148248 -0.07247295 0.05390528 0.5128248 -0.07247295 0.05356684 0.5128248 -0.07211747 0.05356684 0.5148248 -0.07211747 0.05321136 0.5148248 -0.07177903 0.05321136 0.5128248 -0.07177903 0.0528397 0.5148248 -0.07145844 0.0528397 0.5128248 -0.07145844 0.05245276 0.5148248 -0.07115646 0.05245276 0.5128248 -0.07115646 0.05205147 0.5148248 -0.07087384 0.05205147 0.5128248 -0.07087384 0.0516368 0.5128248 -0.07061125 0.0516368 0.5148248 -0.07061125 0.05120974 0.5128248 -0.07036932 0.05120974 0.5148248 -0.07036932 0.05077132 0.5128248 -0.07014864 0.05077132 0.5148248 -0.07014864 0.0503226 0.5128248 -0.06994975 0.0503226 0.5148248 -0.06994975 0.04986467 0.5128248 -0.06977309 0.04986467 0.5148248 -0.06977309 0.04939861 0.5148248 -0.06961913 0.04939861 0.5128248 -0.06961913 0.04892557 0.5148248 -0.06948823 0.04892557 0.5128248 -0.06948823 0.04844667 0.5148248 -0.06938068 0.04844667 0.5128248 -0.06938068 0.04796307 0.5148248 -0.06929678 0.04796307 0.5128248 -0.06929678 0.04747594 0.5128248 -0.06923669 0.04747594 0.5148248 -0.06923669 0.04698644 0.5128248 -0.06920058 0.04698644 0.5148248 -0.06920058 0.04649577 0.5128248 -0.06918854 0.04649577 0.5148248 -0.06918854 -0.04754751 0.5148248 -0.06918854 -0.04754751 0.5128248 -0.06918854 -0.04803819 0.5128248 -0.06920058 -0.04803819 0.5148248 -0.06920058 -0.04852768 0.5128248 -0.06923669 -0.04852768 0.5148248 -0.06923669 -0.04901482 0.5128248 -0.06929678 -0.04901482 0.5148248 -0.06929678 -0.04949842 0.5128248 -0.06938068 -0.04949842 0.5148248 -0.06938068 -0.04997731 0.5128248 -0.06948823 -0.04997731 0.5148248 -0.06948823 -0.05045036 0.5128248 -0.06961913 -0.05045036 0.5148248 -0.06961913 -0.05091641 0.5128248 -0.06977309 -0.05091641 0.5148248 -0.06977309 -0.05137435 0.5128248 -0.06994975 -0.05137435 0.5148248 -0.06994975 -0.05182306 0.5128248 -0.07014864 -0.05182306 0.5148248 -0.07014864 -0.05226148 0.5128248 -0.07036932 -0.05226148 0.5148248 -0.07036932 -0.05268854 0.5128248 -0.07061125 -0.05268854 0.5148248 -0.07061125 -0.05310321 0.5128248 -0.07087384 -0.05310321 0.5148248 -0.07087384 -0.05350451 0.5128248 -0.07115646 -0.05350451 0.5148248 -0.07115646 -0.05389145 0.5128248 -0.07145844 -0.05389145 0.5148248 -0.07145844 -0.0542631 0.5128248 -0.07177903 -0.0542631 0.5148248 -0.07177903 -0.05461858 0.5128248 -0.07211747 -0.05461858 0.5148248 -0.07211747 -0.05495702 0.5128248 -0.07247295 -0.05495702 0.5148248 -0.07247295 -0.05527762 0.5128248 -0.0728446 -0.05527762 0.5148248 -0.0728446 -0.05557959 0.5128248 -0.07323154 -0.05557959 0.5148248 -0.07323154 -0.05586221 0.5128248 -0.07363284 -0.05586221 0.5148248 -0.07363284 -0.0561248 0.5128248 -0.07404751 -0.0561248 0.5148248 -0.07404751 -0.05636673 0.5148248 -0.07447457 -0.05636673 0.5128248 -0.07447457 -0.05658741 0.5148248 -0.07491299 -0.05658741 0.5128248 -0.07491299 -0.05678631 0.5148248 -0.0753617 -0.05678631 0.5128248 -0.0753617 -0.05696295 0.5148248 -0.07581964 -0.05696295 0.5128248 -0.07581964 -0.05711692 0.5148248 -0.07628569 -0.05711692 0.5128248 -0.07628569 -0.05724783 0.5148248 -0.07675874 -0.05724783 0.5128248 -0.07675874 -0.05735537 0.5148248 -0.07723763 -0.05735537 0.5128248 -0.07723763 -0.05743928 0.5148248 -0.07772124 -0.05743928 0.5128248 -0.07772124 -0.05749936 0.5148248 -0.07820837 -0.05749936 0.5128248 -0.07820837 -0.05753547 0.5148248 -0.07869786 -0.05753547 0.5128248 -0.07869786 -0.05754751 0.5128248 -0.07918854 -0.05754751 0.5148248 -0.07918854 -0.05754751 0.5148248 -0.08124734 -0.05754751 0.5128248 -0.08124734 -0.06705684 0.5128248 -0.0912353 -0.06754752 0.5128248 -0.09124734 -0.06754752 0.5148248 -0.09124734 -0.06705684 0.5148248 -0.0912353 -0.06656734 0.5128248 -0.09119919 -0.06656734 0.5148248 -0.09119919 -0.06608021 0.5128248 -0.09113911 -0.06608021 0.5148248 -0.09113911 -0.06559661 0.5128248 -0.0910552 -0.06559661 0.5148248 -0.0910552 -0.06511771 0.5128248 -0.09094765 -0.06511771 0.5148248 -0.09094765 -0.06464467 0.5128248 -0.09081675 -0.06464467 0.5148248 -0.09081675 -0.06417861 0.5128248 -0.09066278 -0.06417861 0.5148248 -0.09066278 -0.06372068 0.5128248 -0.09048614 -0.06372068 0.5148248 -0.09048614 -0.06327196 0.5128248 -0.09028724 -0.06327196 0.5148248 -0.09028724 -0.06283355 0.5128248 -0.09006656 -0.06283355 0.5148248 -0.09006656 -0.06240649 0.5128248 -0.08982463 -0.06240649 0.5148248 -0.08982463 -0.06199181 0.5128248 -0.08956204 -0.06199181 0.5148248 -0.08956204 -0.06159052 0.5128248 -0.08927942 -0.06159052 0.5148248 -0.08927942 -0.06120358 0.5128248 -0.08897745 -0.06120358 0.5148248 -0.08897745 -0.06083192 0.5128248 -0.08865685 -0.06083192 0.5148248 -0.08865685 -0.06047644 0.5128248 -0.08831841 -0.06047644 0.5148248 -0.08831841 -0.060138 0.5128248 -0.08796294 -0.060138 0.5148248 -0.08796294 -0.05981741 0.5128248 -0.08759128 -0.05981741 0.5148248 -0.08759128 -0.05951544 0.5128248 -0.08720434 -0.05951544 0.5148248 -0.08720434 -0.05923281 0.5148248 -0.08680305 -0.05923281 0.5128248 -0.08680305 -0.05897023 0.5128248 -0.08638837 -0.05897023 0.5148248 -0.08638837 -0.0587283 0.5128248 -0.08596131 -0.0587283 0.5148248 -0.08596131 -0.05850762 0.5128248 -0.0855229 -0.05850762 0.5148248 -0.0855229 -0.05830872 0.5128248 -0.08507418 -0.05830872 0.5148248 -0.08507418 -0.05813207 0.5148248 -0.08461624 -0.05813207 0.5128248 -0.08461624 -0.05797811 0.5128248 -0.08415019 -0.05797811 0.5148248 -0.08415019 -0.0578472 0.5128248 -0.08367715 -0.0578472 0.5148248 -0.08367715 -0.05773966 0.5128248 -0.08319825 -0.05773966 0.5148248 -0.08319825 -0.05765575 0.5148248 -0.08271465 -0.05765575 0.5128248 -0.08271465 -0.05759566 0.5128248 -0.08222752 -0.05759566 0.5148248 -0.08222752 -0.05755956 0.5148248 -0.08173802 -0.05755956 0.5128248 -0.08173802</float_array>
          <technique_common>
            <accessor count="272" source="#cubeverts-array0-array" stride="3">
              <param type="float" name="X"/>
              <param type="float" name="Y"/>
              <param type="float" name="Z"/>
            </accessor>
          </technique_common>
        </source>
        <source id="cubenormals-array0">
          <float_array count="1620" id="cubenormals-array0-array">-1 0 0 -1 -0 -0 0 0 1 0 0 1 1 0 0 1 0 -0 0 0 -1 0 0 -1 -0.9996989 0 -0.02453626 -0.9996989 0 -0.02453626 -0.9972906 0 -0.07356221 -0.9972906 0 -0.07356221 -0.9924786 0 -0.122418 -0.9924786 0 -0.122418 -0.9852781 0 -0.1709591 -0.9852781 0 -0.1709591 -0.975702 0 -0.2191016 -0.975702 0 -0.2191016 -0.9637762 0 -0.2667122 -0.9637762 0 -0.2667122 -0.9495286 0 -0.3136805 -0.9495286 0 -0.3136805 -0.9329924 0 -0.359896 -0.9329924 0 -0.359896 -0.9142095 0 -0.4052419 -0.9142095 0 -0.4052419 -0.8932239 0 -0.449612 -0.8932239 0 -0.449612 -0.8700904 0 -0.4928922 -0.8700904 0 -0.4928922 -0.8448502 0 -0.5350029 -0.8448502 0 -0.5350029 -0.8175862 0 -0.5758062 -0.8175862 0 -0.5758062 -0.788346 0 -0.6152322 -0.788346 0 -0.6152322 -0.7572088 0 -0.653173 -0.7572088 0 -0.653173 -0.724245 0 -0.6895428 -0.724245 0 -0.6895428 -0.6895387 0 -0.7242488 -0.6895387 0 -0.7242488 -0.653173 0 -0.7572088 -0.653173 0 -0.7572088 -0.6152322 0 -0.788346 -0.6152322 0 -0.788346 -0.5758151 0 -0.81758 -0.5758151 0 -0.81758 -0.5349938 0 -0.844856 -0.5349938 0 -0.844856 -0.4929014 0 -0.8700852 -0.4929014 0 -0.8700852 -0.449612 0 -0.8932239 -0.449612 0 -0.8932239 -0.4052325 0 -0.9142137 -0.3598919 0 -0.932994 -0.4052325 0 -0.9142137 -0.3598919 0 -0.932994 -0.3136922 0 -0.9495247 -0.3136922 0 -0.9495247 -0.2667069 0 -0.9637777 -0.2667069 0 -0.9637777 -0.219109 0 -0.9757004 -0.1709515 0 -0.9852794 -0.219109 0 -0.9757004 -0.1709515 0 -0.9852794 -0.1224103 0 -0.9924796 -0.07356994 0 -0.9972901 -0.1224103 0 -0.9924796 -0.07356994 0 -0.9972901 -0.02454402 0 -0.9996988 -0.02454402 0 -0.9996988 -1 -0 0 -1 0 -0 -0.9996988 0 -0.02454402 -0.9996988 0 -0.02454402 -0.9972906 0 -0.07356221 -0.9972906 0 -0.07356221 -0.9924786 0 -0.122418 -0.9924786 0 -0.122418 -0.9852781 0 -0.1709591 -0.9852781 0 -0.1709591 -0.975702 0 -0.2191016 -0.975702 0 -0.2191016 -0.9637762 0 -0.2667122 -0.9637762 0 -0.2667122 -0.9495286 0 -0.3136805 -0.9495286 0 -0.3136805 -0.9329924 0 -0.359896 -0.9329924 0 -0.359896 -0.9142095 0 -0.4052419 -0.9142095 0 -0.4052419 -0.8932239 0 -0.449612 -0.8932239 0 -0.449612 -0.8700904 0 -0.4928922 -0.8700904 0 -0.4928922 -0.8448502 0 -0.5350029 -0.8448502 0 -0.5350029 -0.8175862 0 -0.5758062 -0.8175862 0 -0.5758062 -0.7572088 -0 -0.653173 -0.788346 0 -0.6152322 -0.788346 0 -0.6152322 -0.7572088 0 -0.653173 -0.7242488 0 -0.6895387 -0.7242488 0 -0.6895387 -0.653173 -0 -0.7572088 -0.6895348 0 -0.7242525 -0.6895348 0 -0.7242525 -0.653173 0 -0.7572088 -0.5758151 -0 -0.81758 -0.6152322 0 -0.788346 -0.6152322 0 -0.788346 -0.5758151 0 -0.81758 -0.5349938 0 -0.844856 -0.5349938 0 -0.844856 -0.4929014 0 -0.8700852 -0.4929014 0 -0.8700852 -0.449612 0 -0.8932239 -0.449612 0 -0.8932239 -0.4052325 0 -0.9142137 -0.4052325 0 -0.9142137 -0.3599054 0 -0.9329888 -0.3599054 0 -0.9329888 -0.2667049 -0 -0.9637782 -0.3136782 0 -0.9495293 -0.3136782 0 -0.9495293 -0.2667049 0 -0.9637782 -0.1709541 -0 -0.985279 -0.219109 0 -0.9757004 -0.219109 0 -0.9757004 -0.1709541 0 -0.985279 -0.1224094 0 -0.9924797 -0.1224094 0 -0.9924797 -0.07356937 0 -0.9972901 -0.07356937 0 -0.9972901 -0.02454421 0 -0.9996988 -0.02454421 0 -0.9996988 0 0 -1 0 0 -1 0.02454402 0 -0.9996988 0.02454402 0 -0.9996988 0.07356994 0 -0.9972901 0.07356994 0 -0.9972901 0.1224094 0 -0.9924797 0.1224094 0 -0.9924797 0.1709528 0 -0.9852793 0.1709528 0 -0.9852793 0.219109 0 -0.9757004 0.219109 0 -0.9757004 0.2667049 0 -0.9637782 0.2667049 0 -0.9637782 0.3136782 0 -0.9495293 0.3136782 0 -0.9495293 0.3599054 0 -0.9329888 0.3599054 0 -0.9329888 0.4052354 0 -0.9142124 0.4052354 0 -0.9142124 0.449612 0 -0.8932239 0.449612 0 -0.8932239 0.4928981 0 -0.8700871 0.4928981 0 -0.8700871 0.5349973 0 -0.8448537 0.5349973 0 -0.8448537 0.5758114 0 -0.8175826 0.5758114 0 -0.8175826 0.6152322 0 -0.788346 0.6152322 0 -0.788346 0.653173 0 -0.7572088 0.653173 0 -0.7572088 0.6895387 0 -0.7242488 0.6895387 0 -0.7242488 0.724245 0 -0.6895428 0.724245 0 -0.6895428 0.7572088 0 -0.653173 0.7572088 0 -0.653173 0.7883497 0 -0.6152274 0.7883497 0 -0.6152274 0.8175826 0 -0.5758114 0.8175826 0 -0.5758114 0.8448537 0 -0.5349973 0.8448537 0 -0.5349973 0.8932239 0 -0.449612 0.8700871 0 -0.4928981 0.8700871 0 -0.4928981 0.8932239 0 -0.449612 0.932995 0 -0.3598893 0.9142095 0 -0.4052419 0.9142095 0 -0.4052419 0.932995 0 -0.3598893 0.9637762 0 -0.2667122 0.9495263 0 -0.3136875 0.9495263 0 -0.3136875 0.9637762 0 -0.2667122 0.9852781 0 -0.1709591 0.975702 0 -0.2191016 0.975702 0 -0.2191016 0.9852781 0 -0.1709591 0.9972901 0 -0.07356994 0.9924796 0 -0.1224103 0.9924796 0 -0.1224103 0.9972901 0 -0.07356994 0.9996989 0 -0.02453626 0.9996989 0 -0.02453626 1 0 0 1 0 -0 0.02454402 0 -0.9996988 0.02454402 0 -0.9996988 0.07356994 0 -0.9972901 0.07356994 0 -0.9972901 0.1224084 0 -0.9924798 0.1224084 0 -0.9924798 0.1709541 0 -0.985279 0.1709541 0 -0.985279 0.219109 0 -0.9757004 0.219109 0 -0.9757004 0.2667049 0 -0.9637782 0.2667049 0 -0.9637782 0.3136899 0 -0.9495255 0.3136899 0 -0.9495255 0.3598919 0 -0.932994 0.3598919 0 -0.932994 0.4052354 0 -0.9142124 0.4052354 0 -0.9142124 0.449612 0 -0.8932239 0.449612 0 -0.8932239 0.4929014 0 -0.8700852 0.4929014 0 -0.8700852 0.5349938 0 -0.844856 0.5349938 0 -0.844856 0.5758114 0 -0.8175826 0.5758114 0 -0.8175826 0.6152322 0 -0.788346 0.6152322 0 -0.788346 0.6531768 0 -0.7572054 0.6531768 0 -0.7572054 0.6895348 0 -0.7242525 0.6895348 0 -0.7242525 0.724245 0 -0.6895428 0.724245 0 -0.6895428 0.7572126 0 -0.6531685 0.7572126 0 -0.6531685 0.788346 0 -0.6152322 0.788346 0 -0.6152322 0.8175826 0 -0.5758114 0.8175826 0 -0.5758114 0.8448537 0 -0.5349973 0.8448537 0 -0.5349973 0.8700871 0 -0.4928981 0.8700871 0 -0.4928981 0.8932239 0 -0.449612 0.8932239 0 -0.449612 0.9142095 0 -0.4052419 0.932995 0 -0.3598893 0.9142095 0 -0.4052419 0.932995 0 -0.3598893 0.9495263 0 -0.3136875 0.9495263 0 -0.3136875 0.9637762 0 -0.2667122 0.9637762 0 -0.2667122 0.975702 0 -0.2191016 0.9852781 0 -0.1709591 0.975702 0 -0.2191016 0.9852781 0 -0.1709591 0.9924796 0 -0.1224103 0.9972906 0 -0.07356221 0.9924796 0 -0.1224103 0.9972906 0 -0.07356221 0.9996988 0 -0.02454402 0.9996988 0 -0.02454402 0 0 -1 0 0 -1 0 1 0 0 1 0 0 1 0 0 1 0 0 1 0 0 1 0 0 1 0 0 1 0 0 1 0 0 1 0 0 1 0 0 1 0 0 1 0 0 1 0 0 1 0 0 1 0 0 1 0 0 1 0 0 1 0 0 1 0 0 1 0 0 1 0 0 1 0 0 1 0 0 1 0 0 1 0 0 1 0 0 1 0 0 1 0 0 1 0 0 1 -0 0 1 -0 0 1 -0 0 1 -0 0 1 0 0 1 0 0 1 -0 0 1 -0 0 1 0 0 1 0 0 1 0 0 1 0 0 1 -0 0 1 -0 0 1 0 0 1 0 0 1 0 0 1 -0 0 1 -0 0 1 0 0 1 0 0 1 -0 0 1 -0 0 1 -0 0 1 0 0 1 0 0 1 -0 0 1 0 0 1 0 0 1 0 0 1 0 0 1 -0 0 1 -0 0 1 -0 0 1 -0 0 1 0 0 1 0 0 1 0 0 1 0 0 1 0 0 1 0 0 1 0 0 1 0 0 1 0 0 1 0 0 1 0 0 1 0 0 1 0 0 1 0 0 1 0 0 1 0 0 1 0 0 1 0 0 1 0 0 1 0 0 1 0 0 1 0 0 1 0 0 1 0 0 1 0 0 1 0 0 1 0 0 1 0 0 1 0 0 1 0 0 1 0 0 1 0 0 1 0 0 1 0 0 1 0 0 1 0 0 1 0 0 1 0 0 1 0 0 1 0 0 1 0 0 1 0 0 1 0 0 1 0 0 1 0 0 1 0 0 1 0 0 1 0 0 1 0 0 1 0 0 1 0 0 1 0 0 1 0 0 1 0 0 1 0 0 1 0 0 1 0 0 1 0 0 1 0 0 1 0 0 1 0 0 1 0 0 1 0 0 1 0 0 1 0 0 1 0 0 1 0 0 1 0 0 1 0 -0 -1 0 0 -1 0 -0 -1 0 -0 -1 0 -0 -1 0 -0 -1 0 -0 -1 0 -0 -1 0 -0 -1 0 -0 -1 0 -0 -1 0 -0 -1 0 -0 -1 0 -0 -1 0 -0 -1 0 -0 -1 0 -0 -1 0 -0 -1 0 -0 -1 0 -0 -1 0 -0 -1 0 -0 -1 0 -0 -1 0 -0 -1 0 -0 -1 0 -0 -1 0 -0 -1 0 -0 -1 0 -0 -1 0 -0 -1 0 0 -1 0 0 -1 0 0 -1 0 0 -1 0 0 -1 0 0 -1 0 0 -1 0 0 -1 0 0 -1 0 0 -1 0 0 -1 0 0 -1 0 0 -1 0 0 -1 0 0 -1 0 0 -1 0 0 -1 0 0 -1 0 0 -1 0 0 -1 0 0 -1 0 0 -1 0 0 -1 0 -0 -1 0 0 -1 0 0 -1 0 0 -1 0 0 -1 0 0 -1 0 0 -1 0 0 -1 0 0 -1 0 -0 -1 0 0 -1 0 0 -1 0 0 -1 0 0 -1 0 0 -1 0 0 -1 0 0 -1 0 0 -1 0 0 -1 0 0 -1 0 0 -1 0 0 -1 0 0 -1 0 0 -1 0 0 -1 0 0 -1 0 0 -1 0 0 -1 0 0 -1 0 0 -1 0 0 -1 0 0 -1 0 0 -1 0 0 -1 0 0 -1 0 0 -1 0 0 -1 0 0 -1 0 0 -1 0 0 -1 0 0 -1 0 0 -1 0 0 -1 0 0 -1 0 0 -1 0 0 -1 0 0 -1 0 0 -1 0 0 -1 0 0 -1 0 0 -1 0 0 -1 0 0 -1 0 0 -1 0 0 -1 0 0 -1 0 0 -1 0 0 -1 0 0 -1 0 0 -1 0 0 -1 0 0 -1 0 0 -1 0 0 -1 0 0 -1 0 0 -1 0 0 -1 0 0 -1 0 0 -1 0 0 -1 0 0 -1 0 0 -1 0 0 -1 0 0 -1 0 0 -1 0 0 -1 0 0 -1 0 0 -1 0 0 -1 0 0 -1 0 0 -1 0</float_array>
          <technique_common>
            <accessor count="540" source="#cubenormals-array0-array" stride="3">
              <param type="float" name="X"/>
              <param type="float" name="Y"/>
              <param type="float" name="Z"/>
            </accessor>
          </technique_common>
        </source>
        <vertices id="cubeverts-array0-vertices">
          <input semantic="POSITION" source="#cubeverts-array0"/>
        </vertices>
        <triangles count="540" material="ref_Main_body_shape">
          <input offset="0" semantic="VERTEX" source="#cubeverts-array0-vertices"/>
          <input offset="1" semantic="NORMAL" source="#cubenormals-array0"/>
          <p>0 0 1 0 2 0 3 1 1 1 0 1 4 2 0 2 5 2 4 3 3 3 0 3 6 4 5 4 7 4 6 5 4 5 5 5 8 6 7 6 9 6 8 7 6 7 7 7 10 8 11 8 12 8 10 9 12 9 13 9 14 10 13 10 15 10 14 11 10 11 13 11 16 12 15 12 17 12 16 13 14 13 15 13 18 14 17 14 19 14 18 15 16 15 17 15 20 16 19 16 21 16 20 17 18 17 19 17 22 18 21 18 23 18 22 19 20 19 21 19 24 20 23 20 25 20 24 21 22 21 23 21 26 22 25 22 27 22 26 23 24 23 25 23 28 24 26 24 27 24 28 25 27 25 29 25 30 26 28 26 29 26 30 27 29 27 31 27 32 28 30 28 31 28 32 29 31 29 33 29 34 30 32 30 33 30 34 31 33 31 35 31 36 32 34 32 35 32 36 33 35 33 37 33 38 34 36 34 37 34 38 35 37 35 39 35 40 36 38 36 39 36 40 37 39 37 41 37 42 38 40 38 41 38 42 39 41 39 43 39 44 40 42 40 43 40 44 41 43 41 45 41 46 42 44 42 45 42 46 43 45 43 47 43 48 44 46 44 47 44 48 45 47 45 49 45 48 46 49 46 50 46 51 47 48 47 50 47 52 48 50 48 53 48 52 49 51 49 50 49 54 50 52 50 53 50 54 51 53 51 55 51 56 52 55 52 57 52 56 53 54 53 55 53 58 54 57 54 59 54 58 55 59 55 60 55 58 56 56 56 57 56 61 57 58 57 60 57 62 58 60 58 63 58 62 59 61 59 60 59 64 60 63 60 65 60 64 61 62 61 63 61 66 62 65 62 67 62 66 63 67 63 68 63 66 64 64 64 65 64 69 65 66 65 68 65 70 66 68 66 71 66 70 67 71 67 72 67 70 68 69 68 68 68 73 69 70 69 72 69 9 70 72 70 8 70 9 71 73 71 72 71 74 72 11 72 75 72 74 73 12 73 11 73 75 74 76 74 74 74 74 75 76 75 77 75 77 76 78 76 79 76 76 77 78 77 77 77 79 78 80 78 81 78 78 79 80 79 79 79 81 80 82 80 83 80 80 81 82 81 81 81 83 82 84 82 85 82 82 83 84 83 83 83 85 84 86 84 87 84 84 85 86 85 85 85 87 86 88 86 89 86 86 87 88 87 87 87 88 88 90 88 89 88 89 89 90 89 91 89 90 90 92 90 91 90 91 91 92 91 93 91 92 92 94 92 93 92 93 93 94 93 95 93 94 94 96 94 95 94 95 95 96 95 97 95 96 96 98 96 97 96 97 97 98 97 99 97 99 98 100 98 101 98 98 99 100 99 99 99 102 100 103 100 104 100 101 101 103 101 102 101 100 102 103 102 101 102 103 103 105 103 104 103 104 104 106 104 107 104 105 105 106 105 104 105 108 106 109 106 110 106 107 107 109 107 108 107 106 108 109 108 107 108 109 109 111 109 110 109 112 110 113 110 114 110 110 111 113 111 112 111 111 112 113 112 110 112 113 113 115 113 114 113 114 114 116 114 117 114 115 115 116 115 114 115 117 116 118 116 119 116 116 117 118 117 117 117 119 118 120 118 121 118 118 119 120 119 119 119 121 120 122 120 123 120 120 121 122 121 121 121 123 122 124 122 125 122 122 123 124 123 123 123 126 124 127 124 128 124 125 125 127 125 126 125 124 126 127 126 125 126 127 127 129 127 128 127 130 128 131 128 132 128 128 129 131 129 130 129 129 130 131 130 128 130 131 131 133 131 132 131 132 132 134 132 135 132 133 133 134 133 132 133 135 134 136 134 137 134 134 135 136 135 135 135 137 136 138 136 139 136 136 137 138 137 137 137 140 138 138 138 141 138 140 139 139 139 138 139 141 140 142 140 140 140 140 141 142 141 143 141 143 142 144 142 145 142 142 143 144 143 143 143 145 144 146 144 147 144 144 145 146 145 145 145 147 146 148 146 149 146 146 147 148 147 147 147 149 148 150 148 151 148 148 149 150 149 149 149 151 150 152 150 153 150 150 151 152 151 151 151 153 152 154 152 155 152 152 153 154 153 153 153 154 154 156 154 155 154 155 155 156 155 157 155 156 156 158 156 157 156 157 157 158 157 159 157 158 158 160 158 159 158 159 159 160 159 161 159 160 160 162 160 161 160 161 161 162 161 163 161 162 162 164 162 163 162 163 163 164 163 165 163 165 164 166 164 167 164 164 165 166 165 165 165 167 166 168 166 169 166 166 167 168 167 167 167 169 168 170 168 171 168 168 169 170 169 169 169 171 170 172 170 173 170 170 171 172 171 171 171 173 172 174 172 175 172 172 173 174 173 173 173 175 174 176 174 177 174 174 175 176 175 175 175 177 176 178 176 179 176 176 177 178 177 177 177 179 178 180 178 181 178 178 179 180 179 179 179 181 180 182 180 183 180 180 181 182 181 181 181 184 182 185 182 186 182 183 183 185 183 184 183 182 184 185 184 183 184 185 185 187 185 186 185 188 186 189 186 190 186 186 187 189 187 188 187 187 188 189 188 186 188 189 189 191 189 190 189 192 190 193 190 194 190 190 191 193 191 192 191 191 192 193 192 190 192 193 193 195 193 194 193 196 194 197 194 198 194 194 195 197 195 196 195 195 196 197 196 194 196 197 197 199 197 198 197 200 198 201 198 202 198 198 199 201 199 200 199 199 200 201 200 198 200 201 201 203 201 202 201 202 202 204 202 205 202 203 203 204 203 202 203 206 204 204 204 207 204 206 205 205 205 204 205 208 206 209 206 210 206 208 207 210 207 211 207 212 208 211 208 213 208 212 209 208 209 211 209 214 210 213 210 215 210 214 211 212 211 213 211 216 212 215 212 217 212 216 213 214 213 215 213 218 214 217 214 219 214 218 215 216 215 217 215 220 216 219 216 221 216 220 217 218 217 219 217 222 218 221 218 223 218 222 219 220 219 221 219 224 220 223 220 225 220 224 221 222 221 223 221 226 222 224 222 225 222 226 223 225 223 227 223 228 224 226 224 227 224 228 225 227 225 229 225 230 226 228 226 229 226 230 227 229 227 231 227 232 228 230 228 231 228 232 229 231 229 233 229 234 230 232 230 233 230 234 231 233 231 235 231 236 232 234 232 235 232 236 233 235 233 237 233 238 234 236 234 237 234 238 235 237 235 239 235 240 236 238 236 239 236 240 237 239 237 241 237 242 238 240 238 241 238 242 239 241 239 243 239 244 240 242 240 243 240 244 241 243 241 245 241 246 242 244 242 245 242 246 243 245 243 247 243 246 244 247 244 248 244 249 245 246 245 248 245 250 246 248 246 251 246 250 247 249 247 248 247 252 248 250 248 251 248 252 249 251 249 253 249 254 250 253 250 255 250 254 251 252 251 253 251 256 252 255 252 257 252 256 253 257 253 258 253 256 254 254 254 255 254 259 255 256 255 258 255 260 256 258 256 261 256 260 257 259 257 258 257 262 258 261 258 263 258 262 259 260 259 261 259 264 260 263 260 265 260 264 261 265 261 266 261 264 262 262 262 263 262 267 263 264 263 266 263 268 264 266 264 269 264 268 265 269 265 270 265 268 266 267 266 266 266 271 267 268 267 270 267 207 268 270 268 206 268 207 269 271 269 270 269 1 270 209 270 2 270 1 271 210 271 209 271 3 272 171 272 173 272 3 273 175 273 1 273 173 274 175 274 3 274 3 275 169 275 171 275 175 276 177 276 1 276 3 277 167 277 169 277 177 278 179 278 1 278 3 279 165 279 167 279 179 280 181 280 1 280 181 281 183 281 1 281 3 282 163 282 165 282 183 283 184 283 1 283 3 284 161 284 163 284 3 285 159 285 161 285 184 286 186 286 1 286 3 287 157 287 159 287 186 288 188 288 1 288 3 289 155 289 157 289 188 290 190 290 1 290 3 291 153 291 155 291 190 292 192 292 1 292 3 293 151 293 153 293 192 294 194 294 1 294 3 295 149 295 151 295 194 296 196 296 1 296 3 297 147 297 149 297 196 298 198 298 1 298 3 299 145 299 147 299 3 300 143 300 145 300 3 301 140 301 143 301 206 302 210 302 205 302 205 303 210 303 202 303 202 304 210 304 200 304 200 305 210 305 198 305 198 306 210 306 1 306 206 307 269 307 210 307 270 308 269 308 206 308 266 309 265 309 269 309 210 310 219 310 211 310 211 311 219 311 213 311 213 312 219 312 215 312 215 313 219 313 217 313 261 314 258 314 263 314 263 315 258 315 265 315 219 316 225 316 221 316 221 317 225 317 223 317 210 318 225 318 219 318 257 319 255 319 258 319 258 320 255 320 265 320 225 321 229 321 227 321 210 322 229 322 225 322 253 323 251 323 255 323 265 324 251 324 269 324 255 325 251 325 265 325 229 326 233 326 231 326 210 327 233 327 229 327 251 328 248 328 269 328 233 329 237 329 235 329 210 330 237 330 233 330 269 331 239 331 210 331 210 332 239 332 237 332 245 333 243 333 247 333 247 334 243 334 248 334 248 335 241 335 269 335 243 336 241 336 248 336 269 337 241 337 239 337 3 338 139 338 140 338 4 339 139 339 3 339 4 340 137 340 139 340 4 341 135 341 137 341 4 342 132 342 135 342 4 343 130 343 132 343 4 344 128 344 130 344 4 345 126 345 128 345 4 346 125 346 126 346 4 347 123 347 125 347 4 348 121 348 123 348 4 349 119 349 121 349 4 350 117 350 119 350 4 351 114 351 117 351 4 352 112 352 114 352 4 353 110 353 112 353 4 354 108 354 110 354 4 355 107 355 108 355 4 356 104 356 107 356 12 357 15 357 13 357 15 358 21 358 17 358 17 359 21 359 19 359 12 360 21 360 15 360 21 361 27 361 23 361 23 362 27 362 25 362 21 363 29 363 27 363 29 364 35 364 31 364 31 365 35 365 33 365 12 366 35 366 21 366 21 367 35 367 29 367 12 368 37 368 35 368 37 369 41 369 39 369 41 370 45 370 43 370 12 371 45 371 37 371 37 372 45 372 41 372 12 373 47 373 45 373 12 374 49 374 47 374 12 375 50 375 49 375 12 376 53 376 50 376 53 377 57 377 55 377 57 378 60 378 59 378 53 379 63 379 57 379 57 380 63 380 60 380 53 381 65 381 63 381 65 382 68 382 67 382 53 383 68 383 65 383 68 384 72 384 71 384 53 385 72 385 68 385 53 386 8 386 72 386 12 387 8 387 53 387 81 388 8 388 79 388 79 389 8 389 77 389 77 390 8 390 74 390 74 391 8 391 12 391 81 392 6 392 8 392 4 393 6 393 104 393 104 394 6 394 102 394 102 395 6 395 101 395 101 396 6 396 99 396 99 397 6 397 97 397 97 398 6 398 95 398 95 399 6 399 93 399 93 400 6 400 91 400 91 401 6 401 89 401 89 402 6 402 87 402 87 403 6 403 85 403 85 404 6 404 83 404 83 405 6 405 81 405 174 406 0 406 2 406 174 407 172 407 0 407 170 408 0 408 172 408 168 409 0 409 170 409 176 410 174 410 2 410 166 411 0 411 168 411 178 412 176 412 2 412 164 413 0 413 166 413 180 414 178 414 2 414 182 415 180 415 2 415 162 416 0 416 164 416 185 417 182 417 2 417 160 418 0 418 162 418 158 419 0 419 160 419 187 420 185 420 2 420 156 421 0 421 158 421 189 422 187 422 2 422 154 423 0 423 156 423 191 424 189 424 2 424 152 425 0 425 154 425 193 426 191 426 2 426 150 427 0 427 152 427 195 428 193 428 2 428 148 429 0 429 150 429 197 430 195 430 2 430 146 431 0 431 148 431 199 432 197 432 2 432 144 433 0 433 146 433 142 434 0 434 144 434 141 435 0 435 142 435 209 436 207 436 204 436 209 437 204 437 203 437 209 438 203 438 201 438 209 439 201 439 199 439 209 440 199 440 2 440 212 441 209 441 208 441 214 442 209 442 212 442 264 443 267 443 268 443 218 444 214 444 216 444 218 445 209 445 214 445 220 446 209 446 218 446 260 447 264 447 268 447 260 448 262 448 264 448 260 449 268 449 271 449 222 450 209 450 220 450 256 451 259 451 260 451 256 452 260 452 271 452 228 453 224 453 226 453 252 454 254 454 256 454 250 455 252 455 256 455 232 456 222 456 224 456 232 457 228 457 230 457 232 458 224 458 228 458 249 459 207 459 209 459 249 460 209 460 222 460 249 461 271 461 207 461 249 462 256 462 271 462 249 463 250 463 256 463 236 464 232 464 234 464 242 465 244 465 246 465 242 466 246 466 249 466 240 467 236 467 238 467 240 468 249 468 222 468 240 469 222 469 232 469 240 470 232 470 236 470 240 471 242 471 249 471 138 472 0 472 141 472 138 473 5 473 0 473 136 474 5 474 138 474 134 475 5 475 136 475 133 476 5 476 134 476 131 477 5 477 133 477 129 478 5 478 131 478 127 479 5 479 129 479 124 480 5 480 127 480 122 481 5 481 124 481 120 482 5 482 122 482 118 483 5 483 120 483 116 484 5 484 118 484 115 485 5 485 116 485 113 486 5 486 115 486 111 487 5 487 113 487 109 488 5 488 111 488 106 489 5 489 109 489 105 490 5 490 106 490 16 491 11 491 10 491 16 492 10 492 14 492 18 493 11 493 16 493 20 494 11 494 18 494 24 495 20 495 22 495 26 496 20 496 24 496 28 497 20 497 26 497 28 498 11 498 20 498 34 499 28 499 30 499 34 500 30 500 32 500 34 501 11 501 28 501 36 502 11 502 34 502 40 503 36 503 38 503 40 504 11 504 36 504 44 505 40 505 42 505 44 506 11 506 40 506 46 507 11 507 44 507 52 508 46 508 48 508 52 509 48 509 51 509 52 510 11 510 46 510 56 511 52 511 54 511 58 512 52 512 56 512 58 513 11 513 52 513 64 514 58 514 61 514 64 515 61 515 62 515 64 516 11 516 58 516 66 517 11 517 64 517 70 518 11 518 66 518 70 519 66 519 69 519 9 520 75 520 11 520 9 521 70 521 73 521 9 522 11 522 70 522 9 523 80 523 78 523 9 524 78 524 76 524 9 525 76 525 75 525 7 526 5 526 105 526 7 527 105 527 103 527 7 528 103 528 100 528 7 529 100 529 98 529 7 530 98 530 96 530 7 531 96 531 94 531 7 532 94 532 92 532 7 533 92 533 90 533 7 534 90 534 88 534 7 535 88 535 86 535 7 536 86 536 84 536 7 537 84 537 82 537 7 538 82 538 80 538 7 539 80 539 9 539</p>
        </triangles>
      </mesh>
    </geometry>
  </library_geometries>
  <library_materials>
    <material id="mat_Main_body_shape" name="Main_body_shape">
      <instance_effect url="#effect_Main_body_shape"/>
    </material>
  </library_materials>
  <library_visual_scenes>
    <visual_scene id="myscene">
      <node id="node0" name="node0">
        <instance_geometry url="#geometry0">
          <bind_material>
            <technique_common>
              <instance_material symbol="ref_Main_body_shape" target="#mat_Main_body_shape"/>
            </technique_common>
          </bind_material>
        </instance_geometry>
      </node>
    </visual_scene>
  </library_visual_scenes>
  <scene>
    <instance_visual_scene url="#myscene"/>
  </scene>
</COLLADA>
