<?xml version="1.0" encoding="UTF-8" standalone="no"?>
<!DOCTYPE svg PUBLIC "-//W3C//DTD SVG 1.1//EN"
 "http://www.w3.org/Graphics/SVG/1.1/DTD/svg11.dtd">
<!-- Generated by graphviz version 2.43.0 (0)
 -->
<!-- Title: ros_graph Pages: 1 -->
<svg width="4136pt" height="1314pt"
 viewBox="0.00 0.00 2707.00 860.02" xmlns="http://www.w3.org/2000/svg" xmlns:xlink="http://www.w3.org/1999/xlink">
<g id="graph0" class="graph" transform="scale(1.53 1.53) rotate(0) translate(4 856.02)">
<title>ros_graph</title>
<polygon fill="white" stroke="transparent" points="-4,4 -4,-856.02 2703,-856.02 2703,4 -4,4"/>
<text text-anchor="middle" x="1349.5" y="-835.22" font-family="Helvetica,sans-Serif" font-size="16.00">Graphe ROS 2 / ROS 2 graph — vue d&#39;ensemble : chaîne principale / overview: main pipeline</text>
<text text-anchor="middle" x="1349.5" y="-817.22" font-family="Helvetica,sans-Serif" font-size="16.00">Ellipses = nœuds / nodes · rectangles = topics (type) · hexagones = actions (tirets / dashed)</text>
<g id="clust1" class="cluster">
<title>cluster_legend</title>
<polygon fill="none" stroke="#8a8984" stroke-dasharray="5,2" points="1727,-726.25 1727,-800.02 2691,-800.02 2691,-726.25 1727,-726.25"/>
<text text-anchor="middle" x="2209" y="-786.42" font-family="Helvetica,sans-Serif" font-size="12.00">Légende / Legend</text>
</g>
<!-- /basic_navigator -->
<g id="node1" class="node">
<title>/basic_navigator</title>
<ellipse fill="#d6e6f9" stroke="#2a78d6" stroke-width="2" cx="1607" cy="-752.63" rx="105.22" ry="18.27"/>
<text text-anchor="middle" x="1607" y="-748.83" font-family="Helvetica,sans-Serif" font-size="16.00">/basic_navigator</text>
</g>
<!-- action:/compute_path_to_pose -->
<g id="node23" class="node">
<title>action:/compute_path_to_pose</title>
<polygon fill="none" stroke="black" stroke-dasharray="5,2" points="1715.46,-663.96 1589.73,-698.04 1338.27,-698.04 1212.54,-663.96 1338.27,-629.87 1589.73,-629.87 1715.46,-663.96"/>
<text text-anchor="middle" x="1464" y="-668.96" font-family="Helvetica,sans-Serif" font-size="15.00">/compute_path_to_pose</text>
<text text-anchor="middle" x="1464" y="-651.96" font-family="Helvetica,sans-Serif" font-size="15.00">nav2_msgs/action/ComputePathToPose</text>
</g>
<!-- /basic_navigator&#45;&gt;action:/compute_path_to_pose -->
<g id="edge24" class="edge">
<title>/basic_navigator&#45;&gt;action:/compute_path_to_pose</title>
<path fill="none" stroke="#8a8984" stroke-dasharray="5,2" d="M1579.09,-734.72C1563.41,-725.21 1543.22,-712.97 1524.13,-701.4"/>
<polygon fill="#8a8984" stroke="#8a8984" points="1525,-699.47 1518.78,-698.16 1522.82,-703.07 1525,-699.47"/>
</g>
<!-- action:/follow_path -->
<g id="node24" class="node">
<title>action:/follow_path</title>
<polygon fill="none" stroke="black" stroke-dasharray="5,2" points="1190.15,-663.96 1093.08,-698.04 898.92,-698.04 801.85,-663.96 898.92,-629.87 1093.08,-629.87 1190.15,-663.96"/>
<text text-anchor="middle" x="996" y="-668.96" font-family="Helvetica,sans-Serif" font-size="15.00">/follow_path</text>
<text text-anchor="middle" x="996" y="-651.96" font-family="Helvetica,sans-Serif" font-size="15.00">nav2_msgs/action/FollowPath</text>
</g>
<!-- /basic_navigator&#45;&gt;action:/follow_path -->
<g id="edge28" class="edge">
<title>/basic_navigator&#45;&gt;action:/follow_path</title>
<path fill="none" stroke="#8a8984" stroke-dasharray="5,2" d="M1548.24,-737.36C1529.99,-733.3 1509.74,-729.2 1491,-726.25 1363.52,-706.2 1329.98,-714.77 1202,-698.25 1178.9,-695.27 1154.4,-691.68 1130.68,-687.99"/>
<polygon fill="#8a8984" stroke="#8a8984" points="1130.91,-685.9 1124.66,-687.04 1130.26,-690.05 1130.91,-685.9"/>
</g>
<!-- action:/navigate_to_pose -->
<g id="node25" class="node">
<title>action:/navigate_to_pose</title>
<polygon fill="none" stroke="black" stroke-dasharray="5,2" points="1213.57,-34.29 1101.29,-68.38 876.71,-68.38 764.43,-34.29 876.71,-0.21 1101.29,-0.21 1213.57,-34.29"/>
<text text-anchor="middle" x="989" y="-39.29" font-family="Helvetica,sans-Serif" font-size="15.00">/navigate_to_pose</text>
<text text-anchor="middle" x="989" y="-22.29" font-family="Helvetica,sans-Serif" font-size="15.00">nav2_msgs/action/NavigateToPose</text>
</g>
<!-- /basic_navigator&#45;&gt;action:/navigate_to_pose -->
<g id="edge32" class="edge">
<title>/basic_navigator&#45;&gt;action:/navigate_to_pose</title>
<path fill="none" stroke="#8a8984" stroke-dasharray="5,2" d="M1666.69,-737.43C1688.4,-729.37 1711.21,-717.01 1726,-698.25 1760.16,-654.93 1749,-631.44 1749,-576.28 1749,-576.28 1749,-576.28 1749,-197.36 1749,-85.12 1427.98,-50.32 1203.21,-39.71"/>
<polygon fill="#8a8984" stroke="#8a8984" points="1203.02,-37.6 1196.92,-39.42 1202.82,-41.79 1203.02,-37.6"/>
</g>
<!-- /behavior_server -->
<g id="node2" class="node">
<title>/behavior_server</title>
<ellipse fill="#d3f0e4" stroke="#1baf7a" stroke-width="2" cx="1414" cy="-122.97" rx="107.46" ry="18.27"/>
<text text-anchor="middle" x="1414" y="-119.17" font-family="Helvetica,sans-Serif" font-size="16.00">/behavior_server</text>
</g>
<!-- /robot_base_controller/cmd_vel_unstamped -->
<g id="node20" class="node">
<title>/robot_base_controller/cmd_vel_unstamped</title>
<path fill="none" stroke="black" d="M1180,-520.89C1180,-520.89 860,-520.89 860,-520.89 854,-520.89 848,-514.89 848,-508.89 848,-508.89 848,-490.89 848,-490.89 848,-484.89 854,-478.89 860,-478.89 860,-478.89 1180,-478.89 1180,-478.89 1186,-478.89 1192,-484.89 1192,-490.89 1192,-490.89 1192,-508.89 1192,-508.89 1192,-514.89 1186,-520.89 1180,-520.89"/>
<text text-anchor="middle" x="1020" y="-504.89" font-family="Helvetica,sans-Serif" font-size="15.00">/robot_base_controller/cmd_vel_unstamped</text>
<text text-anchor="middle" x="1020" y="-487.89" font-family="Helvetica,sans-Serif" font-size="15.00">geometry_msgs/msg/Twist</text>
</g>
<!-- /behavior_server&#45;&gt;/robot_base_controller/cmd_vel_unstamped -->
<g id="edge10" class="edge">
<title>/behavior_server&#45;&gt;/robot_base_controller/cmd_vel_unstamped</title>
<path fill="none" stroke="#8a8984" d="M1505.04,-132.89C1589.76,-146.8 1703,-182.31 1703,-272.74 1703,-350.12 1703,-350.12 1703,-350.12 1703,-453.42 1400.97,-485.12 1198.61,-494.77"/>
<polygon fill="#8a8984" stroke="#8a8984" points="1198.24,-492.69 1192.35,-495.06 1198.44,-496.88 1198.24,-492.69"/>
</g>
<!-- /bt_navigator -->
<g id="node3" class="node">
<title>/bt_navigator</title>
<ellipse fill="#d3f0e4" stroke="#1baf7a" stroke-width="2" cx="810" cy="-122.97" rx="87.86" ry="18.27"/>
<text text-anchor="middle" x="810" y="-119.17" font-family="Helvetica,sans-Serif" font-size="16.00">/bt_navigator</text>
</g>
<!-- /bt_navigator&#45;&gt;action:/navigate_to_pose -->
<g id="edge31" class="edge">
<title>/bt_navigator&#45;&gt;action:/navigate_to_pose</title>
<path fill="none" stroke="#8a8984" stroke-dasharray="5,2" d="M837.45,-105.46C856.18,-95.74 881.91,-83.04 906.87,-71.12"/>
<polygon fill="#8a8984" stroke="#8a8984" points="908.01,-72.91 912.52,-68.43 906.2,-69.11 908.01,-72.91"/>
</g>
<!-- /bt_navigator_navigate_through_poses_rclcpp_node -->
<g id="node4" class="node">
<title>/bt_navigator_navigate_through_poses_rclcpp_node</title>
<ellipse fill="#d3f0e4" stroke="#1baf7a" stroke-width="2" cx="612" cy="-752.63" rx="308.1" ry="18.27"/>
<text text-anchor="middle" x="612" y="-748.83" font-family="Helvetica,sans-Serif" font-size="16.00">/bt_navigator_navigate_through_poses_rclcpp_node</text>
</g>
<!-- /bt_navigator_navigate_through_poses_rclcpp_node&#45;&gt;action:/follow_path -->
<g id="edge27" class="edge">
<title>/bt_navigator_navigate_through_poses_rclcpp_node&#45;&gt;action:/follow_path</title>
<path fill="none" stroke="#8a8984" stroke-dasharray="5,2" d="M686.95,-734.72C739.92,-722.76 812.1,-706.47 873.39,-692.63"/>
<polygon fill="#8a8984" stroke="#8a8984" points="873.89,-694.67 879.28,-691.3 872.97,-690.58 873.89,-694.67"/>
</g>
<!-- /bt_navigator_navigate_to_pose_rclcpp_node -->
<g id="node5" class="node">
<title>/bt_navigator_navigate_to_pose_rclcpp_node</title>
<ellipse fill="#d3f0e4" stroke="#1baf7a" stroke-width="2" cx="1211" cy="-752.63" rx="268.9" ry="18.27"/>
<text text-anchor="middle" x="1211" y="-748.83" font-family="Helvetica,sans-Serif" font-size="16.00">/bt_navigator_navigate_to_pose_rclcpp_node</text>
</g>
<!-- /bt_navigator_navigate_to_pose_rclcpp_node&#45;&gt;action:/compute_path_to_pose -->
<g id="edge23" class="edge">
<title>/bt_navigator_navigate_to_pose_rclcpp_node&#45;&gt;action:/compute_path_to_pose</title>
<path fill="none" stroke="#8a8984" stroke-dasharray="5,2" d="M1260.98,-734.51C1289.64,-724.69 1326.69,-712 1361.27,-700.15"/>
<polygon fill="#8a8984" stroke="#8a8984" points="1362.25,-702.03 1367.25,-698.1 1360.89,-698.06 1362.25,-702.03"/>
</g>
<!-- /bt_navigator_navigate_to_pose_rclcpp_node&#45;&gt;action:/follow_path -->
<g id="edge26" class="edge">
<title>/bt_navigator_navigate_to_pose_rclcpp_node&#45;&gt;action:/follow_path</title>
<path fill="none" stroke="#8a8984" stroke-dasharray="5,2" d="M1168.27,-734.41C1144.16,-724.69 1113.12,-712.17 1084.04,-700.45"/>
<polygon fill="#8a8984" stroke="#8a8984" points="1084.61,-698.41 1078.26,-698.12 1083.04,-702.31 1084.61,-698.41"/>
</g>
<!-- /controller_server -->
<g id="node6" class="node">
<title>/controller_server</title>
<ellipse fill="#d3f0e4" stroke="#1baf7a" stroke-width="2" cx="996" cy="-575.28" rx="111.95" ry="18.27"/>
<text text-anchor="middle" x="996" y="-571.48" font-family="Helvetica,sans-Serif" font-size="16.00">/controller_server</text>
</g>
<!-- /controller_server&#45;&gt;/robot_base_controller/cmd_vel_unstamped -->
<g id="edge11" class="edge">
<title>/controller_server&#45;&gt;/robot_base_controller/cmd_vel_unstamped</title>
<path fill="none" stroke="#8a8984" d="M1001.69,-556.89C1004.63,-547.89 1008.28,-536.72 1011.55,-526.74"/>
<polygon fill="#8a8984" stroke="#8a8984" points="1013.55,-527.37 1013.42,-521.02 1009.56,-526.07 1013.55,-527.37"/>
</g>
<!-- /global_costmap/global_costmap -->
<g id="node7" class="node">
<title>/global_costmap/global_costmap</title>
<ellipse fill="#d3f0e4" stroke="#1baf7a" stroke-width="2" cx="1085" cy="-273.74" rx="198.89" ry="18.27"/>
<text text-anchor="middle" x="1085" y="-269.94" font-family="Helvetica,sans-Serif" font-size="16.00">/global_costmap/global_costmap</text>
</g>
<!-- /imu_odom_corrector -->
<g id="node8" class="node">
<title>/imu_odom_corrector</title>
<ellipse fill="#d6e6f9" stroke="#2a78d6" stroke-width="2" cx="277" cy="-273.74" rx="132.46" ry="18.27"/>
<text text-anchor="middle" x="277" y="-269.94" font-family="Helvetica,sans-Serif" font-size="16.00">/imu_odom_corrector</text>
</g>
<!-- /tf -->
<g id="node22" class="node">
<title>/tf</title>
<path fill="none" stroke="black" d="M708.5,-219.36C708.5,-219.36 523.5,-219.36 523.5,-219.36 517.5,-219.36 511.5,-213.36 511.5,-207.36 511.5,-207.36 511.5,-189.36 511.5,-189.36 511.5,-183.36 517.5,-177.36 523.5,-177.36 523.5,-177.36 708.5,-177.36 708.5,-177.36 714.5,-177.36 720.5,-183.36 720.5,-189.36 720.5,-189.36 720.5,-207.36 720.5,-207.36 720.5,-213.36 714.5,-219.36 708.5,-219.36"/>
<text text-anchor="middle" x="616" y="-203.36" font-family="Helvetica,sans-Serif" font-size="15.00">/tf</text>
<text text-anchor="middle" x="616" y="-186.36" font-family="Helvetica,sans-Serif" font-size="15.00">tf2_msgs/msg/TFMessage</text>
</g>
<!-- /imu_odom_corrector&#45;&gt;/tf -->
<g id="edge18" class="edge">
<title>/imu_odom_corrector&#45;&gt;/tf</title>
<path fill="none" stroke="#8a8984" d="M345.19,-257.98C394.63,-247.28 462.22,-232.64 517.51,-220.67"/>
<polygon fill="#8a8984" stroke="#8a8984" points="518.09,-222.7 523.51,-219.38 517.2,-218.59 518.09,-222.7"/>
</g>
<!-- /local_costmap/local_costmap -->
<g id="node9" class="node">
<title>/local_costmap/local_costmap</title>
<ellipse fill="#d3f0e4" stroke="#1baf7a" stroke-width="2" cx="1487" cy="-273.74" rx="181.95" ry="18.27"/>
<text text-anchor="middle" x="1487" y="-269.94" font-family="Helvetica,sans-Serif" font-size="16.00">/local_costmap/local_costmap</text>
</g>
<!-- /planner_server -->
<g id="node10" class="node">
<title>/planner_server</title>
<ellipse fill="#d3f0e4" stroke="#1baf7a" stroke-width="2" cx="1464" cy="-575.28" rx="101.23" ry="18.27"/>
<text text-anchor="middle" x="1464" y="-571.48" font-family="Helvetica,sans-Serif" font-size="16.00">/planner_server</text>
</g>
<!-- /robot_state_publisher -->
<g id="node11" class="node">
<title>/robot_state_publisher</title>
<ellipse fill="#fbe0d4" stroke="#eb6834" stroke-width="2" cx="616" cy="-273.74" rx="138.69" ry="18.27"/>
<text text-anchor="middle" x="616" y="-269.94" font-family="Helvetica,sans-Serif" font-size="16.00">/robot_state_publisher</text>
</g>
<!-- /robot_state_publisher&#45;&gt;/tf -->
<g id="edge19" class="edge">
<title>/robot_state_publisher&#45;&gt;/tf</title>
<path fill="none" stroke="#8a8984" d="M616,-255.35C616,-246.52 616,-235.6 616,-225.76"/>
<polygon fill="#8a8984" stroke="#8a8984" points="618.1,-225.48 616,-219.48 613.9,-225.48 618.1,-225.48"/>
</g>
<!-- /ros_gz_bridge -->
<g id="node12" class="node">
<title>/ros_gz_bridge</title>
<ellipse fill="#fbe0d4" stroke="#eb6834" stroke-width="2" cx="520" cy="-424.51" rx="94.51" ry="18.27"/>
<text text-anchor="middle" x="520" y="-420.71" font-family="Helvetica,sans-Serif" font-size="16.00">/ros_gz_bridge</text>
</g>
<!-- /imu -->
<g id="node17" class="node">
<title>/imu</title>
<path fill="none" stroke="black" d="M400,-370.12C400,-370.12 242,-370.12 242,-370.12 236,-370.12 230,-364.12 230,-358.12 230,-358.12 230,-340.12 230,-340.12 230,-334.12 236,-328.12 242,-328.12 242,-328.12 400,-328.12 400,-328.12 406,-328.12 412,-334.12 412,-340.12 412,-340.12 412,-358.12 412,-358.12 412,-364.12 406,-370.12 400,-370.12"/>
<text text-anchor="middle" x="321" y="-354.12" font-family="Helvetica,sans-Serif" font-size="15.00">/imu</text>
<text text-anchor="middle" x="321" y="-337.12" font-family="Helvetica,sans-Serif" font-size="15.00">sensor_msgs/msg/Imu</text>
</g>
<!-- /ros_gz_bridge&#45;&gt;/imu -->
<g id="edge2" class="edge">
<title>/ros_gz_bridge&#45;&gt;/imu</title>
<path fill="none" stroke="#8a8984" d="M477.8,-407.95C449.66,-397.57 412.24,-383.77 381.02,-372.26"/>
<polygon fill="#8a8984" stroke="#8a8984" points="381.62,-370.24 375.26,-370.14 380.17,-374.18 381.62,-370.24"/>
</g>
<!-- /joint_states -->
<g id="node18" class="node">
<title>/joint_states</title>
<path fill="none" stroke="black" d="M695.5,-370.12C695.5,-370.12 492.5,-370.12 492.5,-370.12 486.5,-370.12 480.5,-364.12 480.5,-358.12 480.5,-358.12 480.5,-340.12 480.5,-340.12 480.5,-334.12 486.5,-328.12 492.5,-328.12 492.5,-328.12 695.5,-328.12 695.5,-328.12 701.5,-328.12 707.5,-334.12 707.5,-340.12 707.5,-340.12 707.5,-358.12 707.5,-358.12 707.5,-364.12 701.5,-370.12 695.5,-370.12"/>
<text text-anchor="middle" x="594" y="-354.12" font-family="Helvetica,sans-Serif" font-size="15.00">/joint_states</text>
<text text-anchor="middle" x="594" y="-337.12" font-family="Helvetica,sans-Serif" font-size="15.00">sensor_msgs/msg/JointState</text>
</g>
<!-- /ros_gz_bridge&#45;&gt;/joint_states -->
<g id="edge4" class="edge">
<title>/ros_gz_bridge&#45;&gt;/joint_states</title>
<path fill="none" stroke="#8a8984" d="M537.54,-406.12C547.04,-396.7 558.93,-384.91 569.34,-374.58"/>
<polygon fill="#8a8984" stroke="#8a8984" points="570.93,-375.96 573.71,-370.25 567.97,-372.98 570.93,-375.96"/>
</g>
<!-- /odom -->
<g id="node19" class="node">
<title>/odom</title>
<path fill="none" stroke="black" d="M196,-370.12C196,-370.12 12,-370.12 12,-370.12 6,-370.12 0,-364.12 0,-358.12 0,-358.12 0,-340.12 0,-340.12 0,-334.12 6,-328.12 12,-328.12 12,-328.12 196,-328.12 196,-328.12 202,-328.12 208,-334.12 208,-340.12 208,-340.12 208,-358.12 208,-358.12 208,-364.12 202,-370.12 196,-370.12"/>
<text text-anchor="middle" x="104" y="-354.12" font-family="Helvetica,sans-Serif" font-size="15.00">/odom</text>
<text text-anchor="middle" x="104" y="-337.12" font-family="Helvetica,sans-Serif" font-size="15.00">nav_msgs/msg/Odometry</text>
</g>
<!-- /ros_gz_bridge&#45;&gt;/odom -->
<g id="edge6" class="edge">
<title>/ros_gz_bridge&#45;&gt;/odom</title>
<path fill="none" stroke="#8a8984" d="M452.24,-411.56C387.97,-400.22 290.26,-382.98 214.68,-369.65"/>
<polygon fill="#8a8984" stroke="#8a8984" points="214.64,-367.51 208.36,-368.54 213.91,-371.65 214.64,-367.51"/>
</g>
<!-- /scan -->
<g id="node21" class="node">
<title>/scan</title>
<path fill="none" stroke="black" d="M948,-370.12C948,-370.12 742,-370.12 742,-370.12 736,-370.12 730,-364.12 730,-358.12 730,-358.12 730,-340.12 730,-340.12 730,-334.12 736,-328.12 742,-328.12 742,-328.12 948,-328.12 948,-328.12 954,-328.12 960,-334.12 960,-340.12 960,-340.12 960,-358.12 960,-358.12 960,-364.12 954,-370.12 948,-370.12"/>
<text text-anchor="middle" x="845" y="-354.12" font-family="Helvetica,sans-Serif" font-size="15.00">/scan</text>
<text text-anchor="middle" x="845" y="-337.12" font-family="Helvetica,sans-Serif" font-size="15.00">sensor_msgs/msg/LaserScan</text>
</g>
<!-- /ros_gz_bridge&#45;&gt;/scan -->
<g id="edge14" class="edge">
<title>/ros_gz_bridge&#45;&gt;/scan</title>
<path fill="none" stroke="#8a8984" d="M579.23,-410.14C626.93,-399.37 694.89,-384.02 750.15,-371.54"/>
<polygon fill="#8a8984" stroke="#8a8984" points="750.75,-373.56 756.14,-370.19 749.82,-369.46 750.75,-373.56"/>
</g>
<!-- /ros_gz_bridge&#45;&gt;/tf -->
<g id="edge20" class="edge">
<title>/ros_gz_bridge&#45;&gt;/tf</title>
<path fill="none" stroke="#8a8984" d="M497.45,-406.55C486.77,-397.11 475.05,-384.41 469,-370.12 449.11,-323.14 436.91,-297.27 466,-255.36 476.11,-240.79 490.5,-230 506.4,-222.02"/>
<polygon fill="#8a8984" stroke="#8a8984" points="507.34,-223.9 511.84,-219.42 505.53,-220.11 507.34,-223.9"/>
</g>
<!-- /rviz2 -->
<g id="node13" class="node">
<title>/rviz2</title>
<ellipse fill="#eeeeec" stroke="#8a8984" stroke-width="2" cx="820" cy="-273.74" rx="43.68" ry="18.27"/>
<text text-anchor="middle" x="820" y="-269.94" font-family="Helvetica,sans-Serif" font-size="16.00">/rviz2</text>
</g>
<!-- /velocity_smoother -->
<g id="node14" class="node">
<title>/velocity_smoother</title>
<ellipse fill="#d3f0e4" stroke="#1baf7a" stroke-width="2" cx="1043" cy="-424.51" rx="120.42" ry="18.27"/>
<text text-anchor="middle" x="1043" y="-420.71" font-family="Helvetica,sans-Serif" font-size="16.00">/velocity_smoother</text>
</g>
<!-- /cmd_vel_smoothed -->
<g id="node16" class="node">
<title>/cmd_vel_smoothed</title>
<path fill="none" stroke="black" d="M1184,-370.12C1184,-370.12 994,-370.12 994,-370.12 988,-370.12 982,-364.12 982,-358.12 982,-358.12 982,-340.12 982,-340.12 982,-334.12 988,-328.12 994,-328.12 994,-328.12 1184,-328.12 1184,-328.12 1190,-328.12 1196,-334.12 1196,-340.12 1196,-340.12 1196,-358.12 1196,-358.12 1196,-364.12 1190,-370.12 1184,-370.12"/>
<text text-anchor="middle" x="1089" y="-354.12" font-family="Helvetica,sans-Serif" font-size="15.00">/cmd_vel_smoothed</text>
<text text-anchor="middle" x="1089" y="-337.12" font-family="Helvetica,sans-Serif" font-size="15.00">geometry_msgs/msg/Twist</text>
</g>
<!-- /velocity_smoother&#45;&gt;/cmd_vel_smoothed -->
<g id="edge1" class="edge">
<title>/velocity_smoother&#45;&gt;/cmd_vel_smoothed</title>
<path fill="none" stroke="#8a8984" d="M1053.9,-406.12C1059.65,-396.95 1066.8,-385.54 1073.15,-375.41"/>
<polygon fill="#8a8984" stroke="#8a8984" points="1074.98,-376.45 1076.39,-370.25 1071.42,-374.22 1074.98,-376.45"/>
</g>
<!-- /waypoint_follower -->
<g id="node15" class="node">
<title>/waypoint_follower</title>
<ellipse fill="#d3f0e4" stroke="#1baf7a" stroke-width="2" cx="1901" cy="-122.97" rx="118.17" ry="18.27"/>
<text text-anchor="middle" x="1901" y="-119.17" font-family="Helvetica,sans-Serif" font-size="16.00">/waypoint_follower</text>
</g>
<!-- /waypoint_follower&#45;&gt;action:/navigate_to_pose -->
<g id="edge30" class="edge">
<title>/waypoint_follower&#45;&gt;action:/navigate_to_pose</title>
<path fill="none" stroke="#8a8984" stroke-dasharray="5,2" d="M1814.64,-110.34C1798.49,-108.31 1781.74,-106.3 1766,-104.59 1562.62,-82.43 1328.72,-62.3 1171.13,-49.51"/>
<polygon fill="#8a8984" stroke="#8a8984" points="1171.24,-47.41 1165.09,-49.02 1170.9,-51.6 1171.24,-47.41"/>
</g>
<!-- /imu&#45;&gt;/imu_odom_corrector -->
<g id="edge3" class="edge">
<title>/imu&#45;&gt;/imu_odom_corrector</title>
<path fill="none" stroke="#8a8984" d="M308.98,-328.07C303.31,-318.62 296.52,-307.3 290.66,-297.52"/>
<polygon fill="#8a8984" stroke="#8a8984" points="292.4,-296.34 287.51,-292.27 288.8,-298.5 292.4,-296.34"/>
</g>
<!-- /joint_states&#45;&gt;/robot_state_publisher -->
<g id="edge5" class="edge">
<title>/joint_states&#45;&gt;/robot_state_publisher</title>
<path fill="none" stroke="#8a8984" d="M600.01,-328.07C602.79,-318.79 606.11,-307.72 609.01,-298.07"/>
<polygon fill="#8a8984" stroke="#8a8984" points="611.03,-298.62 610.74,-292.27 607.01,-297.42 611.03,-298.62"/>
</g>
<!-- /odom&#45;&gt;/bt_navigator -->
<g id="edge9" class="edge">
<title>/odom&#45;&gt;/bt_navigator</title>
<path fill="none" stroke="#8a8984" d="M104.85,-328C106.87,-306.79 113.39,-273.95 134,-255.36 219.45,-178.26 558.71,-142.82 721.69,-129.98"/>
<polygon fill="#8a8984" stroke="#8a8984" points="722.07,-132.06 727.89,-129.49 721.74,-127.87 722.07,-132.06"/>
</g>
<!-- /odom&#45;&gt;/controller_server -->
<g id="edge8" class="edge">
<title>/odom&#45;&gt;/controller_server</title>
<path fill="none" stroke="#8a8984" d="M166.28,-370.14C228.63,-389.85 327.46,-420.21 414,-442.89 595.44,-490.46 811.39,-536.47 922.25,-559.33"/>
<polygon fill="#8a8984" stroke="#8a8984" points="922.12,-561.45 928.42,-560.6 922.97,-557.33 922.12,-561.45"/>
</g>
<!-- /odom&#45;&gt;/imu_odom_corrector -->
<g id="edge7" class="edge">
<title>/odom&#45;&gt;/imu_odom_corrector</title>
<path fill="none" stroke="#8a8984" d="M151.27,-328.07C176.48,-317.38 207.32,-304.3 232.15,-293.76"/>
<polygon fill="#8a8984" stroke="#8a8984" points="232.97,-295.7 237.68,-291.42 231.33,-291.83 232.97,-295.7"/>
</g>
<!-- /robot_base_controller/cmd_vel_unstamped&#45;&gt;/ros_gz_bridge -->
<g id="edge13" class="edge">
<title>/robot_base_controller/cmd_vel_unstamped&#45;&gt;/ros_gz_bridge</title>
<path fill="none" stroke="#8a8984" d="M883.7,-478.89C792.58,-465.52 675.84,-448.38 599.54,-437.18"/>
<polygon fill="#8a8984" stroke="#8a8984" points="599.45,-435.05 593.2,-436.25 598.84,-439.2 599.45,-435.05"/>
</g>
<!-- /robot_base_controller/cmd_vel_unstamped&#45;&gt;/velocity_smoother -->
<g id="edge12" class="edge">
<title>/robot_base_controller/cmd_vel_unstamped&#45;&gt;/velocity_smoother</title>
<path fill="none" stroke="#8a8984" d="M1026.28,-478.84C1029.19,-469.56 1032.66,-458.49 1035.69,-448.84"/>
<polygon fill="#8a8984" stroke="#8a8984" points="1037.71,-449.39 1037.51,-443.04 1033.71,-448.14 1037.71,-449.39"/>
</g>
<!-- /scan&#45;&gt;/global_costmap/global_costmap -->
<g id="edge16" class="edge">
<title>/scan&#45;&gt;/global_costmap/global_costmap</title>
<path fill="none" stroke="#8a8984" d="M910.58,-328.07C946.14,-317.2 989.78,-303.86 1024.51,-293.24"/>
<polygon fill="#8a8984" stroke="#8a8984" points="1025.32,-295.18 1030.45,-291.42 1024.09,-291.17 1025.32,-295.18"/>
</g>
<!-- /scan&#45;&gt;/local_costmap/local_costmap -->
<g id="edge17" class="edge">
<title>/scan&#45;&gt;/local_costmap/local_costmap</title>
<path fill="none" stroke="#8a8984" d="M960.32,-329.56C963.92,-329.07 967.49,-328.59 971,-328.12 1042.59,-318.75 1226.9,-300.18 1354.66,-287.61"/>
<polygon fill="#8a8984" stroke="#8a8984" points="1354.94,-289.69 1360.7,-287.01 1354.53,-285.51 1354.94,-289.69"/>
</g>
<!-- /scan&#45;&gt;/rviz2 -->
<g id="edge15" class="edge">
<title>/scan&#45;&gt;/rviz2</title>
<path fill="none" stroke="#8a8984" d="M838.17,-328.07C835.01,-318.79 831.23,-307.72 827.95,-298.07"/>
<polygon fill="#8a8984" stroke="#8a8984" points="829.89,-297.27 825.97,-292.27 825.92,-298.63 829.89,-297.27"/>
</g>
<!-- /tf&#45;&gt;/behavior_server -->
<g id="edge21" class="edge">
<title>/tf&#45;&gt;/behavior_server</title>
<path fill="none" stroke="#8a8984" d="M720.73,-187.72C875.78,-173.47 1164.31,-146.93 1315.61,-133.02"/>
<polygon fill="#8a8984" stroke="#8a8984" points="1316.04,-135.09 1321.83,-132.45 1315.66,-130.91 1316.04,-135.09"/>
</g>
<!-- /tf&#45;&gt;/bt_navigator -->
<g id="edge22" class="edge">
<title>/tf&#45;&gt;/bt_navigator</title>
<path fill="none" stroke="#8a8984" d="M669.01,-177.3C698.55,-166.13 734.99,-152.35 763.42,-141.59"/>
<polygon fill="#8a8984" stroke="#8a8984" points="764.49,-143.43 769.36,-139.34 763.01,-139.5 764.49,-143.43"/>
</g>
<!-- action:/compute_path_to_pose&#45;&gt;/planner_server -->
<g id="edge25" class="edge">
<title>action:/compute_path_to_pose&#45;&gt;/planner_server</title>
<path fill="none" stroke="#8a8984" stroke-dasharray="5,2" d="M1464,-629.69C1464,-619.76 1464,-609.09 1464,-599.91"/>
<polygon fill="#8a8984" stroke="#8a8984" points="1466.1,-599.82 1464,-593.82 1461.9,-599.82 1466.1,-599.82"/>
</g>
<!-- action:/follow_path&#45;&gt;/controller_server -->
<g id="edge29" class="edge">
<title>action:/follow_path&#45;&gt;/controller_server</title>
<path fill="none" stroke="#8a8984" stroke-dasharray="5,2" d="M996,-629.69C996,-619.76 996,-609.09 996,-599.91"/>
<polygon fill="#8a8984" stroke="#8a8984" points="998.1,-599.82 996,-593.82 993.9,-599.82 998.1,-599.82"/>
</g>
<!-- action:/navigate_to_pose&#45;&gt;/bt_navigator -->
<g id="edge33" class="edge">
<title>action:/navigate_to_pose&#45;&gt;/bt_navigator</title>
<path fill="none" stroke="#8a8984" stroke-dasharray="5,2" d="M928.53,-68.47C904.3,-80.44 876.91,-93.51 854.52,-103.74"/>
<polygon fill="#8a8984" stroke="#8a8984" points="853.54,-101.88 848.94,-106.27 855.27,-105.7 853.54,-101.88"/>
</g>
<!-- legend0 -->
<g id="node26" class="node">
<title>legend0</title>
<ellipse fill="#d6e6f9" stroke="#2a78d6" stroke-width="2" cx="2510" cy="-752.63" rx="172.57" ry="18.27"/>
<text text-anchor="middle" x="2510" y="-748.83" font-family="Helvetica,sans-Serif" font-size="16.00">Notre solution / Our solution</text>
</g>
<!-- legend1 -->
<g id="node27" class="node">
<title>legend1</title>
<ellipse fill="#d3f0e4" stroke="#1baf7a" stroke-width="2" cx="2274" cy="-752.63" rx="41.94" ry="18.27"/>
<text text-anchor="middle" x="2274" y="-748.83" font-family="Helvetica,sans-Serif" font-size="16.00">Nav2</text>
</g>
<!-- legend2 -->
<g id="node28" class="node">
<title>legend2</title>
<ellipse fill="#fbe0d4" stroke="#eb6834" stroke-width="2" cx="2070" cy="-752.63" rx="140.93" ry="18.27"/>
<text text-anchor="middle" x="2070" y="-748.83" font-family="Helvetica,sans-Serif" font-size="16.00">Simulateur / Simulator</text>
</g>
<!-- legend3 -->
<g id="node29" class="node">
<title>legend3</title>
<ellipse fill="#eeeeec" stroke="#8a8984" stroke-width="2" cx="1821" cy="-752.63" rx="86.03" ry="18.27"/>
<text text-anchor="middle" x="1821" y="-748.83" font-family="Helvetica,sans-Serif" font-size="16.00">Autre / Other</text>
</g>
</g>
</svg>
