<?xml version="1.0" encoding="UTF-8" standalone="no"?>
<!DOCTYPE svg PUBLIC "-//W3C//DTD SVG 1.1//EN"
 "http://www.w3.org/Graphics/SVG/1.1/DTD/svg11.dtd">
<!-- Generated by graphviz version 2.43.0 (0)
 -->
<!-- Title: ros_graph Pages: 1 -->
<svg width="4140pt" height="1314pt"
 viewBox="0.00 0.00 2710.09 860.02" xmlns="http://www.w3.org/2000/svg" xmlns:xlink="http://www.w3.org/1999/xlink">
<g id="graph0" class="graph" transform="scale(1.53 1.53) rotate(0) translate(4 856.02)">
<title>ros_graph</title>
<polygon fill="white" stroke="transparent" points="-4,4 -4,-856.02 2706.09,-856.02 2706.09,4 -4,4"/>
<text text-anchor="middle" x="1351.04" y="-835.22" font-family="Helvetica,sans-Serif" font-size="16.00">Graphe ROS 2 / ROS 2 graph — vue d&#39;ensemble : chaîne principale / overview: main pipeline</text>
<text text-anchor="middle" x="1351.04" y="-817.22" font-family="Helvetica,sans-Serif" font-size="16.00">Ellipses = nœuds / nodes · rectangles = topics (type) · hexagones = actions (tirets / dashed)</text>
<g id="clust1" class="cluster">
<title>cluster_legend</title>
<polygon fill="none" stroke="#8a8984" stroke-dasharray="5,2" points="1730.09,-726.25 1730.09,-800.02 2694.09,-800.02 2694.09,-726.25 1730.09,-726.25"/>
<text text-anchor="middle" x="2212.09" y="-786.42" font-family="Helvetica,sans-Serif" font-size="12.00">Légende / Legend</text>
</g>
<!-- /basic_navigator -->
<g id="node1" class="node">
<title>/basic_navigator</title>
<ellipse fill="#d6e6f9" stroke="#2a78d6" stroke-width="2" cx="412.09" cy="-752.63" rx="105.22" ry="18.27"/>
<text text-anchor="middle" x="412.09" y="-748.83" font-family="Helvetica,sans-Serif" font-size="16.00">/basic_navigator</text>
</g>
<!-- action:/compute_path_to_pose -->
<g id="node21" class="node">
<title>action:/compute_path_to_pose</title>
<polygon fill="none" stroke="black" stroke-dasharray="5,2" points="806.55,-663.96 680.82,-698.04 429.36,-698.04 303.62,-663.96 429.36,-629.87 680.82,-629.87 806.55,-663.96"/>
<text text-anchor="middle" x="555.09" y="-668.96" font-family="Helvetica,sans-Serif" font-size="15.00">/compute_path_to_pose</text>
<text text-anchor="middle" x="555.09" y="-651.96" font-family="Helvetica,sans-Serif" font-size="15.00">nav2_msgs/action/ComputePathToPose</text>
</g>
<!-- /basic_navigator&#45;&gt;action:/compute_path_to_pose -->
<g id="edge22" class="edge">
<title>/basic_navigator&#45;&gt;action:/compute_path_to_pose</title>
<path fill="none" stroke="#8a8984" stroke-dasharray="5,2" d="M440,-734.72C455.67,-725.21 475.87,-712.97 494.96,-701.4"/>
<polygon fill="#8a8984" stroke="#8a8984" points="496.27,-703.07 500.31,-698.16 494.09,-699.47 496.27,-703.07"/>
</g>
<!-- action:/follow_path -->
<g id="node22" class="node">
<title>action:/follow_path</title>
<polygon fill="none" stroke="black" stroke-dasharray="5,2" points="1217.24,-663.96 1120.16,-698.04 926.01,-698.04 828.93,-663.96 926.01,-629.87 1120.16,-629.87 1217.24,-663.96"/>
<text text-anchor="middle" x="1023.09" y="-668.96" font-family="Helvetica,sans-Serif" font-size="15.00">/follow_path</text>
<text text-anchor="middle" x="1023.09" y="-651.96" font-family="Helvetica,sans-Serif" font-size="15.00">nav2_msgs/action/FollowPath</text>
</g>
<!-- /basic_navigator&#45;&gt;action:/follow_path -->
<g id="edge26" class="edge">
<title>/basic_navigator&#45;&gt;action:/follow_path</title>
<path fill="none" stroke="#8a8984" stroke-dasharray="5,2" d="M470.84,-737.36C489.1,-733.3 509.35,-729.2 528.09,-726.25 655.57,-706.2 689.1,-714.77 817.09,-698.25 840.19,-695.27 864.68,-691.68 888.41,-687.99"/>
<polygon fill="#8a8984" stroke="#8a8984" points="888.82,-690.05 894.43,-687.04 888.17,-685.9 888.82,-690.05"/>
</g>
<!-- action:/navigate_to_pose -->
<g id="node23" class="node">
<title>action:/navigate_to_pose</title>
<polygon fill="none" stroke="black" stroke-dasharray="5,2" points="555.66,-34.29 443.37,-68.38 218.8,-68.38 106.51,-34.29 218.8,-0.21 443.37,-0.21 555.66,-34.29"/>
<text text-anchor="middle" x="331.09" y="-39.29" font-family="Helvetica,sans-Serif" font-size="15.00">/navigate_to_pose</text>
<text text-anchor="middle" x="331.09" y="-22.29" font-family="Helvetica,sans-Serif" font-size="15.00">nav2_msgs/action/NavigateToPose</text>
</g>
<!-- /basic_navigator&#45;&gt;action:/navigate_to_pose -->
<g id="edge30" class="edge">
<title>/basic_navigator&#45;&gt;action:/navigate_to_pose</title>
<path fill="none" stroke="#8a8984" stroke-dasharray="5,2" d="M352.4,-737.43C330.69,-729.37 307.88,-717.01 293.09,-698.25 258.93,-654.93 270.09,-631.44 270.09,-576.28 270.09,-576.28 270.09,-576.28 270.09,-197.36 270.09,-152.88 290.46,-105.69 307.66,-73.77"/>
<polygon fill="#8a8984" stroke="#8a8984" points="309.56,-74.66 310.61,-68.39 305.88,-72.64 309.56,-74.66"/>
</g>
<!-- /behavior_server -->
<g id="node2" class="node">
<title>/behavior_server</title>
<ellipse fill="#d3f0e4" stroke="#1baf7a" stroke-width="2" cx="1418.09" cy="-122.97" rx="107.46" ry="18.27"/>
<text text-anchor="middle" x="1418.09" y="-119.17" font-family="Helvetica,sans-Serif" font-size="16.00">/behavior_server</text>
</g>
<!-- /robot_base_controller/cmd_vel_unstamped -->
<g id="node18" class="node">
<title>/robot_base_controller/cmd_vel_unstamped</title>
<path fill="none" stroke="black" d="M1182.09,-520.89C1182.09,-520.89 862.09,-520.89 862.09,-520.89 856.09,-520.89 850.09,-514.89 850.09,-508.89 850.09,-508.89 850.09,-490.89 850.09,-490.89 850.09,-484.89 856.09,-478.89 862.09,-478.89 862.09,-478.89 1182.09,-478.89 1182.09,-478.89 1188.09,-478.89 1194.09,-484.89 1194.09,-490.89 1194.09,-490.89 1194.09,-508.89 1194.09,-508.89 1194.09,-514.89 1188.09,-520.89 1182.09,-520.89"/>
<text text-anchor="middle" x="1022.09" y="-504.89" font-family="Helvetica,sans-Serif" font-size="15.00">/robot_base_controller/cmd_vel_unstamped</text>
<text text-anchor="middle" x="1022.09" y="-487.89" font-family="Helvetica,sans-Serif" font-size="15.00">geometry_msgs/msg/Twist</text>
</g>
<!-- /behavior_server&#45;&gt;/robot_base_controller/cmd_vel_unstamped -->
<g id="edge10" class="edge">
<title>/behavior_server&#45;&gt;/robot_base_controller/cmd_vel_unstamped</title>
<path fill="none" stroke="#8a8984" d="M1517.97,-129.77C1680.46,-141.96 1984.09,-177.49 1984.09,-272.74 1984.09,-350.12 1984.09,-350.12 1984.09,-350.12 1984.09,-428.53 1478.61,-471.44 1200.47,-489.11"/>
<polygon fill="#8a8984" stroke="#8a8984" points="1200.21,-487.02 1194.35,-489.5 1200.47,-491.22 1200.21,-487.02"/>
</g>
<!-- /bt_navigator -->
<g id="node3" class="node">
<title>/bt_navigator</title>
<ellipse fill="#d3f0e4" stroke="#1baf7a" stroke-width="2" cx="392.09" cy="-122.97" rx="87.86" ry="18.27"/>
<text text-anchor="middle" x="392.09" y="-119.17" font-family="Helvetica,sans-Serif" font-size="16.00">/bt_navigator</text>
</g>
<!-- /bt_navigator&#45;&gt;action:/navigate_to_pose -->
<g id="edge29" class="edge">
<title>/bt_navigator&#45;&gt;action:/navigate_to_pose</title>
<path fill="none" stroke="#8a8984" stroke-dasharray="5,2" d="M373.31,-104.85C365.78,-95.86 357.28,-84.47 349.79,-73.52"/>
<polygon fill="#8a8984" stroke="#8a8984" points="351.52,-72.33 346.43,-68.53 348.04,-74.68 351.52,-72.33"/>
</g>
<!-- /bt_navigator_navigate_through_poses_rclcpp_node -->
<g id="node4" class="node">
<title>/bt_navigator_navigate_through_poses_rclcpp_node</title>
<ellipse fill="#d3f0e4" stroke="#1baf7a" stroke-width="2" cx="1407.09" cy="-752.63" rx="308.1" ry="18.27"/>
<text text-anchor="middle" x="1407.09" y="-748.83" font-family="Helvetica,sans-Serif" font-size="16.00">/bt_navigator_navigate_through_poses_rclcpp_node</text>
</g>
<!-- /bt_navigator_navigate_through_poses_rclcpp_node&#45;&gt;action:/follow_path -->
<g id="edge25" class="edge">
<title>/bt_navigator_navigate_through_poses_rclcpp_node&#45;&gt;action:/follow_path</title>
<path fill="none" stroke="#8a8984" stroke-dasharray="5,2" d="M1332.14,-734.72C1279.17,-722.76 1206.99,-706.47 1145.7,-692.63"/>
<polygon fill="#8a8984" stroke="#8a8984" points="1146.12,-690.58 1139.8,-691.3 1145.19,-694.67 1146.12,-690.58"/>
</g>
<!-- /bt_navigator_navigate_to_pose_rclcpp_node -->
<g id="node5" class="node">
<title>/bt_navigator_navigate_to_pose_rclcpp_node</title>
<ellipse fill="#d3f0e4" stroke="#1baf7a" stroke-width="2" cx="808.09" cy="-752.63" rx="268.9" ry="18.27"/>
<text text-anchor="middle" x="808.09" y="-748.83" font-family="Helvetica,sans-Serif" font-size="16.00">/bt_navigator_navigate_to_pose_rclcpp_node</text>
</g>
<!-- /bt_navigator_navigate_to_pose_rclcpp_node&#45;&gt;action:/compute_path_to_pose -->
<g id="edge21" class="edge">
<title>/bt_navigator_navigate_to_pose_rclcpp_node&#45;&gt;action:/compute_path_to_pose</title>
<path fill="none" stroke="#8a8984" stroke-dasharray="5,2" d="M758.1,-734.51C729.45,-724.69 692.4,-712 657.81,-700.15"/>
<polygon fill="#8a8984" stroke="#8a8984" points="658.19,-698.06 651.84,-698.1 656.83,-702.03 658.19,-698.06"/>
</g>
<!-- /bt_navigator_navigate_to_pose_rclcpp_node&#45;&gt;action:/follow_path -->
<g id="edge24" class="edge">
<title>/bt_navigator_navigate_to_pose_rclcpp_node&#45;&gt;action:/follow_path</title>
<path fill="none" stroke="#8a8984" stroke-dasharray="5,2" d="M850.82,-734.41C874.93,-724.69 905.97,-712.17 935.04,-700.45"/>
<polygon fill="#8a8984" stroke="#8a8984" points="936.05,-702.31 940.83,-698.12 934.48,-698.41 936.05,-702.31"/>
</g>
<!-- /controller_server -->
<g id="node6" class="node">
<title>/controller_server</title>
<ellipse fill="#d3f0e4" stroke="#1baf7a" stroke-width="2" cx="1022.09" cy="-575.28" rx="111.95" ry="18.27"/>
<text text-anchor="middle" x="1022.09" y="-571.48" font-family="Helvetica,sans-Serif" font-size="16.00">/controller_server</text>
</g>
<!-- /controller_server&#45;&gt;/robot_base_controller/cmd_vel_unstamped -->
<g id="edge9" class="edge">
<title>/controller_server&#45;&gt;/robot_base_controller/cmd_vel_unstamped</title>
<path fill="none" stroke="#8a8984" d="M1022.09,-556.89C1022.09,-548.06 1022.09,-537.14 1022.09,-527.3"/>
<polygon fill="#8a8984" stroke="#8a8984" points="1024.19,-527.02 1022.09,-521.02 1019.99,-527.02 1024.19,-527.02"/>
</g>
<!-- /global_costmap/global_costmap -->
<g id="node7" class="node">
<title>/global_costmap/global_costmap</title>
<ellipse fill="#d3f0e4" stroke="#1baf7a" stroke-width="2" cx="1320.09" cy="-273.74" rx="198.89" ry="18.27"/>
<text text-anchor="middle" x="1320.09" y="-269.94" font-family="Helvetica,sans-Serif" font-size="16.00">/global_costmap/global_costmap</text>
</g>
<!-- /imu_odom_corrector -->
<g id="node8" class="node">
<title>/imu_odom_corrector</title>
<ellipse fill="#d6e6f9" stroke="#2a78d6" stroke-width="2" cx="558.09" cy="-273.74" rx="132.46" ry="18.27"/>
<text text-anchor="middle" x="558.09" y="-269.94" font-family="Helvetica,sans-Serif" font-size="16.00">/imu_odom_corrector</text>
</g>
<!-- /tf -->
<g id="node20" class="node">
<title>/tf</title>
<path fill="none" stroke="black" d="M943.59,-219.36C943.59,-219.36 758.59,-219.36 758.59,-219.36 752.59,-219.36 746.59,-213.36 746.59,-207.36 746.59,-207.36 746.59,-189.36 746.59,-189.36 746.59,-183.36 752.59,-177.36 758.59,-177.36 758.59,-177.36 943.59,-177.36 943.59,-177.36 949.59,-177.36 955.59,-183.36 955.59,-189.36 955.59,-189.36 955.59,-207.36 955.59,-207.36 955.59,-213.36 949.59,-219.36 943.59,-219.36"/>
<text text-anchor="middle" x="851.09" y="-203.36" font-family="Helvetica,sans-Serif" font-size="15.00">/tf</text>
<text text-anchor="middle" x="851.09" y="-186.36" font-family="Helvetica,sans-Serif" font-size="15.00">tf2_msgs/msg/TFMessage</text>
</g>
<!-- /imu_odom_corrector&#45;&gt;/tf -->
<g id="edge16" class="edge">
<title>/imu_odom_corrector&#45;&gt;/tf</title>
<path fill="none" stroke="#8a8984" d="M619.51,-257.36C661.75,-246.78 718.44,-232.58 765.15,-220.88"/>
<polygon fill="#8a8984" stroke="#8a8984" points="765.78,-222.89 771.09,-219.39 764.76,-218.81 765.78,-222.89"/>
</g>
<!-- /local_costmap/local_costmap -->
<g id="node9" class="node">
<title>/local_costmap/local_costmap</title>
<ellipse fill="#d3f0e4" stroke="#1baf7a" stroke-width="2" cx="1722.09" cy="-273.74" rx="181.95" ry="18.27"/>
<text text-anchor="middle" x="1722.09" y="-269.94" font-family="Helvetica,sans-Serif" font-size="16.00">/local_costmap/local_costmap</text>
</g>
<!-- /planner_server -->
<g id="node10" class="node">
<title>/planner_server</title>
<ellipse fill="#d3f0e4" stroke="#1baf7a" stroke-width="2" cx="555.09" cy="-575.28" rx="101.23" ry="18.27"/>
<text text-anchor="middle" x="555.09" y="-571.48" font-family="Helvetica,sans-Serif" font-size="16.00">/planner_server</text>
</g>
<!-- /robot_state_publisher -->
<g id="node11" class="node">
<title>/robot_state_publisher</title>
<ellipse fill="#fbe0d4" stroke="#eb6834" stroke-width="2" cx="851.09" cy="-273.74" rx="138.69" ry="18.27"/>
<text text-anchor="middle" x="851.09" y="-269.94" font-family="Helvetica,sans-Serif" font-size="16.00">/robot_state_publisher</text>
</g>
<!-- /robot_state_publisher&#45;&gt;/tf -->
<g id="edge18" class="edge">
<title>/robot_state_publisher&#45;&gt;/tf</title>
<path fill="none" stroke="#8a8984" d="M851.09,-255.35C851.09,-246.52 851.09,-235.6 851.09,-225.76"/>
<polygon fill="#8a8984" stroke="#8a8984" points="853.19,-225.48 851.09,-219.48 848.99,-225.48 853.19,-225.48"/>
</g>
<!-- /ros_gz_bridge -->
<g id="node12" class="node">
<title>/ros_gz_bridge</title>
<ellipse fill="#fbe0d4" stroke="#eb6834" stroke-width="2" cx="1017.09" cy="-424.51" rx="94.51" ry="18.27"/>
<text text-anchor="middle" x="1017.09" y="-420.71" font-family="Helvetica,sans-Serif" font-size="16.00">/ros_gz_bridge</text>
</g>
<!-- /imu -->
<g id="node15" class="node">
<title>/imu</title>
<path fill="none" stroke="black" d="M858.09,-370.12C858.09,-370.12 700.09,-370.12 700.09,-370.12 694.09,-370.12 688.09,-364.12 688.09,-358.12 688.09,-358.12 688.09,-340.12 688.09,-340.12 688.09,-334.12 694.09,-328.12 700.09,-328.12 700.09,-328.12 858.09,-328.12 858.09,-328.12 864.09,-328.12 870.09,-334.12 870.09,-340.12 870.09,-340.12 870.09,-358.12 870.09,-358.12 870.09,-364.12 864.09,-370.12 858.09,-370.12"/>
<text text-anchor="middle" x="779.09" y="-354.12" font-family="Helvetica,sans-Serif" font-size="15.00">/imu</text>
<text text-anchor="middle" x="779.09" y="-337.12" font-family="Helvetica,sans-Serif" font-size="15.00">sensor_msgs/msg/Imu</text>
</g>
<!-- /ros_gz_bridge&#45;&gt;/imu -->
<g id="edge1" class="edge">
<title>/ros_gz_bridge&#45;&gt;/imu</title>
<path fill="none" stroke="#8a8984" d="M968.92,-408.66C934.89,-398.16 888.69,-383.92 850.39,-372.11"/>
<polygon fill="#8a8984" stroke="#8a8984" points="850.67,-370 844.32,-370.24 849.43,-374.01 850.67,-370"/>
</g>
<!-- /joint_states -->
<g id="node16" class="node">
<title>/joint_states</title>
<path fill="none" stroke="black" d="M1117.59,-370.12C1117.59,-370.12 914.59,-370.12 914.59,-370.12 908.59,-370.12 902.59,-364.12 902.59,-358.12 902.59,-358.12 902.59,-340.12 902.59,-340.12 902.59,-334.12 908.59,-328.12 914.59,-328.12 914.59,-328.12 1117.59,-328.12 1117.59,-328.12 1123.59,-328.12 1129.59,-334.12 1129.59,-340.12 1129.59,-340.12 1129.59,-358.12 1129.59,-358.12 1129.59,-364.12 1123.59,-370.12 1117.59,-370.12"/>
<text text-anchor="middle" x="1016.09" y="-354.12" font-family="Helvetica,sans-Serif" font-size="15.00">/joint_states</text>
<text text-anchor="middle" x="1016.09" y="-337.12" font-family="Helvetica,sans-Serif" font-size="15.00">sensor_msgs/msg/JointState</text>
</g>
<!-- /ros_gz_bridge&#45;&gt;/joint_states -->
<g id="edge3" class="edge">
<title>/ros_gz_bridge&#45;&gt;/joint_states</title>
<path fill="none" stroke="#8a8984" d="M1016.85,-406.12C1016.73,-397.29 1016.58,-386.37 1016.45,-376.53"/>
<polygon fill="#8a8984" stroke="#8a8984" points="1018.54,-376.22 1016.36,-370.25 1014.34,-376.28 1018.54,-376.22"/>
</g>
<!-- /odom -->
<g id="node17" class="node">
<title>/odom</title>
<path fill="none" stroke="black" d="M653.09,-370.12C653.09,-370.12 469.09,-370.12 469.09,-370.12 463.09,-370.12 457.09,-364.12 457.09,-358.12 457.09,-358.12 457.09,-340.12 457.09,-340.12 457.09,-334.12 463.09,-328.12 469.09,-328.12 469.09,-328.12 653.09,-328.12 653.09,-328.12 659.09,-328.12 665.09,-334.12 665.09,-340.12 665.09,-340.12 665.09,-358.12 665.09,-358.12 665.09,-364.12 659.09,-370.12 653.09,-370.12"/>
<text text-anchor="middle" x="561.09" y="-354.12" font-family="Helvetica,sans-Serif" font-size="15.00">/odom</text>
<text text-anchor="middle" x="561.09" y="-337.12" font-family="Helvetica,sans-Serif" font-size="15.00">nav_msgs/msg/Odometry</text>
</g>
<!-- /ros_gz_bridge&#45;&gt;/odom -->
<g id="edge5" class="edge">
<title>/ros_gz_bridge&#45;&gt;/odom</title>
<path fill="none" stroke="#8a8984" d="M945.07,-412.52C876.22,-401.94 769.5,-385.35 677.09,-370.12 675.12,-369.8 673.14,-369.47 671.14,-369.14"/>
<polygon fill="#8a8984" stroke="#8a8984" points="671.37,-367.05 665.1,-368.14 670.68,-371.19 671.37,-367.05"/>
</g>
<!-- /scan -->
<g id="node19" class="node">
<title>/scan</title>
<path fill="none" stroke="black" d="M1393.09,-370.12C1393.09,-370.12 1187.09,-370.12 1187.09,-370.12 1181.09,-370.12 1175.09,-364.12 1175.09,-358.12 1175.09,-358.12 1175.09,-340.12 1175.09,-340.12 1175.09,-334.12 1181.09,-328.12 1187.09,-328.12 1187.09,-328.12 1393.09,-328.12 1393.09,-328.12 1399.09,-328.12 1405.09,-334.12 1405.09,-340.12 1405.09,-340.12 1405.09,-358.12 1405.09,-358.12 1405.09,-364.12 1399.09,-370.12 1393.09,-370.12"/>
<text text-anchor="middle" x="1290.09" y="-354.12" font-family="Helvetica,sans-Serif" font-size="15.00">/scan</text>
<text text-anchor="middle" x="1290.09" y="-337.12" font-family="Helvetica,sans-Serif" font-size="15.00">sensor_msgs/msg/LaserScan</text>
</g>
<!-- /ros_gz_bridge&#45;&gt;/scan -->
<g id="edge12" class="edge">
<title>/ros_gz_bridge&#45;&gt;/scan</title>
<path fill="none" stroke="#8a8984" d="M1070.37,-409.19C1109.95,-398.55 1164.62,-383.85 1209.52,-371.78"/>
<polygon fill="#8a8984" stroke="#8a8984" points="1210.26,-373.76 1215.51,-370.17 1209.17,-369.7 1210.26,-373.76"/>
</g>
<!-- /ros_gz_bridge&#45;&gt;/tf -->
<g id="edge17" class="edge">
<title>/ros_gz_bridge&#45;&gt;/tf</title>
<path fill="none" stroke="#8a8984" d="M1110.12,-420.68C1361.65,-411.41 2028.9,-375.31 1915.09,-255.36 1882.66,-221.17 1227.72,-205.93 961.83,-201.13"/>
<polygon fill="#8a8984" stroke="#8a8984" points="961.66,-199.03 955.62,-201.02 961.59,-203.22 961.66,-199.03"/>
</g>
<!-- /rviz2 -->
<g id="node13" class="node">
<title>/rviz2</title>
<ellipse fill="#eeeeec" stroke="#8a8984" stroke-width="2" cx="1055.09" cy="-273.74" rx="43.68" ry="18.27"/>
<text text-anchor="middle" x="1055.09" y="-269.94" font-family="Helvetica,sans-Serif" font-size="16.00">/rviz2</text>
</g>
<!-- /waypoint_follower -->
<g id="node14" class="node">
<title>/waypoint_follower</title>
<ellipse fill="#d3f0e4" stroke="#1baf7a" stroke-width="2" cx="118.09" cy="-122.97" rx="118.17" ry="18.27"/>
<text text-anchor="middle" x="118.09" y="-119.17" font-family="Helvetica,sans-Serif" font-size="16.00">/waypoint_follower</text>
</g>
<!-- /waypoint_follower&#45;&gt;action:/navigate_to_pose -->
<g id="edge28" class="edge">
<title>/waypoint_follower&#45;&gt;action:/navigate_to_pose</title>
<path fill="none" stroke="#8a8984" stroke-dasharray="5,2" d="M158.15,-105.67C182.33,-95.83 214.11,-82.89 243.83,-70.8"/>
<polygon fill="#8a8984" stroke="#8a8984" points="244.97,-72.6 249.74,-68.4 243.39,-68.71 244.97,-72.6"/>
</g>
<!-- /imu&#45;&gt;/imu_odom_corrector -->
<g id="edge2" class="edge">
<title>/imu&#45;&gt;/imu_odom_corrector</title>
<path fill="none" stroke="#8a8984" d="M718.7,-328.07C685.61,-317.09 644.92,-303.57 612.78,-292.9"/>
<polygon fill="#8a8984" stroke="#8a8984" points="613.23,-290.84 606.88,-290.94 611.91,-294.83 613.23,-290.84"/>
</g>
<!-- /joint_states&#45;&gt;/robot_state_publisher -->
<g id="edge4" class="edge">
<title>/joint_states&#45;&gt;/robot_state_publisher</title>
<path fill="none" stroke="#8a8984" d="M971,-328.07C947.15,-317.46 918.01,-304.5 894.42,-294.01"/>
<polygon fill="#8a8984" stroke="#8a8984" points="895.2,-292.06 888.86,-291.54 893.49,-295.9 895.2,-292.06"/>
</g>
<!-- /odom&#45;&gt;/bt_navigator -->
<g id="edge8" class="edge">
<title>/odom&#45;&gt;/bt_navigator</title>
<path fill="none" stroke="#8a8984" d="M465.06,-327.98C445.98,-319.8 427.9,-308.29 415.09,-292.12 381.83,-250.17 384.2,-183.07 388.37,-147.64"/>
<polygon fill="#8a8984" stroke="#8a8984" points="390.49,-147.63 389.16,-141.41 386.32,-147.1 390.49,-147.63"/>
</g>
<!-- /odom&#45;&gt;/controller_server -->
<g id="edge7" class="edge">
<title>/odom&#45;&gt;/controller_server</title>
<path fill="none" stroke="#8a8984" d="M588.14,-370.18C636.33,-405.1 741.22,-477.5 839.09,-520.89 875.27,-536.94 917.58,-549.64 952.39,-558.62"/>
<polygon fill="#8a8984" stroke="#8a8984" points="952.03,-560.7 958.36,-560.14 953.06,-556.63 952.03,-560.7"/>
</g>
<!-- /odom&#45;&gt;/imu_odom_corrector -->
<g id="edge6" class="edge">
<title>/odom&#45;&gt;/imu_odom_corrector</title>
<path fill="none" stroke="#8a8984" d="M560.27,-328.07C559.89,-318.88 559.44,-307.92 559.05,-298.34"/>
<polygon fill="#8a8984" stroke="#8a8984" points="561.15,-298.18 558.8,-292.27 556.95,-298.35 561.15,-298.18"/>
</g>
<!-- /robot_base_controller/cmd_vel_unstamped&#45;&gt;/ros_gz_bridge -->
<g id="edge11" class="edge">
<title>/robot_base_controller/cmd_vel_unstamped&#45;&gt;/ros_gz_bridge</title>
<path fill="none" stroke="#8a8984" d="M1020.72,-478.84C1020.09,-469.65 1019.35,-458.69 1018.69,-449.11"/>
<polygon fill="#8a8984" stroke="#8a8984" points="1020.78,-448.88 1018.28,-443.04 1016.59,-449.17 1020.78,-448.88"/>
</g>
<!-- /scan&#45;&gt;/global_costmap/global_costmap -->
<g id="edge15" class="edge">
<title>/scan&#45;&gt;/global_costmap/global_costmap</title>
<path fill="none" stroke="#8a8984" d="M1298.28,-328.07C1302.08,-318.79 1306.61,-307.72 1310.55,-298.07"/>
<polygon fill="#8a8984" stroke="#8a8984" points="1312.59,-298.62 1312.92,-292.27 1308.71,-297.03 1312.59,-298.62"/>
</g>
<!-- /scan&#45;&gt;/local_costmap/local_costmap -->
<g id="edge14" class="edge">
<title>/scan&#45;&gt;/local_costmap/local_costmap</title>
<path fill="none" stroke="#8a8984" d="M1405.29,-328.56C1474.54,-316.79 1561.61,-302 1626.94,-290.9"/>
<polygon fill="#8a8984" stroke="#8a8984" points="1627.62,-292.92 1633.19,-289.84 1626.92,-288.78 1627.62,-292.92"/>
</g>
<!-- /scan&#45;&gt;/rviz2 -->
<g id="edge13" class="edge">
<title>/scan&#45;&gt;/rviz2</title>
<path fill="none" stroke="#8a8984" d="M1225.5,-328.11C1191.2,-317.46 1148.34,-304.12 1110.09,-292.12 1105.21,-290.6 1100.09,-288.99 1095.02,-287.39"/>
<polygon fill="#8a8984" stroke="#8a8984" points="1095.47,-285.32 1089.11,-285.52 1094.2,-289.33 1095.47,-285.32"/>
</g>
<!-- /tf&#45;&gt;/behavior_server -->
<g id="edge19" class="edge">
<title>/tf&#45;&gt;/behavior_server</title>
<path fill="none" stroke="#8a8984" d="M955.74,-183.81C1063.04,-169.92 1228.11,-148.56 1329.25,-135.47"/>
<polygon fill="#8a8984" stroke="#8a8984" points="1329.53,-137.55 1335.22,-134.7 1329,-133.38 1329.53,-137.55"/>
</g>
<!-- /tf&#45;&gt;/bt_navigator -->
<g id="edge20" class="edge">
<title>/tf&#45;&gt;/bt_navigator</title>
<path fill="none" stroke="#8a8984" d="M746.36,-180.61C660.79,-166.93 541.97,-147.93 466.05,-135.8"/>
<polygon fill="#8a8984" stroke="#8a8984" points="466,-133.66 459.75,-134.79 465.34,-137.81 466,-133.66"/>
</g>
<!-- action:/compute_path_to_pose&#45;&gt;/planner_server -->
<g id="edge23" class="edge">
<title>action:/compute_path_to_pose&#45;&gt;/planner_server</title>
<path fill="none" stroke="#8a8984" stroke-dasharray="5,2" d="M555.09,-629.69C555.09,-619.76 555.09,-609.09 555.09,-599.91"/>
<polygon fill="#8a8984" stroke="#8a8984" points="557.19,-599.82 555.09,-593.82 552.99,-599.82 557.19,-599.82"/>
</g>
<!-- action:/follow_path&#45;&gt;/controller_server -->
<g id="edge27" class="edge">
<title>action:/follow_path&#45;&gt;/controller_server</title>
<path fill="none" stroke="#8a8984" stroke-dasharray="5,2" d="M1022.7,-629.69C1022.59,-619.76 1022.47,-609.09 1022.36,-599.91"/>
<polygon fill="#8a8984" stroke="#8a8984" points="1024.46,-599.79 1022.29,-593.82 1020.26,-599.84 1024.46,-599.79"/>
</g>
<!-- action:/navigate_to_pose&#45;&gt;/bt_navigator -->
<g id="edge31" class="edge">
<title>action:/navigate_to_pose&#45;&gt;/bt_navigator</title>
<path fill="none" stroke="#8a8984" stroke-dasharray="5,2" d="M362.57,-68.59C370.17,-78.8 377.68,-89.79 383.39,-99.14"/>
<polygon fill="#8a8984" stroke="#8a8984" points="381.66,-100.34 386.52,-104.43 385.27,-98.2 381.66,-100.34"/>
</g>
<!-- legend0 -->
<g id="node24" class="node">
<title>legend0</title>
<ellipse fill="#d6e6f9" stroke="#2a78d6" stroke-width="2" cx="2513.09" cy="-752.63" rx="172.57" ry="18.27"/>
<text text-anchor="middle" x="2513.09" y="-748.83" font-family="Helvetica,sans-Serif" font-size="16.00">Notre solution / Our solution</text>
</g>
<!-- legend1 -->
<g id="node25" class="node">
<title>legend1</title>
<ellipse fill="#d3f0e4" stroke="#1baf7a" stroke-width="2" cx="2277.09" cy="-752.63" rx="41.94" ry="18.27"/>
<text text-anchor="middle" x="2277.09" y="-748.83" font-family="Helvetica,sans-Serif" font-size="16.00">Nav2</text>
</g>
<!-- legend2 -->
<g id="node26" class="node">
<title>legend2</title>
<ellipse fill="#fbe0d4" stroke="#eb6834" stroke-width="2" cx="2073.09" cy="-752.63" rx="140.93" ry="18.27"/>
<text text-anchor="middle" x="2073.09" y="-748.83" font-family="Helvetica,sans-Serif" font-size="16.00">Simulateur / Simulator</text>
</g>
<!-- legend3 -->
<g id="node27" class="node">
<title>legend3</title>
<ellipse fill="#eeeeec" stroke="#8a8984" stroke-width="2" cx="1824.09" cy="-752.63" rx="86.03" ry="18.27"/>
<text text-anchor="middle" x="1824.09" y="-748.83" font-family="Helvetica,sans-Serif" font-size="16.00">Autre / Other</text>
</g>
</g>
</svg>
